0
SECTION
2
HEADER
9
$INSUNITS
70
4
9
$ACADVER
1
AC1014
9
$HANDSEED
5
FFFF
0
ENDSEC
0
SECTION
2
TABLES
0
TABLE
2
VPORT
5
8
100
AcDbSymbolTable
0
ENDTAB
0
TABLE
2
LTYPE
5
5
100
AcDbSymbolTable
0
LTYPE
5
14
100
AcDbSymbolTableRecord
100
AcDbLinetypeTableRecord
2
BYBLOCK
70
0
0
LTYPE
5
15
100
AcDbSymbolTableRecord
100
AcDbLinetypeTableRecord
2
BYLAYER
70
0
0
ENDTAB
0
TABLE
2
LAYER
5
2
100
AcDbSymbolTable
70
2
0
LAYER
5
50
100
AcDbSymbolTableRecord
100
AcDbLayerTableRecord
2
0
70
0
6
CONTINUOUS
0
ENDTAB
0
TABLE
2
STYLE
5
3
100
AcDbSymbolTable
70
1
0
STYLE
5
11
100
AcDbSymbolTableRecord
100
AcDbTextStyleTableRecord
2
STANDARD
70
0
0
ENDTAB
0
TABLE
2
VIEW
5
6
100
AcDbSymbolTable
70
0
0
ENDTAB
0
TABLE
2
UCS
5
7
100
AcDbSymbolTable
70
0
0
ENDTAB
0
TABLE
2
APPID
5
9
100
AcDbSymbolTable
70
2
0
APPID
5
12
100
AcDbSymbolTableRecord
100
AcDbRegAppTableRecord
2
ACAD
70
0
0
ENDTAB
0
TABLE
2
DIMSTYLE
5
A
100
AcDbSymbolTable
70
1
0
ENDTAB
0
TABLE
2
BLOCK_RECORD
5
1
100
AcDbSymbolTable
70
1
0
BLOCK_RECORD
5
1F
100
AcDbSymbolTableRecord
100
AcDbBlockTableRecord
2
*MODEL_SPACE
0
BLOCK_RECORD
5
1B
100
AcDbSymbolTableRecord
100
AcDbBlockTableRecord
2
*PAPER_SPACE
0
ENDTAB
0
ENDSEC
0
SECTION
2
BLOCKS
0
BLOCK
5
20
100
AcDbEntity
100
AcDbBlockBegin
2
*MODEL_SPACE
0
ENDBLK
5
21
100
AcDbEntity
100
AcDbBlockEnd
0
BLOCK
5
1C
100
AcDbEntity
100
AcDbBlockBegin
2
*PAPER_SPACE
0
ENDBLK
5
1D
100
AcDbEntity
100
AcDbBlockEnd
0
ENDSEC
0
SECTION
2
ENTITIES
0
LWPOLYLINE
5
100
100
AcDbEntity
8
0
100
AcDbPolyline
90
6
70
1
43
0.0
10
-151.20968388981265
20
121.29031187201184
10
-153.33257500022472
20
119.16742076159976
10
-152.55554292434573
20
116.26749757530868
10
-149.65561973805467
20
115.4904654994297
10
-147.5327286276426
20
117.61335660984179
10
-148.30976070352159
20
120.51327979613285
0
LWPOLYLINE
5
101
100
AcDbEntity
8
0
100
AcDbPolyline
90
6
70
1
43
0.0
10
-148.30976070352162
20
0.34684723174873255
10
-147.53272862764263
20
3.2467704180398016
10
-149.65561973805472
20
5.3696615284518856
10
-152.55554292434579
20
4.5926294525729006
10
-153.33257500022478
20
1.6927062662818493
10
-151.20968388981268
20
-0.43018484413025249
0
LWPOLYLINE
5
102
100
AcDbEntity
8
0
100
AcDbPolyline
90
6
70
1
43
0.0
10
0.82917060550503408
20
-0.4301848441301992
10
2.9520617159171181
20
1.6927062662818848
10
2.175029640038133
20
4.5926294525729539
10
-0.72489354625293601
20
5.3696615284519034
10
-2.84778465666502
20
3.2467704180398194
10
-2.0707525807860705
20
0.34684723174878584
0
LWPOLYLINE
5
103
100
AcDbEntity
8
0
100
AcDbPolyline
90
6
70
1
43
0.0
10
2.1751161401678587
20
116.26758407543846
10
2.9521482160468793
20
119.16750726172951
10
0.82925710563479527
20
121.2903983721416
10
-2.0706660806562738
20
120.51336629626265
10
-2.8476981565352588
20
117.61344310997158
10
-0.72480704612321034
20
115.4905519995595
0
LWPOLYLINE
5
104
100
AcDbEntity
8
0
100
AcDbPolyline
90
10
70
1
43
0.0
10
5.4916083578461325
20
119.82994451394094
10
5.4914783578461543
20
119.82994451394094
10
5.4914783578461401
20
1.0303985139409391
42
-0.41421356237309531
10
1.491478357846141
20
-2.9696014860590618
10
-151.87199164215383
20
-2.9696014860590565
42
-0.41421356237309309
10
-155.87199164215383
20
1.0303985139409377
10
-155.87199164215383
20
119.82972851394089
42
-0.41421356237309115
10
-151.87199164215386
20
123.82972851394089
10
-151.87199164215386
20
123.82994451394094
10
1.4916083578461308
20
123.82994451394094
42
-0.41421356237309309
0
ENDSEC
0
SECTION
2
OBJECTS
0
DICTIONARY
5
C
100
AcDbDictionary
3
ACAD_GROUP
350
D
3
ACAD_MLINESTYLE
350
17
0
DICTIONARY
5
D
100
AcDbDictionary
0
DICTIONARY
5
1A
330
C
100
AcDbDictionary
0
DICTIONARY
5
17
100
AcDbDictionary
0
ENDSEC
0
EOF
