0
SECTION
2
HEADER
9
$INSUNITS
70
4
9
$ACADVER
1
AC1014
9
$HANDSEED
5
FFFF
0
ENDSEC
0
SECTION
2
TABLES
0
TABLE
2
VPORT
5
8
100
AcDbSymbolTable
0
ENDTAB
0
TABLE
2
LTYPE
5
5
100
AcDbSymbolTable
0
LTYPE
5
14
100
AcDbSymbolTableRecord
100
AcDbLinetypeTableRecord
2
BYBLOCK
70
0
0
LTYPE
5
15
100
AcDbSymbolTableRecord
100
AcDbLinetypeTableRecord
2
BYLAYER
70
0
0
ENDTAB
0
TABLE
2
LAYER
5
2
100
AcDbSymbolTable
70
2
0
LAYER
5
50
100
AcDbSymbolTableRecord
100
AcDbLayerTableRecord
2
0
70
0
6
CONTINUOUS
0
ENDTAB
0
TABLE
2
STYLE
5
3
100
AcDbSymbolTable
70
1
0
STYLE
5
11
100
AcDbSymbolTableRecord
100
AcDbTextStyleTableRecord
2
STANDARD
70
0
0
ENDTAB
0
TABLE
2
VIEW
5
6
100
AcDbSymbolTable
70
0
0
ENDTAB
0
TABLE
2
UCS
5
7
100
AcDbSymbolTable
70
0
0
ENDTAB
0
TABLE
2
APPID
5
9
100
AcDbSymbolTable
70
2
0
APPID
5
12
100
AcDbSymbolTableRecord
100
AcDbRegAppTableRecord
2
ACAD
70
0
0
ENDTAB
0
TABLE
2
DIMSTYLE
5
A
100
AcDbSymbolTable
70
1
0
ENDTAB
0
TABLE
2
BLOCK_RECORD
5
1
100
AcDbSymbolTable
70
1
0
BLOCK_RECORD
5
1F
100
AcDbSymbolTableRecord
100
AcDbBlockTableRecord
2
*MODEL_SPACE
0
BLOCK_RECORD
5
1B
100
AcDbSymbolTableRecord
100
AcDbBlockTableRecord
2
*PAPER_SPACE
0
ENDTAB
0
ENDSEC
0
SECTION
2
BLOCKS
0
BLOCK
5
20
100
AcDbEntity
100
AcDbBlockBegin
2
*MODEL_SPACE
0
ENDBLK
5
21
100
AcDbEntity
100
AcDbBlockEnd
0
BLOCK
5
1C
100
AcDbEntity
100
AcDbBlockBegin
2
*PAPER_SPACE
0
ENDBLK
5
1D
100
AcDbEntity
100
AcDbBlockEnd
0
ENDSEC
0
SECTION
2
ENTITIES
0
LWPOLYLINE
5
100
100
AcDbEntity
8
0
100
AcDbPolyline
90
4
70
1
43
0.0
10
-127.69002164215372
20
61.754596513940854
10
-121.69002164215371
20
61.754596513940854
10
-121.69002164215371
20
67.754596513940854
10
-127.69002164215372
20
67.754596513940854
0
LWPOLYLINE
5
101
100
AcDbEntity
8
0
100
AcDbPolyline
90
4
70
1
43
0.0
10
-22.690021642153901
20
40.754596513940839
10
-28.690021642153845
20
40.754596513940839
10
-28.690021642153845
20
34.754596513940839
10
-22.690021642153901
20
34.754596513940839
0
LWPOLYLINE
5
102
100
AcDbEntity
8
0
100
AcDbPolyline
90
4
70
1
43
0.0
10
-28.690021642153845
20
43.754596513940847
10
-22.690021642153901
20
43.754596513940847
10
-22.690021642153901
20
49.754596513940839
10
-28.690021642153845
20
49.754596513940839
0
LWPOLYLINE
5
103
100
AcDbEntity
8
0
100
AcDbPolyline
90
4
70
1
43
0.0
10
-121.69002164215371
20
58.754596513940847
10
-127.69002164215372
20
58.754596513940847
10
-127.69002164215372
20
52.754596513940854
10
-121.69002164215371
20
52.754596513940854
0
LWPOLYLINE
5
104
100
AcDbEntity
8
0
100
AcDbPolyline
90
4
70
1
43
0.0
10
-91.690021642153781
20
103.75459651394087
10
-91.690021642153781
20
97.754596513940868
10
-85.690021642153738
20
97.754596513940868
10
-85.690021642153738
20
103.75459651394087
0
LWPOLYLINE
5
105
100
AcDbEntity
8
0
100
AcDbPolyline
90
4
70
1
43
0.0
10
-46.690021642153816
20
103.75459651394087
10
-46.690021642153816
20
97.754596513940868
10
-40.690021642153873
20
97.754596513940868
10
-40.690021642153873
20
103.75459651394087
0
LWPOLYLINE
5
106
100
AcDbEntity
8
0
100
AcDbPolyline
90
4
70
1
43
0.0
10
-37.690021642153901
20
103.75459651394087
10
-37.690021642153901
20
97.754596513940868
10
-31.690021642153816
20
97.754596513940868
10
-31.690021642153816
20
103.75459651394087
0
LWPOLYLINE
5
107
100
AcDbEntity
8
0
100
AcDbPolyline
90
4
70
1
43
0.0
10
-64.690021642153795
20
103.75459651394087
10
-64.690021642153795
20
97.754596513940868
10
-58.690021642153845
20
97.754596513940868
10
-58.690021642153845
20
103.75459651394087
0
LWPOLYLINE
5
108
100
AcDbEntity
8
0
100
AcDbPolyline
90
4
70
1
43
0.0
10
-49.690021642153788
20
97.754596513940868
10
-49.690021642153788
20
103.75459651394087
10
-55.690021642153873
20
103.75459651394087
10
-55.690021642153873
20
97.754596513940868
0
LWPOLYLINE
5
109
100
AcDbEntity
8
0
100
AcDbPolyline
90
4
70
1
43
0.0
10
-127.69002164215372
20
79.754596513940868
10
-121.69002164215371
20
79.754596513940868
10
-121.69002164215371
20
85.754596513940854
10
-127.69002164215372
20
85.754596513940854
0
LWPOLYLINE
5
110
100
AcDbEntity
8
0
100
AcDbPolyline
90
4
70
1
43
0.0
10
-121.69002164215371
20
76.754596513940854
10
-127.69002164215372
20
76.754596513940854
10
-127.69002164215372
20
70.754596513940854
10
-121.69002164215371
20
70.754596513940854
0
LWPOLYLINE
5
111
100
AcDbEntity
8
0
100
AcDbPolyline
90
4
70
1
43
0.0
10
-127.69002164215372
20
97.754596513940868
10
-121.69002164215371
20
97.754596513940868
10
-121.69002164215371
20
103.75459651394087
10
-127.69002164215372
20
103.75459651394087
0
LWPOLYLINE
5
112
100
AcDbEntity
8
0
100
AcDbPolyline
90
4
70
1
43
0.0
10
-121.69002164215371
20
94.754596513940868
10
-127.69002164215372
20
94.754596513940868
10
-127.69002164215372
20
88.754596513940868
10
-121.69002164215371
20
88.754596513940868
0
LWPOLYLINE
5
113
100
AcDbEntity
8
0
100
AcDbPolyline
90
4
70
1
43
0.0
10
-118.69002164215374
20
103.75459651394087
10
-118.69002164215374
20
97.754596513940868
10
-112.69002164215372
20
97.754596513940868
10
-112.69002164215372
20
103.75459651394087
0
LWPOLYLINE
5
114
100
AcDbEntity
8
0
100
AcDbPolyline
90
4
70
1
43
0.0
10
-28.690021642153845
20
103.75459651394087
10
-28.690021642153845
20
97.754596513940868
10
-22.690021642153901
20
97.754596513940868
10
-22.690021642153901
20
103.75459651394087
0
LWPOLYLINE
5
115
100
AcDbEntity
8
0
100
AcDbPolyline
90
4
70
1
43
0.0
10
-22.690021642153901
20
94.754596513940868
10
-28.690021642153845
20
94.754596513940868
10
-28.690021642153845
20
88.754596513940868
10
-22.690021642153901
20
88.754596513940868
0
LWPOLYLINE
5
116
100
AcDbEntity
8
0
100
AcDbPolyline
90
4
70
1
43
0.0
10
-28.690021642153845
20
52.754596513940854
10
-22.690021642153901
20
52.754596513940854
10
-22.690021642153901
20
58.754596513940847
10
-28.690021642153845
20
58.754596513940847
0
LWPOLYLINE
5
117
100
AcDbEntity
8
0
100
AcDbPolyline
90
4
70
1
43
0.0
10
-28.690021642153845
20
61.754596513940854
10
-22.690021642153901
20
61.754596513940854
10
-22.690021642153901
20
67.754596513940854
10
-28.690021642153845
20
67.754596513940854
0
LWPOLYLINE
5
118
100
AcDbEntity
8
0
100
AcDbPolyline
90
4
70
1
43
0.0
10
-109.69002164215375
20
103.75459651394087
10
-109.69002164215375
20
97.754596513940868
10
-103.69002164215374
20
97.754596513940868
10
-103.69002164215374
20
103.75459651394087
0
LWPOLYLINE
5
119
100
AcDbEntity
8
0
100
AcDbPolyline
90
4
70
1
43
0.0
10
-94.690021642153752
20
97.754596513940868
10
-94.690021642153752
20
103.75459651394087
10
-100.69002164215377
20
103.75459651394087
10
-100.69002164215377
20
97.754596513940868
0
LWPOLYLINE
5
120
100
AcDbEntity
8
0
100
AcDbPolyline
90
4
70
1
43
0.0
10
-82.690021642153766
20
103.75459651394087
10
-82.690021642153766
20
97.754596513940868
10
-76.690021642153823
20
97.754596513940868
10
-76.690021642153823
20
103.75459651394087
0
LWPOLYLINE
5
121
100
AcDbEntity
8
0
100
AcDbPolyline
90
4
70
1
43
0.0
10
-67.690021642153766
20
97.754596513940868
10
-67.690021642153766
20
103.75459651394087
10
-73.690021642153852
20
103.75459651394087
10
-73.690021642153852
20
97.754596513940868
0
LWPOLYLINE
5
122
100
AcDbEntity
8
0
100
AcDbPolyline
90
4
70
1
43
0.0
10
-22.690021642153901
20
85.754596513940854
10
-28.690021642153845
20
85.754596513940854
10
-28.690021642153845
20
79.754596513940868
10
-22.690021642153901
20
79.754596513940868
0
LWPOLYLINE
5
123
100
AcDbEntity
8
0
100
AcDbPolyline
90
4
70
1
43
0.0
10
-28.690021642153845
20
70.754596513940854
10
-22.690021642153901
20
70.754596513940854
10
-22.690021642153901
20
76.754596513940854
10
-28.690021642153845
20
76.754596513940854
0
LWPOLYLINE
5
124
100
AcDbEntity
8
0
100
AcDbPolyline
90
4
70
1
43
0.0
10
-121.69002164215371
20
49.754596513940839
10
-127.69002164215372
20
49.754596513940839
10
-127.69002164215372
20
43.754596513940847
10
-121.69002164215371
20
43.754596513940847
0
LWPOLYLINE
5
125
100
AcDbEntity
8
0
100
AcDbPolyline
90
4
70
1
43
0.0
10
-76.690021642153823
20
34.754596513940839
10
-76.690021642153823
20
40.754596513940839
10
-82.690021642153766
20
40.754596513940839
10
-82.690021642153766
20
34.754596513940839
0
LWPOLYLINE
5
126
100
AcDbEntity
8
0
100
AcDbPolyline
90
4
70
1
43
0.0
10
-112.69002164215372
20
34.754596513940839
10
-112.69002164215372
20
40.754596513940839
10
-118.69002164215374
20
40.754596513940839
10
-118.69002164215374
20
34.754596513940839
0
LWPOLYLINE
5
127
100
AcDbEntity
8
0
100
AcDbPolyline
90
4
70
1
43
0.0
10
-58.690021642153845
20
34.754596513940839
10
-58.690021642153845
20
40.754596513940839
10
-64.690021642153795
20
40.754596513940839
10
-64.690021642153795
20
34.754596513940839
0
LWPOLYLINE
5
128
100
AcDbEntity
8
0
100
AcDbPolyline
90
4
70
1
43
0.0
10
-94.690021642153752
20
34.754596513940839
10
-94.690021642153752
20
40.754596513940839
10
-100.69002164215377
20
40.754596513940839
10
-100.69002164215377
20
34.754596513940839
0
LWPOLYLINE
5
129
100
AcDbEntity
8
0
100
AcDbPolyline
90
4
70
1
43
0.0
10
-85.690021642153738
20
40.754596513940839
10
-91.690021642153781
20
40.754596513940839
10
-91.690021642153781
20
34.754596513940839
10
-85.690021642153738
20
34.754596513940839
0
LWPOLYLINE
5
130
100
AcDbEntity
8
0
100
AcDbPolyline
90
4
70
1
43
0.0
10
-103.69002164215374
20
40.754596513940839
10
-109.69002164215375
20
40.754596513940839
10
-109.69002164215375
20
34.754596513940839
10
-103.69002164215374
20
34.754596513940839
0
LWPOLYLINE
5
131
100
AcDbEntity
8
0
100
AcDbPolyline
90
4
70
1
43
0.0
10
-67.690021642153766
20
40.754596513940839
10
-73.690021642153852
20
40.754596513940839
10
-73.690021642153852
20
34.754596513940839
10
-67.690021642153766
20
34.754596513940839
0
LWPOLYLINE
5
132
100
AcDbEntity
8
0
100
AcDbPolyline
90
4
70
1
43
0.0
10
-31.690021642153816
20
34.754596513940839
10
-31.690021642153816
20
40.754596513940839
10
-37.690021642153901
20
40.754596513940839
10
-37.690021642153901
20
34.754596513940839
0
LWPOLYLINE
5
133
100
AcDbEntity
8
0
100
AcDbPolyline
90
4
70
1
43
0.0
10
-40.690021642153873
20
34.754596513940839
10
-40.690021642153873
20
40.754596513940839
10
-46.690021642153816
20
40.754596513940839
10
-46.690021642153816
20
34.754596513940839
0
LWPOLYLINE
5
134
100
AcDbEntity
8
0
100
AcDbPolyline
90
4
70
1
43
0.0
10
-49.690021642153788
20
40.754596513940839
10
-55.690021642153873
20
40.754596513940839
10
-55.690021642153873
20
34.754596513940839
10
-49.690021642153788
20
34.754596513940839
0
LWPOLYLINE
5
135
100
AcDbEntity
8
0
100
AcDbPolyline
90
4
70
1
43
0.0
10
-37.690021642153901
20
79.754596513940868
10
-31.690021642153816
20
79.754596513940868
10
-31.690021642153816
20
85.754596513940854
10
-37.690021642153901
20
85.754596513940854
0
LWPOLYLINE
5
136
100
AcDbEntity
8
0
100
AcDbPolyline
90
4
70
1
43
0.0
10
-64.690021642153795
20
88.754596513940868
10
-58.690021642153845
20
88.754596513940868
10
-58.690021642153845
20
94.754596513940868
10
-64.690021642153795
20
94.754596513940868
0
LWPOLYLINE
5
137
100
AcDbEntity
8
0
100
AcDbPolyline
90
4
70
1
43
0.0
10
-118.69002164215374
20
88.754596513940868
10
-112.69002164215372
20
88.754596513940868
10
-112.69002164215372
20
94.754596513940868
10
-118.69002164215374
20
94.754596513940868
0
LWPOLYLINE
5
138
100
AcDbEntity
8
0
100
AcDbPolyline
90
4
70
1
43
0.0
10
-73.690021642153852
20
61.754596513940854
10
-67.690021642153766
20
61.754596513940854
10
-67.690021642153766
20
67.754596513940854
10
-73.690021642153852
20
67.754596513940854
0
LWPOLYLINE
5
139
100
AcDbEntity
8
0
100
AcDbPolyline
90
4
70
1
43
0.0
10
-73.690021642153852
20
52.754596513940854
10
-67.690021642153766
20
52.754596513940854
10
-67.690021642153766
20
58.754596513940847
10
-73.690021642153852
20
58.754596513940847
0
LWPOLYLINE
5
140
100
AcDbEntity
8
0
100
AcDbPolyline
90
4
70
1
43
0.0
10
-118.69002164215374
20
70.754596513940854
10
-112.69002164215372
20
70.754596513940854
10
-112.69002164215372
20
76.754596513940854
10
-118.69002164215374
20
76.754596513940854
0
LWPOLYLINE
5
141
100
AcDbEntity
8
0
100
AcDbPolyline
90
4
70
1
43
0.0
10
-109.69002164215375
20
88.754596513940868
10
-103.69002164215374
20
88.754596513940868
10
-103.69002164215374
20
94.754596513940868
10
-109.69002164215375
20
94.754596513940868
0
LWPOLYLINE
5
142
100
AcDbEntity
8
0
100
AcDbPolyline
90
4
70
1
43
0.0
10
-82.690021642153766
20
61.754596513940854
10
-76.690021642153823
20
61.754596513940854
10
-76.690021642153823
20
67.754596513940854
10
-82.690021642153766
20
67.754596513940854
0
LWPOLYLINE
5
143
100
AcDbEntity
8
0
100
AcDbPolyline
90
4
70
1
43
0.0
10
-64.690021642153795
20
43.754596513940847
10
-58.690021642153845
20
43.754596513940847
10
-58.690021642153845
20
49.754596513940839
10
-64.690021642153795
20
49.754596513940839
0
LWPOLYLINE
5
144
100
AcDbEntity
8
0
100
AcDbPolyline
90
4
70
1
43
0.0
10
-109.69002164215375
20
70.754596513940854
10
-103.69002164215374
20
70.754596513940854
10
-103.69002164215374
20
76.754596513940854
10
-109.69002164215375
20
76.754596513940854
0
LWPOLYLINE
5
145
100
AcDbEntity
8
0
100
AcDbPolyline
90
4
70
1
43
0.0
10
-55.690021642153873
20
70.754596513940854
10
-49.690021642153788
20
70.754596513940854
10
-49.690021642153788
20
76.754596513940854
10
-55.690021642153873
20
76.754596513940854
0
LWPOLYLINE
5
146
100
AcDbEntity
8
0
100
AcDbPolyline
90
4
70
1
43
0.0
10
-82.690021642153766
20
79.754596513940868
10
-76.690021642153823
20
79.754596513940868
10
-76.690021642153823
20
85.754596513940854
10
-82.690021642153766
20
85.754596513940854
0
LWPOLYLINE
5
147
100
AcDbEntity
8
0
100
AcDbPolyline
90
4
70
1
43
0.0
10
-100.69002164215377
20
79.754596513940868
10
-94.690021642153752
20
79.754596513940868
10
-94.690021642153752
20
85.754596513940854
10
-100.69002164215377
20
85.754596513940854
0
LWPOLYLINE
5
148
100
AcDbEntity
8
0
100
AcDbPolyline
90
4
70
1
43
0.0
10
-37.690021642153901
20
61.754596513940854
10
-31.690021642153816
20
61.754596513940854
10
-31.690021642153816
20
67.754596513940854
10
-37.690021642153901
20
67.754596513940854
0
LWPOLYLINE
5
149
100
AcDbEntity
8
0
100
AcDbPolyline
90
4
70
1
43
0.0
10
-37.690021642153901
20
43.754596513940847
10
-31.690021642153816
20
43.754596513940847
10
-31.690021642153816
20
49.754596513940839
10
-37.690021642153901
20
49.754596513940839
0
LWPOLYLINE
5
150
100
AcDbEntity
8
0
100
AcDbPolyline
90
4
70
1
43
0.0
10
-64.690021642153795
20
70.754596513940854
10
-58.690021642153845
20
70.754596513940854
10
-58.690021642153845
20
76.754596513940854
10
-64.690021642153795
20
76.754596513940854
0
LWPOLYLINE
5
151
100
AcDbEntity
8
0
100
AcDbPolyline
90
4
70
1
43
0.0
10
-82.690021642153766
20
88.754596513940868
10
-76.690021642153823
20
88.754596513940868
10
-76.690021642153823
20
94.754596513940868
10
-82.690021642153766
20
94.754596513940868
0
LWPOLYLINE
5
152
100
AcDbEntity
8
0
100
AcDbPolyline
90
4
70
1
43
0.0
10
-91.690021642153781
20
70.754596513940854
10
-85.690021642153738
20
70.754596513940854
10
-85.690021642153738
20
76.754596513940854
10
-91.690021642153781
20
76.754596513940854
0
LWPOLYLINE
5
153
100
AcDbEntity
8
0
100
AcDbPolyline
90
4
70
1
43
0.0
10
-37.690021642153901
20
88.754596513940868
10
-31.690021642153816
20
88.754596513940868
10
-31.690021642153816
20
94.754596513940868
10
-37.690021642153901
20
94.754596513940868
0
LWPOLYLINE
5
154
100
AcDbEntity
8
0
100
AcDbPolyline
90
4
70
1
43
0.0
10
-118.69002164215374
20
43.754596513940847
10
-112.69002164215372
20
43.754596513940847
10
-112.69002164215372
20
49.754596513940839
10
-118.69002164215374
20
49.754596513940839
0
LWPOLYLINE
5
155
100
AcDbEntity
8
0
100
AcDbPolyline
90
4
70
1
43
0.0
10
-73.690021642153852
20
43.754596513940847
10
-67.690021642153766
20
43.754596513940847
10
-67.690021642153766
20
49.754596513940839
10
-73.690021642153852
20
49.754596513940839
0
LWPOLYLINE
5
156
100
AcDbEntity
8
0
100
AcDbPolyline
90
4
70
1
43
0.0
10
-46.690021642153816
20
43.754596513940847
10
-40.690021642153873
20
43.754596513940847
10
-40.690021642153873
20
49.754596513940839
10
-46.690021642153816
20
49.754596513940839
0
LWPOLYLINE
5
157
100
AcDbEntity
8
0
100
AcDbPolyline
90
4
70
1
43
0.0
10
-109.69002164215375
20
52.754596513940854
10
-103.69002164215374
20
52.754596513940854
10
-103.69002164215374
20
58.754596513940847
10
-109.69002164215375
20
58.754596513940847
0
LWPOLYLINE
5
158
100
AcDbEntity
8
0
100
AcDbPolyline
90
4
70
1
43
0.0
10
-55.690021642153873
20
79.754596513940868
10
-49.690021642153788
20
79.754596513940868
10
-49.690021642153788
20
85.754596513940854
10
-55.690021642153873
20
85.754596513940854
0
LWPOLYLINE
5
159
100
AcDbEntity
8
0
100
AcDbPolyline
90
4
70
1
43
0.0
10
-100.69002164215377
20
88.754596513940868
10
-94.690021642153752
20
88.754596513940868
10
-94.690021642153752
20
94.754596513940868
10
-100.69002164215377
20
94.754596513940868
0
LWPOLYLINE
5
160
100
AcDbEntity
8
0
100
AcDbPolyline
90
4
70
1
43
0.0
10
-73.690021642153852
20
79.754596513940868
10
-67.690021642153766
20
79.754596513940868
10
-67.690021642153766
20
85.754596513940854
10
-73.690021642153852
20
85.754596513940854
0
LWPOLYLINE
5
161
100
AcDbEntity
8
0
100
AcDbPolyline
90
4
70
1
43
0.0
10
-64.690021642153795
20
52.754596513940854
10
-58.690021642153845
20
52.754596513940854
10
-58.690021642153845
20
58.754596513940847
10
-64.690021642153795
20
58.754596513940847
0
LWPOLYLINE
5
162
100
AcDbEntity
8
0
100
AcDbPolyline
90
4
70
1
43
0.0
10
-55.690021642153873
20
52.754596513940854
10
-49.690021642153788
20
52.754596513940854
10
-49.690021642153788
20
58.754596513940847
10
-55.690021642153873
20
58.754596513940847
0
LWPOLYLINE
5
163
100
AcDbEntity
8
0
100
AcDbPolyline
90
4
70
1
43
0.0
10
-46.690021642153816
20
61.754596513940854
10
-40.690021642153873
20
61.754596513940854
10
-40.690021642153873
20
67.754596513940854
10
-46.690021642153816
20
67.754596513940854
0
LWPOLYLINE
5
164
100
AcDbEntity
8
0
100
AcDbPolyline
90
4
70
1
43
0.0
10
-82.690021642153766
20
52.754596513940854
10
-76.690021642153823
20
52.754596513940854
10
-76.690021642153823
20
58.754596513940847
10
-82.690021642153766
20
58.754596513940847
0
LWPOLYLINE
5
165
100
AcDbEntity
8
0
100
AcDbPolyline
90
4
70
1
43
0.0
10
-109.69002164215375
20
43.754596513940847
10
-103.69002164215374
20
43.754596513940847
10
-103.69002164215374
20
49.754596513940839
10
-109.69002164215375
20
49.754596513940839
0
LWPOLYLINE
5
166
100
AcDbEntity
8
0
100
AcDbPolyline
90
4
70
1
43
0.0
10
-73.690021642153852
20
88.754596513940868
10
-67.690021642153766
20
88.754596513940868
10
-67.690021642153766
20
94.754596513940868
10
-73.690021642153852
20
94.754596513940868
0
LWPOLYLINE
5
167
100
AcDbEntity
8
0
100
AcDbPolyline
90
4
70
1
43
0.0
10
-109.69002164215375
20
61.754596513940854
10
-103.69002164215374
20
61.754596513940854
10
-103.69002164215374
20
67.754596513940854
10
-109.69002164215375
20
67.754596513940854
0
LWPOLYLINE
5
168
100
AcDbEntity
8
0
100
AcDbPolyline
90
4
70
1
43
0.0
10
-91.690021642153781
20
52.754596513940854
10
-85.690021642153738
20
52.754596513940854
10
-85.690021642153738
20
58.754596513940847
10
-91.690021642153781
20
58.754596513940847
0
LWPOLYLINE
5
169
100
AcDbEntity
8
0
100
AcDbPolyline
90
4
70
1
43
0.0
10
-118.69002164215374
20
79.754596513940868
10
-112.69002164215372
20
79.754596513940868
10
-112.69002164215372
20
85.754596513940854
10
-118.69002164215374
20
85.754596513940854
0
LWPOLYLINE
5
170
100
AcDbEntity
8
0
100
AcDbPolyline
90
4
70
1
43
0.0
10
-55.690021642153873
20
61.754596513940854
10
-49.690021642153788
20
61.754596513940854
10
-49.690021642153788
20
67.754596513940854
10
-55.690021642153873
20
67.754596513940854
0
LWPOLYLINE
5
171
100
AcDbEntity
8
0
100
AcDbPolyline
90
4
70
1
43
0.0
10
-100.69002164215377
20
43.754596513940847
10
-94.690021642153752
20
43.754596513940847
10
-94.690021642153752
20
49.754596513940839
10
-100.69002164215377
20
49.754596513940839
0
LWPOLYLINE
5
172
100
AcDbEntity
8
0
100
AcDbPolyline
90
4
70
1
43
0.0
10
-46.690021642153816
20
79.754596513940868
10
-40.690021642153873
20
79.754596513940868
10
-40.690021642153873
20
85.754596513940854
10
-46.690021642153816
20
85.754596513940854
0
LWPOLYLINE
5
173
100
AcDbEntity
8
0
100
AcDbPolyline
90
4
70
1
43
0.0
10
-46.690021642153816
20
88.754596513940868
10
-40.690021642153873
20
88.754596513940868
10
-40.690021642153873
20
94.754596513940868
10
-46.690021642153816
20
94.754596513940868
0
LWPOLYLINE
5
174
100
AcDbEntity
8
0
100
AcDbPolyline
90
4
70
1
43
0.0
10
-37.690021642153901
20
70.754596513940854
10
-31.690021642153816
20
70.754596513940854
10
-31.690021642153816
20
76.754596513940854
10
-37.690021642153901
20
76.754596513940854
0
LWPOLYLINE
5
175
100
AcDbEntity
8
0
100
AcDbPolyline
90
4
70
1
43
0.0
10
-118.69002164215374
20
52.754596513940854
10
-112.69002164215372
20
52.754596513940854
10
-112.69002164215372
20
58.754596513940847
10
-118.69002164215374
20
58.754596513940847
0
LWPOLYLINE
5
176
100
AcDbEntity
8
0
100
AcDbPolyline
90
4
70
1
43
0.0
10
-55.690021642153873
20
43.754596513940847
10
-49.690021642153788
20
43.754596513940847
10
-49.690021642153788
20
49.754596513940839
10
-55.690021642153873
20
49.754596513940839
0
LWPOLYLINE
5
177
100
AcDbEntity
8
0
100
AcDbPolyline
90
4
70
1
43
0.0
10
-91.690021642153781
20
88.754596513940868
10
-85.690021642153738
20
88.754596513940868
10
-85.690021642153738
20
94.754596513940868
10
-91.690021642153781
20
94.754596513940868
0
LWPOLYLINE
5
178
100
AcDbEntity
8
0
100
AcDbPolyline
90
4
70
1
43
0.0
10
-109.69002164215375
20
79.754596513940868
10
-103.69002164215374
20
79.754596513940868
10
-103.69002164215374
20
85.754596513940854
10
-109.69002164215375
20
85.754596513940854
0
LWPOLYLINE
5
179
100
AcDbEntity
8
0
100
AcDbPolyline
90
4
70
1
43
0.0
10
-46.690021642153816
20
70.754596513940854
10
-40.690021642153873
20
70.754596513940854
10
-40.690021642153873
20
76.754596513940854
10
-46.690021642153816
20
76.754596513940854
0
LWPOLYLINE
5
180
100
AcDbEntity
8
0
100
AcDbPolyline
90
4
70
1
43
0.0
10
-37.690021642153901
20
52.754596513940854
10
-31.690021642153816
20
52.754596513940854
10
-31.690021642153816
20
58.754596513940847
10
-37.690021642153901
20
58.754596513940847
0
LWPOLYLINE
5
181
100
AcDbEntity
8
0
100
AcDbPolyline
90
4
70
1
43
0.0
10
-91.690021642153781
20
79.754596513940868
10
-85.690021642153738
20
79.754596513940868
10
-85.690021642153738
20
85.754596513940854
10
-91.690021642153781
20
85.754596513940854
0
LWPOLYLINE
5
182
100
AcDbEntity
8
0
100
AcDbPolyline
90
4
70
1
43
0.0
10
-100.69002164215377
20
70.754596513940854
10
-94.690021642153752
20
70.754596513940854
10
-94.690021642153752
20
76.754596513940854
10
-100.69002164215377
20
76.754596513940854
0
LWPOLYLINE
5
183
100
AcDbEntity
8
0
100
AcDbPolyline
90
4
70
1
43
0.0
10
-82.690021642153766
20
70.754596513940854
10
-76.690021642153823
20
70.754596513940854
10
-76.690021642153823
20
76.754596513940854
10
-82.690021642153766
20
76.754596513940854
0
LWPOLYLINE
5
184
100
AcDbEntity
8
0
100
AcDbPolyline
90
4
70
1
43
0.0
10
-91.690021642153781
20
61.754596513940854
10
-85.690021642153738
20
61.754596513940854
10
-85.690021642153738
20
67.754596513940854
10
-91.690021642153781
20
67.754596513940854
0
LWPOLYLINE
5
185
100
AcDbEntity
8
0
100
AcDbPolyline
90
4
70
1
43
0.0
10
-100.69002164215377
20
52.754596513940854
10
-94.690021642153752
20
52.754596513940854
10
-94.690021642153752
20
58.754596513940847
10
-100.69002164215377
20
58.754596513940847
0
LWPOLYLINE
5
186
100
AcDbEntity
8
0
100
AcDbPolyline
90
4
70
1
43
0.0
10
-73.690021642153852
20
70.754596513940854
10
-67.690021642153766
20
70.754596513940854
10
-67.690021642153766
20
76.754596513940854
10
-73.690021642153852
20
76.754596513940854
0
LWPOLYLINE
5
187
100
AcDbEntity
8
0
100
AcDbPolyline
90
4
70
1
43
0.0
10
-64.690021642153795
20
79.754596513940868
10
-58.690021642153845
20
79.754596513940868
10
-58.690021642153845
20
85.754596513940854
10
-64.690021642153795
20
85.754596513940854
0
LWPOLYLINE
5
188
100
AcDbEntity
8
0
100
AcDbPolyline
90
4
70
1
43
0.0
10
-118.69002164215374
20
61.754596513940854
10
-112.69002164215372
20
61.754596513940854
10
-112.69002164215372
20
67.754596513940854
10
-118.69002164215374
20
67.754596513940854
0
LWPOLYLINE
5
189
100
AcDbEntity
8
0
100
AcDbPolyline
90
4
70
1
43
0.0
10
-46.690021642153816
20
52.754596513940854
10
-40.690021642153873
20
52.754596513940854
10
-40.690021642153873
20
58.754596513940847
10
-46.690021642153816
20
58.754596513940847
0
LWPOLYLINE
5
190
100
AcDbEntity
8
0
100
AcDbPolyline
90
4
70
1
43
0.0
10
-82.690021642153766
20
43.754596513940847
10
-76.690021642153823
20
43.754596513940847
10
-76.690021642153823
20
49.754596513940839
10
-82.690021642153766
20
49.754596513940839
0
LWPOLYLINE
5
191
100
AcDbEntity
8
0
100
AcDbPolyline
90
4
70
1
43
0.0
10
-91.690021642153781
20
43.754596513940847
10
-85.690021642153738
20
43.754596513940847
10
-85.690021642153738
20
49.754596513940839
10
-91.690021642153781
20
49.754596513940839
0
LWPOLYLINE
5
192
100
AcDbEntity
8
0
100
AcDbPolyline
90
4
70
1
43
0.0
10
-64.690021642153795
20
61.754596513940854
10
-58.690021642153845
20
61.754596513940854
10
-58.690021642153845
20
67.754596513940854
10
-64.690021642153795
20
67.754596513940854
0
LWPOLYLINE
5
193
100
AcDbEntity
8
0
100
AcDbPolyline
90
4
70
1
43
0.0
10
-55.690021642153873
20
88.754596513940868
10
-49.690021642153788
20
88.754596513940868
10
-49.690021642153788
20
94.754596513940868
10
-55.690021642153873
20
94.754596513940868
0
LWPOLYLINE
5
194
100
AcDbEntity
8
0
100
AcDbPolyline
90
4
70
1
43
0.0
10
-100.69002164215377
20
61.754596513940854
10
-94.690021642153752
20
61.754596513940854
10
-94.690021642153752
20
67.754596513940854
10
-100.69002164215377
20
67.754596513940854
0
LWPOLYLINE
5
195
100
AcDbEntity
8
0
100
AcDbPolyline
90
6
70
1
43
0.0
10
2.1760266659313388
20
116.26849499190163
10
2.9518146021307601
20
119.16875125840305
10
0.82801296595523155
20
121.29073145235198
10
-2.0715766064197183
20
120.5124553797995
10
-2.8473645426191396
20
117.61219911329809
10
-0.7235629064436111
20
115.49021891934915
0
LWPOLYLINE
5
196
100
AcDbEntity
8
0
100
AcDbPolyline
90
6
70
1
43
0.0
10
-147.53306224155867
20
117.61211261316832
10
-148.30885017775816
20
120.51236887966974
10
-151.20843975013312
20
121.29064495222222
10
-153.33224138630865
20
119.16866475827327
10
-152.55645345010916
20
116.26840849177184
10
-149.6568638777342
20
115.49013241921935
0
LWPOLYLINE
5
197
100
AcDbEntity
8
0
100
AcDbPolyline
90
6
70
1
43
0.0
10
2.9520617159171891
20
1.6927062662819559
10
2.1750296400381686
20
4.5926294525729894
10
-0.72489354625293601
20
5.3696615284519744
10
-2.84778465666502
20
3.2467704180398727
10
-2.0707525807859994
20
0.34684723174878584
10
0.82917060550503408
20
-0.4301848441301992
0
LWPOLYLINE
5
198
100
AcDbEntity
8
0
100
AcDbPolyline
90
6
70
1
43
0.0
10
-147.53272862764263
20
3.2467704180398194
10
-149.65561973805472
20
5.3696615284518856
10
-152.55554292434579
20
4.5926294525729183
10
-153.33257500022478
20
1.692706266281867
10
-151.20968388981268
20
-0.43018484413021696
10
-148.30976070352162
20
0.34684723174875032
0
LWPOLYLINE
5
199
100
AcDbEntity
8
0
100
AcDbPolyline
90
6
70
1
43
0.0
10
-2.5085216421538448
20
22.679596513941096
10
-147.87199164215383
20
22.679596513941096
10
-147.87199164215383
20
5.7758312951275315
10
-144.16488486096728
20
2.0687245139409733
10
-6.215628423340398
20
2.0687245139409733
10
-2.5085216421538448
20
5.7758312951275315
0
LWPOLYLINE
5
200
100
AcDbEntity
8
0
100
AcDbPolyline
90
14
70
1
43
0.0
10
6.9916083578461397
20
119.82994451394097
10
6.9914783578461837
20
119.82994451394097
10
6.991478357846229
20
1.0303985139409573
42
-0.4142135623730952
10
1.4914783578462121
20
-4.4696014860590614
10
-151.87199164215386
20
-4.4696014860590747
42
-0.41421356237309159
10
-157.37199164215386
20
1.0303985139409377
10
-157.37199164215386
20
6.657104513940979
10
-150.11907164215384
20
6.657104513940979
10
-150.11907164215384
20
20.595364513940968
10
-157.37199164215386
20
20.595364513940968
10
-157.37199164215386
20
119.82972851394094
42
-0.41421356237309692
10
-151.87199164215386
20
125.32972851394092
10
1.4916083578461681
20
125.32972851394092
10
1.4916083578461663
20
125.32994451394096
42
-0.41421356237309442
0
LWPOLYLINE
5
201
100
AcDbEntity
8
0
100
AcDbPolyline
90
4
70
1
43
0.0
10
-118.69002164215374
20
106.75459651394087
10
-112.69002164215372
20
106.75459651394087
10
-112.69002164215372
20
112.75459651394087
10
-118.69002164215374
20
112.75459651394087
0
LWPOLYLINE
5
202
100
AcDbEntity
8
0
100
AcDbPolyline
90
4
70
1
43
0.0
10
-109.69002164215375
20
106.75459651394087
10
-103.69002164215374
20
106.75459651394087
10
-103.69002164215374
20
112.75459651394087
10
-109.69002164215375
20
112.75459651394087
0
LWPOLYLINE
5
203
100
AcDbEntity
8
0
100
AcDbPolyline
90
4
70
1
43
0.0
10
-100.69002164215377
20
106.75459651394087
10
-94.690021642153752
20
106.75459651394087
10
-94.690021642153752
20
112.75459651394087
10
-100.69002164215377
20
112.75459651394087
0
LWPOLYLINE
5
204
100
AcDbEntity
8
0
100
AcDbPolyline
90
4
70
1
43
0.0
10
-136.69002164215371
20
79.754596513940868
10
-130.69002164215368
20
79.754596513940868
10
-130.69002164215368
20
85.754596513940854
10
-136.69002164215371
20
85.754596513940854
0
LWPOLYLINE
5
205
100
AcDbEntity
8
0
100
AcDbPolyline
90
4
70
1
43
0.0
10
-136.69002164215371
20
61.754596513940854
10
-130.69002164215368
20
61.754596513940854
10
-130.69002164215368
20
67.754596513940854
10
-136.69002164215371
20
67.754596513940854
0
LWPOLYLINE
5
206
100
AcDbEntity
8
0
100
AcDbPolyline
90
4
70
1
43
0.0
10
-145.69002164215368
20
61.754596513940854
10
-139.69002164215368
20
61.754596513940854
10
-139.69002164215368
20
67.754596513940854
10
-145.69002164215368
20
67.754596513940854
0
LWPOLYLINE
5
207
100
AcDbEntity
8
0
100
AcDbPolyline
90
4
70
1
43
0.0
10
-145.69002164215368
20
52.754596513940854
10
-139.69002164215368
20
52.754596513940854
10
-139.69002164215368
20
58.754596513940847
10
-145.69002164215368
20
58.754596513940847
0
LWPOLYLINE
5
208
100
AcDbEntity
8
0
100
AcDbPolyline
90
4
70
1
43
0.0
10
-136.69002164215371
20
88.754596513940868
10
-130.69002164215368
20
88.754596513940868
10
-130.69002164215368
20
94.754596513940868
10
-136.69002164215371
20
94.754596513940868
0
LWPOLYLINE
5
209
100
AcDbEntity
8
0
100
AcDbPolyline
90
4
70
1
43
0.0
10
-64.690021642153795
20
106.75459651394087
10
-58.690021642153845
20
106.75459651394087
10
-58.690021642153845
20
112.75459651394087
10
-64.690021642153795
20
112.75459651394087
0
LWPOLYLINE
5
210
100
AcDbEntity
8
0
100
AcDbPolyline
90
4
70
1
43
0.0
10
-91.690021642153781
20
25.754596513940839
10
-85.690021642153738
20
25.754596513940839
10
-85.690021642153738
20
31.754596513940836
10
-91.690021642153781
20
31.754596513940836
0
LWPOLYLINE
5
211
100
AcDbEntity
8
0
100
AcDbPolyline
90
4
70
1
43
0.0
10
-55.690021642153873
20
25.754596513940839
10
-49.690021642153788
20
25.754596513940839
10
-49.690021642153788
20
31.754596513940836
10
-55.690021642153873
20
31.754596513940836
0
LWPOLYLINE
5
212
100
AcDbEntity
8
0
100
AcDbPolyline
90
4
70
1
43
0.0
10
-145.69002164215368
20
34.754596513940839
10
-139.69002164215368
20
34.754596513940839
10
-139.69002164215368
20
40.754596513940839
10
-145.69002164215368
20
40.754596513940839
0
LWPOLYLINE
5
213
100
AcDbEntity
8
0
100
AcDbPolyline
90
4
70
1
43
0.0
10
-145.69002164215368
20
106.75459651394087
10
-139.69002164215368
20
106.75459651394087
10
-139.69002164215368
20
112.75459651394087
10
-145.69002164215368
20
112.75459651394087
0
LWPOLYLINE
5
214
100
AcDbEntity
8
0
100
AcDbPolyline
90
4
70
1
43
0.0
10
-10.690021642153873
20
97.754596513940868
10
-4.6900216421539298
20
97.754596513940868
10
-4.6900216421539298
20
103.75459651394087
10
-10.690021642153873
20
103.75459651394087
0
LWPOLYLINE
5
215
100
AcDbEntity
8
0
100
AcDbPolyline
90
4
70
1
43
0.0
10
-127.69002164215372
20
25.754596513940839
10
-121.69002164215371
20
25.754596513940839
10
-121.69002164215371
20
31.754596513940836
10
-127.69002164215372
20
31.754596513940836
0
LWPOLYLINE
5
216
100
AcDbEntity
8
0
100
AcDbPolyline
90
4
70
1
43
0.0
10
-10.690021642153873
20
31.754596513940836
10
-10.690021642153873
20
25.754596513940839
10
-4.6900216421539298
20
25.754596513940839
10
-4.6900216421539298
20
31.754596513940836
0
LWPOLYLINE
5
217
100
AcDbEntity
8
0
100
AcDbPolyline
90
4
70
1
43
0.0
10
-37.690021642153901
20
25.754596513940839
10
-31.690021642153816
20
25.754596513940839
10
-31.690021642153816
20
31.754596513940836
10
-37.690021642153901
20
31.754596513940836
0
LWPOLYLINE
5
218
100
AcDbEntity
8
0
100
AcDbPolyline
90
4
70
1
43
0.0
10
-19.69002164215393
20
52.754596513940854
10
-13.690021642153845
20
52.754596513940854
10
-13.690021642153845
20
58.754596513940847
10
-19.69002164215393
20
58.754596513940847
0
LWPOLYLINE
5
219
100
AcDbEntity
8
0
100
AcDbPolyline
90
4
70
1
43
0.0
10
-10.690021642153873
20
52.754596513940854
10
-4.6900216421539298
20
52.754596513940854
10
-4.6900216421539298
20
58.754596513940847
10
-10.690021642153873
20
58.754596513940847
0
LWPOLYLINE
5
220
100
AcDbEntity
8
0
100
AcDbPolyline
90
4
70
1
43
0.0
10
-19.69002164215393
20
61.754596513940854
10
-13.690021642153845
20
61.754596513940854
10
-13.690021642153845
20
67.754596513940854
10
-19.69002164215393
20
67.754596513940854
0
LWPOLYLINE
5
221
100
AcDbEntity
8
0
100
AcDbPolyline
90
4
70
1
43
0.0
10
-118.69002164215374
20
25.754596513940839
10
-112.69002164215372
20
25.754596513940839
10
-112.69002164215372
20
31.754596513940836
10
-118.69002164215374
20
31.754596513940836
0
LWPOLYLINE
5
222
100
AcDbEntity
8
0
100
AcDbPolyline
90
4
70
1
43
0.0
10
-19.69002164215393
20
34.754596513940839
10
-13.690021642153845
20
34.754596513940839
10
-13.690021642153845
20
40.754596513940839
10
-19.69002164215393
20
40.754596513940839
0
LWPOLYLINE
5
223
100
AcDbEntity
8
0
100
AcDbPolyline
90
4
70
1
43
0.0
10
-10.690021642153873
20
61.754596513940854
10
-4.6900216421539298
20
61.754596513940854
10
-4.6900216421539298
20
67.754596513940854
10
-10.690021642153873
20
67.754596513940854
0
LWPOLYLINE
5
224
100
AcDbEntity
8
0
100
AcDbPolyline
90
4
70
1
43
0.0
10
-28.690021642153845
20
106.75459651394087
10
-22.690021642153901
20
106.75459651394087
10
-22.690021642153901
20
112.75459651394087
10
-28.690021642153845
20
112.75459651394087
0
LWPOLYLINE
5
225
100
AcDbEntity
8
0
100
AcDbPolyline
90
4
70
1
43
0.0
10
-100.69002164215377
20
25.754596513940839
10
-94.690021642153752
20
25.754596513940839
10
-94.690021642153752
20
31.754596513940836
10
-100.69002164215377
20
31.754596513940836
0
LWPOLYLINE
5
226
100
AcDbEntity
8
0
100
AcDbPolyline
90
4
70
1
43
0.0
10
-64.690021642153795
20
25.754596513940839
10
-58.690021642153845
20
25.754596513940839
10
-58.690021642153845
20
31.754596513940836
10
-64.690021642153795
20
31.754596513940836
0
LWPOLYLINE
5
227
100
AcDbEntity
8
0
100
AcDbPolyline
90
4
70
1
43
0.0
10
-82.690021642153766
20
25.754596513940839
10
-76.690021642153823
20
25.754596513940839
10
-76.690021642153823
20
31.754596513940836
10
-82.690021642153766
20
31.754596513940836
0
LWPOLYLINE
5
228
100
AcDbEntity
8
0
100
AcDbPolyline
90
4
70
1
43
0.0
10
-145.69002164215368
20
70.754596513940854
10
-139.69002164215368
20
70.754596513940854
10
-139.69002164215368
20
76.754596513940854
10
-145.69002164215368
20
76.754596513940854
0
LWPOLYLINE
5
229
100
AcDbEntity
8
0
100
AcDbPolyline
90
4
70
1
43
0.0
10
-19.69002164215393
20
70.754596513940854
10
-13.690021642153845
20
70.754596513940854
10
-13.690021642153845
20
76.754596513940854
10
-19.69002164215393
20
76.754596513940854
0
LWPOLYLINE
5
230
100
AcDbEntity
8
0
100
AcDbPolyline
90
4
70
1
43
0.0
10
-46.690021642153816
20
106.75459651394087
10
-40.690021642153873
20
106.75459651394087
10
-40.690021642153873
20
112.75459651394087
10
-46.690021642153816
20
112.75459651394087
0
LWPOLYLINE
5
231
100
AcDbEntity
8
0
100
AcDbPolyline
90
4
70
1
43
0.0
10
-10.690021642153873
20
88.754596513940868
10
-4.6900216421539298
20
88.754596513940868
10
-4.6900216421539298
20
94.754596513940868
10
-10.690021642153873
20
94.754596513940868
0
LWPOLYLINE
5
232
100
AcDbEntity
8
0
100
AcDbPolyline
90
4
70
1
43
0.0
10
-19.69002164215393
20
88.754596513940868
10
-13.690021642153845
20
88.754596513940868
10
-13.690021642153845
20
94.754596513940868
10
-19.69002164215393
20
94.754596513940868
0
LWPOLYLINE
5
233
100
AcDbEntity
8
0
100
AcDbPolyline
90
4
70
1
43
0.0
10
-145.69002164215368
20
97.754596513940868
10
-139.69002164215368
20
97.754596513940868
10
-139.69002164215368
20
103.75459651394087
10
-145.69002164215368
20
103.75459651394087
0
LWPOLYLINE
5
234
100
AcDbEntity
8
0
100
AcDbPolyline
90
4
70
1
43
0.0
10
-82.690021642153766
20
106.75459651394087
10
-76.690021642153823
20
106.75459651394087
10
-76.690021642153823
20
112.75459651394087
10
-82.690021642153766
20
112.75459651394087
0
LWPOLYLINE
5
235
100
AcDbEntity
8
0
100
AcDbPolyline
90
4
70
1
43
0.0
10
-145.69002164215368
20
79.754596513940868
10
-139.69002164215368
20
79.754596513940868
10
-139.69002164215368
20
85.754596513940854
10
-145.69002164215368
20
85.754596513940854
0
LWPOLYLINE
5
236
100
AcDbEntity
8
0
100
AcDbPolyline
90
4
70
1
43
0.0
10
-136.69002164215371
20
70.754596513940854
10
-130.69002164215368
20
70.754596513940854
10
-130.69002164215368
20
76.754596513940854
10
-136.69002164215371
20
76.754596513940854
0
LWPOLYLINE
5
237
100
AcDbEntity
8
0
100
AcDbPolyline
90
4
70
1
43
0.0
10
-136.69002164215371
20
52.754596513940854
10
-130.69002164215368
20
52.754596513940854
10
-130.69002164215368
20
58.754596513940847
10
-136.69002164215371
20
58.754596513940847
0
LWPOLYLINE
5
238
100
AcDbEntity
8
0
100
AcDbPolyline
90
4
70
1
43
0.0
10
-145.69002164215368
20
88.754596513940868
10
-139.69002164215368
20
88.754596513940868
10
-139.69002164215368
20
94.754596513940868
10
-145.69002164215368
20
94.754596513940868
0
LWPOLYLINE
5
239
100
AcDbEntity
8
0
100
AcDbPolyline
90
4
70
1
43
0.0
10
-10.690021642153873
20
79.754596513940868
10
-4.6900216421539298
20
79.754596513940868
10
-4.6900216421539298
20
85.754596513940854
10
-10.690021642153873
20
85.754596513940854
0
LWPOLYLINE
5
240
100
AcDbEntity
8
0
100
AcDbPolyline
90
4
70
1
43
0.0
10
-73.690021642153852
20
106.75459651394087
10
-67.690021642153766
20
106.75459651394087
10
-67.690021642153766
20
112.75459651394087
10
-73.690021642153852
20
112.75459651394087
0
LWPOLYLINE
5
241
100
AcDbEntity
8
0
100
AcDbPolyline
90
4
70
1
43
0.0
10
-73.690021642153852
20
25.754596513940839
10
-67.690021642153766
20
25.754596513940839
10
-67.690021642153766
20
31.754596513940836
10
-73.690021642153852
20
31.754596513940836
0
LWPOLYLINE
5
242
100
AcDbEntity
8
0
100
AcDbPolyline
90
4
70
1
43
0.0
10
-136.69002164215371
20
34.754596513940839
10
-130.69002164215368
20
34.754596513940839
10
-130.69002164215368
20
40.754596513940839
10
-136.69002164215371
20
40.754596513940839
0
LWPOLYLINE
5
243
100
AcDbEntity
8
0
100
AcDbPolyline
90
4
70
1
43
0.0
10
-136.69002164215371
20
106.75459651394087
10
-130.69002164215368
20
106.75459651394087
10
-130.69002164215368
20
112.75459651394087
10
-136.69002164215371
20
112.75459651394087
0
LWPOLYLINE
5
244
100
AcDbEntity
8
0
100
AcDbPolyline
90
4
70
1
43
0.0
10
-19.69002164215393
20
97.754596513940868
10
-13.690021642153845
20
97.754596513940868
10
-13.690021642153845
20
103.75459651394087
10
-19.69002164215393
20
103.75459651394087
0
LWPOLYLINE
5
245
100
AcDbEntity
8
0
100
AcDbPolyline
90
4
70
1
43
0.0
10
-10.690021642153873
20
34.754596513940839
10
-4.6900216421539298
20
34.754596513940839
10
-4.6900216421539298
20
40.754596513940839
10
-10.690021642153873
20
40.754596513940839
0
LWPOLYLINE
5
246
100
AcDbEntity
8
0
100
AcDbPolyline
90
4
70
1
43
0.0
10
-136.69002164215371
20
25.754596513940839
10
-130.69002164215368
20
25.754596513940839
10
-130.69002164215368
20
31.754596513940836
10
-136.69002164215371
20
31.754596513940836
0
LWPOLYLINE
5
247
100
AcDbEntity
8
0
100
AcDbPolyline
90
4
70
1
43
0.0
10
-10.690021642153873
20
43.754596513940847
10
-4.6900216421539298
20
43.754596513940847
10
-4.6900216421539298
20
49.754596513940839
10
-10.690021642153873
20
49.754596513940839
0
LWPOLYLINE
5
248
100
AcDbEntity
8
0
100
AcDbPolyline
90
4
70
1
43
0.0
10
-19.69002164215393
20
43.754596513940847
10
-13.690021642153845
20
43.754596513940847
10
-13.690021642153845
20
49.754596513940839
10
-19.69002164215393
20
49.754596513940839
0
LWPOLYLINE
5
249
100
AcDbEntity
8
0
100
AcDbPolyline
90
4
70
1
43
0.0
10
-46.690021642153816
20
25.754596513940839
10
-40.690021642153873
20
25.754596513940839
10
-40.690021642153873
20
31.754596513940836
10
-46.690021642153816
20
31.754596513940836
0
LWPOLYLINE
5
250
100
AcDbEntity
8
0
100
AcDbPolyline
90
4
70
1
43
0.0
10
-19.69002164215393
20
25.754596513940839
10
-13.690021642153845
20
25.754596513940839
10
-13.690021642153845
20
31.754596513940836
10
-19.69002164215393
20
31.754596513940836
0
LWPOLYLINE
5
251
100
AcDbEntity
8
0
100
AcDbPolyline
90
4
70
1
43
0.0
10
-28.690021642153845
20
25.754596513940839
10
-22.690021642153901
20
25.754596513940839
10
-22.690021642153901
20
31.754596513940836
10
-28.690021642153845
20
31.754596513940836
0
LWPOLYLINE
5
252
100
AcDbEntity
8
0
100
AcDbPolyline
90
4
70
1
43
0.0
10
-37.690021642153901
20
106.75459651394087
10
-31.690021642153816
20
106.75459651394087
10
-31.690021642153816
20
112.75459651394087
10
-37.690021642153901
20
112.75459651394087
0
LWPOLYLINE
5
253
100
AcDbEntity
8
0
100
AcDbPolyline
90
4
70
1
43
0.0
10
-19.69002164215393
20
106.75459651394087
10
-13.690021642153845
20
106.75459651394087
10
-13.690021642153845
20
112.75459651394087
10
-19.69002164215393
20
112.75459651394087
0
LWPOLYLINE
5
254
100
AcDbEntity
8
0
100
AcDbPolyline
90
4
70
1
43
0.0
10
-10.690021642153873
20
106.75459651394087
10
-4.6900216421539298
20
106.75459651394087
10
-4.6900216421539298
20
112.75459651394087
10
-10.690021642153873
20
112.75459651394087
0
LWPOLYLINE
5
255
100
AcDbEntity
8
0
100
AcDbPolyline
90
4
70
1
43
0.0
10
-136.69002164215371
20
43.754596513940847
10
-130.69002164215368
20
43.754596513940847
10
-130.69002164215368
20
49.754596513940839
10
-136.69002164215371
20
49.754596513940839
0
LWPOLYLINE
5
256
100
AcDbEntity
8
0
100
AcDbPolyline
90
4
70
1
43
0.0
10
-145.69002164215368
20
43.754596513940847
10
-139.69002164215368
20
43.754596513940847
10
-139.69002164215368
20
49.754596513940839
10
-145.69002164215368
20
49.754596513940839
0
LWPOLYLINE
5
257
100
AcDbEntity
8
0
100
AcDbPolyline
90
4
70
1
43
0.0
10
-145.69002164215368
20
25.754596513940839
10
-139.69002164215368
20
25.754596513940839
10
-139.69002164215368
20
31.754596513940836
10
-145.69002164215368
20
31.754596513940836
0
LWPOLYLINE
5
258
100
AcDbEntity
8
0
100
AcDbPolyline
90
4
70
1
43
0.0
10
-109.69002164215375
20
25.754596513940839
10
-103.69002164215374
20
25.754596513940839
10
-103.69002164215374
20
31.754596513940836
10
-109.69002164215375
20
31.754596513940836
0
LWPOLYLINE
5
259
100
AcDbEntity
8
0
100
AcDbPolyline
90
4
70
1
43
0.0
10
-55.690021642153873
20
106.75459651394087
10
-49.690021642153788
20
106.75459651394087
10
-49.690021642153788
20
112.75459651394087
10
-55.690021642153873
20
112.75459651394087
0
LWPOLYLINE
5
260
100
AcDbEntity
8
0
100
AcDbPolyline
90
4
70
1
43
0.0
10
-19.69002164215393
20
79.754596513940868
10
-13.690021642153845
20
79.754596513940868
10
-13.690021642153845
20
85.754596513940854
10
-19.69002164215393
20
85.754596513940854
0
LWPOLYLINE
5
261
100
AcDbEntity
8
0
100
AcDbPolyline
90
4
70
1
43
0.0
10
-10.690021642153873
20
70.754596513940854
10
-4.6900216421539298
20
70.754596513940854
10
-4.6900216421539298
20
76.754596513940854
10
-10.690021642153873
20
76.754596513940854
0
LWPOLYLINE
5
262
100
AcDbEntity
8
0
100
AcDbPolyline
90
4
70
1
43
0.0
10
-91.690021642153781
20
106.75459651394087
10
-85.690021642153738
20
106.75459651394087
10
-85.690021642153738
20
112.75459651394087
10
-91.690021642153781
20
112.75459651394087
0
LWPOLYLINE
5
263
100
AcDbEntity
8
0
100
AcDbPolyline
90
4
70
1
43
0.0
10
-136.69002164215371
20
97.754596513940868
10
-130.69002164215368
20
97.754596513940868
10
-130.69002164215368
20
103.75459651394087
10
-136.69002164215371
20
103.75459651394087
0
LWPOLYLINE
5
264
100
AcDbEntity
8
0
100
AcDbPolyline
90
4
70
1
43
0.0
10
-127.69002164215372
20
106.75459651394087
10
-121.69002164215371
20
106.75459651394087
10
-121.69002164215371
20
112.75459651394087
10
-127.69002164215372
20
112.75459651394087
0
LWPOLYLINE
5
265
100
AcDbEntity
8
0
100
AcDbPolyline
90
4
70
1
43
0.0
10
-121.69002164215371
20
40.754596513940839
10
-127.69002164215372
20
40.754596513940839
10
-127.69002164215372
20
34.754596513940839
10
-121.69002164215371
20
34.754596513940839
0
ENDSEC
0
SECTION
2
OBJECTS
0
DICTIONARY
5
C
100
AcDbDictionary
3
ACAD_GROUP
350
D
3
ACAD_MLINESTYLE
350
17
0
DICTIONARY
5
D
100
AcDbDictionary
0
DICTIONARY
5
1A
330
C
100
AcDbDictionary
0
DICTIONARY
5
17
100
AcDbDictionary
0
ENDSEC
0
EOF
