0
SECTION
2
HEADER
9
$INSUNITS
70
4
9
$ACADVER
1
AC1014
9
$HANDSEED
5
FFFF
0
ENDSEC
0
SECTION
2
TABLES
0
TABLE
2
VPORT
5
8
100
AcDbSymbolTable
0
ENDTAB
0
TABLE
2
LTYPE
5
5
100
AcDbSymbolTable
0
LTYPE
5
14
100
AcDbSymbolTableRecord
100
AcDbLinetypeTableRecord
2
BYBLOCK
70
0
0
LTYPE
5
15
100
AcDbSymbolTableRecord
100
AcDbLinetypeTableRecord
2
BYLAYER
70
0
0
ENDTAB
0
TABLE
2
LAYER
5
2
100
AcDbSymbolTable
70
2
0
LAYER
5
50
100
AcDbSymbolTableRecord
100
AcDbLayerTableRecord
2
0
70
0
6
CONTINUOUS
0
ENDTAB
0
TABLE
2
STYLE
5
3
100
AcDbSymbolTable
70
1
0
STYLE
5
11
100
AcDbSymbolTableRecord
100
AcDbTextStyleTableRecord
2
STANDARD
70
0
0
ENDTAB
0
TABLE
2
VIEW
5
6
100
AcDbSymbolTable
70
0
0
ENDTAB
0
TABLE
2
UCS
5
7
100
AcDbSymbolTable
70
0
0
ENDTAB
0
TABLE
2
APPID
5
9
100
AcDbSymbolTable
70
2
0
APPID
5
12
100
AcDbSymbolTableRecord
100
AcDbRegAppTableRecord
2
ACAD
70
0
0
ENDTAB
0
TABLE
2
DIMSTYLE
5
A
100
AcDbSymbolTable
70
1
0
ENDTAB
0
TABLE
2
BLOCK_RECORD
5
1
100
AcDbSymbolTable
70
1
0
BLOCK_RECORD
5
1F
100
AcDbSymbolTableRecord
100
AcDbBlockTableRecord
2
*MODEL_SPACE
0
BLOCK_RECORD
5
1B
100
AcDbSymbolTableRecord
100
AcDbBlockTableRecord
2
*PAPER_SPACE
0
ENDTAB
0
ENDSEC
0
SECTION
2
BLOCKS
0
BLOCK
5
20
100
AcDbEntity
100
AcDbBlockBegin
2
*MODEL_SPACE
0
ENDBLK
5
21
100
AcDbEntity
100
AcDbBlockEnd
0
BLOCK
5
1C
100
AcDbEntity
100
AcDbBlockBegin
2
*PAPER_SPACE
0
ENDBLK
5
1D
100
AcDbEntity
100
AcDbBlockEnd
0
ENDSEC
0
SECTION
2
ENTITIES
0
LWPOLYLINE
5
100
100
AcDbEntity
8
0
100
AcDbPolyline
90
6
70
1
43
0.0
10
-151.20968388981265
20
121.29031187201184
10
-153.33257500022472
20
119.16742076159976
10
-152.55554292434573
20
116.26749757530868
10
-149.65561973805467
20
115.4904654994297
10
-147.5327286276426
20
117.61335660984179
10
-148.30976070352159
20
120.51327979613285
0
LWPOLYLINE
5
101
100
AcDbEntity
8
0
100
AcDbPolyline
90
6
70
1
43
0.0
10
-148.30976070352162
20
0.34684723174873255
10
-147.53272862764263
20
3.2467704180398016
10
-149.65561973805472
20
5.3696615284518856
10
-152.55554292434579
20
4.5926294525729006
10
-153.33257500022478
20
1.6927062662818493
10
-151.20968388981268
20
-0.43018484413025249
0
LWPOLYLINE
5
102
100
AcDbEntity
8
0
100
AcDbPolyline
90
6
70
1
43
0.0
10
0.82917060550503408
20
-0.4301848441301992
10
2.9520617159171181
20
1.6927062662818848
10
2.175029640038133
20
4.5926294525729539
10
-0.72489354625293601
20
5.3696615284519034
10
-2.84778465666502
20
3.2467704180398194
10
-2.0707525807860705
20
0.34684723174878584
0
LWPOLYLINE
5
103
100
AcDbEntity
8
0
100
AcDbPolyline
90
6
70
1
43
0.0
10
2.1751161401678587
20
116.26758407543846
10
2.9521482160468793
20
119.16750726172951
10
0.82925710563479527
20
121.2903983721416
10
-2.0706660806562738
20
120.51336629626265
10
-2.8476981565352588
20
117.61344310997158
10
-0.72480704612321034
20
115.4905519995595
0
LWPOLYLINE
5
104
100
AcDbEntity
8
0
100
AcDbPolyline
90
20
70
1
43
0.0
10
-25.809291642153873
20
83.079898513940904
10
-25.809291642153873
20
79.980698513940908
10
-25.008691642153842
20
79.980698513940908
10
-25.008691642153842
20
78.980398513940898
10
-11.009151642153832
20
78.980398513940898
10
-11.009151642153832
20
79.980698513940908
10
-10.208521642153876
20
79.980698513940908
10
-10.208521642153876
20
83.079898513940904
10
-11.009151642153832
20
83.079898513940904
10
-11.009151642153832
20
88.880098513940894
10
-10.208521642153876
20
88.880098513940894
10
-10.208521642153876
20
91.980698513940894
10
-11.009151642153832
20
91.980698513940894
10
-11.009151642153832
20
92.979698513940917
10
-25.008691642153842
20
92.979698513940917
10
-25.008691642153842
20
91.980698513940894
10
-25.809291642153873
20
91.980698513940894
10
-25.809291642153873
20
88.880098513940894
10
-25.008691642153842
20
88.880098513940894
10
-25.008691642153842
20
83.079898513940904
0
LWPOLYLINE
5
105
100
AcDbEntity
8
0
100
AcDbPolyline
90
20
70
1
43
0.0
10
-68.671791642153863
20
34.830598513940892
10
-68.671791642153863
20
31.730098513940899
10
-67.870991642153854
20
31.730098513940899
10
-67.870991642153854
20
25.929998513940919
10
-68.671791642153863
20
25.929998513940919
10
-68.671791642153863
20
22.830498513940913
10
-67.870991642153854
20
22.830498513940913
10
-67.870991642153854
20
21.830398513940903
10
-53.871691642153863
20
21.830398513940903
10
-53.871691642153863
20
22.830498513940913
10
-53.072291642153857
20
22.830498513940913
10
-53.072291642153857
20
25.929998513940919
10
-53.871691642153863
20
25.929998513940919
10
-53.871691642153863
20
31.730098513940899
10
-53.072291642153857
20
31.730098513940899
10
-53.072291642153857
20
34.830598513940892
10
-53.871691642153863
20
34.830598513940892
10
-53.871691642153863
20
35.829698513940905
10
-67.870991642153854
20
35.829698513940905
10
-67.870991642153854
20
34.830598513940892
0
LWPOLYLINE
5
106
100
AcDbEntity
8
0
100
AcDbPolyline
90
20
70
1
43
0.0
10
-110.22199164215387
20
31.730098513940899
10
-110.22199164215387
20
34.830598513940892
10
-111.02199164215385
20
34.830598513940892
10
-111.02199164215385
20
35.829698513940905
10
-125.02099164215386
20
35.829698513940905
10
-125.02099164215386
20
34.830598513940892
10
-125.82199164215385
20
34.830598513940892
10
-125.82199164215385
20
31.730098513940899
10
-125.02099164215386
20
31.730098513940899
10
-125.02099164215386
20
25.929998513940919
10
-125.82199164215385
20
25.929998513940919
10
-125.82199164215385
20
22.830498513940913
10
-125.02099164215386
20
22.830498513940913
10
-125.02099164215386
20
21.830398513940903
10
-111.02199164215385
20
21.830398513940903
10
-111.02199164215385
20
22.830498513940913
10
-110.22199164215387
20
22.830498513940913
10
-110.22199164215387
20
25.929998513940919
10
-111.02199164215385
20
25.929998513940919
10
-111.02199164215385
20
31.730098513940899
0
LWPOLYLINE
5
107
100
AcDbEntity
8
0
100
AcDbPolyline
90
20
70
1
43
0.0
10
-86.920991642153851
20
35.829698513940905
10
-86.920991642153851
20
34.830598513940892
10
-87.72179164215386
20
34.830598513940892
10
-87.72179164215386
20
31.730098513940899
10
-86.920991642153851
20
31.730098513940899
10
-86.920991642153851
20
25.929998513940919
10
-87.72179164215386
20
25.929998513940919
10
-87.72179164215386
20
22.830498513940913
10
-86.920991642153851
20
22.830498513940913
10
-86.920991642153851
20
21.830398513940903
10
-72.921691642153874
20
21.830398513940903
10
-72.921691642153874
20
22.830498513940913
10
-72.122291642153868
20
22.830498513940913
10
-72.122291642153868
20
25.929998513940919
10
-72.921691642153874
20
25.929998513940919
10
-72.921691642153874
20
31.730098513940899
10
-72.122291642153868
20
31.730098513940899
10
-72.122291642153868
20
34.830598513940892
10
-72.921691642153874
20
34.830598513940892
10
-72.921691642153874
20
35.829698513940905
0
LWPOLYLINE
5
108
100
AcDbEntity
8
0
100
AcDbPolyline
90
20
70
1
43
0.0
10
-25.809291642153873
20
31.730098513940899
10
-25.008691642153842
20
31.730098513940899
10
-25.008691642153842
20
25.929998513940919
10
-25.809291642153873
20
25.929998513940919
10
-25.809291642153873
20
22.830498513940913
10
-25.008691642153842
20
22.830498513940913
10
-25.008691642153842
20
21.830398513940903
10
-11.009151642153832
20
21.830398513940903
10
-11.009151642153832
20
22.830498513940913
10
-10.208521642153876
20
22.830498513940913
10
-10.208521642153876
20
25.929998513940919
10
-11.009151642153832
20
25.929998513940919
10
-11.009151642153832
20
31.730098513940899
10
-10.208521642153876
20
31.730098513940899
10
-10.208521642153876
20
34.830598513940892
10
-11.009151642153832
20
34.830598513940892
10
-11.009151642153832
20
35.829698513940905
10
-25.008691642153842
20
35.829698513940905
10
-25.008691642153842
20
34.830598513940892
10
-25.809291642153873
20
34.830598513940892
0
LWPOLYLINE
5
109
100
AcDbEntity
8
0
100
AcDbPolyline
90
20
70
1
43
0.0
10
-67.870991642153854
20
73.929698513940906
10
-67.870991642153854
20
72.930598513940907
10
-68.671791642153863
20
72.930598513940907
10
-68.671791642153863
20
69.830098513940897
10
-67.870991642153854
20
69.830098513940897
10
-67.870991642153854
20
64.029998513940896
10
-68.671791642153863
20
64.029998513940896
10
-68.671791642153863
20
60.930498513940904
10
-67.870991642153854
20
60.930498513940904
10
-67.870991642153854
20
59.930398513940908
10
-53.871691642153863
20
59.930398513940908
10
-53.871691642153863
20
60.930498513940904
10
-53.072291642153857
20
60.930498513940904
10
-53.072291642153857
20
64.029998513940896
10
-53.871691642153863
20
64.029998513940896
10
-53.871691642153863
20
69.830098513940897
10
-53.072291642153857
20
69.830098513940897
10
-53.072291642153857
20
72.930598513940907
10
-53.871691642153863
20
72.930598513940907
10
-53.871691642153863
20
73.929698513940906
0
LWPOLYLINE
5
110
100
AcDbEntity
8
0
100
AcDbPolyline
90
20
70
1
43
0.0
10
-129.27099164215383
20
31.730098513940899
10
-129.27099164215383
20
34.830598513940892
10
-130.07199164215388
20
34.830598513940892
10
-130.07199164215388
20
35.829698513940905
10
-144.07099164215384
20
35.829698513940905
10
-144.07099164215384
20
34.830598513940892
10
-144.87199164215386
20
34.830598513940892
10
-144.87199164215386
20
31.730098513940899
10
-144.07099164215384
20
31.730098513940899
10
-144.07099164215384
20
25.929998513940919
10
-144.87199164215386
20
25.929998513940919
10
-144.87199164215386
20
22.830498513940913
10
-144.07099164215384
20
22.830498513940913
10
-144.07099164215384
20
21.830398513940903
10
-130.07199164215388
20
21.830398513940903
10
-130.07199164215388
20
22.830498513940913
10
-129.27099164215383
20
22.830498513940913
10
-129.27099164215383
20
25.929998513940919
10
-130.07199164215388
20
25.929998513940919
10
-130.07199164215388
20
31.730098513940899
0
LWPOLYLINE
5
111
100
AcDbEntity
8
0
100
AcDbPolyline
90
20
70
1
43
0.0
10
-10.208521642153876
20
72.930598513940907
10
-11.009151642153832
20
72.930598513940907
10
-11.009151642153832
20
73.929698513940906
10
-25.008691642153842
20
73.929698513940906
10
-25.008691642153842
20
72.930598513940907
10
-25.809291642153873
20
72.930598513940907
10
-25.809291642153873
20
69.830098513940897
10
-25.008691642153842
20
69.830098513940897
10
-25.008691642153842
20
64.029998513940896
10
-25.809291642153873
20
64.029998513940896
10
-25.809291642153873
20
60.930498513940904
10
-25.008691642153842
20
60.930498513940904
10
-25.008691642153842
20
59.930398513940908
10
-11.009151642153832
20
59.930398513940908
10
-11.009151642153832
20
60.930498513940904
10
-10.208521642153876
20
60.930498513940904
10
-10.208521642153876
20
64.029998513940896
10
-11.009151642153832
20
64.029998513940896
10
-11.009151642153832
20
69.830098513940897
10
-10.208521642153876
20
69.830098513940897
0
LWPOLYLINE
5
112
100
AcDbEntity
8
0
100
AcDbPolyline
90
20
70
1
43
0.0
10
-68.671791642153863
20
83.079898513940904
10
-68.671791642153863
20
79.980698513940908
10
-67.870991642153854
20
79.980698513940908
10
-67.870991642153854
20
78.980398513940898
10
-53.871691642153863
20
78.980398513940898
10
-53.871691642153863
20
79.980698513940908
10
-53.072291642153857
20
79.980698513940908
10
-53.072291642153857
20
83.079898513940904
10
-53.871691642153863
20
83.079898513940904
10
-53.871691642153863
20
88.880098513940894
10
-53.072291642153857
20
88.880098513940894
10
-53.072291642153857
20
91.980698513940894
10
-53.871691642153863
20
91.980698513940894
10
-53.871691642153863
20
92.979698513940917
10
-67.870991642153854
20
92.979698513940917
10
-67.870991642153854
20
91.980698513940894
10
-68.671791642153863
20
91.980698513940894
10
-68.671791642153863
20
88.880098513940894
10
-67.870991642153854
20
88.880098513940894
10
-67.870991642153854
20
83.079898513940904
0
LWPOLYLINE
5
113
100
AcDbEntity
8
0
100
AcDbPolyline
90
20
70
1
43
0.0
10
-10.208521642153876
20
44.979998513940899
10
-11.009151642153832
20
44.979998513940899
10
-11.009151642153832
20
50.780098513940899
10
-10.208521642153876
20
50.780098513940899
10
-10.208521642153876
20
53.880598513940896
10
-11.009151642153832
20
53.880598513940896
10
-11.009151642153832
20
54.879698513940902
10
-25.008691642153842
20
54.879698513940902
10
-25.008691642153842
20
53.880598513940896
10
-25.809291642153873
20
53.880598513940896
10
-25.809291642153873
20
50.780098513940899
10
-25.008691642153842
20
50.780098513940899
10
-25.008691642153842
20
44.979998513940899
10
-25.809291642153873
20
44.979998513940899
10
-25.809291642153873
20
41.880498513940907
10
-25.008691642153842
20
41.880498513940907
10
-25.008691642153842
20
40.880398513940897
10
-11.009151642153832
20
40.880398513940897
10
-11.009151642153832
20
41.880498513940907
10
-10.208521642153876
20
41.880498513940907
0
LWPOLYLINE
5
114
100
AcDbEntity
8
0
100
AcDbPolyline
90
20
70
1
43
0.0
10
-87.72179164215386
20
50.780098513940899
10
-86.920991642153851
20
50.780098513940899
10
-86.920991642153851
20
44.979998513940899
10
-87.72179164215386
20
44.979998513940899
10
-87.72179164215386
20
41.880498513940907
10
-86.920991642153851
20
41.880498513940907
10
-86.920991642153851
20
40.880398513940897
10
-72.921691642153874
20
40.880398513940897
10
-72.921691642153874
20
41.880498513940907
10
-72.122291642153868
20
41.880498513940907
10
-72.122291642153868
20
44.979998513940899
10
-72.921691642153874
20
44.979998513940899
10
-72.921691642153874
20
50.780098513940899
10
-72.122291642153868
20
50.780098513940899
10
-72.122291642153868
20
53.880598513940896
10
-72.921691642153874
20
53.880598513940896
10
-72.921691642153874
20
54.879698513940902
10
-86.920991642153851
20
54.879698513940902
10
-86.920991642153851
20
53.880598513940896
10
-87.72179164215386
20
53.880598513940896
0
LWPOLYLINE
5
115
100
AcDbEntity
8
0
100
AcDbPolyline
90
20
70
1
43
0.0
10
-91.971691642153871
20
50.780098513940899
10
-91.172291642153866
20
50.780098513940899
10
-91.172291642153866
20
53.880598513940896
10
-91.971691642153871
20
53.880598513940896
10
-91.971691642153871
20
54.879698513940902
10
-105.97099164215386
20
54.879698513940902
10
-105.97099164215386
20
53.880598513940896
10
-106.77199164215386
20
53.880598513940896
10
-106.77199164215386
20
50.780098513940899
10
-105.97099164215386
20
50.780098513940899
10
-105.97099164215386
20
44.979998513940899
10
-106.77199164215386
20
44.979998513940899
10
-106.77199164215386
20
41.880498513940907
10
-105.97099164215386
20
41.880498513940907
10
-105.97099164215386
20
40.880398513940897
10
-91.971691642153871
20
40.880398513940897
10
-91.971691642153871
20
41.880498513940907
10
-91.172291642153866
20
41.880498513940907
10
-91.172291642153866
20
44.979998513940899
10
-91.971691642153871
20
44.979998513940899
0
LWPOLYLINE
5
116
100
AcDbEntity
8
0
100
AcDbPolyline
90
20
70
1
43
0.0
10
-106.77199164215386
20
34.830598513940892
10
-106.77199164215386
20
31.730098513940899
10
-105.97099164215386
20
31.730098513940899
10
-105.97099164215386
20
25.929998513940919
10
-106.77199164215386
20
25.929998513940919
10
-106.77199164215386
20
22.830498513940913
10
-105.97099164215386
20
22.830498513940913
10
-105.97099164215386
20
21.830398513940903
10
-91.971691642153871
20
21.830398513940903
10
-91.971691642153871
20
22.830498513940913
10
-91.172291642153866
20
22.830498513940913
10
-91.172291642153866
20
25.929998513940919
10
-91.971691642153871
20
25.929998513940919
10
-91.971691642153871
20
31.730098513940899
10
-91.172291642153866
20
31.730098513940899
10
-91.172291642153866
20
34.830598513940892
10
-91.971691642153871
20
34.830598513940892
10
-91.971691642153871
20
35.829698513940905
10
-105.97099164215386
20
35.829698513940905
10
-105.97099164215386
20
34.830598513940892
0
LWPOLYLINE
5
117
100
AcDbEntity
8
0
100
AcDbPolyline
90
20
70
1
43
0.0
10
-125.82199164215385
20
44.979998513940899
10
-125.82199164215385
20
41.880498513940907
10
-125.02099164215386
20
41.880498513940907
10
-125.02099164215386
20
40.880398513940897
10
-111.02199164215385
20
40.880398513940897
10
-111.02199164215385
20
41.880498513940907
10
-110.22199164215387
20
41.880498513940907
10
-110.22199164215387
20
44.979998513940899
10
-111.02199164215385
20
44.979998513940899
10
-111.02199164215385
20
50.780098513940899
10
-110.22199164215387
20
50.780098513940899
10
-110.22199164215387
20
53.880598513940896
10
-111.02199164215385
20
53.880598513940896
10
-111.02199164215385
20
54.879698513940902
10
-125.02099164215386
20
54.879698513940902
10
-125.02099164215386
20
53.880598513940896
10
-125.82199164215385
20
53.880598513940896
10
-125.82199164215385
20
50.780098513940899
10
-125.02099164215386
20
50.780098513940899
10
-125.02099164215386
20
44.979998513940899
0
LWPOLYLINE
5
118
100
AcDbEntity
8
0
100
AcDbPolyline
90
20
70
1
43
0.0
10
-34.022391642153842
20
91.980698513940894
10
-34.821691642153851
20
91.980698513940894
10
-34.821691642153851
20
92.979698513940917
10
-48.820991642153864
20
92.979698513940917
10
-48.820991642153864
20
91.980698513940894
10
-49.621791642153852
20
91.980698513940894
10
-49.621791642153852
20
88.880098513940894
10
-48.820991642153864
20
88.880098513940894
10
-48.820991642153864
20
83.079898513940904
10
-49.621791642153852
20
83.079898513940904
10
-49.621791642153852
20
79.980698513940908
10
-48.820991642153864
20
79.980698513940908
10
-48.820991642153864
20
78.980398513940898
10
-34.821691642153851
20
78.980398513940898
10
-34.821691642153851
20
79.980698513940908
10
-34.022391642153842
20
79.980698513940908
10
-34.022391642153842
20
83.079898513940904
10
-34.821691642153851
20
83.079898513940904
10
-34.821691642153851
20
88.880098513940894
10
-34.022391642153842
20
88.880098513940894
0
LWPOLYLINE
5
119
100
AcDbEntity
8
0
100
AcDbPolyline
90
20
70
1
43
0.0
10
-53.871691642153863
20
112.02972851394091
10
-67.870991642153854
20
112.02972851394091
10
-67.870991642153854
20
111.03064851394092
10
-68.671791642153863
20
111.03064851394092
10
-68.671791642153863
20
107.9300485139409
10
-67.870991642153854
20
107.9300485139409
10
-67.870991642153854
20
102.1298985139409
10
-68.671791642153863
20
102.1298985139409
10
-68.671791642153863
20
99.030698513940905
10
-67.870991642153854
20
99.030698513940905
10
-67.870991642153854
20
98.030198513940903
10
-53.871691642153863
20
98.030198513940903
10
-53.871691642153863
20
99.030698513940905
10
-53.072291642153857
20
99.030698513940905
10
-53.072291642153857
20
102.1298985139409
10
-53.871691642153863
20
102.1298985139409
10
-53.871691642153863
20
107.9300485139409
10
-53.072291642153857
20
107.9300485139409
10
-53.072291642153857
20
111.03064851394092
10
-53.871691642153863
20
111.03064851394092
0
LWPOLYLINE
5
120
100
AcDbEntity
8
0
100
AcDbPolyline
90
20
70
1
43
0.0
10
-87.72179164215386
20
64.029998513940896
10
-87.72179164215386
20
60.930498513940904
10
-86.920991642153851
20
60.930498513940904
10
-86.920991642153851
20
59.930398513940908
10
-72.921691642153874
20
59.930398513940908
10
-72.921691642153874
20
60.930498513940904
10
-72.122291642153868
20
60.930498513940904
10
-72.122291642153868
20
64.029998513940896
10
-72.921691642153874
20
64.029998513940896
10
-72.921691642153874
20
69.830098513940897
10
-72.122291642153868
20
69.830098513940897
10
-72.122291642153868
20
72.930598513940907
10
-72.921691642153874
20
72.930598513940907
10
-72.921691642153874
20
73.929698513940906
10
-86.920991642153851
20
73.929698513940906
10
-86.920991642153851
20
72.930598513940907
10
-87.72179164215386
20
72.930598513940907
10
-87.72179164215386
20
69.830098513940897
10
-86.920991642153851
20
69.830098513940897
10
-86.920991642153851
20
64.029998513940896
0
LWPOLYLINE
5
121
100
AcDbEntity
8
0
100
AcDbPolyline
90
20
70
1
43
0.0
10
-72.122291642153868
20
79.980698513940908
10
-72.122291642153868
20
83.079898513940904
10
-72.921691642153874
20
83.079898513940904
10
-72.921691642153874
20
88.880098513940894
10
-72.122291642153868
20
88.880098513940894
10
-72.122291642153868
20
91.980698513940894
10
-72.921691642153874
20
91.980698513940894
10
-72.921691642153874
20
92.979698513940917
10
-86.920991642153851
20
92.979698513940917
10
-86.920991642153851
20
91.980698513940894
10
-87.72179164215386
20
91.980698513940894
10
-87.72179164215386
20
88.880098513940894
10
-86.920991642153851
20
88.880098513940894
10
-86.920991642153851
20
83.079898513940904
10
-87.72179164215386
20
83.079898513940904
10
-87.72179164215386
20
79.980698513940908
10
-86.920991642153851
20
79.980698513940908
10
-86.920991642153851
20
78.980398513940898
10
-72.921691642153874
20
78.980398513940898
10
-72.921691642153874
20
79.980698513940908
0
LWPOLYLINE
5
122
100
AcDbEntity
8
0
100
AcDbPolyline
90
20
70
1
43
0.0
10
-72.921691642153874
20
107.9300485139409
10
-72.122291642153868
20
107.9300485139409
10
-72.122291642153868
20
111.03064851394092
10
-72.921691642153874
20
111.03064851394092
10
-72.921691642153874
20
112.02972851394091
10
-86.920991642153851
20
112.02972851394091
10
-86.920991642153851
20
111.03064851394092
10
-87.72179164215386
20
111.03064851394092
10
-87.72179164215386
20
107.9300485139409
10
-86.920991642153851
20
107.9300485139409
10
-86.920991642153851
20
102.1298985139409
10
-87.72179164215386
20
102.1298985139409
10
-87.72179164215386
20
99.030698513940905
10
-86.920991642153851
20
99.030698513940905
10
-86.920991642153851
20
98.030198513940903
10
-72.921691642153874
20
98.030198513940903
10
-72.921691642153874
20
99.030698513940905
10
-72.122291642153868
20
99.030698513940905
10
-72.122291642153868
20
102.1298985139409
10
-72.921691642153874
20
102.1298985139409
0
LWPOLYLINE
5
123
100
AcDbEntity
8
0
100
AcDbPolyline
90
20
70
1
43
0.0
10
-131.07199164215385
20
74.217898513940895
10
-130.07199164215388
20
74.217898513940895
10
-130.07199164215388
20
88.217198513940914
10
-131.07199164215385
20
88.217198513940914
10
-131.07199164215385
20
89.017898513940906
10
-134.17099164215384
20
89.017898513940906
10
-134.17099164215384
20
88.217198513940914
10
-139.97099164215385
20
88.217198513940914
10
-139.97099164215385
20
89.017898513940906
10
-143.07199164215385
20
89.017898513940906
10
-143.07199164215385
20
88.217198513940914
10
-144.07099164215384
20
88.217198513940914
10
-144.07099164215384
20
74.217898513940895
10
-143.07199164215385
20
74.217898513940895
10
-143.07199164215385
20
73.4170985139409
10
-139.97099164215385
20
73.4170985139409
10
-139.97099164215385
20
74.217898513940895
10
-134.17099164215384
20
74.217898513940895
10
-134.17099164215384
20
73.4170985139409
10
-131.07199164215385
20
73.4170985139409
0
LWPOLYLINE
5
124
100
AcDbEntity
8
0
100
AcDbPolyline
90
4
70
1
43
0.0
10
-137.79699164215384
20
98.578698513940907
10
-137.79699164215384
20
112.78075851394091
10
-141.09699164215385
20
112.78075851394091
10
-141.09699164215385
20
98.578698513940907
0
LWPOLYLINE
5
125
100
AcDbEntity
8
0
100
AcDbPolyline
90
4
70
1
43
0.0
10
-113.99499164215385
20
112.78075851394091
10
-117.29599164215387
20
112.78075851394091
10
-117.29599164215387
20
98.578698513940907
10
-113.99499164215385
20
98.578698513940907
0
LWPOLYLINE
5
126
100
AcDbEntity
8
0
100
AcDbPolyline
90
20
70
1
43
0.0
10
-134.54599164215384
20
99.030698513940905
10
-134.54599164215384
20
98.030198513940903
10
-120.54499164215386
20
98.030198513940903
10
-120.54499164215386
20
99.030698513940905
10
-119.74599164215385
20
99.030698513940905
10
-119.74599164215385
20
102.1298985139409
10
-120.54499164215386
20
102.1298985139409
10
-120.54499164215386
20
107.9300485139409
10
-119.74599164215385
20
107.9300485139409
10
-119.74599164215385
20
111.03064851394092
10
-120.54499164215386
20
111.03064851394092
10
-120.54499164215386
20
112.02972851394091
10
-134.54599164215384
20
112.02972851394091
10
-134.54599164215384
20
111.03064851394092
10
-135.34699164215385
20
111.03064851394092
10
-135.34699164215385
20
107.9300485139409
10
-134.54599164215384
20
107.9300485139409
10
-134.54599164215384
20
102.1298985139409
10
-135.34699164215385
20
102.1298985139409
10
-135.34699164215385
20
99.030698513940905
0
LWPOLYLINE
5
127
100
AcDbEntity
8
0
100
AcDbPolyline
90
20
70
1
43
0.0
10
-91.971691642153871
20
102.1298985139409
10
-91.971691642153871
20
107.9300485139409
10
-91.172291642153866
20
107.9300485139409
10
-91.172291642153866
20
111.03064851394092
10
-91.971691642153871
20
111.03064851394092
10
-91.971691642153871
20
112.02972851394091
10
-105.97099164215386
20
112.02972851394091
10
-105.97099164215386
20
111.03064851394092
10
-106.77199164215386
20
111.03064851394092
10
-106.77199164215386
20
107.9300485139409
10
-105.97099164215386
20
107.9300485139409
10
-105.97099164215386
20
102.1298985139409
10
-106.77199164215386
20
102.1298985139409
10
-106.77199164215386
20
99.030698513940905
10
-105.97099164215386
20
99.030698513940905
10
-105.97099164215386
20
98.030198513940903
10
-91.971691642153871
20
98.030198513940903
10
-91.971691642153871
20
99.030698513940905
10
-91.172291642153866
20
99.030698513940905
10
-91.172291642153866
20
102.1298985139409
0
LWPOLYLINE
5
128
100
AcDbEntity
8
0
100
AcDbPolyline
90
20
70
1
43
0.0
10
-106.77199164215386
20
79.980698513940908
10
-105.97099164215386
20
79.980698513940908
10
-105.97099164215386
20
78.980398513940898
10
-91.971691642153871
20
78.980398513940898
10
-91.971691642153871
20
79.980698513940908
10
-91.172291642153866
20
79.980698513940908
10
-91.172291642153866
20
83.079898513940904
10
-91.971691642153871
20
83.079898513940904
10
-91.971691642153871
20
88.880098513940894
10
-91.172291642153866
20
88.880098513940894
10
-91.172291642153866
20
91.980698513940894
10
-91.971691642153871
20
91.980698513940894
10
-91.971691642153871
20
92.979698513940917
10
-105.97099164215386
20
92.979698513940917
10
-105.97099164215386
20
91.980698513940894
10
-106.77199164215386
20
91.980698513940894
10
-106.77199164215386
20
88.880098513940894
10
-105.97099164215386
20
88.880098513940894
10
-105.97099164215386
20
83.079898513940904
10
-106.77199164215386
20
83.079898513940904
0
LWPOLYLINE
5
129
100
AcDbEntity
8
0
100
AcDbPolyline
90
20
70
1
43
0.0
10
-125.02099164215386
20
79.980698513940908
10
-125.02099164215386
20
78.980398513940898
10
-111.02199164215385
20
78.980398513940898
10
-111.02199164215385
20
79.980698513940908
10
-110.22199164215387
20
79.980698513940908
10
-110.22199164215387
20
83.079898513940904
10
-111.02199164215385
20
83.079898513940904
10
-111.02199164215385
20
88.880098513940894
10
-110.22199164215387
20
88.880098513940894
10
-110.22199164215387
20
91.980698513940894
10
-111.02199164215385
20
91.980698513940894
10
-111.02199164215385
20
92.979698513940917
10
-125.02099164215386
20
92.979698513940917
10
-125.02099164215386
20
91.980698513940894
10
-125.82199164215385
20
91.980698513940894
10
-125.82199164215385
20
88.880098513940894
10
-125.02099164215386
20
88.880098513940894
10
-125.02099164215386
20
83.079898513940904
10
-125.82199164215385
20
83.079898513940904
10
-125.82199164215385
20
79.980698513940908
0
LWPOLYLINE
5
130
100
AcDbEntity
8
0
100
AcDbPolyline
90
20
70
1
43
0.0
10
-34.821691642153851
20
25.929998513940919
10
-34.821691642153851
20
31.730098513940899
10
-34.022391642153842
20
31.730098513940899
10
-34.022391642153842
20
34.830598513940892
10
-34.821691642153851
20
34.830598513940892
10
-34.821691642153851
20
35.829698513940905
10
-48.820991642153864
20
35.829698513940905
10
-48.820991642153864
20
34.830598513940892
10
-49.621791642153852
20
34.830598513940892
10
-49.621791642153852
20
31.730098513940899
10
-48.820991642153864
20
31.730098513940899
10
-48.820991642153864
20
25.929998513940919
10
-49.621791642153852
20
25.929998513940919
10
-49.621791642153852
20
22.830498513940913
10
-48.820991642153864
20
22.830498513940913
10
-48.820991642153864
20
21.830398513940903
10
-34.821691642153851
20
21.830398513940903
10
-34.821691642153851
20
22.830498513940913
10
-34.022391642153842
20
22.830498513940913
10
-34.022391642153842
20
25.929998513940919
0
LWPOLYLINE
5
131
100
AcDbEntity
8
0
100
AcDbPolyline
90
20
70
1
43
0.0
10
-111.02199164215385
20
59.930398513940908
10
-111.02199164215385
20
60.930498513940904
10
-110.22199164215387
20
60.930498513940904
10
-110.22199164215387
20
64.029998513940896
10
-111.02199164215385
20
64.029998513940896
10
-111.02199164215385
20
69.830098513940897
10
-110.22199164215387
20
69.830098513940897
10
-110.22199164215387
20
72.930598513940907
10
-111.02199164215385
20
72.930598513940907
10
-111.02199164215385
20
73.929698513940906
10
-125.02099164215386
20
73.929698513940906
10
-125.02099164215386
20
72.930598513940907
10
-125.82199164215385
20
72.930598513940907
10
-125.82199164215385
20
69.830098513940897
10
-125.02099164215386
20
69.830098513940897
10
-125.02099164215386
20
64.029998513940896
10
-125.82199164215385
20
64.029998513940896
10
-125.82199164215385
20
60.930498513940904
10
-125.02099164215386
20
60.930498513940904
10
-125.02099164215386
20
59.930398513940908
0
LWPOLYLINE
5
132
100
AcDbEntity
8
0
100
AcDbPolyline
90
20
70
1
43
0.0
10
-34.022391642153842
20
44.979998513940899
10
-34.821691642153851
20
44.979998513940899
10
-34.821691642153851
20
50.780098513940899
10
-34.022391642153842
20
50.780098513940899
10
-34.022391642153842
20
53.880598513940896
10
-34.821691642153851
20
53.880598513940896
10
-34.821691642153851
20
54.879698513940902
10
-48.820991642153864
20
54.879698513940902
10
-48.820991642153864
20
53.880598513940896
10
-49.621791642153852
20
53.880598513940896
10
-49.621791642153852
20
50.780098513940899
10
-48.820991642153864
20
50.780098513940899
10
-48.820991642153864
20
44.979998513940899
10
-49.621791642153852
20
44.979998513940899
10
-49.621791642153852
20
41.880498513940907
10
-48.820991642153864
20
41.880498513940907
10
-48.820991642153864
20
40.880398513940897
10
-34.821691642153851
20
40.880398513940897
10
-34.821691642153851
20
41.880498513940907
10
-34.022391642153842
20
41.880498513940907
0
LWPOLYLINE
5
133
100
AcDbEntity
8
0
100
AcDbPolyline
90
20
70
1
43
0.0
10
-105.97099164215386
20
59.930398513940908
10
-91.971691642153871
20
59.930398513940908
10
-91.971691642153871
20
60.930498513940904
10
-91.172291642153866
20
60.930498513940904
10
-91.172291642153866
20
64.029998513940896
10
-91.971691642153871
20
64.029998513940896
10
-91.971691642153871
20
69.830098513940897
10
-91.172291642153866
20
69.830098513940897
10
-91.172291642153866
20
72.930598513940907
10
-91.971691642153871
20
72.930598513940907
10
-91.971691642153871
20
73.929698513940906
10
-105.97099164215386
20
73.929698513940906
10
-105.97099164215386
20
72.930598513940907
10
-106.77199164215386
20
72.930598513940907
10
-106.77199164215386
20
69.830098513940897
10
-105.97099164215386
20
69.830098513940897
10
-105.97099164215386
20
64.029998513940896
10
-106.77199164215386
20
64.029998513940896
10
-106.77199164215386
20
60.930498513940904
10
-105.97099164215386
20
60.930498513940904
0
LWPOLYLINE
5
134
100
AcDbEntity
8
0
100
AcDbPolyline
90
20
70
1
43
0.0
10
-53.871691642153863
20
41.880498513940907
10
-53.072291642153857
20
41.880498513940907
10
-53.072291642153857
20
44.979998513940899
10
-53.871691642153863
20
44.979998513940899
10
-53.871691642153863
20
50.780098513940899
10
-53.072291642153857
20
50.780098513940899
10
-53.072291642153857
20
53.880598513940896
10
-53.871691642153863
20
53.880598513940896
10
-53.871691642153863
20
54.879698513940902
10
-67.870991642153854
20
54.879698513940902
10
-67.870991642153854
20
53.880598513940896
10
-68.671791642153863
20
53.880598513940896
10
-68.671791642153863
20
50.780098513940899
10
-67.870991642153854
20
50.780098513940899
10
-67.870991642153854
20
44.979998513940899
10
-68.671791642153863
20
44.979998513940899
10
-68.671791642153863
20
41.880498513940907
10
-67.870991642153854
20
41.880498513940907
10
-67.870991642153854
20
40.880398513940897
10
-53.871691642153863
20
40.880398513940897
0
LWPOLYLINE
5
135
100
AcDbEntity
8
0
100
AcDbPolyline
90
20
70
1
43
0.0
10
-143.07199164215385
20
44.842098513940911
10
-139.97099164215385
20
44.842098513940911
10
-139.97099164215385
20
45.642898513940899
10
-134.17099164215384
20
45.642898513940899
10
-134.17099164215384
20
44.842098513940911
10
-131.07199164215385
20
44.842098513940911
10
-131.07199164215385
20
45.642898513940899
10
-130.07199164215388
20
45.642898513940899
10
-130.07199164215388
20
59.642198513940905
10
-131.07199164215385
20
59.642198513940905
10
-131.07199164215385
20
60.4429985139409
10
-134.17099164215384
20
60.4429985139409
10
-134.17099164215384
20
59.642198513940905
10
-139.97099164215385
20
59.642198513940905
10
-139.97099164215385
20
60.4429985139409
10
-143.07199164215385
20
60.4429985139409
10
-143.07199164215385
20
59.642198513940905
10
-144.07099164215384
20
59.642198513940905
10
-144.07099164215384
20
45.642898513940899
10
-143.07199164215385
20
45.642898513940899
0
LWPOLYLINE
5
136
100
AcDbEntity
8
0
100
AcDbPolyline
90
20
70
1
43
0.0
10
-14.972391642153831
20
107.9300485139409
10
-14.972391642153831
20
111.03064851394092
10
-15.771691642153876
20
111.03064851394092
10
-15.771691642153876
20
112.02972851394091
10
-29.771091642153849
20
112.02972851394091
10
-29.771091642153849
20
111.03064851394092
10
-30.571791642153876
20
111.03064851394092
10
-30.571791642153876
20
107.9300485139409
10
-29.771091642153849
20
107.9300485139409
10
-29.771091642153849
20
102.1298985139409
10
-30.571791642153876
20
102.1298985139409
10
-30.571791642153876
20
99.030698513940905
10
-29.771091642153849
20
99.030698513940905
10
-29.771091642153849
20
98.030198513940903
10
-15.771691642153876
20
98.030198513940903
10
-15.771691642153876
20
99.030698513940905
10
-14.972391642153831
20
99.030698513940905
10
-14.972391642153831
20
102.1298985139409
10
-15.771691642153876
20
102.1298985139409
10
-15.771691642153876
20
107.9300485139409
0
LWPOLYLINE
5
137
100
AcDbEntity
8
0
100
AcDbPolyline
90
20
70
1
43
0.0
10
-34.022391642153842
20
99.030698513940905
10
-34.022391642153842
20
102.1298985139409
10
-34.821691642153851
20
102.1298985139409
10
-34.821691642153851
20
107.9300485139409
10
-34.022391642153842
20
107.9300485139409
10
-34.022391642153842
20
111.03064851394092
10
-34.821691642153851
20
111.03064851394092
10
-34.821691642153851
20
112.02972851394091
10
-48.820991642153864
20
112.02972851394091
10
-48.820991642153864
20
111.03064851394092
10
-49.621791642153852
20
111.03064851394092
10
-49.621791642153852
20
107.9300485139409
10
-48.820991642153864
20
107.9300485139409
10
-48.820991642153864
20
102.1298985139409
10
-49.621791642153852
20
102.1298985139409
10
-49.621791642153852
20
99.030698513940905
10
-48.820991642153864
20
99.030698513940905
10
-48.820991642153864
20
98.030198513940903
10
-34.821691642153851
20
98.030198513940903
10
-34.821691642153851
20
99.030698513940905
0
LWPOLYLINE
5
138
100
AcDbEntity
8
0
100
AcDbPolyline
90
20
70
1
43
0.0
10
-34.022391642153842
20
72.930598513940907
10
-34.821691642153851
20
72.930598513940907
10
-34.821691642153851
20
73.929698513940906
10
-48.820991642153864
20
73.929698513940906
10
-48.820991642153864
20
72.930598513940907
10
-49.621791642153852
20
72.930598513940907
10
-49.621791642153852
20
69.830098513940897
10
-48.820991642153864
20
69.830098513940897
10
-48.820991642153864
20
64.029998513940896
10
-49.621791642153852
20
64.029998513940896
10
-49.621791642153852
20
60.930498513940904
10
-48.820991642153864
20
60.930498513940904
10
-48.820991642153864
20
59.930398513940908
10
-34.821691642153851
20
59.930398513940908
10
-34.821691642153851
20
60.930498513940904
10
-34.022391642153842
20
60.930498513940904
10
-34.022391642153842
20
64.029998513940896
10
-34.821691642153851
20
64.029998513940896
10
-34.821691642153851
20
69.830098513940897
10
-34.022391642153842
20
69.830098513940897
0
LWPOLYLINE
5
139
100
AcDbEntity
8
0
100
AcDbPolyline
90
10
70
1
43
0.0
10
5.4914783578461543
20
119.82994451394094
10
5.4914783578461579
20
1.0303985139409386
42
-0.41421356237309515
10
1.491478357846141
20
-2.9696014860590796
10
-151.87199164215386
20
-2.9696014860590747
42
-0.41421356237309315
10
-155.87199164215383
20
1.03039851394092
10
-155.87199164215386
20
119.82972851394092
42
-0.41421356237309243
10
-151.87199164215386
20
123.82972851394092
10
-151.87199164215386
20
123.82994451394094
10
1.4916083578461308
20
123.82994451394094
42
-0.41421356237309309
10
5.4916083578461325
20
119.82994451394094
0
ENDSEC
0
SECTION
2
OBJECTS
0
DICTIONARY
5
C
100
AcDbDictionary
3
ACAD_GROUP
350
D
3
ACAD_MLINESTYLE
350
17
0
DICTIONARY
5
D
100
AcDbDictionary
0
DICTIONARY
5
1A
330
C
100
AcDbDictionary
0
DICTIONARY
5
17
100
AcDbDictionary
0
ENDSEC
0
EOF
