%TF.GenerationSoftware,KiCad,Pcbnew,(5.1.6)-1*%
%TF.CreationDate,2020-06-26T14:35:25+02:00*%
%TF.ProjectId,aW_2,61575f32-2e6b-4696-9361-645f70636258,v1.0*%
%TF.SameCoordinates,Original*%
%TF.FileFunction,Soldermask,Top*%
%TF.FilePolarity,Negative*%
%FSLAX46Y46*%
G04 Gerber Fmt 4.6, Leading zero omitted, Abs format (unit mm)*
G04 Created by KiCad (PCBNEW (5.1.6)-1) date 2020-06-26 14:35:25*
%MOMM*%
%LPD*%
G01*
G04 APERTURE LIST*
%ADD10C,2.386000*%
%ADD11C,1.000000*%
%ADD12R,1.100000X1.700000*%
%ADD13O,1.100000X1.100000*%
%ADD14R,1.100000X1.100000*%
%ADD15R,0.650000X1.800000*%
%ADD16R,1.100000X1.000000*%
%ADD17R,1.000000X1.300000*%
%ADD18R,1.300000X1.000000*%
%ADD19R,3.500000X1.600000*%
%ADD20R,3.600000X1.100000*%
%ADD21C,0.750000*%
%ADD22R,2.100000X2.280000*%
%ADD23R,1.250000X0.400000*%
%ADD24R,1.250000X0.700000*%
%ADD25R,2.280000X2.100000*%
%ADD26R,0.400000X1.250000*%
%ADD27R,0.700000X1.250000*%
%ADD28R,1.600000X1.100000*%
%ADD29C,0.100000*%
%ADD30R,1.500000X1.100000*%
%ADD31R,1.450000X0.700000*%
%ADD32R,1.160000X0.750000*%
%ADD33R,2.070000X0.510000*%
%ADD34R,0.600000X1.300000*%
%ADD35R,1.300000X0.600000*%
%ADD36R,1.200000X2.000000*%
G04 APERTURE END LIST*
D10*
%TO.C,K33*%
X196792822Y-129241454D03*
X198062822Y-131781454D03*
X191712822Y-129241454D03*
X190442822Y-131781454D03*
%TD*%
%TO.C,K3*%
X130473422Y-53447854D03*
X131743422Y-55987854D03*
X125393422Y-53447854D03*
X124123422Y-55987854D03*
%TD*%
%TO.C,K13*%
X187318622Y-72396254D03*
X188588622Y-74936254D03*
X182238622Y-72396254D03*
X180968622Y-74936254D03*
%TD*%
%TO.C,K7*%
X206267022Y-53447854D03*
X207537022Y-55987854D03*
X201187022Y-53447854D03*
X199917022Y-55987854D03*
%TD*%
%TO.C,K12*%
X168370222Y-72396254D03*
X169640222Y-74936254D03*
X163290222Y-72396254D03*
X162020222Y-74936254D03*
%TD*%
%TO.C,K4*%
X149421822Y-53447854D03*
X150691822Y-55987854D03*
X144341822Y-53447854D03*
X143071822Y-55987854D03*
%TD*%
%TO.C,K16*%
X111525022Y-91344654D03*
X112795022Y-93884654D03*
X106445022Y-91344654D03*
X105175022Y-93884654D03*
%TD*%
%TO.C,K17*%
X130473422Y-91344654D03*
X131743422Y-93884654D03*
X125393422Y-91344654D03*
X124123422Y-93884654D03*
%TD*%
%TO.C,K20*%
X187318622Y-91344654D03*
X188588622Y-93884654D03*
X182238622Y-91344654D03*
X180968622Y-93884654D03*
%TD*%
%TO.C,K5*%
X168370222Y-53447854D03*
X169640222Y-55987854D03*
X163290222Y-53447854D03*
X162020222Y-55987854D03*
%TD*%
%TO.C,K11*%
X149421822Y-72396254D03*
X150691822Y-74936254D03*
X144341822Y-72396254D03*
X143071822Y-74936254D03*
%TD*%
%TO.C,K19*%
X168370222Y-91344654D03*
X169640222Y-93884654D03*
X163290222Y-91344654D03*
X162020222Y-93884654D03*
%TD*%
%TO.C,K18*%
X149421822Y-91344654D03*
X150691822Y-93884654D03*
X144341822Y-91344654D03*
X143071822Y-93884654D03*
%TD*%
%TO.C,K6*%
X187318622Y-53447854D03*
X188588622Y-55987854D03*
X182238622Y-53447854D03*
X180968622Y-55987854D03*
%TD*%
%TO.C,K9*%
X111525022Y-72396254D03*
X112795022Y-74936254D03*
X106445022Y-72396254D03*
X105175022Y-74936254D03*
%TD*%
%TO.C,K10*%
X130473422Y-72396254D03*
X131743422Y-74936254D03*
X125393422Y-72396254D03*
X124123422Y-74936254D03*
%TD*%
%TO.C,K2*%
X111525022Y-53447854D03*
X112795022Y-55987854D03*
X106445022Y-53447854D03*
X105175022Y-55987854D03*
%TD*%
%TO.C,K28*%
X92576622Y-129241454D03*
X93846622Y-131781454D03*
X87496622Y-129241454D03*
X86226622Y-131781454D03*
%TD*%
%TO.C,K30*%
X130473422Y-129241454D03*
X131743422Y-131781454D03*
X125393422Y-129241454D03*
X124123422Y-131781454D03*
%TD*%
%TO.C,K23*%
X111525022Y-110293054D03*
X112795022Y-112833054D03*
X106445022Y-110293054D03*
X105175022Y-112833054D03*
%TD*%
%TO.C,K32*%
X168370222Y-129241454D03*
X169640222Y-131781454D03*
X163290222Y-129241454D03*
X162020222Y-131781454D03*
%TD*%
%TO.C,K27*%
X187318622Y-110293054D03*
X188588622Y-112833054D03*
X182238622Y-110293054D03*
X180968622Y-112833054D03*
%TD*%
%TO.C,K25*%
X149421822Y-110293054D03*
X150691822Y-112833054D03*
X144341822Y-110293054D03*
X143071822Y-112833054D03*
%TD*%
%TO.C,K29*%
X111525022Y-129241454D03*
X112795022Y-131781454D03*
X106445022Y-129241454D03*
X105175022Y-131781454D03*
%TD*%
%TO.C,K26*%
X168370222Y-110293054D03*
X169640222Y-112833054D03*
X163290222Y-110293054D03*
X162020222Y-112833054D03*
%TD*%
%TO.C,K24*%
X130473422Y-110293054D03*
X131743422Y-112833054D03*
X125393422Y-110293054D03*
X124123422Y-112833054D03*
%TD*%
%TO.C,K31*%
X149421822Y-129241454D03*
X150691822Y-131781454D03*
X144341822Y-129241454D03*
X143071822Y-131781454D03*
%TD*%
%TO.C,K14*%
X208807022Y-79673354D03*
X206267022Y-78403354D03*
X208807022Y-84753354D03*
X206267022Y-86023354D03*
%TD*%
%TO.C,K8*%
X82759522Y-72396254D03*
X81489522Y-74936254D03*
X87839522Y-72396254D03*
X89109522Y-74936254D03*
%TD*%
%TO.C,K21*%
X208807022Y-108095954D03*
X206267022Y-106825954D03*
X208807022Y-113175954D03*
X206267022Y-114445954D03*
%TD*%
%TO.C,K22*%
X82759522Y-110293054D03*
X81489522Y-112833054D03*
X87839522Y-110293054D03*
X89109522Y-112833054D03*
%TD*%
%TO.C,K1*%
X82759522Y-53447854D03*
X81489522Y-55987854D03*
X87839522Y-53447854D03*
X89109522Y-55987854D03*
%TD*%
%TO.C,K15*%
X82759522Y-91344654D03*
X81489522Y-93884654D03*
X87839522Y-91344654D03*
X89109522Y-93884654D03*
%TD*%
D11*
%TO.C,S1*%
X162398640Y-33159728D03*
X169198640Y-33159728D03*
D12*
X163298640Y-31959728D03*
X165798640Y-31959728D03*
X168298640Y-31959728D03*
X163298640Y-34359728D03*
X165798640Y-34359728D03*
X168298640Y-34359728D03*
%TD*%
D13*
%TO.C,J4*%
X99229942Y-34850418D03*
X99229942Y-36120418D03*
X97959942Y-34850418D03*
X97959942Y-36120418D03*
X96689942Y-34850418D03*
X96689942Y-36120418D03*
X95419942Y-34850418D03*
X95419942Y-36120418D03*
X94149942Y-34850418D03*
D14*
X94149942Y-36120418D03*
%TD*%
D15*
%TO.C,SW2*%
X126958256Y-36712556D03*
D16*
X126333256Y-38762556D03*
X124733256Y-38762556D03*
X124733256Y-34662556D03*
X126333256Y-34662556D03*
%TD*%
%TO.C,R10*%
G36*
G01*
X96378494Y-38883608D02*
X96378494Y-39278608D01*
G75*
G02*
X96205994Y-39451108I-172500J0D01*
G01*
X95860994Y-39451108D01*
G75*
G02*
X95688494Y-39278608I0J172500D01*
G01*
X95688494Y-38883608D01*
G75*
G02*
X95860994Y-38711108I172500J0D01*
G01*
X96205994Y-38711108D01*
G75*
G02*
X96378494Y-38883608I0J-172500D01*
G01*
G37*
G36*
G01*
X97348494Y-38883608D02*
X97348494Y-39278608D01*
G75*
G02*
X97175994Y-39451108I-172500J0D01*
G01*
X96830994Y-39451108D01*
G75*
G02*
X96658494Y-39278608I0J172500D01*
G01*
X96658494Y-38883608D01*
G75*
G02*
X96830994Y-38711108I172500J0D01*
G01*
X97175994Y-38711108D01*
G75*
G02*
X97348494Y-38883608I0J-172500D01*
G01*
G37*
%TD*%
%TO.C,R11*%
G36*
G01*
X103172012Y-48160678D02*
X103172012Y-47765678D01*
G75*
G02*
X103344512Y-47593178I172500J0D01*
G01*
X103689512Y-47593178D01*
G75*
G02*
X103862012Y-47765678I0J-172500D01*
G01*
X103862012Y-48160678D01*
G75*
G02*
X103689512Y-48333178I-172500J0D01*
G01*
X103344512Y-48333178D01*
G75*
G02*
X103172012Y-48160678I0J172500D01*
G01*
G37*
G36*
G01*
X102202012Y-48160678D02*
X102202012Y-47765678D01*
G75*
G02*
X102374512Y-47593178I172500J0D01*
G01*
X102719512Y-47593178D01*
G75*
G02*
X102892012Y-47765678I0J-172500D01*
G01*
X102892012Y-48160678D01*
G75*
G02*
X102719512Y-48333178I-172500J0D01*
G01*
X102374512Y-48333178D01*
G75*
G02*
X102202012Y-48160678I0J172500D01*
G01*
G37*
%TD*%
%TO.C,R14*%
G36*
G01*
X103172012Y-49937092D02*
X103172012Y-49542092D01*
G75*
G02*
X103344512Y-49369592I172500J0D01*
G01*
X103689512Y-49369592D01*
G75*
G02*
X103862012Y-49542092I0J-172500D01*
G01*
X103862012Y-49937092D01*
G75*
G02*
X103689512Y-50109592I-172500J0D01*
G01*
X103344512Y-50109592D01*
G75*
G02*
X103172012Y-49937092I0J172500D01*
G01*
G37*
G36*
G01*
X102202012Y-49937092D02*
X102202012Y-49542092D01*
G75*
G02*
X102374512Y-49369592I172500J0D01*
G01*
X102719512Y-49369592D01*
G75*
G02*
X102892012Y-49542092I0J-172500D01*
G01*
X102892012Y-49937092D01*
G75*
G02*
X102719512Y-50109592I-172500J0D01*
G01*
X102374512Y-50109592D01*
G75*
G02*
X102202012Y-49937092I0J172500D01*
G01*
G37*
%TD*%
D17*
%TO.C,D35*%
X192602822Y-139744568D03*
X195902822Y-139744568D03*
%TD*%
%TO.C,D34*%
X164180222Y-139744568D03*
X167480222Y-139744568D03*
%TD*%
%TO.C,D33*%
X145231822Y-139744568D03*
X148531822Y-139744568D03*
%TD*%
%TO.C,D32*%
X126283422Y-139744568D03*
X129583422Y-139744568D03*
%TD*%
%TO.C,D31*%
X107335022Y-139744568D03*
X110635022Y-139744568D03*
%TD*%
%TO.C,D30*%
X88380272Y-139744568D03*
X91680272Y-139744568D03*
%TD*%
%TO.C,D29*%
X183128622Y-120796152D03*
X186428622Y-120796152D03*
%TD*%
%TO.C,D28*%
X164180222Y-120796152D03*
X167480222Y-120796152D03*
%TD*%
%TO.C,D27*%
X145200224Y-120796152D03*
X148500224Y-120796152D03*
%TD*%
%TO.C,D26*%
X126283422Y-120796152D03*
X129583422Y-120796152D03*
%TD*%
%TO.C,D25*%
X107335022Y-120796152D03*
X110635022Y-120796152D03*
%TD*%
%TO.C,D24*%
X83649522Y-120796152D03*
X86949522Y-120796152D03*
%TD*%
D18*
%TO.C,D23*%
X198366230Y-108985954D03*
X198366230Y-112285954D03*
%TD*%
D17*
%TO.C,D22*%
X183128622Y-101847736D03*
X186428622Y-101847736D03*
%TD*%
%TO.C,D21*%
X164180222Y-101847736D03*
X167480222Y-101847736D03*
%TD*%
%TO.C,D20*%
X145200224Y-101847736D03*
X148500224Y-101847736D03*
%TD*%
%TO.C,D19*%
X126283422Y-101847736D03*
X129583422Y-101847736D03*
%TD*%
%TO.C,D18*%
X107325273Y-101847736D03*
X110625273Y-101847736D03*
%TD*%
%TO.C,D17*%
X83617872Y-101847736D03*
X86917872Y-101847736D03*
%TD*%
D18*
%TO.C,D16*%
X198366230Y-80657182D03*
X198366230Y-83957182D03*
%TD*%
D17*
%TO.C,D15*%
X183128622Y-82899320D03*
X186428622Y-82899320D03*
%TD*%
%TO.C,D14*%
X164148640Y-82899320D03*
X167448640Y-82899320D03*
%TD*%
%TO.C,D13*%
X145200224Y-82899320D03*
X148500224Y-82899320D03*
%TD*%
%TO.C,D12*%
X126251808Y-82899320D03*
X129551808Y-82899320D03*
%TD*%
%TO.C,D11*%
X107303392Y-82899320D03*
X110603392Y-82899320D03*
%TD*%
%TO.C,D10*%
X83617872Y-82899320D03*
X86917872Y-82899320D03*
%TD*%
%TO.C,D9*%
X202077022Y-63950904D03*
X205377022Y-63950904D03*
%TD*%
%TO.C,D8*%
X183128622Y-63950904D03*
X186428622Y-63950904D03*
%TD*%
%TO.C,D7*%
X164180222Y-63950904D03*
X167480222Y-63950904D03*
%TD*%
%TO.C,D6*%
X145231822Y-63950904D03*
X148531822Y-63950904D03*
%TD*%
%TO.C,D5*%
X126251808Y-63950904D03*
X129551808Y-63950904D03*
%TD*%
%TO.C,D4*%
X107335022Y-63950904D03*
X110635022Y-63950904D03*
%TD*%
%TO.C,D3*%
X83649522Y-63950904D03*
X86949522Y-63950904D03*
%TD*%
D19*
%TO.C,BT1*%
X192616230Y-36915384D03*
X192616230Y-43615384D03*
D20*
X198366230Y-39265384D03*
X198366230Y-41265384D03*
%TD*%
%TO.C,C2*%
G36*
G01*
X151306078Y-48263178D02*
X151868578Y-48263178D01*
G75*
G02*
X152112328Y-48506928I0J-243750D01*
G01*
X152112328Y-48994428D01*
G75*
G02*
X151868578Y-49238178I-243750J0D01*
G01*
X151306078Y-49238178D01*
G75*
G02*
X151062328Y-48994428I0J243750D01*
G01*
X151062328Y-48506928D01*
G75*
G02*
X151306078Y-48263178I243750J0D01*
G01*
G37*
G36*
G01*
X151306078Y-46688178D02*
X151868578Y-46688178D01*
G75*
G02*
X152112328Y-46931928I0J-243750D01*
G01*
X152112328Y-47419428D01*
G75*
G02*
X151868578Y-47663178I-243750J0D01*
G01*
X151306078Y-47663178D01*
G75*
G02*
X151062328Y-47419428I0J243750D01*
G01*
X151062328Y-46931928D01*
G75*
G02*
X151306078Y-46688178I243750J0D01*
G01*
G37*
%TD*%
%TO.C,C3*%
G36*
G01*
X155451044Y-48263178D02*
X156013544Y-48263178D01*
G75*
G02*
X156257294Y-48506928I0J-243750D01*
G01*
X156257294Y-48994428D01*
G75*
G02*
X156013544Y-49238178I-243750J0D01*
G01*
X155451044Y-49238178D01*
G75*
G02*
X155207294Y-48994428I0J243750D01*
G01*
X155207294Y-48506928D01*
G75*
G02*
X155451044Y-48263178I243750J0D01*
G01*
G37*
G36*
G01*
X155451044Y-46688178D02*
X156013544Y-46688178D01*
G75*
G02*
X156257294Y-46931928I0J-243750D01*
G01*
X156257294Y-47419428D01*
G75*
G02*
X156013544Y-47663178I-243750J0D01*
G01*
X155451044Y-47663178D01*
G75*
G02*
X155207294Y-47419428I0J243750D01*
G01*
X155207294Y-46931928D01*
G75*
G02*
X155451044Y-46688178I243750J0D01*
G01*
G37*
%TD*%
%TO.C,C4*%
G36*
G01*
X165601140Y-48103178D02*
X165996140Y-48103178D01*
G75*
G02*
X166168640Y-48275678I0J-172500D01*
G01*
X166168640Y-48620678D01*
G75*
G02*
X165996140Y-48793178I-172500J0D01*
G01*
X165601140Y-48793178D01*
G75*
G02*
X165428640Y-48620678I0J172500D01*
G01*
X165428640Y-48275678D01*
G75*
G02*
X165601140Y-48103178I172500J0D01*
G01*
G37*
G36*
G01*
X165601140Y-47133178D02*
X165996140Y-47133178D01*
G75*
G02*
X166168640Y-47305678I0J-172500D01*
G01*
X166168640Y-47650678D01*
G75*
G02*
X165996140Y-47823178I-172500J0D01*
G01*
X165601140Y-47823178D01*
G75*
G02*
X165428640Y-47650678I0J172500D01*
G01*
X165428640Y-47305678D01*
G75*
G02*
X165601140Y-47133178I172500J0D01*
G01*
G37*
%TD*%
%TO.C,C5*%
G36*
G01*
X169153968Y-48103178D02*
X169548968Y-48103178D01*
G75*
G02*
X169721468Y-48275678I0J-172500D01*
G01*
X169721468Y-48620678D01*
G75*
G02*
X169548968Y-48793178I-172500J0D01*
G01*
X169153968Y-48793178D01*
G75*
G02*
X168981468Y-48620678I0J172500D01*
G01*
X168981468Y-48275678D01*
G75*
G02*
X169153968Y-48103178I172500J0D01*
G01*
G37*
G36*
G01*
X169153968Y-47133178D02*
X169548968Y-47133178D01*
G75*
G02*
X169721468Y-47305678I0J-172500D01*
G01*
X169721468Y-47650678D01*
G75*
G02*
X169548968Y-47823178I-172500J0D01*
G01*
X169153968Y-47823178D01*
G75*
G02*
X168981468Y-47650678I0J172500D01*
G01*
X168981468Y-47305678D01*
G75*
G02*
X169153968Y-47133178I172500J0D01*
G01*
G37*
%TD*%
%TO.C,C6*%
G36*
G01*
X115606910Y-44607850D02*
X115606910Y-44212850D01*
G75*
G02*
X115779410Y-44040350I172500J0D01*
G01*
X116124410Y-44040350D01*
G75*
G02*
X116296910Y-44212850I0J-172500D01*
G01*
X116296910Y-44607850D01*
G75*
G02*
X116124410Y-44780350I-172500J0D01*
G01*
X115779410Y-44780350D01*
G75*
G02*
X115606910Y-44607850I0J172500D01*
G01*
G37*
G36*
G01*
X114636910Y-44607850D02*
X114636910Y-44212850D01*
G75*
G02*
X114809410Y-44040350I172500J0D01*
G01*
X115154410Y-44040350D01*
G75*
G02*
X115326910Y-44212850I0J-172500D01*
G01*
X115326910Y-44607850D01*
G75*
G02*
X115154410Y-44780350I-172500J0D01*
G01*
X114809410Y-44780350D01*
G75*
G02*
X114636910Y-44607850I0J172500D01*
G01*
G37*
%TD*%
%TO.C,C7*%
G36*
G01*
X115606910Y-43423574D02*
X115606910Y-43028574D01*
G75*
G02*
X115779410Y-42856074I172500J0D01*
G01*
X116124410Y-42856074D01*
G75*
G02*
X116296910Y-43028574I0J-172500D01*
G01*
X116296910Y-43423574D01*
G75*
G02*
X116124410Y-43596074I-172500J0D01*
G01*
X115779410Y-43596074D01*
G75*
G02*
X115606910Y-43423574I0J172500D01*
G01*
G37*
G36*
G01*
X114636910Y-43423574D02*
X114636910Y-43028574D01*
G75*
G02*
X114809410Y-42856074I172500J0D01*
G01*
X115154410Y-42856074D01*
G75*
G02*
X115326910Y-43028574I0J-172500D01*
G01*
X115326910Y-43423574D01*
G75*
G02*
X115154410Y-43596074I-172500J0D01*
G01*
X114809410Y-43596074D01*
G75*
G02*
X114636910Y-43423574I0J172500D01*
G01*
G37*
%TD*%
%TO.C,C8*%
G36*
G01*
X115606910Y-42239298D02*
X115606910Y-41844298D01*
G75*
G02*
X115779410Y-41671798I172500J0D01*
G01*
X116124410Y-41671798D01*
G75*
G02*
X116296910Y-41844298I0J-172500D01*
G01*
X116296910Y-42239298D01*
G75*
G02*
X116124410Y-42411798I-172500J0D01*
G01*
X115779410Y-42411798D01*
G75*
G02*
X115606910Y-42239298I0J172500D01*
G01*
G37*
G36*
G01*
X114636910Y-42239298D02*
X114636910Y-41844298D01*
G75*
G02*
X114809410Y-41671798I172500J0D01*
G01*
X115154410Y-41671798D01*
G75*
G02*
X115326910Y-41844298I0J-172500D01*
G01*
X115326910Y-42239298D01*
G75*
G02*
X115154410Y-42411798I-172500J0D01*
G01*
X114809410Y-42411798D01*
G75*
G02*
X114636910Y-42239298I0J172500D01*
G01*
G37*
%TD*%
%TO.C,C9*%
G36*
G01*
X120063876Y-44212780D02*
X120063876Y-44607780D01*
G75*
G02*
X119891376Y-44780280I-172500J0D01*
G01*
X119546376Y-44780280D01*
G75*
G02*
X119373876Y-44607780I0J172500D01*
G01*
X119373876Y-44212780D01*
G75*
G02*
X119546376Y-44040280I172500J0D01*
G01*
X119891376Y-44040280D01*
G75*
G02*
X120063876Y-44212780I0J-172500D01*
G01*
G37*
G36*
G01*
X121033876Y-44212780D02*
X121033876Y-44607780D01*
G75*
G02*
X120861376Y-44780280I-172500J0D01*
G01*
X120516376Y-44780280D01*
G75*
G02*
X120343876Y-44607780I0J172500D01*
G01*
X120343876Y-44212780D01*
G75*
G02*
X120516376Y-44040280I172500J0D01*
G01*
X120861376Y-44040280D01*
G75*
G02*
X121033876Y-44212780I0J-172500D01*
G01*
G37*
%TD*%
%TO.C,C10*%
G36*
G01*
X120063876Y-41844232D02*
X120063876Y-42239232D01*
G75*
G02*
X119891376Y-42411732I-172500J0D01*
G01*
X119546376Y-42411732D01*
G75*
G02*
X119373876Y-42239232I0J172500D01*
G01*
X119373876Y-41844232D01*
G75*
G02*
X119546376Y-41671732I172500J0D01*
G01*
X119891376Y-41671732D01*
G75*
G02*
X120063876Y-41844232I0J-172500D01*
G01*
G37*
G36*
G01*
X121033876Y-41844232D02*
X121033876Y-42239232D01*
G75*
G02*
X120861376Y-42411732I-172500J0D01*
G01*
X120516376Y-42411732D01*
G75*
G02*
X120343876Y-42239232I0J172500D01*
G01*
X120343876Y-41844232D01*
G75*
G02*
X120516376Y-41671732I172500J0D01*
G01*
X120861376Y-41671732D01*
G75*
G02*
X121033876Y-41844232I0J-172500D01*
G01*
G37*
%TD*%
%TO.C,C11*%
G36*
G01*
X96218494Y-40576272D02*
X96218494Y-41138772D01*
G75*
G02*
X95974744Y-41382522I-243750J0D01*
G01*
X95487244Y-41382522D01*
G75*
G02*
X95243494Y-41138772I0J243750D01*
G01*
X95243494Y-40576272D01*
G75*
G02*
X95487244Y-40332522I243750J0D01*
G01*
X95974744Y-40332522D01*
G75*
G02*
X96218494Y-40576272I0J-243750D01*
G01*
G37*
G36*
G01*
X97793494Y-40576272D02*
X97793494Y-41138772D01*
G75*
G02*
X97549744Y-41382522I-243750J0D01*
G01*
X97062244Y-41382522D01*
G75*
G02*
X96818494Y-41138772I0J243750D01*
G01*
X96818494Y-40576272D01*
G75*
G02*
X97062244Y-40332522I243750J0D01*
G01*
X97549744Y-40332522D01*
G75*
G02*
X97793494Y-40576272I0J-243750D01*
G01*
G37*
%TD*%
%TO.C,C12*%
G36*
G01*
X79741130Y-50471730D02*
X80136130Y-50471730D01*
G75*
G02*
X80308630Y-50644230I0J-172500D01*
G01*
X80308630Y-50989230D01*
G75*
G02*
X80136130Y-51161730I-172500J0D01*
G01*
X79741130Y-51161730D01*
G75*
G02*
X79568630Y-50989230I0J172500D01*
G01*
X79568630Y-50644230D01*
G75*
G02*
X79741130Y-50471730I172500J0D01*
G01*
G37*
G36*
G01*
X79741130Y-49501730D02*
X80136130Y-49501730D01*
G75*
G02*
X80308630Y-49674230I0J-172500D01*
G01*
X80308630Y-50019230D01*
G75*
G02*
X80136130Y-50191730I-172500J0D01*
G01*
X79741130Y-50191730D01*
G75*
G02*
X79568630Y-50019230I0J172500D01*
G01*
X79568630Y-49674230D01*
G75*
G02*
X79741130Y-49501730I172500J0D01*
G01*
G37*
%TD*%
%TO.C,C13*%
G36*
G01*
X85862666Y-50471730D02*
X86257666Y-50471730D01*
G75*
G02*
X86430166Y-50644230I0J-172500D01*
G01*
X86430166Y-50989230D01*
G75*
G02*
X86257666Y-51161730I-172500J0D01*
G01*
X85862666Y-51161730D01*
G75*
G02*
X85690166Y-50989230I0J172500D01*
G01*
X85690166Y-50644230D01*
G75*
G02*
X85862666Y-50471730I172500J0D01*
G01*
G37*
G36*
G01*
X85862666Y-49501730D02*
X86257666Y-49501730D01*
G75*
G02*
X86430166Y-49674230I0J-172500D01*
G01*
X86430166Y-50019230D01*
G75*
G02*
X86257666Y-50191730I-172500J0D01*
G01*
X85862666Y-50191730D01*
G75*
G02*
X85690166Y-50019230I0J172500D01*
G01*
X85690166Y-49674230D01*
G75*
G02*
X85862666Y-49501730I172500J0D01*
G01*
G37*
%TD*%
D17*
%TO.C,D1*%
X160935122Y-47963178D03*
X157635122Y-47963178D03*
%TD*%
%TO.C,D2*%
G36*
G01*
X118908850Y-35720418D02*
X117946350Y-35720418D01*
G75*
G02*
X117677600Y-35451668I0J268750D01*
G01*
X117677600Y-34914168D01*
G75*
G02*
X117946350Y-34645418I268750J0D01*
G01*
X118908850Y-34645418D01*
G75*
G02*
X119177600Y-34914168I0J-268750D01*
G01*
X119177600Y-35451668D01*
G75*
G02*
X118908850Y-35720418I-268750J0D01*
G01*
G37*
G36*
G01*
X118908850Y-37595418D02*
X117946350Y-37595418D01*
G75*
G02*
X117677600Y-37326668I0J268750D01*
G01*
X117677600Y-36789168D01*
G75*
G02*
X117946350Y-36520418I268750J0D01*
G01*
X118908850Y-36520418D01*
G75*
G02*
X119177600Y-36789168I0J-268750D01*
G01*
X119177600Y-37326668D01*
G75*
G02*
X118908850Y-37595418I-268750J0D01*
G01*
G37*
%TD*%
%TO.C,D36*%
G36*
G01*
X115577798Y-36520418D02*
X116540298Y-36520418D01*
G75*
G02*
X116809048Y-36789168I0J-268750D01*
G01*
X116809048Y-37326668D01*
G75*
G02*
X116540298Y-37595418I-268750J0D01*
G01*
X115577798Y-37595418D01*
G75*
G02*
X115309048Y-37326668I0J268750D01*
G01*
X115309048Y-36789168D01*
G75*
G02*
X115577798Y-36520418I268750J0D01*
G01*
G37*
G36*
G01*
X115577798Y-34645418D02*
X116540298Y-34645418D01*
G75*
G02*
X116809048Y-34914168I0J-268750D01*
G01*
X116809048Y-35451668D01*
G75*
G02*
X116540298Y-35720418I-268750J0D01*
G01*
X115577798Y-35720418D01*
G75*
G02*
X115309048Y-35451668I0J268750D01*
G01*
X115309048Y-34914168D01*
G75*
G02*
X115577798Y-34645418I268750J0D01*
G01*
G37*
%TD*%
D21*
%TO.C,J1*%
X210801128Y-46014352D03*
X210801128Y-40234352D03*
%TD*%
%TO.C,J2*%
X210801128Y-40234352D03*
X210801128Y-46014352D03*
D22*
X214231128Y-38014352D03*
X214231128Y-48234352D03*
X210301128Y-38014352D03*
X210301128Y-48234352D03*
D23*
X209726128Y-42874352D03*
X209726128Y-43374352D03*
X209726128Y-42374352D03*
X209726128Y-43874352D03*
X209726128Y-41874352D03*
X209726128Y-44374352D03*
X209726128Y-41374352D03*
X209726128Y-44874352D03*
D24*
X209726128Y-39924352D03*
X209726128Y-40724352D03*
X209726128Y-45524352D03*
X209726128Y-46324352D03*
%TD*%
D21*
%TO.C,J3*%
X139223120Y-35528280D03*
X145003120Y-35528280D03*
D25*
X137003120Y-32098280D03*
X147223120Y-32098280D03*
X137003120Y-36028280D03*
X147223120Y-36028280D03*
D26*
X141863120Y-36603280D03*
X142363120Y-36603280D03*
X141363120Y-36603280D03*
X142863120Y-36603280D03*
X140863120Y-36603280D03*
X143363120Y-36603280D03*
X140363120Y-36603280D03*
X143863120Y-36603280D03*
D27*
X138913120Y-36603280D03*
X139713120Y-36603280D03*
X144513120Y-36603280D03*
X145313120Y-36603280D03*
%TD*%
D28*
%TO.C,JP1*%
X73425112Y-42633936D03*
D29*
G36*
X74224510Y-43940047D02*
G01*
X74224510Y-43958470D01*
X74224269Y-43963371D01*
X74219459Y-44012202D01*
X74218739Y-44017055D01*
X74209167Y-44065180D01*
X74207975Y-44069941D01*
X74193731Y-44116896D01*
X74192078Y-44121515D01*
X74173301Y-44166848D01*
X74171203Y-44171285D01*
X74148072Y-44214558D01*
X74145550Y-44218765D01*
X74118290Y-44259564D01*
X74115366Y-44263506D01*
X74084238Y-44301435D01*
X74080943Y-44305070D01*
X74046246Y-44339767D01*
X74042611Y-44343062D01*
X74004682Y-44374190D01*
X74000740Y-44377114D01*
X73959941Y-44404374D01*
X73955734Y-44406896D01*
X73912461Y-44430027D01*
X73908024Y-44432125D01*
X73862691Y-44450902D01*
X73858072Y-44452555D01*
X73811117Y-44466799D01*
X73806356Y-44467991D01*
X73758231Y-44477563D01*
X73753378Y-44478283D01*
X73704547Y-44483093D01*
X73699646Y-44483334D01*
X73681223Y-44483334D01*
X73675112Y-44483936D01*
X73175112Y-44483936D01*
X73169001Y-44483334D01*
X73150578Y-44483334D01*
X73145677Y-44483093D01*
X73096846Y-44478283D01*
X73091993Y-44477563D01*
X73043868Y-44467991D01*
X73039107Y-44466799D01*
X72992152Y-44452555D01*
X72987533Y-44450902D01*
X72942200Y-44432125D01*
X72937763Y-44430027D01*
X72894490Y-44406896D01*
X72890283Y-44404374D01*
X72849484Y-44377114D01*
X72845542Y-44374190D01*
X72807613Y-44343062D01*
X72803978Y-44339767D01*
X72769281Y-44305070D01*
X72765986Y-44301435D01*
X72734858Y-44263506D01*
X72731934Y-44259564D01*
X72704674Y-44218765D01*
X72702152Y-44214558D01*
X72679021Y-44171285D01*
X72676923Y-44166848D01*
X72658146Y-44121515D01*
X72656493Y-44116896D01*
X72642249Y-44069941D01*
X72641057Y-44065180D01*
X72631485Y-44017055D01*
X72630765Y-44012202D01*
X72625955Y-43963371D01*
X72625714Y-43958470D01*
X72625714Y-43940047D01*
X72625112Y-43933936D01*
X72625112Y-43383936D01*
X72626073Y-43374181D01*
X72628918Y-43364802D01*
X72633539Y-43356157D01*
X72639757Y-43348581D01*
X72647333Y-43342363D01*
X72655978Y-43337742D01*
X72665357Y-43334897D01*
X72675112Y-43333936D01*
X74175112Y-43333936D01*
X74184867Y-43334897D01*
X74194246Y-43337742D01*
X74202891Y-43342363D01*
X74210467Y-43348581D01*
X74216685Y-43356157D01*
X74221306Y-43364802D01*
X74224151Y-43374181D01*
X74225112Y-43383936D01*
X74225112Y-43933936D01*
X74224510Y-43940047D01*
G37*
G36*
X74224151Y-41893691D02*
G01*
X74221306Y-41903070D01*
X74216685Y-41911715D01*
X74210467Y-41919291D01*
X74202891Y-41925509D01*
X74194246Y-41930130D01*
X74184867Y-41932975D01*
X74175112Y-41933936D01*
X72675112Y-41933936D01*
X72665357Y-41932975D01*
X72655978Y-41930130D01*
X72647333Y-41925509D01*
X72639757Y-41919291D01*
X72633539Y-41911715D01*
X72628918Y-41903070D01*
X72626073Y-41893691D01*
X72625112Y-41883936D01*
X72625112Y-41333936D01*
X72625714Y-41327825D01*
X72625714Y-41309402D01*
X72625955Y-41304501D01*
X72630765Y-41255670D01*
X72631485Y-41250817D01*
X72641057Y-41202692D01*
X72642249Y-41197931D01*
X72656493Y-41150976D01*
X72658146Y-41146357D01*
X72676923Y-41101024D01*
X72679021Y-41096587D01*
X72702152Y-41053314D01*
X72704674Y-41049107D01*
X72731934Y-41008308D01*
X72734858Y-41004366D01*
X72765986Y-40966437D01*
X72769281Y-40962802D01*
X72803978Y-40928105D01*
X72807613Y-40924810D01*
X72845542Y-40893682D01*
X72849484Y-40890758D01*
X72890283Y-40863498D01*
X72894490Y-40860976D01*
X72937763Y-40837845D01*
X72942200Y-40835747D01*
X72987533Y-40816970D01*
X72992152Y-40815317D01*
X73039107Y-40801073D01*
X73043868Y-40799881D01*
X73091993Y-40790309D01*
X73096846Y-40789589D01*
X73145677Y-40784779D01*
X73150578Y-40784538D01*
X73169001Y-40784538D01*
X73175112Y-40783936D01*
X73675112Y-40783936D01*
X73681223Y-40784538D01*
X73699646Y-40784538D01*
X73704547Y-40784779D01*
X73753378Y-40789589D01*
X73758231Y-40790309D01*
X73806356Y-40799881D01*
X73811117Y-40801073D01*
X73858072Y-40815317D01*
X73862691Y-40816970D01*
X73908024Y-40835747D01*
X73912461Y-40837845D01*
X73955734Y-40860976D01*
X73959941Y-40863498D01*
X74000740Y-40890758D01*
X74004682Y-40893682D01*
X74042611Y-40924810D01*
X74046246Y-40928105D01*
X74080943Y-40962802D01*
X74084238Y-40966437D01*
X74115366Y-41004366D01*
X74118290Y-41008308D01*
X74145550Y-41049107D01*
X74148072Y-41053314D01*
X74171203Y-41096587D01*
X74173301Y-41101024D01*
X74192078Y-41146357D01*
X74193731Y-41150976D01*
X74207975Y-41197931D01*
X74209167Y-41202692D01*
X74218739Y-41250817D01*
X74219459Y-41255670D01*
X74224269Y-41304501D01*
X74224510Y-41309402D01*
X74224510Y-41327825D01*
X74225112Y-41333936D01*
X74225112Y-41883936D01*
X74224151Y-41893691D01*
G37*
%TD*%
D30*
%TO.C,Q1*%
X158185122Y-43460350D03*
X158185122Y-45360350D03*
X160385122Y-44410350D03*
%TD*%
%TO.C,R2*%
G36*
G01*
X162048312Y-48103178D02*
X162443312Y-48103178D01*
G75*
G02*
X162615812Y-48275678I0J-172500D01*
G01*
X162615812Y-48620678D01*
G75*
G02*
X162443312Y-48793178I-172500J0D01*
G01*
X162048312Y-48793178D01*
G75*
G02*
X161875812Y-48620678I0J172500D01*
G01*
X161875812Y-48275678D01*
G75*
G02*
X162048312Y-48103178I172500J0D01*
G01*
G37*
G36*
G01*
X162048312Y-47133178D02*
X162443312Y-47133178D01*
G75*
G02*
X162615812Y-47305678I0J-172500D01*
G01*
X162615812Y-47650678D01*
G75*
G02*
X162443312Y-47823178I-172500J0D01*
G01*
X162048312Y-47823178D01*
G75*
G02*
X161875812Y-47650678I0J172500D01*
G01*
X161875812Y-47305678D01*
G75*
G02*
X162048312Y-47133178I172500J0D01*
G01*
G37*
%TD*%
%TO.C,R3*%
G36*
G01*
X153561242Y-47823178D02*
X153166242Y-47823178D01*
G75*
G02*
X152993742Y-47650678I0J172500D01*
G01*
X152993742Y-47305678D01*
G75*
G02*
X153166242Y-47133178I172500J0D01*
G01*
X153561242Y-47133178D01*
G75*
G02*
X153733742Y-47305678I0J-172500D01*
G01*
X153733742Y-47650678D01*
G75*
G02*
X153561242Y-47823178I-172500J0D01*
G01*
G37*
G36*
G01*
X153561242Y-48793178D02*
X153166242Y-48793178D01*
G75*
G02*
X152993742Y-48620678I0J172500D01*
G01*
X152993742Y-48275678D01*
G75*
G02*
X153166242Y-48103178I172500J0D01*
G01*
X153561242Y-48103178D01*
G75*
G02*
X153733742Y-48275678I0J-172500D01*
G01*
X153733742Y-48620678D01*
G75*
G02*
X153561242Y-48793178I-172500J0D01*
G01*
G37*
%TD*%
%TO.C,R4*%
G36*
G01*
X147582362Y-38686470D02*
X147582362Y-38291470D01*
G75*
G02*
X147754862Y-38118970I172500J0D01*
G01*
X148099862Y-38118970D01*
G75*
G02*
X148272362Y-38291470I0J-172500D01*
G01*
X148272362Y-38686470D01*
G75*
G02*
X148099862Y-38858970I-172500J0D01*
G01*
X147754862Y-38858970D01*
G75*
G02*
X147582362Y-38686470I0J172500D01*
G01*
G37*
G36*
G01*
X146612362Y-38686470D02*
X146612362Y-38291470D01*
G75*
G02*
X146784862Y-38118970I172500J0D01*
G01*
X147129862Y-38118970D01*
G75*
G02*
X147302362Y-38291470I0J-172500D01*
G01*
X147302362Y-38686470D01*
G75*
G02*
X147129862Y-38858970I-172500J0D01*
G01*
X146784862Y-38858970D01*
G75*
G02*
X146612362Y-38686470I0J172500D01*
G01*
G37*
%TD*%
%TO.C,R5*%
G36*
G01*
X136923878Y-38686470D02*
X136923878Y-38291470D01*
G75*
G02*
X137096378Y-38118970I172500J0D01*
G01*
X137441378Y-38118970D01*
G75*
G02*
X137613878Y-38291470I0J-172500D01*
G01*
X137613878Y-38686470D01*
G75*
G02*
X137441378Y-38858970I-172500J0D01*
G01*
X137096378Y-38858970D01*
G75*
G02*
X136923878Y-38686470I0J172500D01*
G01*
G37*
G36*
G01*
X135953878Y-38686470D02*
X135953878Y-38291470D01*
G75*
G02*
X136126378Y-38118970I172500J0D01*
G01*
X136471378Y-38118970D01*
G75*
G02*
X136643878Y-38291470I0J-172500D01*
G01*
X136643878Y-38686470D01*
G75*
G02*
X136471378Y-38858970I-172500J0D01*
G01*
X136126378Y-38858970D01*
G75*
G02*
X135953878Y-38686470I0J172500D01*
G01*
G37*
%TD*%
%TO.C,R6*%
G36*
G01*
X167180416Y-47823178D02*
X166785416Y-47823178D01*
G75*
G02*
X166612916Y-47650678I0J172500D01*
G01*
X166612916Y-47305678D01*
G75*
G02*
X166785416Y-47133178I172500J0D01*
G01*
X167180416Y-47133178D01*
G75*
G02*
X167352916Y-47305678I0J-172500D01*
G01*
X167352916Y-47650678D01*
G75*
G02*
X167180416Y-47823178I-172500J0D01*
G01*
G37*
G36*
G01*
X167180416Y-48793178D02*
X166785416Y-48793178D01*
G75*
G02*
X166612916Y-48620678I0J172500D01*
G01*
X166612916Y-48275678D01*
G75*
G02*
X166785416Y-48103178I172500J0D01*
G01*
X167180416Y-48103178D01*
G75*
G02*
X167352916Y-48275678I0J-172500D01*
G01*
X167352916Y-48620678D01*
G75*
G02*
X167180416Y-48793178I-172500J0D01*
G01*
G37*
%TD*%
%TO.C,R7*%
G36*
G01*
X167969692Y-48103178D02*
X168364692Y-48103178D01*
G75*
G02*
X168537192Y-48275678I0J-172500D01*
G01*
X168537192Y-48620678D01*
G75*
G02*
X168364692Y-48793178I-172500J0D01*
G01*
X167969692Y-48793178D01*
G75*
G02*
X167797192Y-48620678I0J172500D01*
G01*
X167797192Y-48275678D01*
G75*
G02*
X167969692Y-48103178I172500J0D01*
G01*
G37*
G36*
G01*
X167969692Y-47133178D02*
X168364692Y-47133178D01*
G75*
G02*
X168537192Y-47305678I0J-172500D01*
G01*
X168537192Y-47650678D01*
G75*
G02*
X168364692Y-47823178I-172500J0D01*
G01*
X167969692Y-47823178D01*
G75*
G02*
X167797192Y-47650678I0J172500D01*
G01*
X167797192Y-47305678D01*
G75*
G02*
X167969692Y-47133178I172500J0D01*
G01*
G37*
%TD*%
%TO.C,R8*%
G36*
G01*
X120344014Y-43423574D02*
X120344014Y-43028574D01*
G75*
G02*
X120516514Y-42856074I172500J0D01*
G01*
X120861514Y-42856074D01*
G75*
G02*
X121034014Y-43028574I0J-172500D01*
G01*
X121034014Y-43423574D01*
G75*
G02*
X120861514Y-43596074I-172500J0D01*
G01*
X120516514Y-43596074D01*
G75*
G02*
X120344014Y-43423574I0J172500D01*
G01*
G37*
G36*
G01*
X119374014Y-43423574D02*
X119374014Y-43028574D01*
G75*
G02*
X119546514Y-42856074I172500J0D01*
G01*
X119891514Y-42856074D01*
G75*
G02*
X120064014Y-43028574I0J-172500D01*
G01*
X120064014Y-43423574D01*
G75*
G02*
X119891514Y-43596074I-172500J0D01*
G01*
X119546514Y-43596074D01*
G75*
G02*
X119374014Y-43423574I0J172500D01*
G01*
G37*
%TD*%
%TO.C,R9*%
G36*
G01*
X120344014Y-45792126D02*
X120344014Y-45397126D01*
G75*
G02*
X120516514Y-45224626I172500J0D01*
G01*
X120861514Y-45224626D01*
G75*
G02*
X121034014Y-45397126I0J-172500D01*
G01*
X121034014Y-45792126D01*
G75*
G02*
X120861514Y-45964626I-172500J0D01*
G01*
X120516514Y-45964626D01*
G75*
G02*
X120344014Y-45792126I0J172500D01*
G01*
G37*
G36*
G01*
X119374014Y-45792126D02*
X119374014Y-45397126D01*
G75*
G02*
X119546514Y-45224626I172500J0D01*
G01*
X119891514Y-45224626D01*
G75*
G02*
X120064014Y-45397126I0J-172500D01*
G01*
X120064014Y-45792126D01*
G75*
G02*
X119891514Y-45964626I-172500J0D01*
G01*
X119546514Y-45964626D01*
G75*
G02*
X119374014Y-45792126I0J172500D01*
G01*
G37*
%TD*%
%TO.C,R12*%
G36*
G01*
X75991164Y-37756832D02*
X75596164Y-37756832D01*
G75*
G02*
X75423664Y-37584332I0J172500D01*
G01*
X75423664Y-37239332D01*
G75*
G02*
X75596164Y-37066832I172500J0D01*
G01*
X75991164Y-37066832D01*
G75*
G02*
X76163664Y-37239332I0J-172500D01*
G01*
X76163664Y-37584332D01*
G75*
G02*
X75991164Y-37756832I-172500J0D01*
G01*
G37*
G36*
G01*
X75991164Y-38726832D02*
X75596164Y-38726832D01*
G75*
G02*
X75423664Y-38554332I0J172500D01*
G01*
X75423664Y-38209332D01*
G75*
G02*
X75596164Y-38036832I172500J0D01*
G01*
X75991164Y-38036832D01*
G75*
G02*
X76163664Y-38209332I0J-172500D01*
G01*
X76163664Y-38554332D01*
G75*
G02*
X75991164Y-38726832I-172500J0D01*
G01*
G37*
%TD*%
%TO.C,R13*%
G36*
G01*
X74806888Y-37756832D02*
X74411888Y-37756832D01*
G75*
G02*
X74239388Y-37584332I0J172500D01*
G01*
X74239388Y-37239332D01*
G75*
G02*
X74411888Y-37066832I172500J0D01*
G01*
X74806888Y-37066832D01*
G75*
G02*
X74979388Y-37239332I0J-172500D01*
G01*
X74979388Y-37584332D01*
G75*
G02*
X74806888Y-37756832I-172500J0D01*
G01*
G37*
G36*
G01*
X74806888Y-38726832D02*
X74411888Y-38726832D01*
G75*
G02*
X74239388Y-38554332I0J172500D01*
G01*
X74239388Y-38209332D01*
G75*
G02*
X74411888Y-38036832I172500J0D01*
G01*
X74806888Y-38036832D01*
G75*
G02*
X74979388Y-38209332I0J-172500D01*
G01*
X74979388Y-38554332D01*
G75*
G02*
X74806888Y-38726832I-172500J0D01*
G01*
G37*
%TD*%
%TO.C,R15*%
G36*
G01*
X114480134Y-35980418D02*
X114085134Y-35980418D01*
G75*
G02*
X113912634Y-35807918I0J172500D01*
G01*
X113912634Y-35462918D01*
G75*
G02*
X114085134Y-35290418I172500J0D01*
G01*
X114480134Y-35290418D01*
G75*
G02*
X114652634Y-35462918I0J-172500D01*
G01*
X114652634Y-35807918D01*
G75*
G02*
X114480134Y-35980418I-172500J0D01*
G01*
G37*
G36*
G01*
X114480134Y-36950418D02*
X114085134Y-36950418D01*
G75*
G02*
X113912634Y-36777918I0J172500D01*
G01*
X113912634Y-36432918D01*
G75*
G02*
X114085134Y-36260418I172500J0D01*
G01*
X114480134Y-36260418D01*
G75*
G02*
X114652634Y-36432918I0J-172500D01*
G01*
X114652634Y-36777918D01*
G75*
G02*
X114480134Y-36950418I-172500J0D01*
G01*
G37*
%TD*%
D15*
%TO.C,SW1*%
X131103222Y-36712556D03*
D16*
X130478222Y-38762556D03*
X128878222Y-38762556D03*
X128878222Y-34662556D03*
X130478222Y-34662556D03*
%TD*%
D31*
%TO.C,U1*%
X152178742Y-45284062D03*
X152178742Y-43384062D03*
X154548742Y-43384062D03*
X154548742Y-44334062D03*
X154548742Y-45284062D03*
%TD*%
D32*
%TO.C,U3*%
X166475054Y-45360350D03*
X166475054Y-43460350D03*
X168675054Y-43460350D03*
X168675054Y-44410350D03*
X168675054Y-45360350D03*
%TD*%
D33*
%TO.C,U4*%
X111423392Y-40960712D03*
X111423392Y-41595712D03*
X111423392Y-42230712D03*
X111423392Y-42865712D03*
X111423392Y-43500712D03*
X111423392Y-44135712D03*
X111423392Y-44770712D03*
X111423392Y-45405712D03*
X111423392Y-46040712D03*
X111423392Y-46675712D03*
X106483392Y-46675712D03*
X106483392Y-46040712D03*
X106483392Y-45405712D03*
X106483392Y-44770712D03*
X106483392Y-44135712D03*
X106483392Y-43500712D03*
X106483392Y-42865712D03*
X106483392Y-42230712D03*
X106483392Y-41595712D03*
X106483392Y-40960712D03*
%TD*%
D34*
%TO.C,U5*%
X81517872Y-47757522D03*
X85267872Y-47757522D03*
X86017872Y-47757522D03*
X84517872Y-47757522D03*
X83767872Y-47757522D03*
X87517872Y-47757522D03*
X86767872Y-47757522D03*
X88267872Y-47757522D03*
X89017872Y-47757522D03*
X82267872Y-47757522D03*
X83017872Y-47757522D03*
D35*
X80367872Y-39057522D03*
X80367872Y-39807522D03*
X80367872Y-43557522D03*
X80367872Y-44307522D03*
X80367872Y-42807522D03*
X80367872Y-42057522D03*
X80367872Y-45807522D03*
X80367872Y-45057522D03*
X80367872Y-46557522D03*
X80367872Y-47307522D03*
X80367872Y-40557522D03*
X80367872Y-41307522D03*
X90167872Y-43557522D03*
X90167872Y-44307522D03*
X90167872Y-42807522D03*
X90167872Y-42057522D03*
X90167872Y-45807522D03*
X90167872Y-45057522D03*
X90167872Y-46557522D03*
X90167872Y-47307522D03*
X90167872Y-39807522D03*
X90167872Y-39057522D03*
X90167872Y-40557522D03*
X90167872Y-41307522D03*
X90167872Y-37557522D03*
X90167872Y-38307522D03*
X90167872Y-36807522D03*
X90167872Y-36057522D03*
%TD*%
D36*
%TO.C,Y1*%
X84149320Y-50331730D03*
X81649320Y-50331730D03*
%TD*%
M02*
