%TF.GenerationSoftware,KiCad,Pcbnew,(5.1.6)-1*%
%TF.CreationDate,2020-06-26T14:53:12+02:00*%
%TF.ProjectId,aW_1,61575f31-2e6b-4696-9361-645f70636258,v1.0*%
%TF.SameCoordinates,Original*%
%TF.FileFunction,Legend,Bot*%
%TF.FilePolarity,Positive*%
%FSLAX46Y46*%
G04 Gerber Fmt 4.6, Leading zero omitted, Abs format (unit mm)*
G04 Created by KiCad (PCBNEW (5.1.6)-1) date 2020-06-26 14:53:12*
%MOMM*%
%LPD*%
G01*
G04 APERTURE LIST*
%ADD10C,0.381000*%
%ADD11C,0.127000*%
%ADD12C,0.200000*%
%ADD13C,0.120000*%
%ADD14C,0.160000*%
G04 APERTURE END LIST*
D10*
%TO.C,K33*%
X200602822Y-140671454D02*
X200602822Y-138893454D01*
X198824822Y-140671454D02*
X200602822Y-140671454D01*
X200602822Y-129749454D02*
X200602822Y-127971454D01*
X200602822Y-127971454D02*
X198824822Y-127971454D01*
X187902822Y-127971454D02*
X187902822Y-129749454D01*
X189680822Y-127971454D02*
X187902822Y-127971454D01*
X187902822Y-140671454D02*
X189680822Y-140671454D01*
X187902822Y-138893454D02*
X187902822Y-140671454D01*
%TO.C,K3*%
X134283422Y-53955854D02*
X134283422Y-52177854D01*
X134283422Y-52177854D02*
X132505422Y-52177854D01*
X132505422Y-64877854D02*
X134283422Y-64877854D01*
X134283422Y-64877854D02*
X134283422Y-63099854D01*
X121583422Y-64877854D02*
X123361422Y-64877854D01*
X121583422Y-63099854D02*
X121583422Y-64877854D01*
X123361422Y-52177854D02*
X121583422Y-52177854D01*
X121583422Y-52177854D02*
X121583422Y-53955854D01*
%TO.C,K13*%
X191128622Y-72904254D02*
X191128622Y-71126254D01*
X191128622Y-71126254D02*
X189350622Y-71126254D01*
X189350622Y-83826254D02*
X191128622Y-83826254D01*
X191128622Y-83826254D02*
X191128622Y-82048254D01*
X178428622Y-83826254D02*
X180206622Y-83826254D01*
X178428622Y-82048254D02*
X178428622Y-83826254D01*
X180206622Y-71126254D02*
X178428622Y-71126254D01*
X178428622Y-71126254D02*
X178428622Y-72904254D01*
%TO.C,K7*%
X210077022Y-53955854D02*
X210077022Y-52177854D01*
X210077022Y-52177854D02*
X208299022Y-52177854D01*
X208299022Y-64877854D02*
X210077022Y-64877854D01*
X210077022Y-64877854D02*
X210077022Y-63099854D01*
X197377022Y-64877854D02*
X199155022Y-64877854D01*
X197377022Y-63099854D02*
X197377022Y-64877854D01*
X199155022Y-52177854D02*
X197377022Y-52177854D01*
X197377022Y-52177854D02*
X197377022Y-53955854D01*
%TO.C,K12*%
X172180222Y-72904254D02*
X172180222Y-71126254D01*
X172180222Y-71126254D02*
X170402222Y-71126254D01*
X170402222Y-83826254D02*
X172180222Y-83826254D01*
X172180222Y-83826254D02*
X172180222Y-82048254D01*
X159480222Y-83826254D02*
X161258222Y-83826254D01*
X159480222Y-82048254D02*
X159480222Y-83826254D01*
X161258222Y-71126254D02*
X159480222Y-71126254D01*
X159480222Y-71126254D02*
X159480222Y-72904254D01*
%TO.C,K4*%
X153231822Y-53955854D02*
X153231822Y-52177854D01*
X153231822Y-52177854D02*
X151453822Y-52177854D01*
X151453822Y-64877854D02*
X153231822Y-64877854D01*
X153231822Y-64877854D02*
X153231822Y-63099854D01*
X140531822Y-64877854D02*
X142309822Y-64877854D01*
X140531822Y-63099854D02*
X140531822Y-64877854D01*
X142309822Y-52177854D02*
X140531822Y-52177854D01*
X140531822Y-52177854D02*
X140531822Y-53955854D01*
%TO.C,K16*%
X115335022Y-91852654D02*
X115335022Y-90074654D01*
X115335022Y-90074654D02*
X113557022Y-90074654D01*
X113557022Y-102774654D02*
X115335022Y-102774654D01*
X115335022Y-102774654D02*
X115335022Y-100996654D01*
X102635022Y-102774654D02*
X104413022Y-102774654D01*
X102635022Y-100996654D02*
X102635022Y-102774654D01*
X104413022Y-90074654D02*
X102635022Y-90074654D01*
X102635022Y-90074654D02*
X102635022Y-91852654D01*
%TO.C,K17*%
X134283422Y-91852654D02*
X134283422Y-90074654D01*
X134283422Y-90074654D02*
X132505422Y-90074654D01*
X132505422Y-102774654D02*
X134283422Y-102774654D01*
X134283422Y-102774654D02*
X134283422Y-100996654D01*
X121583422Y-102774654D02*
X123361422Y-102774654D01*
X121583422Y-100996654D02*
X121583422Y-102774654D01*
X123361422Y-90074654D02*
X121583422Y-90074654D01*
X121583422Y-90074654D02*
X121583422Y-91852654D01*
%TO.C,K20*%
X191128622Y-91852654D02*
X191128622Y-90074654D01*
X191128622Y-90074654D02*
X189350622Y-90074654D01*
X189350622Y-102774654D02*
X191128622Y-102774654D01*
X191128622Y-102774654D02*
X191128622Y-100996654D01*
X178428622Y-102774654D02*
X180206622Y-102774654D01*
X178428622Y-100996654D02*
X178428622Y-102774654D01*
X180206622Y-90074654D02*
X178428622Y-90074654D01*
X178428622Y-90074654D02*
X178428622Y-91852654D01*
%TO.C,K5*%
X172180222Y-53955854D02*
X172180222Y-52177854D01*
X172180222Y-52177854D02*
X170402222Y-52177854D01*
X170402222Y-64877854D02*
X172180222Y-64877854D01*
X172180222Y-64877854D02*
X172180222Y-63099854D01*
X159480222Y-64877854D02*
X161258222Y-64877854D01*
X159480222Y-63099854D02*
X159480222Y-64877854D01*
X161258222Y-52177854D02*
X159480222Y-52177854D01*
X159480222Y-52177854D02*
X159480222Y-53955854D01*
%TO.C,K11*%
X153231822Y-72904254D02*
X153231822Y-71126254D01*
X153231822Y-71126254D02*
X151453822Y-71126254D01*
X151453822Y-83826254D02*
X153231822Y-83826254D01*
X153231822Y-83826254D02*
X153231822Y-82048254D01*
X140531822Y-83826254D02*
X142309822Y-83826254D01*
X140531822Y-82048254D02*
X140531822Y-83826254D01*
X142309822Y-71126254D02*
X140531822Y-71126254D01*
X140531822Y-71126254D02*
X140531822Y-72904254D01*
%TO.C,K19*%
X172180222Y-91852654D02*
X172180222Y-90074654D01*
X172180222Y-90074654D02*
X170402222Y-90074654D01*
X170402222Y-102774654D02*
X172180222Y-102774654D01*
X172180222Y-102774654D02*
X172180222Y-100996654D01*
X159480222Y-102774654D02*
X161258222Y-102774654D01*
X159480222Y-100996654D02*
X159480222Y-102774654D01*
X161258222Y-90074654D02*
X159480222Y-90074654D01*
X159480222Y-90074654D02*
X159480222Y-91852654D01*
%TO.C,K18*%
X153231822Y-91852654D02*
X153231822Y-90074654D01*
X153231822Y-90074654D02*
X151453822Y-90074654D01*
X151453822Y-102774654D02*
X153231822Y-102774654D01*
X153231822Y-102774654D02*
X153231822Y-100996654D01*
X140531822Y-102774654D02*
X142309822Y-102774654D01*
X140531822Y-100996654D02*
X140531822Y-102774654D01*
X142309822Y-90074654D02*
X140531822Y-90074654D01*
X140531822Y-90074654D02*
X140531822Y-91852654D01*
%TO.C,K6*%
X191128622Y-53955854D02*
X191128622Y-52177854D01*
X191128622Y-52177854D02*
X189350622Y-52177854D01*
X189350622Y-64877854D02*
X191128622Y-64877854D01*
X191128622Y-64877854D02*
X191128622Y-63099854D01*
X178428622Y-64877854D02*
X180206622Y-64877854D01*
X178428622Y-63099854D02*
X178428622Y-64877854D01*
X180206622Y-52177854D02*
X178428622Y-52177854D01*
X178428622Y-52177854D02*
X178428622Y-53955854D01*
%TO.C,K9*%
X115335022Y-72904254D02*
X115335022Y-71126254D01*
X115335022Y-71126254D02*
X113557022Y-71126254D01*
X113557022Y-83826254D02*
X115335022Y-83826254D01*
X115335022Y-83826254D02*
X115335022Y-82048254D01*
X102635022Y-83826254D02*
X104413022Y-83826254D01*
X102635022Y-82048254D02*
X102635022Y-83826254D01*
X104413022Y-71126254D02*
X102635022Y-71126254D01*
X102635022Y-71126254D02*
X102635022Y-72904254D01*
%TO.C,K10*%
X134283422Y-72904254D02*
X134283422Y-71126254D01*
X134283422Y-71126254D02*
X132505422Y-71126254D01*
X132505422Y-83826254D02*
X134283422Y-83826254D01*
X134283422Y-83826254D02*
X134283422Y-82048254D01*
X121583422Y-83826254D02*
X123361422Y-83826254D01*
X121583422Y-82048254D02*
X121583422Y-83826254D01*
X123361422Y-71126254D02*
X121583422Y-71126254D01*
X121583422Y-71126254D02*
X121583422Y-72904254D01*
%TO.C,K2*%
X115335022Y-53955854D02*
X115335022Y-52177854D01*
X115335022Y-52177854D02*
X113557022Y-52177854D01*
X113557022Y-64877854D02*
X115335022Y-64877854D01*
X115335022Y-64877854D02*
X115335022Y-63099854D01*
X102635022Y-64877854D02*
X104413022Y-64877854D01*
X102635022Y-63099854D02*
X102635022Y-64877854D01*
X104413022Y-52177854D02*
X102635022Y-52177854D01*
X102635022Y-52177854D02*
X102635022Y-53955854D01*
%TO.C,K28*%
X96386622Y-129749454D02*
X96386622Y-127971454D01*
X96386622Y-127971454D02*
X94608622Y-127971454D01*
X94608622Y-140671454D02*
X96386622Y-140671454D01*
X96386622Y-140671454D02*
X96386622Y-138893454D01*
X83686622Y-140671454D02*
X85464622Y-140671454D01*
X83686622Y-138893454D02*
X83686622Y-140671454D01*
X85464622Y-127971454D02*
X83686622Y-127971454D01*
X83686622Y-127971454D02*
X83686622Y-129749454D01*
%TO.C,K30*%
X134283422Y-129749454D02*
X134283422Y-127971454D01*
X134283422Y-127971454D02*
X132505422Y-127971454D01*
X132505422Y-140671454D02*
X134283422Y-140671454D01*
X134283422Y-140671454D02*
X134283422Y-138893454D01*
X121583422Y-140671454D02*
X123361422Y-140671454D01*
X121583422Y-138893454D02*
X121583422Y-140671454D01*
X123361422Y-127971454D02*
X121583422Y-127971454D01*
X121583422Y-127971454D02*
X121583422Y-129749454D01*
%TO.C,K23*%
X115335022Y-110801054D02*
X115335022Y-109023054D01*
X115335022Y-109023054D02*
X113557022Y-109023054D01*
X113557022Y-121723054D02*
X115335022Y-121723054D01*
X115335022Y-121723054D02*
X115335022Y-119945054D01*
X102635022Y-121723054D02*
X104413022Y-121723054D01*
X102635022Y-119945054D02*
X102635022Y-121723054D01*
X104413022Y-109023054D02*
X102635022Y-109023054D01*
X102635022Y-109023054D02*
X102635022Y-110801054D01*
%TO.C,K32*%
X172180222Y-129749454D02*
X172180222Y-127971454D01*
X172180222Y-127971454D02*
X170402222Y-127971454D01*
X170402222Y-140671454D02*
X172180222Y-140671454D01*
X172180222Y-140671454D02*
X172180222Y-138893454D01*
X159480222Y-140671454D02*
X161258222Y-140671454D01*
X159480222Y-138893454D02*
X159480222Y-140671454D01*
X161258222Y-127971454D02*
X159480222Y-127971454D01*
X159480222Y-127971454D02*
X159480222Y-129749454D01*
%TO.C,K27*%
X191128622Y-110801054D02*
X191128622Y-109023054D01*
X191128622Y-109023054D02*
X189350622Y-109023054D01*
X189350622Y-121723054D02*
X191128622Y-121723054D01*
X191128622Y-121723054D02*
X191128622Y-119945054D01*
X178428622Y-121723054D02*
X180206622Y-121723054D01*
X178428622Y-119945054D02*
X178428622Y-121723054D01*
X180206622Y-109023054D02*
X178428622Y-109023054D01*
X178428622Y-109023054D02*
X178428622Y-110801054D01*
%TO.C,K25*%
X153231822Y-110801054D02*
X153231822Y-109023054D01*
X153231822Y-109023054D02*
X151453822Y-109023054D01*
X151453822Y-121723054D02*
X153231822Y-121723054D01*
X153231822Y-121723054D02*
X153231822Y-119945054D01*
X140531822Y-121723054D02*
X142309822Y-121723054D01*
X140531822Y-119945054D02*
X140531822Y-121723054D01*
X142309822Y-109023054D02*
X140531822Y-109023054D01*
X140531822Y-109023054D02*
X140531822Y-110801054D01*
%TO.C,K29*%
X115335022Y-129749454D02*
X115335022Y-127971454D01*
X115335022Y-127971454D02*
X113557022Y-127971454D01*
X113557022Y-140671454D02*
X115335022Y-140671454D01*
X115335022Y-140671454D02*
X115335022Y-138893454D01*
X102635022Y-140671454D02*
X104413022Y-140671454D01*
X102635022Y-138893454D02*
X102635022Y-140671454D01*
X104413022Y-127971454D02*
X102635022Y-127971454D01*
X102635022Y-127971454D02*
X102635022Y-129749454D01*
%TO.C,K26*%
X172180222Y-110801054D02*
X172180222Y-109023054D01*
X172180222Y-109023054D02*
X170402222Y-109023054D01*
X170402222Y-121723054D02*
X172180222Y-121723054D01*
X172180222Y-121723054D02*
X172180222Y-119945054D01*
X159480222Y-121723054D02*
X161258222Y-121723054D01*
X159480222Y-119945054D02*
X159480222Y-121723054D01*
X161258222Y-109023054D02*
X159480222Y-109023054D01*
X159480222Y-109023054D02*
X159480222Y-110801054D01*
%TO.C,K24*%
X134283422Y-110801054D02*
X134283422Y-109023054D01*
X134283422Y-109023054D02*
X132505422Y-109023054D01*
X132505422Y-121723054D02*
X134283422Y-121723054D01*
X134283422Y-121723054D02*
X134283422Y-119945054D01*
X121583422Y-121723054D02*
X123361422Y-121723054D01*
X121583422Y-119945054D02*
X121583422Y-121723054D01*
X123361422Y-109023054D02*
X121583422Y-109023054D01*
X121583422Y-109023054D02*
X121583422Y-110801054D01*
%TO.C,K31*%
X153231822Y-129749454D02*
X153231822Y-127971454D01*
X153231822Y-127971454D02*
X151453822Y-127971454D01*
X151453822Y-140671454D02*
X153231822Y-140671454D01*
X153231822Y-140671454D02*
X153231822Y-138893454D01*
X140531822Y-140671454D02*
X142309822Y-140671454D01*
X140531822Y-138893454D02*
X140531822Y-140671454D01*
X142309822Y-127971454D02*
X140531822Y-127971454D01*
X140531822Y-127971454D02*
X140531822Y-129749454D01*
%TO.C,K14*%
X197377022Y-75863354D02*
X197377022Y-77641354D01*
X199155022Y-75863354D02*
X197377022Y-75863354D01*
X210077022Y-75863354D02*
X208299022Y-75863354D01*
X210077022Y-77641354D02*
X210077022Y-75863354D01*
X208299022Y-88563354D02*
X210077022Y-88563354D01*
X210077022Y-88563354D02*
X210077022Y-86785354D01*
X197377022Y-86785354D02*
X197377022Y-88563354D01*
X197377022Y-88563354D02*
X199155022Y-88563354D01*
%TO.C,K8*%
X78949522Y-83826254D02*
X80727522Y-83826254D01*
X78949522Y-82048254D02*
X78949522Y-83826254D01*
X78949522Y-71126254D02*
X78949522Y-72904254D01*
X80727522Y-71126254D02*
X78949522Y-71126254D01*
X91649522Y-72904254D02*
X91649522Y-71126254D01*
X91649522Y-71126254D02*
X89871522Y-71126254D01*
X89871522Y-83826254D02*
X91649522Y-83826254D01*
X91649522Y-83826254D02*
X91649522Y-82048254D01*
%TO.C,K21*%
X197377022Y-104285954D02*
X197377022Y-106063954D01*
X199155022Y-104285954D02*
X197377022Y-104285954D01*
X210077022Y-104285954D02*
X208299022Y-104285954D01*
X210077022Y-106063954D02*
X210077022Y-104285954D01*
X208299022Y-116985954D02*
X210077022Y-116985954D01*
X210077022Y-116985954D02*
X210077022Y-115207954D01*
X197377022Y-115207954D02*
X197377022Y-116985954D01*
X197377022Y-116985954D02*
X199155022Y-116985954D01*
%TO.C,K22*%
X78949522Y-121723054D02*
X80727522Y-121723054D01*
X78949522Y-119945054D02*
X78949522Y-121723054D01*
X78949522Y-109023054D02*
X78949522Y-110801054D01*
X80727522Y-109023054D02*
X78949522Y-109023054D01*
X91649522Y-110801054D02*
X91649522Y-109023054D01*
X91649522Y-109023054D02*
X89871522Y-109023054D01*
X89871522Y-121723054D02*
X91649522Y-121723054D01*
X91649522Y-121723054D02*
X91649522Y-119945054D01*
%TO.C,K1*%
X78949522Y-64877854D02*
X80727522Y-64877854D01*
X78949522Y-63099854D02*
X78949522Y-64877854D01*
X78949522Y-52177854D02*
X78949522Y-53955854D01*
X80727522Y-52177854D02*
X78949522Y-52177854D01*
X91649522Y-53955854D02*
X91649522Y-52177854D01*
X91649522Y-52177854D02*
X89871522Y-52177854D01*
X89871522Y-64877854D02*
X91649522Y-64877854D01*
X91649522Y-64877854D02*
X91649522Y-63099854D01*
%TO.C,K15*%
X78949522Y-102774654D02*
X80727522Y-102774654D01*
X78949522Y-100996654D02*
X78949522Y-102774654D01*
X78949522Y-90074654D02*
X78949522Y-91852654D01*
X80727522Y-90074654D02*
X78949522Y-90074654D01*
X91649522Y-91852654D02*
X91649522Y-90074654D01*
X91649522Y-90074654D02*
X89871522Y-90074654D01*
X89871522Y-102774654D02*
X91649522Y-102774654D01*
X91649522Y-102774654D02*
X91649522Y-100996654D01*
D11*
%TO.C,U2*%
X106153392Y-48476074D02*
X111753392Y-48476074D01*
X111753392Y-37976074D02*
X106153392Y-37976074D01*
D12*
X103853392Y-47826074D02*
G75*
G03*
X103853392Y-47826074I-100000J0D01*
G01*
D13*
%TO.C,D35*%
X196502822Y-138744568D02*
X192602822Y-138744568D01*
X196502822Y-140744568D02*
X192602822Y-140744568D01*
X196502822Y-138744568D02*
X196502822Y-140744568D01*
%TO.C,D34*%
X168080222Y-138744568D02*
X164180222Y-138744568D01*
X168080222Y-140744568D02*
X164180222Y-140744568D01*
X168080222Y-138744568D02*
X168080222Y-140744568D01*
%TO.C,D33*%
X149131822Y-138744568D02*
X145231822Y-138744568D01*
X149131822Y-140744568D02*
X145231822Y-140744568D01*
X149131822Y-138744568D02*
X149131822Y-140744568D01*
%TO.C,D32*%
X130183422Y-138744568D02*
X126283422Y-138744568D01*
X130183422Y-140744568D02*
X126283422Y-140744568D01*
X130183422Y-138744568D02*
X130183422Y-140744568D01*
%TO.C,D31*%
X111235022Y-138744568D02*
X107335022Y-138744568D01*
X111235022Y-140744568D02*
X107335022Y-140744568D01*
X111235022Y-138744568D02*
X111235022Y-140744568D01*
%TO.C,D30*%
X92280272Y-138744568D02*
X88380272Y-138744568D01*
X92280272Y-140744568D02*
X88380272Y-140744568D01*
X92280272Y-138744568D02*
X92280272Y-140744568D01*
%TO.C,D29*%
X187028622Y-119796152D02*
X183128622Y-119796152D01*
X187028622Y-121796152D02*
X183128622Y-121796152D01*
X187028622Y-119796152D02*
X187028622Y-121796152D01*
%TO.C,D28*%
X168080222Y-119796152D02*
X164180222Y-119796152D01*
X168080222Y-121796152D02*
X164180222Y-121796152D01*
X168080222Y-119796152D02*
X168080222Y-121796152D01*
%TO.C,D27*%
X149100224Y-119796152D02*
X145200224Y-119796152D01*
X149100224Y-121796152D02*
X145200224Y-121796152D01*
X149100224Y-119796152D02*
X149100224Y-121796152D01*
%TO.C,D26*%
X130183422Y-119796152D02*
X126283422Y-119796152D01*
X130183422Y-121796152D02*
X126283422Y-121796152D01*
X130183422Y-119796152D02*
X130183422Y-121796152D01*
%TO.C,D25*%
X111235022Y-119796152D02*
X107335022Y-119796152D01*
X111235022Y-121796152D02*
X107335022Y-121796152D01*
X111235022Y-119796152D02*
X111235022Y-121796152D01*
%TO.C,D24*%
X87549522Y-119796152D02*
X83649522Y-119796152D01*
X87549522Y-121796152D02*
X83649522Y-121796152D01*
X87549522Y-119796152D02*
X87549522Y-121796152D01*
%TO.C,D23*%
X199366230Y-112885954D02*
X199366230Y-108985954D01*
X197366230Y-112885954D02*
X197366230Y-108985954D01*
X199366230Y-112885954D02*
X197366230Y-112885954D01*
%TO.C,D22*%
X187028622Y-100847736D02*
X183128622Y-100847736D01*
X187028622Y-102847736D02*
X183128622Y-102847736D01*
X187028622Y-100847736D02*
X187028622Y-102847736D01*
%TO.C,D21*%
X168080222Y-100847736D02*
X164180222Y-100847736D01*
X168080222Y-102847736D02*
X164180222Y-102847736D01*
X168080222Y-100847736D02*
X168080222Y-102847736D01*
%TO.C,D20*%
X149100224Y-100847736D02*
X145200224Y-100847736D01*
X149100224Y-102847736D02*
X145200224Y-102847736D01*
X149100224Y-100847736D02*
X149100224Y-102847736D01*
%TO.C,D19*%
X130183422Y-100847736D02*
X126283422Y-100847736D01*
X130183422Y-102847736D02*
X126283422Y-102847736D01*
X130183422Y-100847736D02*
X130183422Y-102847736D01*
%TO.C,D18*%
X111225273Y-100847736D02*
X107325273Y-100847736D01*
X111225273Y-102847736D02*
X107325273Y-102847736D01*
X111225273Y-100847736D02*
X111225273Y-102847736D01*
%TO.C,D17*%
X87517872Y-100847736D02*
X83617872Y-100847736D01*
X87517872Y-102847736D02*
X83617872Y-102847736D01*
X87517872Y-100847736D02*
X87517872Y-102847736D01*
%TO.C,D16*%
X199366230Y-84557182D02*
X199366230Y-80657182D01*
X197366230Y-84557182D02*
X197366230Y-80657182D01*
X199366230Y-84557182D02*
X197366230Y-84557182D01*
%TO.C,D15*%
X187028622Y-81899320D02*
X183128622Y-81899320D01*
X187028622Y-83899320D02*
X183128622Y-83899320D01*
X187028622Y-81899320D02*
X187028622Y-83899320D01*
%TO.C,D14*%
X168048640Y-81899320D02*
X164148640Y-81899320D01*
X168048640Y-83899320D02*
X164148640Y-83899320D01*
X168048640Y-81899320D02*
X168048640Y-83899320D01*
%TO.C,D13*%
X149100224Y-81899320D02*
X145200224Y-81899320D01*
X149100224Y-83899320D02*
X145200224Y-83899320D01*
X149100224Y-81899320D02*
X149100224Y-83899320D01*
%TO.C,D12*%
X130151808Y-81899320D02*
X126251808Y-81899320D01*
X130151808Y-83899320D02*
X126251808Y-83899320D01*
X130151808Y-81899320D02*
X130151808Y-83899320D01*
%TO.C,D11*%
X111203392Y-81899320D02*
X107303392Y-81899320D01*
X111203392Y-83899320D02*
X107303392Y-83899320D01*
X111203392Y-81899320D02*
X111203392Y-83899320D01*
%TO.C,D10*%
X87517872Y-81899320D02*
X83617872Y-81899320D01*
X87517872Y-83899320D02*
X83617872Y-83899320D01*
X87517872Y-81899320D02*
X87517872Y-83899320D01*
%TO.C,D9*%
X205977022Y-62950904D02*
X202077022Y-62950904D01*
X205977022Y-64950904D02*
X202077022Y-64950904D01*
X205977022Y-62950904D02*
X205977022Y-64950904D01*
%TO.C,D8*%
X187028622Y-62950904D02*
X183128622Y-62950904D01*
X187028622Y-64950904D02*
X183128622Y-64950904D01*
X187028622Y-62950904D02*
X187028622Y-64950904D01*
%TO.C,D7*%
X168080222Y-62950904D02*
X164180222Y-62950904D01*
X168080222Y-64950904D02*
X164180222Y-64950904D01*
X168080222Y-62950904D02*
X168080222Y-64950904D01*
%TO.C,D6*%
X149131822Y-62950904D02*
X145231822Y-62950904D01*
X149131822Y-64950904D02*
X145231822Y-64950904D01*
X149131822Y-62950904D02*
X149131822Y-64950904D01*
%TO.C,D5*%
X130151808Y-62950904D02*
X126251808Y-62950904D01*
X130151808Y-64950904D02*
X126251808Y-64950904D01*
X130151808Y-62950904D02*
X130151808Y-64950904D01*
%TO.C,D4*%
X111235022Y-62950904D02*
X107335022Y-62950904D01*
X111235022Y-64950904D02*
X107335022Y-64950904D01*
X111235022Y-62950904D02*
X111235022Y-64950904D01*
%TO.C,D3*%
X87549522Y-62950904D02*
X83649522Y-62950904D01*
X87549522Y-64950904D02*
X83649522Y-64950904D01*
X87549522Y-62950904D02*
X87549522Y-64950904D01*
D12*
%TO.C,J1*%
X215591128Y-38654352D02*
X217081128Y-38654352D01*
X217081128Y-38654352D02*
X217081128Y-47594352D01*
X217081128Y-47594352D02*
X215591128Y-47594352D01*
X211661128Y-38654352D02*
X212871128Y-38654352D01*
X211661128Y-47594352D02*
X212871128Y-47594352D01*
X208671128Y-39344352D02*
G75*
G03*
X208671128Y-39344352I-100000J0D01*
G01*
%TO.C,K33*%
X195467107Y-137734334D02*
X195467107Y-136734334D01*
X194895679Y-137734334D02*
X195324250Y-137162906D01*
X194895679Y-136734334D02*
X195467107Y-137305763D01*
X194562345Y-136734334D02*
X193943298Y-136734334D01*
X194276631Y-137115287D01*
X194133774Y-137115287D01*
X194038536Y-137162906D01*
X193990917Y-137210525D01*
X193943298Y-137305763D01*
X193943298Y-137543858D01*
X193990917Y-137639096D01*
X194038536Y-137686715D01*
X194133774Y-137734334D01*
X194419488Y-137734334D01*
X194514726Y-137686715D01*
X194562345Y-137639096D01*
X193609964Y-136734334D02*
X192990917Y-136734334D01*
X193324250Y-137115287D01*
X193181393Y-137115287D01*
X193086155Y-137162906D01*
X193038536Y-137210525D01*
X192990917Y-137305763D01*
X192990917Y-137543858D01*
X193038536Y-137639096D01*
X193086155Y-137686715D01*
X193181393Y-137734334D01*
X193467107Y-137734334D01*
X193562345Y-137686715D01*
X193609964Y-137639096D01*
%TO.C,K3*%
X128671517Y-61940734D02*
X128671517Y-60940734D01*
X128100088Y-61940734D02*
X128528660Y-61369306D01*
X128100088Y-60940734D02*
X128671517Y-61512163D01*
X127766755Y-60940734D02*
X127147707Y-60940734D01*
X127481041Y-61321687D01*
X127338183Y-61321687D01*
X127242945Y-61369306D01*
X127195326Y-61416925D01*
X127147707Y-61512163D01*
X127147707Y-61750258D01*
X127195326Y-61845496D01*
X127242945Y-61893115D01*
X127338183Y-61940734D01*
X127623898Y-61940734D01*
X127719136Y-61893115D01*
X127766755Y-61845496D01*
%TO.C,K13*%
X185992907Y-80889134D02*
X185992907Y-79889134D01*
X185421479Y-80889134D02*
X185850050Y-80317706D01*
X185421479Y-79889134D02*
X185992907Y-80460563D01*
X184469098Y-80889134D02*
X185040526Y-80889134D01*
X184754812Y-80889134D02*
X184754812Y-79889134D01*
X184850050Y-80031992D01*
X184945288Y-80127230D01*
X185040526Y-80174849D01*
X184135764Y-79889134D02*
X183516717Y-79889134D01*
X183850050Y-80270087D01*
X183707193Y-80270087D01*
X183611955Y-80317706D01*
X183564336Y-80365325D01*
X183516717Y-80460563D01*
X183516717Y-80698658D01*
X183564336Y-80793896D01*
X183611955Y-80841515D01*
X183707193Y-80889134D01*
X183992907Y-80889134D01*
X184088145Y-80841515D01*
X184135764Y-80793896D01*
%TO.C,K7*%
X204465117Y-61940734D02*
X204465117Y-60940734D01*
X203893688Y-61940734D02*
X204322260Y-61369306D01*
X203893688Y-60940734D02*
X204465117Y-61512163D01*
X203560355Y-60940734D02*
X202893688Y-60940734D01*
X203322260Y-61940734D01*
%TO.C,K12*%
X167044507Y-80889134D02*
X167044507Y-79889134D01*
X166473079Y-80889134D02*
X166901650Y-80317706D01*
X166473079Y-79889134D02*
X167044507Y-80460563D01*
X165520698Y-80889134D02*
X166092126Y-80889134D01*
X165806412Y-80889134D02*
X165806412Y-79889134D01*
X165901650Y-80031992D01*
X165996888Y-80127230D01*
X166092126Y-80174849D01*
X165139745Y-79984373D02*
X165092126Y-79936754D01*
X164996888Y-79889134D01*
X164758793Y-79889134D01*
X164663555Y-79936754D01*
X164615936Y-79984373D01*
X164568317Y-80079611D01*
X164568317Y-80174849D01*
X164615936Y-80317706D01*
X165187364Y-80889134D01*
X164568317Y-80889134D01*
%TO.C,K4*%
X147619917Y-61940734D02*
X147619917Y-60940734D01*
X147048488Y-61940734D02*
X147477060Y-61369306D01*
X147048488Y-60940734D02*
X147619917Y-61512163D01*
X146191345Y-61274068D02*
X146191345Y-61940734D01*
X146429441Y-60893115D02*
X146667536Y-61607401D01*
X146048488Y-61607401D01*
%TO.C,K16*%
X110199307Y-99837534D02*
X110199307Y-98837534D01*
X109627879Y-99837534D02*
X110056450Y-99266106D01*
X109627879Y-98837534D02*
X110199307Y-99408963D01*
X108675498Y-99837534D02*
X109246926Y-99837534D01*
X108961212Y-99837534D02*
X108961212Y-98837534D01*
X109056450Y-98980392D01*
X109151688Y-99075630D01*
X109246926Y-99123249D01*
X107818355Y-98837534D02*
X108008831Y-98837534D01*
X108104069Y-98885154D01*
X108151688Y-98932773D01*
X108246926Y-99075630D01*
X108294545Y-99266106D01*
X108294545Y-99647058D01*
X108246926Y-99742296D01*
X108199307Y-99789915D01*
X108104069Y-99837534D01*
X107913593Y-99837534D01*
X107818355Y-99789915D01*
X107770736Y-99742296D01*
X107723117Y-99647058D01*
X107723117Y-99408963D01*
X107770736Y-99313725D01*
X107818355Y-99266106D01*
X107913593Y-99218487D01*
X108104069Y-99218487D01*
X108199307Y-99266106D01*
X108246926Y-99313725D01*
X108294545Y-99408963D01*
%TO.C,K17*%
X129147707Y-99837534D02*
X129147707Y-98837534D01*
X128576279Y-99837534D02*
X129004850Y-99266106D01*
X128576279Y-98837534D02*
X129147707Y-99408963D01*
X127623898Y-99837534D02*
X128195326Y-99837534D01*
X127909612Y-99837534D02*
X127909612Y-98837534D01*
X128004850Y-98980392D01*
X128100088Y-99075630D01*
X128195326Y-99123249D01*
X127290564Y-98837534D02*
X126623898Y-98837534D01*
X127052469Y-99837534D01*
%TO.C,K20*%
X185992907Y-99837534D02*
X185992907Y-98837534D01*
X185421479Y-99837534D02*
X185850050Y-99266106D01*
X185421479Y-98837534D02*
X185992907Y-99408963D01*
X185040526Y-98932773D02*
X184992907Y-98885154D01*
X184897669Y-98837534D01*
X184659574Y-98837534D01*
X184564336Y-98885154D01*
X184516717Y-98932773D01*
X184469098Y-99028011D01*
X184469098Y-99123249D01*
X184516717Y-99266106D01*
X185088145Y-99837534D01*
X184469098Y-99837534D01*
X183850050Y-98837534D02*
X183754812Y-98837534D01*
X183659574Y-98885154D01*
X183611955Y-98932773D01*
X183564336Y-99028011D01*
X183516717Y-99218487D01*
X183516717Y-99456582D01*
X183564336Y-99647058D01*
X183611955Y-99742296D01*
X183659574Y-99789915D01*
X183754812Y-99837534D01*
X183850050Y-99837534D01*
X183945288Y-99789915D01*
X183992907Y-99742296D01*
X184040526Y-99647058D01*
X184088145Y-99456582D01*
X184088145Y-99218487D01*
X184040526Y-99028011D01*
X183992907Y-98932773D01*
X183945288Y-98885154D01*
X183850050Y-98837534D01*
%TO.C,K5*%
X166568317Y-61940734D02*
X166568317Y-60940734D01*
X165996888Y-61940734D02*
X166425460Y-61369306D01*
X165996888Y-60940734D02*
X166568317Y-61512163D01*
X165092126Y-60940734D02*
X165568317Y-60940734D01*
X165615936Y-61416925D01*
X165568317Y-61369306D01*
X165473079Y-61321687D01*
X165234983Y-61321687D01*
X165139745Y-61369306D01*
X165092126Y-61416925D01*
X165044507Y-61512163D01*
X165044507Y-61750258D01*
X165092126Y-61845496D01*
X165139745Y-61893115D01*
X165234983Y-61940734D01*
X165473079Y-61940734D01*
X165568317Y-61893115D01*
X165615936Y-61845496D01*
%TO.C,K11*%
X148096107Y-80889134D02*
X148096107Y-79889134D01*
X147524679Y-80889134D02*
X147953250Y-80317706D01*
X147524679Y-79889134D02*
X148096107Y-80460563D01*
X146572298Y-80889134D02*
X147143726Y-80889134D01*
X146858012Y-80889134D02*
X146858012Y-79889134D01*
X146953250Y-80031992D01*
X147048488Y-80127230D01*
X147143726Y-80174849D01*
X145619917Y-80889134D02*
X146191345Y-80889134D01*
X145905631Y-80889134D02*
X145905631Y-79889134D01*
X146000869Y-80031992D01*
X146096107Y-80127230D01*
X146191345Y-80174849D01*
%TO.C,K19*%
X167044507Y-99837534D02*
X167044507Y-98837534D01*
X166473079Y-99837534D02*
X166901650Y-99266106D01*
X166473079Y-98837534D02*
X167044507Y-99408963D01*
X165520698Y-99837534D02*
X166092126Y-99837534D01*
X165806412Y-99837534D02*
X165806412Y-98837534D01*
X165901650Y-98980392D01*
X165996888Y-99075630D01*
X166092126Y-99123249D01*
X165044507Y-99837534D02*
X164854031Y-99837534D01*
X164758793Y-99789915D01*
X164711174Y-99742296D01*
X164615936Y-99599439D01*
X164568317Y-99408963D01*
X164568317Y-99028011D01*
X164615936Y-98932773D01*
X164663555Y-98885154D01*
X164758793Y-98837534D01*
X164949269Y-98837534D01*
X165044507Y-98885154D01*
X165092126Y-98932773D01*
X165139745Y-99028011D01*
X165139745Y-99266106D01*
X165092126Y-99361344D01*
X165044507Y-99408963D01*
X164949269Y-99456582D01*
X164758793Y-99456582D01*
X164663555Y-99408963D01*
X164615936Y-99361344D01*
X164568317Y-99266106D01*
%TO.C,K18*%
X148096107Y-99837534D02*
X148096107Y-98837534D01*
X147524679Y-99837534D02*
X147953250Y-99266106D01*
X147524679Y-98837534D02*
X148096107Y-99408963D01*
X146572298Y-99837534D02*
X147143726Y-99837534D01*
X146858012Y-99837534D02*
X146858012Y-98837534D01*
X146953250Y-98980392D01*
X147048488Y-99075630D01*
X147143726Y-99123249D01*
X146000869Y-99266106D02*
X146096107Y-99218487D01*
X146143726Y-99170868D01*
X146191345Y-99075630D01*
X146191345Y-99028011D01*
X146143726Y-98932773D01*
X146096107Y-98885154D01*
X146000869Y-98837534D01*
X145810393Y-98837534D01*
X145715155Y-98885154D01*
X145667536Y-98932773D01*
X145619917Y-99028011D01*
X145619917Y-99075630D01*
X145667536Y-99170868D01*
X145715155Y-99218487D01*
X145810393Y-99266106D01*
X146000869Y-99266106D01*
X146096107Y-99313725D01*
X146143726Y-99361344D01*
X146191345Y-99456582D01*
X146191345Y-99647058D01*
X146143726Y-99742296D01*
X146096107Y-99789915D01*
X146000869Y-99837534D01*
X145810393Y-99837534D01*
X145715155Y-99789915D01*
X145667536Y-99742296D01*
X145619917Y-99647058D01*
X145619917Y-99456582D01*
X145667536Y-99361344D01*
X145715155Y-99313725D01*
X145810393Y-99266106D01*
%TO.C,K6*%
X185516717Y-61940734D02*
X185516717Y-60940734D01*
X184945288Y-61940734D02*
X185373860Y-61369306D01*
X184945288Y-60940734D02*
X185516717Y-61512163D01*
X184088145Y-60940734D02*
X184278622Y-60940734D01*
X184373860Y-60988354D01*
X184421479Y-61035973D01*
X184516717Y-61178830D01*
X184564336Y-61369306D01*
X184564336Y-61750258D01*
X184516717Y-61845496D01*
X184469098Y-61893115D01*
X184373860Y-61940734D01*
X184183383Y-61940734D01*
X184088145Y-61893115D01*
X184040526Y-61845496D01*
X183992907Y-61750258D01*
X183992907Y-61512163D01*
X184040526Y-61416925D01*
X184088145Y-61369306D01*
X184183383Y-61321687D01*
X184373860Y-61321687D01*
X184469098Y-61369306D01*
X184516717Y-61416925D01*
X184564336Y-61512163D01*
%TO.C,K9*%
X109723117Y-80889134D02*
X109723117Y-79889134D01*
X109151688Y-80889134D02*
X109580260Y-80317706D01*
X109151688Y-79889134D02*
X109723117Y-80460563D01*
X108675498Y-80889134D02*
X108485022Y-80889134D01*
X108389783Y-80841515D01*
X108342164Y-80793896D01*
X108246926Y-80651039D01*
X108199307Y-80460563D01*
X108199307Y-80079611D01*
X108246926Y-79984373D01*
X108294545Y-79936754D01*
X108389783Y-79889134D01*
X108580260Y-79889134D01*
X108675498Y-79936754D01*
X108723117Y-79984373D01*
X108770736Y-80079611D01*
X108770736Y-80317706D01*
X108723117Y-80412944D01*
X108675498Y-80460563D01*
X108580260Y-80508182D01*
X108389783Y-80508182D01*
X108294545Y-80460563D01*
X108246926Y-80412944D01*
X108199307Y-80317706D01*
%TO.C,K10*%
X129147707Y-80889134D02*
X129147707Y-79889134D01*
X128576279Y-80889134D02*
X129004850Y-80317706D01*
X128576279Y-79889134D02*
X129147707Y-80460563D01*
X127623898Y-80889134D02*
X128195326Y-80889134D01*
X127909612Y-80889134D02*
X127909612Y-79889134D01*
X128004850Y-80031992D01*
X128100088Y-80127230D01*
X128195326Y-80174849D01*
X127004850Y-79889134D02*
X126909612Y-79889134D01*
X126814374Y-79936754D01*
X126766755Y-79984373D01*
X126719136Y-80079611D01*
X126671517Y-80270087D01*
X126671517Y-80508182D01*
X126719136Y-80698658D01*
X126766755Y-80793896D01*
X126814374Y-80841515D01*
X126909612Y-80889134D01*
X127004850Y-80889134D01*
X127100088Y-80841515D01*
X127147707Y-80793896D01*
X127195326Y-80698658D01*
X127242945Y-80508182D01*
X127242945Y-80270087D01*
X127195326Y-80079611D01*
X127147707Y-79984373D01*
X127100088Y-79936754D01*
X127004850Y-79889134D01*
%TO.C,K2*%
X109723117Y-61940734D02*
X109723117Y-60940734D01*
X109151688Y-61940734D02*
X109580260Y-61369306D01*
X109151688Y-60940734D02*
X109723117Y-61512163D01*
X108770736Y-61035973D02*
X108723117Y-60988354D01*
X108627879Y-60940734D01*
X108389783Y-60940734D01*
X108294545Y-60988354D01*
X108246926Y-61035973D01*
X108199307Y-61131211D01*
X108199307Y-61226449D01*
X108246926Y-61369306D01*
X108818355Y-61940734D01*
X108199307Y-61940734D01*
%TO.C,K28*%
X91250907Y-137734334D02*
X91250907Y-136734334D01*
X90679479Y-137734334D02*
X91108050Y-137162906D01*
X90679479Y-136734334D02*
X91250907Y-137305763D01*
X90298526Y-136829573D02*
X90250907Y-136781954D01*
X90155669Y-136734334D01*
X89917574Y-136734334D01*
X89822336Y-136781954D01*
X89774717Y-136829573D01*
X89727098Y-136924811D01*
X89727098Y-137020049D01*
X89774717Y-137162906D01*
X90346145Y-137734334D01*
X89727098Y-137734334D01*
X89155669Y-137162906D02*
X89250907Y-137115287D01*
X89298526Y-137067668D01*
X89346145Y-136972430D01*
X89346145Y-136924811D01*
X89298526Y-136829573D01*
X89250907Y-136781954D01*
X89155669Y-136734334D01*
X88965193Y-136734334D01*
X88869955Y-136781954D01*
X88822336Y-136829573D01*
X88774717Y-136924811D01*
X88774717Y-136972430D01*
X88822336Y-137067668D01*
X88869955Y-137115287D01*
X88965193Y-137162906D01*
X89155669Y-137162906D01*
X89250907Y-137210525D01*
X89298526Y-137258144D01*
X89346145Y-137353382D01*
X89346145Y-137543858D01*
X89298526Y-137639096D01*
X89250907Y-137686715D01*
X89155669Y-137734334D01*
X88965193Y-137734334D01*
X88869955Y-137686715D01*
X88822336Y-137639096D01*
X88774717Y-137543858D01*
X88774717Y-137353382D01*
X88822336Y-137258144D01*
X88869955Y-137210525D01*
X88965193Y-137162906D01*
%TO.C,K30*%
X129147707Y-137734334D02*
X129147707Y-136734334D01*
X128576279Y-137734334D02*
X129004850Y-137162906D01*
X128576279Y-136734334D02*
X129147707Y-137305763D01*
X128242945Y-136734334D02*
X127623898Y-136734334D01*
X127957231Y-137115287D01*
X127814374Y-137115287D01*
X127719136Y-137162906D01*
X127671517Y-137210525D01*
X127623898Y-137305763D01*
X127623898Y-137543858D01*
X127671517Y-137639096D01*
X127719136Y-137686715D01*
X127814374Y-137734334D01*
X128100088Y-137734334D01*
X128195326Y-137686715D01*
X128242945Y-137639096D01*
X127004850Y-136734334D02*
X126909612Y-136734334D01*
X126814374Y-136781954D01*
X126766755Y-136829573D01*
X126719136Y-136924811D01*
X126671517Y-137115287D01*
X126671517Y-137353382D01*
X126719136Y-137543858D01*
X126766755Y-137639096D01*
X126814374Y-137686715D01*
X126909612Y-137734334D01*
X127004850Y-137734334D01*
X127100088Y-137686715D01*
X127147707Y-137639096D01*
X127195326Y-137543858D01*
X127242945Y-137353382D01*
X127242945Y-137115287D01*
X127195326Y-136924811D01*
X127147707Y-136829573D01*
X127100088Y-136781954D01*
X127004850Y-136734334D01*
%TO.C,K23*%
X110199307Y-118785934D02*
X110199307Y-117785934D01*
X109627879Y-118785934D02*
X110056450Y-118214506D01*
X109627879Y-117785934D02*
X110199307Y-118357363D01*
X109246926Y-117881173D02*
X109199307Y-117833554D01*
X109104069Y-117785934D01*
X108865974Y-117785934D01*
X108770736Y-117833554D01*
X108723117Y-117881173D01*
X108675498Y-117976411D01*
X108675498Y-118071649D01*
X108723117Y-118214506D01*
X109294545Y-118785934D01*
X108675498Y-118785934D01*
X108342164Y-117785934D02*
X107723117Y-117785934D01*
X108056450Y-118166887D01*
X107913593Y-118166887D01*
X107818355Y-118214506D01*
X107770736Y-118262125D01*
X107723117Y-118357363D01*
X107723117Y-118595458D01*
X107770736Y-118690696D01*
X107818355Y-118738315D01*
X107913593Y-118785934D01*
X108199307Y-118785934D01*
X108294545Y-118738315D01*
X108342164Y-118690696D01*
%TO.C,K32*%
X167044507Y-137734334D02*
X167044507Y-136734334D01*
X166473079Y-137734334D02*
X166901650Y-137162906D01*
X166473079Y-136734334D02*
X167044507Y-137305763D01*
X166139745Y-136734334D02*
X165520698Y-136734334D01*
X165854031Y-137115287D01*
X165711174Y-137115287D01*
X165615936Y-137162906D01*
X165568317Y-137210525D01*
X165520698Y-137305763D01*
X165520698Y-137543858D01*
X165568317Y-137639096D01*
X165615936Y-137686715D01*
X165711174Y-137734334D01*
X165996888Y-137734334D01*
X166092126Y-137686715D01*
X166139745Y-137639096D01*
X165139745Y-136829573D02*
X165092126Y-136781954D01*
X164996888Y-136734334D01*
X164758793Y-136734334D01*
X164663555Y-136781954D01*
X164615936Y-136829573D01*
X164568317Y-136924811D01*
X164568317Y-137020049D01*
X164615936Y-137162906D01*
X165187364Y-137734334D01*
X164568317Y-137734334D01*
%TO.C,K27*%
X185992907Y-118785934D02*
X185992907Y-117785934D01*
X185421479Y-118785934D02*
X185850050Y-118214506D01*
X185421479Y-117785934D02*
X185992907Y-118357363D01*
X185040526Y-117881173D02*
X184992907Y-117833554D01*
X184897669Y-117785934D01*
X184659574Y-117785934D01*
X184564336Y-117833554D01*
X184516717Y-117881173D01*
X184469098Y-117976411D01*
X184469098Y-118071649D01*
X184516717Y-118214506D01*
X185088145Y-118785934D01*
X184469098Y-118785934D01*
X184135764Y-117785934D02*
X183469098Y-117785934D01*
X183897669Y-118785934D01*
%TO.C,K25*%
X148096107Y-118785934D02*
X148096107Y-117785934D01*
X147524679Y-118785934D02*
X147953250Y-118214506D01*
X147524679Y-117785934D02*
X148096107Y-118357363D01*
X147143726Y-117881173D02*
X147096107Y-117833554D01*
X147000869Y-117785934D01*
X146762774Y-117785934D01*
X146667536Y-117833554D01*
X146619917Y-117881173D01*
X146572298Y-117976411D01*
X146572298Y-118071649D01*
X146619917Y-118214506D01*
X147191345Y-118785934D01*
X146572298Y-118785934D01*
X145667536Y-117785934D02*
X146143726Y-117785934D01*
X146191345Y-118262125D01*
X146143726Y-118214506D01*
X146048488Y-118166887D01*
X145810393Y-118166887D01*
X145715155Y-118214506D01*
X145667536Y-118262125D01*
X145619917Y-118357363D01*
X145619917Y-118595458D01*
X145667536Y-118690696D01*
X145715155Y-118738315D01*
X145810393Y-118785934D01*
X146048488Y-118785934D01*
X146143726Y-118738315D01*
X146191345Y-118690696D01*
%TO.C,K29*%
X110199307Y-137734334D02*
X110199307Y-136734334D01*
X109627879Y-137734334D02*
X110056450Y-137162906D01*
X109627879Y-136734334D02*
X110199307Y-137305763D01*
X109246926Y-136829573D02*
X109199307Y-136781954D01*
X109104069Y-136734334D01*
X108865974Y-136734334D01*
X108770736Y-136781954D01*
X108723117Y-136829573D01*
X108675498Y-136924811D01*
X108675498Y-137020049D01*
X108723117Y-137162906D01*
X109294545Y-137734334D01*
X108675498Y-137734334D01*
X108199307Y-137734334D02*
X108008831Y-137734334D01*
X107913593Y-137686715D01*
X107865974Y-137639096D01*
X107770736Y-137496239D01*
X107723117Y-137305763D01*
X107723117Y-136924811D01*
X107770736Y-136829573D01*
X107818355Y-136781954D01*
X107913593Y-136734334D01*
X108104069Y-136734334D01*
X108199307Y-136781954D01*
X108246926Y-136829573D01*
X108294545Y-136924811D01*
X108294545Y-137162906D01*
X108246926Y-137258144D01*
X108199307Y-137305763D01*
X108104069Y-137353382D01*
X107913593Y-137353382D01*
X107818355Y-137305763D01*
X107770736Y-137258144D01*
X107723117Y-137162906D01*
%TO.C,K26*%
X167044507Y-118785934D02*
X167044507Y-117785934D01*
X166473079Y-118785934D02*
X166901650Y-118214506D01*
X166473079Y-117785934D02*
X167044507Y-118357363D01*
X166092126Y-117881173D02*
X166044507Y-117833554D01*
X165949269Y-117785934D01*
X165711174Y-117785934D01*
X165615936Y-117833554D01*
X165568317Y-117881173D01*
X165520698Y-117976411D01*
X165520698Y-118071649D01*
X165568317Y-118214506D01*
X166139745Y-118785934D01*
X165520698Y-118785934D01*
X164663555Y-117785934D02*
X164854031Y-117785934D01*
X164949269Y-117833554D01*
X164996888Y-117881173D01*
X165092126Y-118024030D01*
X165139745Y-118214506D01*
X165139745Y-118595458D01*
X165092126Y-118690696D01*
X165044507Y-118738315D01*
X164949269Y-118785934D01*
X164758793Y-118785934D01*
X164663555Y-118738315D01*
X164615936Y-118690696D01*
X164568317Y-118595458D01*
X164568317Y-118357363D01*
X164615936Y-118262125D01*
X164663555Y-118214506D01*
X164758793Y-118166887D01*
X164949269Y-118166887D01*
X165044507Y-118214506D01*
X165092126Y-118262125D01*
X165139745Y-118357363D01*
%TO.C,K24*%
X129147707Y-118785934D02*
X129147707Y-117785934D01*
X128576279Y-118785934D02*
X129004850Y-118214506D01*
X128576279Y-117785934D02*
X129147707Y-118357363D01*
X128195326Y-117881173D02*
X128147707Y-117833554D01*
X128052469Y-117785934D01*
X127814374Y-117785934D01*
X127719136Y-117833554D01*
X127671517Y-117881173D01*
X127623898Y-117976411D01*
X127623898Y-118071649D01*
X127671517Y-118214506D01*
X128242945Y-118785934D01*
X127623898Y-118785934D01*
X126766755Y-118119268D02*
X126766755Y-118785934D01*
X127004850Y-117738315D02*
X127242945Y-118452601D01*
X126623898Y-118452601D01*
%TO.C,K31*%
X148096107Y-137734334D02*
X148096107Y-136734334D01*
X147524679Y-137734334D02*
X147953250Y-137162906D01*
X147524679Y-136734334D02*
X148096107Y-137305763D01*
X147191345Y-136734334D02*
X146572298Y-136734334D01*
X146905631Y-137115287D01*
X146762774Y-137115287D01*
X146667536Y-137162906D01*
X146619917Y-137210525D01*
X146572298Y-137305763D01*
X146572298Y-137543858D01*
X146619917Y-137639096D01*
X146667536Y-137686715D01*
X146762774Y-137734334D01*
X147048488Y-137734334D01*
X147143726Y-137686715D01*
X147191345Y-137639096D01*
X145619917Y-137734334D02*
X146191345Y-137734334D01*
X145905631Y-137734334D02*
X145905631Y-136734334D01*
X146000869Y-136877192D01*
X146096107Y-136972430D01*
X146191345Y-137020049D01*
%TO.C,K14*%
X201218902Y-80999068D02*
X200218902Y-80999068D01*
X201218902Y-81570496D02*
X200647474Y-81141925D01*
X200218902Y-81570496D02*
X200790331Y-80999068D01*
X201218902Y-82522877D02*
X201218902Y-81951449D01*
X201218902Y-82237163D02*
X200218902Y-82237163D01*
X200361760Y-82141925D01*
X200456998Y-82046687D01*
X200504617Y-81951449D01*
X200552236Y-83380020D02*
X201218902Y-83380020D01*
X200171283Y-83141925D02*
X200885569Y-82903830D01*
X200885569Y-83522877D01*
%TO.C,K8*%
X86037617Y-80889134D02*
X86037617Y-79889134D01*
X85466188Y-80889134D02*
X85894760Y-80317706D01*
X85466188Y-79889134D02*
X86037617Y-80460563D01*
X84894760Y-80317706D02*
X84989998Y-80270087D01*
X85037617Y-80222468D01*
X85085236Y-80127230D01*
X85085236Y-80079611D01*
X85037617Y-79984373D01*
X84989998Y-79936754D01*
X84894760Y-79889134D01*
X84704283Y-79889134D01*
X84609045Y-79936754D01*
X84561426Y-79984373D01*
X84513807Y-80079611D01*
X84513807Y-80127230D01*
X84561426Y-80222468D01*
X84609045Y-80270087D01*
X84704283Y-80317706D01*
X84894760Y-80317706D01*
X84989998Y-80365325D01*
X85037617Y-80412944D01*
X85085236Y-80508182D01*
X85085236Y-80698658D01*
X85037617Y-80793896D01*
X84989998Y-80841515D01*
X84894760Y-80889134D01*
X84704283Y-80889134D01*
X84609045Y-80841515D01*
X84561426Y-80793896D01*
X84513807Y-80698658D01*
X84513807Y-80508182D01*
X84561426Y-80412944D01*
X84609045Y-80365325D01*
X84704283Y-80317706D01*
%TO.C,K21*%
X201218902Y-109421668D02*
X200218902Y-109421668D01*
X201218902Y-109993096D02*
X200647474Y-109564525D01*
X200218902Y-109993096D02*
X200790331Y-109421668D01*
X200314141Y-110374049D02*
X200266522Y-110421668D01*
X200218902Y-110516906D01*
X200218902Y-110755001D01*
X200266522Y-110850239D01*
X200314141Y-110897858D01*
X200409379Y-110945477D01*
X200504617Y-110945477D01*
X200647474Y-110897858D01*
X201218902Y-110326430D01*
X201218902Y-110945477D01*
X201218902Y-111897858D02*
X201218902Y-111326430D01*
X201218902Y-111612144D02*
X200218902Y-111612144D01*
X200361760Y-111516906D01*
X200456998Y-111421668D01*
X200504617Y-111326430D01*
%TO.C,K22*%
X86513807Y-118785934D02*
X86513807Y-117785934D01*
X85942379Y-118785934D02*
X86370950Y-118214506D01*
X85942379Y-117785934D02*
X86513807Y-118357363D01*
X85561426Y-117881173D02*
X85513807Y-117833554D01*
X85418569Y-117785934D01*
X85180474Y-117785934D01*
X85085236Y-117833554D01*
X85037617Y-117881173D01*
X84989998Y-117976411D01*
X84989998Y-118071649D01*
X85037617Y-118214506D01*
X85609045Y-118785934D01*
X84989998Y-118785934D01*
X84609045Y-117881173D02*
X84561426Y-117833554D01*
X84466188Y-117785934D01*
X84228093Y-117785934D01*
X84132855Y-117833554D01*
X84085236Y-117881173D01*
X84037617Y-117976411D01*
X84037617Y-118071649D01*
X84085236Y-118214506D01*
X84656664Y-118785934D01*
X84037617Y-118785934D01*
%TO.C,K1*%
X86037617Y-61940734D02*
X86037617Y-60940734D01*
X85466188Y-61940734D02*
X85894760Y-61369306D01*
X85466188Y-60940734D02*
X86037617Y-61512163D01*
X84513807Y-61940734D02*
X85085236Y-61940734D01*
X84799522Y-61940734D02*
X84799522Y-60940734D01*
X84894760Y-61083592D01*
X84989998Y-61178830D01*
X85085236Y-61226449D01*
%TO.C,K15*%
X86513807Y-99837534D02*
X86513807Y-98837534D01*
X85942379Y-99837534D02*
X86370950Y-99266106D01*
X85942379Y-98837534D02*
X86513807Y-99408963D01*
X84989998Y-99837534D02*
X85561426Y-99837534D01*
X85275712Y-99837534D02*
X85275712Y-98837534D01*
X85370950Y-98980392D01*
X85466188Y-99075630D01*
X85561426Y-99123249D01*
X84085236Y-98837534D02*
X84561426Y-98837534D01*
X84609045Y-99313725D01*
X84561426Y-99266106D01*
X84466188Y-99218487D01*
X84228093Y-99218487D01*
X84132855Y-99266106D01*
X84085236Y-99313725D01*
X84037617Y-99408963D01*
X84037617Y-99647058D01*
X84085236Y-99742296D01*
X84132855Y-99789915D01*
X84228093Y-99837534D01*
X84466188Y-99837534D01*
X84561426Y-99789915D01*
X84609045Y-99742296D01*
%TO.C,U2*%
D14*
X109715296Y-49191972D02*
X109715296Y-50001496D01*
X109667677Y-50096734D01*
X109620058Y-50144353D01*
X109524820Y-50191972D01*
X109334344Y-50191972D01*
X109239106Y-50144353D01*
X109191487Y-50096734D01*
X109143868Y-50001496D01*
X109143868Y-49191972D01*
X108715296Y-49287211D02*
X108667677Y-49239592D01*
X108572439Y-49191972D01*
X108334344Y-49191972D01*
X108239106Y-49239592D01*
X108191487Y-49287211D01*
X108143868Y-49382449D01*
X108143868Y-49477687D01*
X108191487Y-49620544D01*
X108762915Y-50191972D01*
X108143868Y-50191972D01*
%TO.C,C1*%
X103389154Y-40690855D02*
X103436773Y-40643236D01*
X103484392Y-40500379D01*
X103484392Y-40405141D01*
X103436773Y-40262283D01*
X103341535Y-40167045D01*
X103246297Y-40119426D01*
X103055821Y-40071807D01*
X102912964Y-40071807D01*
X102722488Y-40119426D01*
X102627250Y-40167045D01*
X102532012Y-40262283D01*
X102484392Y-40405141D01*
X102484392Y-40500379D01*
X102532012Y-40643236D01*
X102579631Y-40690855D01*
X103484392Y-41643236D02*
X103484392Y-41071807D01*
X103484392Y-41357522D02*
X102484392Y-41357522D01*
X102627250Y-41262283D01*
X102722488Y-41167045D01*
X102770107Y-41071807D01*
%TO.C,J1*%
X207118508Y-42892740D02*
X207832794Y-42892740D01*
X207975651Y-42845121D01*
X208070889Y-42749883D01*
X208118508Y-42607026D01*
X208118508Y-42511788D01*
X208118508Y-43892740D02*
X208118508Y-43321312D01*
X208118508Y-43607026D02*
X207118508Y-43607026D01*
X207261366Y-43511788D01*
X207356604Y-43416550D01*
X207404223Y-43321312D01*
%TO.C,R1*%
X115327152Y-38914441D02*
X114850962Y-38581108D01*
X115327152Y-38343012D02*
X114327152Y-38343012D01*
X114327152Y-38723965D01*
X114374772Y-38819203D01*
X114422391Y-38866822D01*
X114517629Y-38914441D01*
X114660486Y-38914441D01*
X114755724Y-38866822D01*
X114803343Y-38819203D01*
X114850962Y-38723965D01*
X114850962Y-38343012D01*
X115327152Y-39866822D02*
X115327152Y-39295393D01*
X115327152Y-39581108D02*
X114327152Y-39581108D01*
X114470010Y-39485869D01*
X114565248Y-39390631D01*
X114612867Y-39295393D01*
%TD*%
M02*
