M48
; DRILL file {KiCad (5.1.6)-1} date 07/04/20 18:17:59
; FORMAT={-:-/ absolute / inch / decimal}
; #@! TF.CreationDate,2020-07-04T18:17:59+02:00
; #@! TF.GenerationSoftware,Kicad,Pcbnew,(5.1.6)-1
FMAT,2
INCH
T1C0.0118
T2C0.0157
T3C0.0256
T4C0.0590
T5C0.0256
T6C0.0354
T7C0.0670
T8C0.1200
T9C0.1570
%
G90
G05
T1
X2.8908Y-1.7718
X2.8908Y-1.865
X2.9262Y-1.865
X2.9577Y-1.865
X3.0306Y-1.6086
X3.0595Y-1.6263
X3.1239Y-1.8883
X3.1472Y-2.5178
X3.1472Y-3.2638
X3.1472Y-4.0098
X3.1472Y-4.7558
X3.2404Y-2.5178
X3.2404Y-3.2638
X3.2404Y-4.0098
X3.2404Y-4.7558
X3.2871Y-1.7251
X3.3337Y-5.5018
X3.4269Y-5.5018
X3.4736Y-1.7718
X3.4736Y-2.5178
X3.4736Y-3.2638
X3.4736Y-4.0098
X3.4736Y-4.7558
X3.6096Y-1.4454
X3.6134Y-1.492
X3.6134Y-1.6319
X3.6147Y-1.8429
X3.6368Y-1.5649
X3.6525Y-1.5077
X3.6601Y-1.8417
X3.6601Y-1.8883
X3.6601Y-1.9349
X3.6601Y-1.9816
X3.6601Y-5.5018
X3.6834Y-1.6086
X3.73Y-1.9816
X3.7766Y-1.7018
X3.7766Y-1.9816
X3.8233Y-1.7018
X3.8233Y-1.9816
X3.8699Y-1.7018
X3.8699Y-1.9816
X3.9165Y-1.7018
X3.9165Y-1.9816
X3.9165Y-2.6809
X3.9456Y-1.5153
X3.9864Y-1.3521
X3.9864Y-1.7018
X4.0346Y-1.3833
X4.1729Y-2.5178
X4.1729Y-3.2638
X4.1729Y-4.0098
X4.1729Y-4.7558
X4.1729Y-5.5018
X4.2597Y-1.7718
X4.2662Y-1.5853
X4.3361Y-1.5619
X4.3594Y-1.9349
X4.4061Y-1.3521
X4.4061Y-1.9116
X4.4061Y-2.5178
X4.4061Y-3.2638
X4.4061Y-4.0098
X4.4061Y-4.7558
X4.4061Y-5.5018
X4.4512Y-1.3176
X4.4527Y-1.9116
X4.4993Y-1.9583
X4.5226Y-2.1214
X4.5302Y-2.0439
X4.5459Y-1.9583
X4.5693Y-2.0515
X4.5886Y-1.9622
X4.6159Y-1.7018
X4.6625Y-2.6809
X4.6664Y-1.7484
X4.7558Y-1.8659
X4.8257Y-1.8417
X4.8723Y-1.4687
X4.9189Y-2.5178
X4.9189Y-2.5178
X4.9189Y-3.2638
X4.9189Y-4.0098
X4.9189Y-4.7558
X4.9189Y-5.5018
X4.9423Y-1.4221
X4.9656Y-1.6552
X5.0821Y-1.6552
X5.1054Y-1.4687
X5.1521Y-2.5178
X5.1521Y-3.2638
X5.1521Y-4.0098
X5.1521Y-4.7558
X5.1521Y-5.5018
X5.2686Y-2.0515
X5.4085Y-1.6552
X5.4085Y-2.6809
X5.6416Y-1.8844
X5.6649Y-2.5178
X5.6649Y-3.2638
X5.6649Y-4.0098
X5.6649Y-4.7558
X5.6649Y-5.5018
X5.8048Y-1.6552
X5.8981Y-2.5178
X5.8981Y-3.2638
X5.8981Y-4.0098
X5.8981Y-4.7558
X5.8981Y-5.5018
X5.9119Y-1.8827
X6.0146Y-2.0515
X6.4109Y-2.5178
X6.4109Y-3.2638
X6.4109Y-4.0098
X6.4109Y-4.7558
X6.4109Y-5.5018
X6.6441Y-2.5178
X6.6441Y-3.2638
X6.6441Y-4.0098
X6.6441Y-4.7558
X6.6441Y-5.5018
X6.7606Y-2.0515
X6.9704Y-5.6183
X6.9938Y-5.6416
X7.1569Y-2.5178
X7.1569Y-3.2638
X7.1569Y-4.0098
X7.1569Y-4.7558
X7.3901Y-2.5178
X7.3901Y-3.2638
X7.3901Y-4.0098
X7.3901Y-4.7558
X7.5066Y-2.0515
X7.5299Y-5.5018
X7.6465Y-5.0588
X7.7631Y-5.5018
X7.8097Y-3.1239
X7.8097Y-3.357
X7.8097Y-4.2429
X7.8097Y-4.476
X7.8796Y-5.0588
X7.9029Y-2.5178
X8.1361Y-1.6086
X8.1361Y-1.7951
X8.1361Y-2.5178
X8.1594Y-1.4687
X8.1594Y-1.9116
X8.2526Y-2.0515
X8.2526Y-3.0073
X8.2526Y-4.1263
X8.3226Y-1.7251
X8.3459Y-1.7018
T2
X2.8441Y-1.5619
X2.8908Y-2.6809
X3.1472Y-2.0748
X3.2621Y-1.8184
X3.2621Y-1.8184
X3.7363Y-1.6746
X4.6159Y-1.5619
X4.7324Y-1.3521
X4.7791Y-1.5619
X4.8257Y-1.6086
X4.9189Y-1.6552
X5.0821Y-1.7018
X5.2919Y-1.4687
X5.5018Y-1.5153
X5.6883Y-1.6552
X5.6895Y-1.5141
X5.8981Y-1.4687
X6.1545Y-2.6809
X6.1545Y-3.4269
X6.1545Y-4.1729
X6.1545Y-4.9189
X6.5275Y-1.4687
X6.6208Y-1.5619
T3
X3.7067Y-1.3721
X3.7067Y-1.4221
X3.7567Y-1.3721
X3.7567Y-1.4221
X3.8067Y-1.3721
X3.8067Y-1.4221
X3.8567Y-1.3721
X3.8567Y-1.4221
X3.9067Y-1.3721
X3.9067Y-1.4221
T4
X3.2082Y-3.6962
X3.2582Y-3.5962
X3.4582Y-3.5962
X3.5082Y-3.6962
X4.1407Y-3.6962
X4.1907Y-3.5962
X4.3907Y-3.5962
X4.4407Y-3.6962
X7.1247Y-2.9502
X7.1747Y-2.8502
X7.3747Y-2.8502
X7.4247Y-2.9502
X6.3787Y-5.1882
X6.4287Y-5.0882
X6.6287Y-5.0882
X6.6787Y-5.1882
X4.8867Y-4.4422
X4.9367Y-4.3422
X5.1367Y-4.3422
X5.1867Y-4.4422
X6.3787Y-3.6962
X6.4287Y-3.5962
X6.6287Y-3.5962
X6.6787Y-3.6962
X8.1207Y-3.0867
X8.1207Y-3.3867
X8.2207Y-3.1367
X8.2207Y-3.3367
X7.1247Y-3.6962
X7.1747Y-3.5962
X7.3747Y-3.5962
X7.4247Y-3.6962
X5.6327Y-3.6962
X5.6827Y-3.5962
X5.8827Y-3.5962
X5.9327Y-3.6962
X4.1407Y-5.1882
X4.1907Y-5.0882
X4.3907Y-5.0882
X4.4407Y-5.1882
X3.2082Y-2.9502
X3.2582Y-2.8502
X3.4582Y-2.8502
X3.5082Y-2.9502
X4.8867Y-2.2042
X4.9367Y-2.1042
X5.1367Y-2.1042
X5.1867Y-2.2042
X6.3787Y-2.9502
X6.4287Y-2.8502
X6.6287Y-2.8502
X6.6787Y-2.9502
X4.8867Y-5.1882
X4.9367Y-5.0882
X5.1367Y-5.0882
X5.1867Y-5.1882
X6.3787Y-4.4422
X6.4287Y-4.3422
X6.6287Y-4.3422
X6.6787Y-4.4422
X3.2082Y-2.2042
X3.2582Y-2.1042
X3.4582Y-2.1042
X3.5082Y-2.2042
X5.6327Y-2.2042
X5.6827Y-2.1042
X5.8827Y-2.1042
X5.9327Y-2.2042
X7.4977Y-5.1882
X7.5477Y-5.0882
X7.7477Y-5.0882
X7.7977Y-5.1882
X4.1407Y-2.9502
X4.1907Y-2.8502
X4.3907Y-2.8502
X4.4407Y-2.9502
X5.6327Y-4.4422
X5.6827Y-4.3422
X5.8827Y-4.3422
X5.9327Y-4.4422
X3.2082Y-4.4422
X3.2582Y-4.3422
X3.4582Y-4.3422
X3.5082Y-4.4422
X8.1207Y-4.2057
X8.1207Y-4.5057
X8.2207Y-4.2557
X8.2207Y-4.4557
X5.6327Y-2.9502
X5.6827Y-2.8502
X5.8827Y-2.8502
X5.9327Y-2.9502
X3.3947Y-5.1882
X3.4447Y-5.0882
X3.6447Y-5.0882
X3.6947Y-5.1882
X7.1247Y-4.4422
X7.1747Y-4.3422
X7.3747Y-4.3422
X7.4247Y-4.4422
X7.8707Y-2.2042
X7.9207Y-2.1042
X8.1207Y-2.1042
X8.1707Y-2.2042
X6.3787Y-2.2042
X6.4287Y-2.1042
X6.6287Y-2.1042
X6.6787Y-2.2042
X5.6327Y-5.1882
X5.6827Y-5.0882
X5.8827Y-5.0882
X5.9327Y-5.1882
X7.1247Y-2.2042
X7.1747Y-2.1042
X7.3747Y-2.1042
X7.4247Y-2.2042
X4.8867Y-3.6962
X4.9367Y-3.5962
X5.1367Y-3.5962
X5.1867Y-3.6962
X4.8867Y-2.9502
X4.9367Y-2.8502
X5.1367Y-2.8502
X5.1867Y-2.9502
X4.1407Y-4.4422
X4.1907Y-4.3422
X4.3907Y-4.3422
X4.4407Y-4.4422
X4.1407Y-2.2042
X4.1907Y-2.1042
X4.3907Y-2.1042
X4.4407Y-2.2042
T5
X5.4812Y-1.3988
X5.7088Y-1.3988
X8.2993Y-1.584
X8.2993Y-1.8116
X8.2993Y-1.584
X8.2993Y-1.8116
T6
X6.3936Y-1.3055
X6.6614Y-1.3055
T7
X8.0207Y-3.0367
X8.0207Y-3.4367
X7.0747Y-3.7962
X7.4747Y-3.7962
X5.5827Y-3.7962
X5.9827Y-3.7962
X4.0907Y-5.2882
X4.4907Y-5.2882
X3.1582Y-3.0502
X3.5582Y-3.0502
X4.8367Y-2.3042
X5.2367Y-2.3042
X6.3287Y-3.0502
X6.7287Y-3.0502
X4.8367Y-5.2882
X5.2367Y-5.2882
X6.3287Y-4.5422
X6.7287Y-4.5422
X3.1582Y-2.3042
X3.5582Y-2.3042
X5.5827Y-2.3042
X5.9827Y-2.3042
X7.4477Y-5.2882
X7.8477Y-5.2882
X4.0907Y-3.0502
X4.4907Y-3.0502
X5.5827Y-4.5422
X5.9827Y-4.5422
X3.1582Y-4.5422
X3.5582Y-4.5422
X8.0207Y-4.1557
X8.0207Y-4.5557
X5.5827Y-3.0502
X5.9827Y-3.0502
X3.3447Y-5.2882
X3.7447Y-5.2882
X7.0747Y-4.5422
X7.4747Y-4.5422
X7.8207Y-2.3042
X8.2207Y-2.3042
X6.3287Y-2.3042
X6.7287Y-2.3042
X5.5827Y-5.2882
X5.9827Y-5.2882
X7.0747Y-2.3042
X7.4747Y-2.3042
X4.8367Y-3.7962
X5.2367Y-3.7962
X4.8367Y-3.0502
X5.2367Y-3.0502
X4.0907Y-4.5422
X4.4907Y-4.5422
X4.0907Y-2.3042
X4.4907Y-2.3042
X3.1582Y-3.7962
X3.5582Y-3.7962
X4.0907Y-3.7962
X4.4907Y-3.7962
X7.0747Y-3.0502
X7.4747Y-3.0502
X6.3287Y-5.2882
X6.7287Y-5.2882
X4.8367Y-4.5422
X5.2367Y-4.5422
X6.3287Y-3.7962
X6.7287Y-3.7962
T8
X7.1777Y-5.0132
X8.1177Y-5.0132
T9
X3.3582Y-2.3042
X5.7827Y-2.3042
X7.1777Y-5.6132
X7.6477Y-5.2882
X8.1177Y-5.6132
X4.2907Y-3.0502
X5.7827Y-4.5422
X3.3582Y-4.5422
X8.0207Y-4.3557
X5.7827Y-3.0502
X3.5447Y-5.2882
X7.2747Y-4.5422
X8.0207Y-2.3042
X6.5287Y-2.3042
X5.7827Y-5.2882
X7.2747Y-2.3042
X5.0367Y-3.7962
X5.0367Y-3.0502
X4.2907Y-4.5422
X4.2907Y-2.3042
X3.3582Y-3.7962
X4.2907Y-3.7962
X7.2747Y-3.0502
X6.5287Y-5.2882
X5.0367Y-4.5422
X6.5287Y-3.7962
X8.0207Y-3.2367
X7.2747Y-3.7962
X5.7827Y-3.7962
X4.2907Y-5.2882
X3.3582Y-3.0502
X5.0367Y-2.3042
X6.5287Y-3.0502
X5.0367Y-5.2882
X6.5287Y-4.5422
T0
M30
