%TF.GenerationSoftware,KiCad,Pcbnew,(5.1.6-0-10_14)*%
%TF.CreationDate,2020-07-02T10:25:43+02:00*%
%TF.ProjectId,aW_1,61575f31-2e6b-4696-9361-645f70636258,v1.0*%
%TF.SameCoordinates,Original*%
%TF.FileFunction,Legend,Top*%
%TF.FilePolarity,Positive*%
%FSLAX46Y46*%
G04 Gerber Fmt 4.6, Leading zero omitted, Abs format (unit mm)*
G04 Created by KiCad (PCBNEW (5.1.6-0-10_14)) date 2020-07-02 10:25:43*
%MOMM*%
%LPD*%
G01*
G04 APERTURE LIST*
%ADD10C,0.120000*%
%ADD11C,0.381000*%
%ADD12C,0.100000*%
%ADD13C,0.200000*%
%ADD14C,0.127000*%
%ADD15C,0.300000*%
%ADD16C,0.152400*%
%ADD17C,0.150000*%
%ADD18C,0.160000*%
G04 APERTURE END LIST*
D10*
%TO.C,R17*%
X152689466Y-47208261D02*
X152689466Y-47533819D01*
X151669466Y-47208261D02*
X151669466Y-47533819D01*
%TO.C,R16*%
X152689466Y-43655433D02*
X152689466Y-43980991D01*
X151669466Y-43655433D02*
X151669466Y-43980991D01*
D11*
%TO.C,K33*%
X200602822Y-140671454D02*
X198824822Y-140671454D01*
X200602822Y-138893454D02*
X200602822Y-140671454D01*
X187902822Y-129749454D02*
X187902822Y-127971454D01*
X187902822Y-140671454D02*
X187902822Y-138893454D01*
X189680822Y-140671454D02*
X187902822Y-140671454D01*
X200602822Y-140671454D02*
X198824822Y-140671454D01*
X200602822Y-138893454D02*
X200602822Y-140671454D01*
X200602822Y-127971454D02*
X200602822Y-129749454D01*
X198824822Y-127971454D02*
X200602822Y-127971454D01*
X187902822Y-127971454D02*
X189680822Y-127971454D01*
%TO.C,K3*%
X121583422Y-52177854D02*
X123361422Y-52177854D01*
X132505422Y-52177854D02*
X134283422Y-52177854D01*
X134283422Y-52177854D02*
X134283422Y-53955854D01*
X134283422Y-63099854D02*
X134283422Y-64877854D01*
X134283422Y-64877854D02*
X132505422Y-64877854D01*
X123361422Y-64877854D02*
X121583422Y-64877854D01*
X121583422Y-64877854D02*
X121583422Y-63099854D01*
X121583422Y-53955854D02*
X121583422Y-52177854D01*
%TO.C,K13*%
X178428622Y-71126254D02*
X180206622Y-71126254D01*
X189350622Y-71126254D02*
X191128622Y-71126254D01*
X191128622Y-71126254D02*
X191128622Y-72904254D01*
X191128622Y-82048254D02*
X191128622Y-83826254D01*
X191128622Y-83826254D02*
X189350622Y-83826254D01*
X180206622Y-83826254D02*
X178428622Y-83826254D01*
X178428622Y-83826254D02*
X178428622Y-82048254D01*
X178428622Y-72904254D02*
X178428622Y-71126254D01*
%TO.C,K7*%
X197377022Y-52177854D02*
X199155022Y-52177854D01*
X208299022Y-52177854D02*
X210077022Y-52177854D01*
X210077022Y-52177854D02*
X210077022Y-53955854D01*
X210077022Y-63099854D02*
X210077022Y-64877854D01*
X210077022Y-64877854D02*
X208299022Y-64877854D01*
X199155022Y-64877854D02*
X197377022Y-64877854D01*
X197377022Y-64877854D02*
X197377022Y-63099854D01*
X197377022Y-53955854D02*
X197377022Y-52177854D01*
%TO.C,K12*%
X159480222Y-71126254D02*
X161258222Y-71126254D01*
X170402222Y-71126254D02*
X172180222Y-71126254D01*
X172180222Y-71126254D02*
X172180222Y-72904254D01*
X172180222Y-82048254D02*
X172180222Y-83826254D01*
X172180222Y-83826254D02*
X170402222Y-83826254D01*
X161258222Y-83826254D02*
X159480222Y-83826254D01*
X159480222Y-83826254D02*
X159480222Y-82048254D01*
X159480222Y-72904254D02*
X159480222Y-71126254D01*
%TO.C,K4*%
X140531822Y-52177854D02*
X142309822Y-52177854D01*
X151453822Y-52177854D02*
X153231822Y-52177854D01*
X153231822Y-52177854D02*
X153231822Y-53955854D01*
X153231822Y-63099854D02*
X153231822Y-64877854D01*
X153231822Y-64877854D02*
X151453822Y-64877854D01*
X142309822Y-64877854D02*
X140531822Y-64877854D01*
X140531822Y-64877854D02*
X140531822Y-63099854D01*
X140531822Y-53955854D02*
X140531822Y-52177854D01*
%TO.C,K16*%
X102635022Y-90074654D02*
X104413022Y-90074654D01*
X113557022Y-90074654D02*
X115335022Y-90074654D01*
X115335022Y-90074654D02*
X115335022Y-91852654D01*
X115335022Y-100996654D02*
X115335022Y-102774654D01*
X115335022Y-102774654D02*
X113557022Y-102774654D01*
X104413022Y-102774654D02*
X102635022Y-102774654D01*
X102635022Y-102774654D02*
X102635022Y-100996654D01*
X102635022Y-91852654D02*
X102635022Y-90074654D01*
%TO.C,K17*%
X121583422Y-90074654D02*
X123361422Y-90074654D01*
X132505422Y-90074654D02*
X134283422Y-90074654D01*
X134283422Y-90074654D02*
X134283422Y-91852654D01*
X134283422Y-100996654D02*
X134283422Y-102774654D01*
X134283422Y-102774654D02*
X132505422Y-102774654D01*
X123361422Y-102774654D02*
X121583422Y-102774654D01*
X121583422Y-102774654D02*
X121583422Y-100996654D01*
X121583422Y-91852654D02*
X121583422Y-90074654D01*
%TO.C,K20*%
X178428622Y-90074654D02*
X180206622Y-90074654D01*
X189350622Y-90074654D02*
X191128622Y-90074654D01*
X191128622Y-90074654D02*
X191128622Y-91852654D01*
X191128622Y-100996654D02*
X191128622Y-102774654D01*
X191128622Y-102774654D02*
X189350622Y-102774654D01*
X180206622Y-102774654D02*
X178428622Y-102774654D01*
X178428622Y-102774654D02*
X178428622Y-100996654D01*
X178428622Y-91852654D02*
X178428622Y-90074654D01*
%TO.C,K5*%
X159480222Y-52177854D02*
X161258222Y-52177854D01*
X170402222Y-52177854D02*
X172180222Y-52177854D01*
X172180222Y-52177854D02*
X172180222Y-53955854D01*
X172180222Y-63099854D02*
X172180222Y-64877854D01*
X172180222Y-64877854D02*
X170402222Y-64877854D01*
X161258222Y-64877854D02*
X159480222Y-64877854D01*
X159480222Y-64877854D02*
X159480222Y-63099854D01*
X159480222Y-53955854D02*
X159480222Y-52177854D01*
%TO.C,K11*%
X140531822Y-71126254D02*
X142309822Y-71126254D01*
X151453822Y-71126254D02*
X153231822Y-71126254D01*
X153231822Y-71126254D02*
X153231822Y-72904254D01*
X153231822Y-82048254D02*
X153231822Y-83826254D01*
X153231822Y-83826254D02*
X151453822Y-83826254D01*
X142309822Y-83826254D02*
X140531822Y-83826254D01*
X140531822Y-83826254D02*
X140531822Y-82048254D01*
X140531822Y-72904254D02*
X140531822Y-71126254D01*
%TO.C,K19*%
X159480222Y-90074654D02*
X161258222Y-90074654D01*
X170402222Y-90074654D02*
X172180222Y-90074654D01*
X172180222Y-90074654D02*
X172180222Y-91852654D01*
X172180222Y-100996654D02*
X172180222Y-102774654D01*
X172180222Y-102774654D02*
X170402222Y-102774654D01*
X161258222Y-102774654D02*
X159480222Y-102774654D01*
X159480222Y-102774654D02*
X159480222Y-100996654D01*
X159480222Y-91852654D02*
X159480222Y-90074654D01*
%TO.C,K18*%
X140531822Y-90074654D02*
X142309822Y-90074654D01*
X151453822Y-90074654D02*
X153231822Y-90074654D01*
X153231822Y-90074654D02*
X153231822Y-91852654D01*
X153231822Y-100996654D02*
X153231822Y-102774654D01*
X153231822Y-102774654D02*
X151453822Y-102774654D01*
X142309822Y-102774654D02*
X140531822Y-102774654D01*
X140531822Y-102774654D02*
X140531822Y-100996654D01*
X140531822Y-91852654D02*
X140531822Y-90074654D01*
%TO.C,K6*%
X178428622Y-52177854D02*
X180206622Y-52177854D01*
X189350622Y-52177854D02*
X191128622Y-52177854D01*
X191128622Y-52177854D02*
X191128622Y-53955854D01*
X191128622Y-63099854D02*
X191128622Y-64877854D01*
X191128622Y-64877854D02*
X189350622Y-64877854D01*
X180206622Y-64877854D02*
X178428622Y-64877854D01*
X178428622Y-64877854D02*
X178428622Y-63099854D01*
X178428622Y-53955854D02*
X178428622Y-52177854D01*
%TO.C,K9*%
X102635022Y-71126254D02*
X104413022Y-71126254D01*
X113557022Y-71126254D02*
X115335022Y-71126254D01*
X115335022Y-71126254D02*
X115335022Y-72904254D01*
X115335022Y-82048254D02*
X115335022Y-83826254D01*
X115335022Y-83826254D02*
X113557022Y-83826254D01*
X104413022Y-83826254D02*
X102635022Y-83826254D01*
X102635022Y-83826254D02*
X102635022Y-82048254D01*
X102635022Y-72904254D02*
X102635022Y-71126254D01*
%TO.C,K10*%
X121583422Y-71126254D02*
X123361422Y-71126254D01*
X132505422Y-71126254D02*
X134283422Y-71126254D01*
X134283422Y-71126254D02*
X134283422Y-72904254D01*
X134283422Y-82048254D02*
X134283422Y-83826254D01*
X134283422Y-83826254D02*
X132505422Y-83826254D01*
X123361422Y-83826254D02*
X121583422Y-83826254D01*
X121583422Y-83826254D02*
X121583422Y-82048254D01*
X121583422Y-72904254D02*
X121583422Y-71126254D01*
%TO.C,K2*%
X102635022Y-52177854D02*
X104413022Y-52177854D01*
X113557022Y-52177854D02*
X115335022Y-52177854D01*
X115335022Y-52177854D02*
X115335022Y-53955854D01*
X115335022Y-63099854D02*
X115335022Y-64877854D01*
X115335022Y-64877854D02*
X113557022Y-64877854D01*
X104413022Y-64877854D02*
X102635022Y-64877854D01*
X102635022Y-64877854D02*
X102635022Y-63099854D01*
X102635022Y-53955854D02*
X102635022Y-52177854D01*
%TO.C,K28*%
X83686622Y-127971454D02*
X85464622Y-127971454D01*
X94608622Y-127971454D02*
X96386622Y-127971454D01*
X96386622Y-127971454D02*
X96386622Y-129749454D01*
X96386622Y-138893454D02*
X96386622Y-140671454D01*
X96386622Y-140671454D02*
X94608622Y-140671454D01*
X85464622Y-140671454D02*
X83686622Y-140671454D01*
X83686622Y-140671454D02*
X83686622Y-138893454D01*
X83686622Y-129749454D02*
X83686622Y-127971454D01*
%TO.C,K30*%
X121583422Y-127971454D02*
X123361422Y-127971454D01*
X132505422Y-127971454D02*
X134283422Y-127971454D01*
X134283422Y-127971454D02*
X134283422Y-129749454D01*
X134283422Y-138893454D02*
X134283422Y-140671454D01*
X134283422Y-140671454D02*
X132505422Y-140671454D01*
X123361422Y-140671454D02*
X121583422Y-140671454D01*
X121583422Y-140671454D02*
X121583422Y-138893454D01*
X121583422Y-129749454D02*
X121583422Y-127971454D01*
%TO.C,K23*%
X102635022Y-109023054D02*
X104413022Y-109023054D01*
X113557022Y-109023054D02*
X115335022Y-109023054D01*
X115335022Y-109023054D02*
X115335022Y-110801054D01*
X115335022Y-119945054D02*
X115335022Y-121723054D01*
X115335022Y-121723054D02*
X113557022Y-121723054D01*
X104413022Y-121723054D02*
X102635022Y-121723054D01*
X102635022Y-121723054D02*
X102635022Y-119945054D01*
X102635022Y-110801054D02*
X102635022Y-109023054D01*
%TO.C,K32*%
X159480222Y-127971454D02*
X161258222Y-127971454D01*
X170402222Y-127971454D02*
X172180222Y-127971454D01*
X172180222Y-127971454D02*
X172180222Y-129749454D01*
X172180222Y-138893454D02*
X172180222Y-140671454D01*
X172180222Y-140671454D02*
X170402222Y-140671454D01*
X161258222Y-140671454D02*
X159480222Y-140671454D01*
X159480222Y-140671454D02*
X159480222Y-138893454D01*
X159480222Y-129749454D02*
X159480222Y-127971454D01*
%TO.C,K27*%
X178428622Y-109023054D02*
X180206622Y-109023054D01*
X189350622Y-109023054D02*
X191128622Y-109023054D01*
X191128622Y-109023054D02*
X191128622Y-110801054D01*
X191128622Y-119945054D02*
X191128622Y-121723054D01*
X191128622Y-121723054D02*
X189350622Y-121723054D01*
X180206622Y-121723054D02*
X178428622Y-121723054D01*
X178428622Y-121723054D02*
X178428622Y-119945054D01*
X178428622Y-110801054D02*
X178428622Y-109023054D01*
%TO.C,K25*%
X140531822Y-109023054D02*
X142309822Y-109023054D01*
X151453822Y-109023054D02*
X153231822Y-109023054D01*
X153231822Y-109023054D02*
X153231822Y-110801054D01*
X153231822Y-119945054D02*
X153231822Y-121723054D01*
X153231822Y-121723054D02*
X151453822Y-121723054D01*
X142309822Y-121723054D02*
X140531822Y-121723054D01*
X140531822Y-121723054D02*
X140531822Y-119945054D01*
X140531822Y-110801054D02*
X140531822Y-109023054D01*
%TO.C,K29*%
X102635022Y-127971454D02*
X104413022Y-127971454D01*
X113557022Y-127971454D02*
X115335022Y-127971454D01*
X115335022Y-127971454D02*
X115335022Y-129749454D01*
X115335022Y-138893454D02*
X115335022Y-140671454D01*
X115335022Y-140671454D02*
X113557022Y-140671454D01*
X104413022Y-140671454D02*
X102635022Y-140671454D01*
X102635022Y-140671454D02*
X102635022Y-138893454D01*
X102635022Y-129749454D02*
X102635022Y-127971454D01*
%TO.C,K26*%
X159480222Y-109023054D02*
X161258222Y-109023054D01*
X170402222Y-109023054D02*
X172180222Y-109023054D01*
X172180222Y-109023054D02*
X172180222Y-110801054D01*
X172180222Y-119945054D02*
X172180222Y-121723054D01*
X172180222Y-121723054D02*
X170402222Y-121723054D01*
X161258222Y-121723054D02*
X159480222Y-121723054D01*
X159480222Y-121723054D02*
X159480222Y-119945054D01*
X159480222Y-110801054D02*
X159480222Y-109023054D01*
%TO.C,K24*%
X121583422Y-109023054D02*
X123361422Y-109023054D01*
X132505422Y-109023054D02*
X134283422Y-109023054D01*
X134283422Y-109023054D02*
X134283422Y-110801054D01*
X134283422Y-119945054D02*
X134283422Y-121723054D01*
X134283422Y-121723054D02*
X132505422Y-121723054D01*
X123361422Y-121723054D02*
X121583422Y-121723054D01*
X121583422Y-121723054D02*
X121583422Y-119945054D01*
X121583422Y-110801054D02*
X121583422Y-109023054D01*
%TO.C,K31*%
X140531822Y-127971454D02*
X142309822Y-127971454D01*
X151453822Y-127971454D02*
X153231822Y-127971454D01*
X153231822Y-127971454D02*
X153231822Y-129749454D01*
X153231822Y-138893454D02*
X153231822Y-140671454D01*
X153231822Y-140671454D02*
X151453822Y-140671454D01*
X142309822Y-140671454D02*
X140531822Y-140671454D01*
X140531822Y-140671454D02*
X140531822Y-138893454D01*
X140531822Y-129749454D02*
X140531822Y-127971454D01*
%TO.C,K14*%
X199155022Y-88563354D02*
X197377022Y-88563354D01*
X197377022Y-88563354D02*
X197377022Y-86785354D01*
X208299022Y-75863354D02*
X210077022Y-75863354D01*
X197377022Y-75863354D02*
X199155022Y-75863354D01*
X197377022Y-77641354D02*
X197377022Y-75863354D01*
X197377022Y-88563354D02*
X197377022Y-86785354D01*
X199155022Y-88563354D02*
X197377022Y-88563354D01*
X210077022Y-88563354D02*
X208299022Y-88563354D01*
X210077022Y-86785354D02*
X210077022Y-88563354D01*
X210077022Y-75863354D02*
X210077022Y-77641354D01*
%TO.C,K8*%
X91649522Y-82048254D02*
X91649522Y-83826254D01*
X91649522Y-83826254D02*
X89871522Y-83826254D01*
X78949522Y-72904254D02*
X78949522Y-71126254D01*
X78949522Y-83826254D02*
X78949522Y-82048254D01*
X80727522Y-83826254D02*
X78949522Y-83826254D01*
X91649522Y-83826254D02*
X89871522Y-83826254D01*
X91649522Y-82048254D02*
X91649522Y-83826254D01*
X91649522Y-71126254D02*
X91649522Y-72904254D01*
X89871522Y-71126254D02*
X91649522Y-71126254D01*
X78949522Y-71126254D02*
X80727522Y-71126254D01*
%TO.C,K21*%
X199155022Y-116985954D02*
X197377022Y-116985954D01*
X197377022Y-116985954D02*
X197377022Y-115207954D01*
X208299022Y-104285954D02*
X210077022Y-104285954D01*
X197377022Y-104285954D02*
X199155022Y-104285954D01*
X197377022Y-106063954D02*
X197377022Y-104285954D01*
X197377022Y-116985954D02*
X197377022Y-115207954D01*
X199155022Y-116985954D02*
X197377022Y-116985954D01*
X210077022Y-116985954D02*
X208299022Y-116985954D01*
X210077022Y-115207954D02*
X210077022Y-116985954D01*
X210077022Y-104285954D02*
X210077022Y-106063954D01*
%TO.C,K22*%
X91649522Y-119945054D02*
X91649522Y-121723054D01*
X91649522Y-121723054D02*
X89871522Y-121723054D01*
X78949522Y-110801054D02*
X78949522Y-109023054D01*
X78949522Y-121723054D02*
X78949522Y-119945054D01*
X80727522Y-121723054D02*
X78949522Y-121723054D01*
X91649522Y-121723054D02*
X89871522Y-121723054D01*
X91649522Y-119945054D02*
X91649522Y-121723054D01*
X91649522Y-109023054D02*
X91649522Y-110801054D01*
X89871522Y-109023054D02*
X91649522Y-109023054D01*
X78949522Y-109023054D02*
X80727522Y-109023054D01*
%TO.C,K1*%
X91649522Y-63099854D02*
X91649522Y-64877854D01*
X91649522Y-64877854D02*
X89871522Y-64877854D01*
X78949522Y-53955854D02*
X78949522Y-52177854D01*
X78949522Y-64877854D02*
X78949522Y-63099854D01*
X80727522Y-64877854D02*
X78949522Y-64877854D01*
X91649522Y-64877854D02*
X89871522Y-64877854D01*
X91649522Y-63099854D02*
X91649522Y-64877854D01*
X91649522Y-52177854D02*
X91649522Y-53955854D01*
X89871522Y-52177854D02*
X91649522Y-52177854D01*
X78949522Y-52177854D02*
X80727522Y-52177854D01*
%TO.C,K15*%
X91649522Y-100996654D02*
X91649522Y-102774654D01*
X91649522Y-102774654D02*
X89871522Y-102774654D01*
X78949522Y-91852654D02*
X78949522Y-90074654D01*
X78949522Y-102774654D02*
X78949522Y-100996654D01*
X80727522Y-102774654D02*
X78949522Y-102774654D01*
X91649522Y-102774654D02*
X89871522Y-102774654D01*
X91649522Y-100996654D02*
X91649522Y-102774654D01*
X91649522Y-90074654D02*
X91649522Y-91852654D01*
X89871522Y-90074654D02*
X91649522Y-90074654D01*
X78949522Y-90074654D02*
X80727522Y-90074654D01*
D12*
%TO.C,S1*%
X169298640Y-34909728D02*
X170298640Y-34909728D01*
X170298640Y-34909728D02*
X170298640Y-31409728D01*
X170298640Y-31409728D02*
X169298640Y-31409728D01*
X162298640Y-34909728D02*
X161298640Y-34909728D01*
X161298640Y-34909728D02*
X161298640Y-31409728D01*
X161298640Y-31409728D02*
X162298640Y-31409728D01*
X167298640Y-31409728D02*
X167298640Y-29409728D01*
X167298640Y-29409728D02*
X165798640Y-29409728D01*
X165798640Y-29409728D02*
X165798640Y-30909728D01*
D13*
X168198640Y-35509728D02*
G75*
G02*
X168398640Y-35509728I100000J0D01*
G01*
X168398640Y-35509728D02*
G75*
G02*
X168198640Y-35509728I-100000J0D01*
G01*
D10*
%TO.C,J4*%
X93389942Y-37250418D02*
X93389942Y-36120418D01*
X94149942Y-37250418D02*
X93389942Y-37250418D01*
X93454942Y-34542888D02*
X93454942Y-33720418D01*
X93454942Y-35360418D02*
X93454942Y-35157948D01*
X93586471Y-35360418D02*
X93454942Y-35360418D01*
X94856471Y-35360418D02*
X94713413Y-35360418D01*
X94909942Y-35556947D02*
X94909942Y-35413889D01*
X94909942Y-37250418D02*
X94909942Y-36683889D01*
X93454942Y-33720418D02*
X99924942Y-33720418D01*
X94909942Y-37250418D02*
X99924942Y-37250418D01*
X99924942Y-35812888D02*
X99924942Y-35157948D01*
X99924942Y-34542888D02*
X99924942Y-33720418D01*
X99924942Y-37250418D02*
X99924942Y-36427948D01*
D13*
%TO.C,SW2*%
X124725394Y-35512556D02*
X124725394Y-37912556D01*
D10*
%TO.C,D35*%
X196502822Y-140744568D02*
X192602822Y-140744568D01*
X196502822Y-138744568D02*
X192602822Y-138744568D01*
X196502822Y-140744568D02*
X196502822Y-138744568D01*
%TO.C,D34*%
X168080222Y-140744568D02*
X164180222Y-140744568D01*
X168080222Y-138744568D02*
X164180222Y-138744568D01*
X168080222Y-140744568D02*
X168080222Y-138744568D01*
%TO.C,D33*%
X149131822Y-140744568D02*
X145231822Y-140744568D01*
X149131822Y-138744568D02*
X145231822Y-138744568D01*
X149131822Y-140744568D02*
X149131822Y-138744568D01*
%TO.C,D32*%
X130183422Y-140744568D02*
X126283422Y-140744568D01*
X130183422Y-138744568D02*
X126283422Y-138744568D01*
X130183422Y-140744568D02*
X130183422Y-138744568D01*
%TO.C,D31*%
X111235022Y-140744568D02*
X107335022Y-140744568D01*
X111235022Y-138744568D02*
X107335022Y-138744568D01*
X111235022Y-140744568D02*
X111235022Y-138744568D01*
%TO.C,D30*%
X92280272Y-140744568D02*
X88380272Y-140744568D01*
X92280272Y-138744568D02*
X88380272Y-138744568D01*
X92280272Y-140744568D02*
X92280272Y-138744568D01*
%TO.C,D29*%
X187028622Y-121796152D02*
X183128622Y-121796152D01*
X187028622Y-119796152D02*
X183128622Y-119796152D01*
X187028622Y-121796152D02*
X187028622Y-119796152D01*
%TO.C,D28*%
X168080222Y-121796152D02*
X164180222Y-121796152D01*
X168080222Y-119796152D02*
X164180222Y-119796152D01*
X168080222Y-121796152D02*
X168080222Y-119796152D01*
%TO.C,D27*%
X149100224Y-121796152D02*
X145200224Y-121796152D01*
X149100224Y-119796152D02*
X145200224Y-119796152D01*
X149100224Y-121796152D02*
X149100224Y-119796152D01*
%TO.C,D26*%
X130183422Y-121796152D02*
X126283422Y-121796152D01*
X130183422Y-119796152D02*
X126283422Y-119796152D01*
X130183422Y-121796152D02*
X130183422Y-119796152D01*
%TO.C,D25*%
X111235022Y-121796152D02*
X107335022Y-121796152D01*
X111235022Y-119796152D02*
X107335022Y-119796152D01*
X111235022Y-121796152D02*
X111235022Y-119796152D01*
%TO.C,D24*%
X87549522Y-121796152D02*
X83649522Y-121796152D01*
X87549522Y-119796152D02*
X83649522Y-119796152D01*
X87549522Y-121796152D02*
X87549522Y-119796152D01*
%TO.C,D23*%
X197366230Y-112885954D02*
X197366230Y-108985954D01*
X199366230Y-112885954D02*
X199366230Y-108985954D01*
X197366230Y-112885954D02*
X199366230Y-112885954D01*
%TO.C,D22*%
X187028622Y-102847736D02*
X183128622Y-102847736D01*
X187028622Y-100847736D02*
X183128622Y-100847736D01*
X187028622Y-102847736D02*
X187028622Y-100847736D01*
%TO.C,D21*%
X168080222Y-102847736D02*
X164180222Y-102847736D01*
X168080222Y-100847736D02*
X164180222Y-100847736D01*
X168080222Y-102847736D02*
X168080222Y-100847736D01*
%TO.C,D20*%
X149100224Y-102847736D02*
X145200224Y-102847736D01*
X149100224Y-100847736D02*
X145200224Y-100847736D01*
X149100224Y-102847736D02*
X149100224Y-100847736D01*
%TO.C,D19*%
X130183422Y-102847736D02*
X126283422Y-102847736D01*
X130183422Y-100847736D02*
X126283422Y-100847736D01*
X130183422Y-102847736D02*
X130183422Y-100847736D01*
%TO.C,D18*%
X111225273Y-102847736D02*
X107325273Y-102847736D01*
X111225273Y-100847736D02*
X107325273Y-100847736D01*
X111225273Y-102847736D02*
X111225273Y-100847736D01*
%TO.C,D17*%
X87517872Y-102847736D02*
X83617872Y-102847736D01*
X87517872Y-100847736D02*
X83617872Y-100847736D01*
X87517872Y-102847736D02*
X87517872Y-100847736D01*
%TO.C,D16*%
X197366230Y-84557182D02*
X197366230Y-80657182D01*
X199366230Y-84557182D02*
X199366230Y-80657182D01*
X197366230Y-84557182D02*
X199366230Y-84557182D01*
%TO.C,D15*%
X187028622Y-83899320D02*
X183128622Y-83899320D01*
X187028622Y-81899320D02*
X183128622Y-81899320D01*
X187028622Y-83899320D02*
X187028622Y-81899320D01*
%TO.C,D14*%
X168048640Y-83899320D02*
X164148640Y-83899320D01*
X168048640Y-81899320D02*
X164148640Y-81899320D01*
X168048640Y-83899320D02*
X168048640Y-81899320D01*
%TO.C,D13*%
X149100224Y-83899320D02*
X145200224Y-83899320D01*
X149100224Y-81899320D02*
X145200224Y-81899320D01*
X149100224Y-83899320D02*
X149100224Y-81899320D01*
%TO.C,D12*%
X130151808Y-83899320D02*
X126251808Y-83899320D01*
X130151808Y-81899320D02*
X126251808Y-81899320D01*
X130151808Y-83899320D02*
X130151808Y-81899320D01*
%TO.C,D11*%
X111203392Y-83899320D02*
X107303392Y-83899320D01*
X111203392Y-81899320D02*
X107303392Y-81899320D01*
X111203392Y-83899320D02*
X111203392Y-81899320D01*
%TO.C,D10*%
X87517872Y-83899320D02*
X83617872Y-83899320D01*
X87517872Y-81899320D02*
X83617872Y-81899320D01*
X87517872Y-83899320D02*
X87517872Y-81899320D01*
%TO.C,D9*%
X205977022Y-64950904D02*
X202077022Y-64950904D01*
X205977022Y-62950904D02*
X202077022Y-62950904D01*
X205977022Y-64950904D02*
X205977022Y-62950904D01*
%TO.C,D8*%
X187028622Y-64950904D02*
X183128622Y-64950904D01*
X187028622Y-62950904D02*
X183128622Y-62950904D01*
X187028622Y-64950904D02*
X187028622Y-62950904D01*
%TO.C,D7*%
X168080222Y-64950904D02*
X164180222Y-64950904D01*
X168080222Y-62950904D02*
X164180222Y-62950904D01*
X168080222Y-64950904D02*
X168080222Y-62950904D01*
%TO.C,D6*%
X149131822Y-64950904D02*
X145231822Y-64950904D01*
X149131822Y-62950904D02*
X145231822Y-62950904D01*
X149131822Y-64950904D02*
X149131822Y-62950904D01*
%TO.C,D5*%
X130151808Y-64950904D02*
X126251808Y-64950904D01*
X130151808Y-62950904D02*
X126251808Y-62950904D01*
X130151808Y-64950904D02*
X130151808Y-62950904D01*
%TO.C,D4*%
X111235022Y-64950904D02*
X107335022Y-64950904D01*
X111235022Y-62950904D02*
X107335022Y-62950904D01*
X111235022Y-64950904D02*
X111235022Y-62950904D01*
%TO.C,D3*%
X87549522Y-64950904D02*
X83649522Y-64950904D01*
X87549522Y-62950904D02*
X83649522Y-62950904D01*
X87549522Y-64950904D02*
X87549522Y-62950904D01*
D14*
%TO.C,BT1*%
X198716230Y-45991798D02*
X198716230Y-43941798D01*
X198716230Y-40141798D02*
X198716230Y-38091798D01*
X198716230Y-38091798D02*
X194716230Y-38091798D01*
D15*
X199816230Y-39891798D02*
G75*
G03*
X199816230Y-39891798I-100000J0D01*
G01*
D14*
X191116230Y-39841798D02*
X191116230Y-44241798D01*
X194716230Y-45991798D02*
X198716230Y-45991798D01*
D10*
%TO.C,C2*%
X133148912Y-47208261D02*
X133148912Y-47533819D01*
X132128912Y-47208261D02*
X132128912Y-47533819D01*
%TO.C,C3*%
X137293878Y-47208261D02*
X137293878Y-47533819D01*
X136273878Y-47208261D02*
X136273878Y-47533819D01*
%TO.C,C11*%
X96681273Y-41367522D02*
X96355715Y-41367522D01*
X96681273Y-40347522D02*
X96355715Y-40347522D01*
%TO.C,D1*%
X138086706Y-46371040D02*
X138086706Y-48371040D01*
X138086706Y-48371040D02*
X141986706Y-48371040D01*
X138086706Y-46371040D02*
X141986706Y-46371040D01*
%TO.C,D2*%
X117467600Y-35120418D02*
X117467600Y-37805418D01*
X117467600Y-37805418D02*
X119387600Y-37805418D01*
X119387600Y-37805418D02*
X119387600Y-35120418D01*
%TO.C,D36*%
X117019048Y-37120418D02*
X117019048Y-34435418D01*
X117019048Y-34435418D02*
X115099048Y-34435418D01*
X115099048Y-34435418D02*
X115099048Y-37120418D01*
D13*
%TO.C,J2*%
X215591128Y-47594352D02*
X217081128Y-47594352D01*
X217081128Y-47594352D02*
X217081128Y-38654352D01*
X217081128Y-38654352D02*
X215591128Y-38654352D01*
X211661128Y-47594352D02*
X212871128Y-47594352D01*
X211661128Y-38654352D02*
X212871128Y-38654352D01*
X208671128Y-46904352D02*
G75*
G03*
X208671128Y-46904352I-100000J0D01*
G01*
%TO.C,J3*%
X146583120Y-30738280D02*
X146583120Y-29248280D01*
X146583120Y-29248280D02*
X137643120Y-29248280D01*
X137643120Y-29248280D02*
X137643120Y-30738280D01*
X146583120Y-34668280D02*
X146583120Y-33458280D01*
X137643120Y-34668280D02*
X137643120Y-33458280D01*
X145993120Y-37758280D02*
G75*
G03*
X145993120Y-37758280I-100000J0D01*
G01*
D10*
%TO.C,JP1*%
X72225112Y-41433936D02*
X71925112Y-41733936D01*
X71925112Y-41133936D02*
X71925112Y-41733936D01*
X72225112Y-41433936D02*
X71925112Y-41133936D01*
X73125112Y-40583936D02*
X73725112Y-40583936D01*
X72425112Y-44033936D02*
X72425112Y-41233936D01*
X73725112Y-44683936D02*
X73125112Y-44683936D01*
X74425112Y-41233936D02*
X74425112Y-44033936D01*
X73725112Y-40583936D02*
G75*
G02*
X74425112Y-41283936I0J-700000D01*
G01*
X72425112Y-41283936D02*
G75*
G02*
X73125112Y-40583936I700000J0D01*
G01*
X73125112Y-44683936D02*
G75*
G02*
X72425112Y-43983936I0J700000D01*
G01*
X74425112Y-43983936D02*
G75*
G02*
X73725112Y-44683936I-700000J0D01*
G01*
D16*
%TO.C,Q1*%
X140184306Y-42395812D02*
X140997106Y-42395812D01*
X140997106Y-42395812D02*
X140997106Y-42954612D01*
X140997106Y-45240612D02*
X140184306Y-45240612D01*
X140997106Y-44681812D02*
X140997106Y-45240612D01*
D13*
%TO.C,SW1*%
X128870360Y-35512556D02*
X128870360Y-37912556D01*
D14*
%TO.C,U1*%
X133565326Y-45291924D02*
X135265326Y-45291924D01*
X133565326Y-42191924D02*
X135265326Y-42191924D01*
X135265326Y-42191924D02*
X135265326Y-42291924D01*
X133565326Y-42191924D02*
X133565326Y-42291924D01*
X133565326Y-45291924D02*
X133565326Y-45191924D01*
X135265326Y-45291924D02*
X135265326Y-45191924D01*
D13*
X136984326Y-44691924D02*
G75*
G03*
X136984326Y-44691924I-100000J0D01*
G01*
D10*
%TO.C,U3*%
X148342362Y-42208212D02*
X146542362Y-42208212D01*
X146542362Y-45428212D02*
X148992362Y-45428212D01*
D14*
%TO.C,U4*%
X106963392Y-40578212D02*
X106963392Y-39448212D01*
X106963392Y-39448212D02*
X110943392Y-39448212D01*
X110943392Y-39448212D02*
X110943392Y-40578212D01*
X106963392Y-47058212D02*
X106963392Y-48188212D01*
X106963392Y-48188212D02*
X110943392Y-48188212D01*
X110943392Y-48188212D02*
X110943392Y-47058212D01*
D13*
X105053392Y-40918212D02*
G75*
G03*
X105053392Y-40918212I-100000J0D01*
G01*
D14*
%TO.C,U5*%
X90267872Y-33857522D02*
X80267872Y-33857522D01*
D13*
X90776872Y-35171522D02*
G75*
G03*
X90776872Y-35171522I-100000J0D01*
G01*
D14*
X90267872Y-47657522D02*
X90267872Y-47857522D01*
X90267872Y-47857522D02*
X89367872Y-47857522D01*
X80267872Y-47657522D02*
X80267872Y-47857522D01*
X80267872Y-47857522D02*
X81167872Y-47857522D01*
X90267872Y-35757522D02*
X90267872Y-33857522D01*
X80267872Y-38757522D02*
X80267872Y-33857522D01*
%TO.C,Y1*%
X81867182Y-49581730D02*
X82747182Y-49581730D01*
X81867182Y-51081730D02*
X82747182Y-51081730D01*
%TO.C,R17*%
D17*
X154061846Y-48013897D02*
X153585656Y-48347230D01*
X154061846Y-48585325D02*
X153061846Y-48585325D01*
X153061846Y-48204373D01*
X153109466Y-48109135D01*
X153157085Y-48061516D01*
X153252323Y-48013897D01*
X153395180Y-48013897D01*
X153490418Y-48061516D01*
X153538037Y-48109135D01*
X153585656Y-48204373D01*
X153585656Y-48585325D01*
X154061846Y-47061516D02*
X154061846Y-47632944D01*
X154061846Y-47347230D02*
X153061846Y-47347230D01*
X153204704Y-47442468D01*
X153299942Y-47537706D01*
X153347561Y-47632944D01*
X153061846Y-46728182D02*
X153061846Y-46061516D01*
X154061846Y-46490087D01*
%TO.C,R16*%
X154061846Y-44461069D02*
X153585656Y-44794402D01*
X154061846Y-45032497D02*
X153061846Y-45032497D01*
X153061846Y-44651545D01*
X153109466Y-44556307D01*
X153157085Y-44508688D01*
X153252323Y-44461069D01*
X153395180Y-44461069D01*
X153490418Y-44508688D01*
X153538037Y-44556307D01*
X153585656Y-44651545D01*
X153585656Y-45032497D01*
X154061846Y-43508688D02*
X154061846Y-44080116D01*
X154061846Y-43794402D02*
X153061846Y-43794402D01*
X153204704Y-43889640D01*
X153299942Y-43984878D01*
X153347561Y-44080116D01*
X153061846Y-42651545D02*
X153061846Y-42842021D01*
X153109466Y-42937259D01*
X153157085Y-42984878D01*
X153299942Y-43080116D01*
X153490418Y-43127735D01*
X153871370Y-43127735D01*
X153966608Y-43080116D01*
X154014227Y-43032497D01*
X154061846Y-42937259D01*
X154061846Y-42746783D01*
X154014227Y-42651545D01*
X153966608Y-42603926D01*
X153871370Y-42556307D01*
X153633275Y-42556307D01*
X153538037Y-42603926D01*
X153490418Y-42651545D01*
X153442799Y-42746783D01*
X153442799Y-42937259D01*
X153490418Y-43032497D01*
X153538037Y-43080116D01*
X153633275Y-43127735D01*
%TO.C,S1*%
X165036087Y-37117661D02*
X165179066Y-37165321D01*
X165417363Y-37165321D01*
X165512682Y-37117661D01*
X165560342Y-37070002D01*
X165608001Y-36974683D01*
X165608001Y-36879364D01*
X165560342Y-36784045D01*
X165512682Y-36736385D01*
X165417363Y-36688726D01*
X165226725Y-36641066D01*
X165131406Y-36593407D01*
X165083747Y-36545747D01*
X165036087Y-36450428D01*
X165036087Y-36355109D01*
X165083747Y-36259790D01*
X165131406Y-36212131D01*
X165226725Y-36164471D01*
X165465023Y-36164471D01*
X165608001Y-36212131D01*
X166561192Y-37165321D02*
X165989278Y-37165321D01*
X166275235Y-37165321D02*
X166275235Y-36164471D01*
X166179916Y-36307450D01*
X166084597Y-36402769D01*
X165989278Y-36450428D01*
%TO.C,J4*%
D18*
X100922264Y-34980660D02*
X100922264Y-35694946D01*
X100874645Y-35837803D01*
X100779407Y-35933041D01*
X100636550Y-35980660D01*
X100541312Y-35980660D01*
X101827026Y-35313994D02*
X101827026Y-35980660D01*
X101588931Y-34933041D02*
X101350836Y-35647327D01*
X101969883Y-35647327D01*
%TO.C,SW2*%
X124792060Y-40670145D02*
X124934917Y-40717764D01*
X125173013Y-40717764D01*
X125268251Y-40670145D01*
X125315870Y-40622526D01*
X125363489Y-40527288D01*
X125363489Y-40432050D01*
X125315870Y-40336812D01*
X125268251Y-40289193D01*
X125173013Y-40241574D01*
X124982536Y-40193955D01*
X124887298Y-40146336D01*
X124839679Y-40098717D01*
X124792060Y-40003479D01*
X124792060Y-39908241D01*
X124839679Y-39813003D01*
X124887298Y-39765384D01*
X124982536Y-39717764D01*
X125220632Y-39717764D01*
X125363489Y-39765384D01*
X125696822Y-39717764D02*
X125934917Y-40717764D01*
X126125394Y-40003479D01*
X126315870Y-40717764D01*
X126553965Y-39717764D01*
X126887298Y-39813003D02*
X126934917Y-39765384D01*
X127030155Y-39717764D01*
X127268251Y-39717764D01*
X127363489Y-39765384D01*
X127411108Y-39813003D01*
X127458727Y-39908241D01*
X127458727Y-40003479D01*
X127411108Y-40146336D01*
X126839679Y-40717764D01*
X127458727Y-40717764D01*
%TO.C,R10*%
X98836326Y-39533488D02*
X98502993Y-39057298D01*
X98264898Y-39533488D02*
X98264898Y-38533488D01*
X98645850Y-38533488D01*
X98741088Y-38581108D01*
X98788707Y-38628727D01*
X98836326Y-38723965D01*
X98836326Y-38866822D01*
X98788707Y-38962060D01*
X98741088Y-39009679D01*
X98645850Y-39057298D01*
X98264898Y-39057298D01*
X99788707Y-39533488D02*
X99217279Y-39533488D01*
X99502993Y-39533488D02*
X99502993Y-38533488D01*
X99407755Y-38676346D01*
X99312517Y-38771584D01*
X99217279Y-38819203D01*
X100407755Y-38533488D02*
X100502993Y-38533488D01*
X100598231Y-38581108D01*
X100645850Y-38628727D01*
X100693469Y-38723965D01*
X100741088Y-38914441D01*
X100741088Y-39152536D01*
X100693469Y-39343012D01*
X100645850Y-39438250D01*
X100598231Y-39485869D01*
X100502993Y-39533488D01*
X100407755Y-39533488D01*
X100312517Y-39485869D01*
X100264898Y-39438250D01*
X100217279Y-39343012D01*
X100169660Y-39152536D01*
X100169660Y-38914441D01*
X100217279Y-38723965D01*
X100264898Y-38628727D01*
X100312517Y-38581108D01*
X100407755Y-38533488D01*
%TO.C,R11*%
X102389154Y-47231282D02*
X102055821Y-46755092D01*
X101817726Y-47231282D02*
X101817726Y-46231282D01*
X102198678Y-46231282D01*
X102293916Y-46278902D01*
X102341535Y-46326521D01*
X102389154Y-46421759D01*
X102389154Y-46564616D01*
X102341535Y-46659854D01*
X102293916Y-46707473D01*
X102198678Y-46755092D01*
X101817726Y-46755092D01*
X103341535Y-47231282D02*
X102770107Y-47231282D01*
X103055821Y-47231282D02*
X103055821Y-46231282D01*
X102960583Y-46374140D01*
X102865345Y-46469378D01*
X102770107Y-46516997D01*
X104293916Y-47231282D02*
X103722488Y-47231282D01*
X104008202Y-47231282D02*
X104008202Y-46231282D01*
X103912964Y-46374140D01*
X103817726Y-46469378D01*
X103722488Y-46516997D01*
%TO.C,R14*%
X102389154Y-51376248D02*
X102055821Y-50900058D01*
X101817726Y-51376248D02*
X101817726Y-50376248D01*
X102198678Y-50376248D01*
X102293916Y-50423868D01*
X102341535Y-50471487D01*
X102389154Y-50566725D01*
X102389154Y-50709582D01*
X102341535Y-50804820D01*
X102293916Y-50852439D01*
X102198678Y-50900058D01*
X101817726Y-50900058D01*
X103341535Y-51376248D02*
X102770107Y-51376248D01*
X103055821Y-51376248D02*
X103055821Y-50376248D01*
X102960583Y-50519106D01*
X102865345Y-50614344D01*
X102770107Y-50661963D01*
X104198678Y-50709582D02*
X104198678Y-51376248D01*
X103960583Y-50328629D02*
X103722488Y-51042915D01*
X104341535Y-51042915D01*
%TO.C,D35*%
X193038536Y-142196948D02*
X193038536Y-141196948D01*
X193276631Y-141196948D01*
X193419488Y-141244568D01*
X193514726Y-141339806D01*
X193562345Y-141435044D01*
X193609964Y-141625520D01*
X193609964Y-141768377D01*
X193562345Y-141958853D01*
X193514726Y-142054091D01*
X193419488Y-142149329D01*
X193276631Y-142196948D01*
X193038536Y-142196948D01*
X193943298Y-141196948D02*
X194562345Y-141196948D01*
X194229012Y-141577901D01*
X194371869Y-141577901D01*
X194467107Y-141625520D01*
X194514726Y-141673139D01*
X194562345Y-141768377D01*
X194562345Y-142006472D01*
X194514726Y-142101710D01*
X194467107Y-142149329D01*
X194371869Y-142196948D01*
X194086155Y-142196948D01*
X193990917Y-142149329D01*
X193943298Y-142101710D01*
X195467107Y-141196948D02*
X194990917Y-141196948D01*
X194943298Y-141673139D01*
X194990917Y-141625520D01*
X195086155Y-141577901D01*
X195324250Y-141577901D01*
X195419488Y-141625520D01*
X195467107Y-141673139D01*
X195514726Y-141768377D01*
X195514726Y-142006472D01*
X195467107Y-142101710D01*
X195419488Y-142149329D01*
X195324250Y-142196948D01*
X195086155Y-142196948D01*
X194990917Y-142149329D01*
X194943298Y-142101710D01*
%TO.C,D34*%
X164615936Y-142196948D02*
X164615936Y-141196948D01*
X164854031Y-141196948D01*
X164996888Y-141244568D01*
X165092126Y-141339806D01*
X165139745Y-141435044D01*
X165187364Y-141625520D01*
X165187364Y-141768377D01*
X165139745Y-141958853D01*
X165092126Y-142054091D01*
X164996888Y-142149329D01*
X164854031Y-142196948D01*
X164615936Y-142196948D01*
X165520698Y-141196948D02*
X166139745Y-141196948D01*
X165806412Y-141577901D01*
X165949269Y-141577901D01*
X166044507Y-141625520D01*
X166092126Y-141673139D01*
X166139745Y-141768377D01*
X166139745Y-142006472D01*
X166092126Y-142101710D01*
X166044507Y-142149329D01*
X165949269Y-142196948D01*
X165663555Y-142196948D01*
X165568317Y-142149329D01*
X165520698Y-142101710D01*
X166996888Y-141530282D02*
X166996888Y-142196948D01*
X166758793Y-141149329D02*
X166520698Y-141863615D01*
X167139745Y-141863615D01*
%TO.C,D33*%
X145667536Y-142196948D02*
X145667536Y-141196948D01*
X145905631Y-141196948D01*
X146048488Y-141244568D01*
X146143726Y-141339806D01*
X146191345Y-141435044D01*
X146238964Y-141625520D01*
X146238964Y-141768377D01*
X146191345Y-141958853D01*
X146143726Y-142054091D01*
X146048488Y-142149329D01*
X145905631Y-142196948D01*
X145667536Y-142196948D01*
X146572298Y-141196948D02*
X147191345Y-141196948D01*
X146858012Y-141577901D01*
X147000869Y-141577901D01*
X147096107Y-141625520D01*
X147143726Y-141673139D01*
X147191345Y-141768377D01*
X147191345Y-142006472D01*
X147143726Y-142101710D01*
X147096107Y-142149329D01*
X147000869Y-142196948D01*
X146715155Y-142196948D01*
X146619917Y-142149329D01*
X146572298Y-142101710D01*
X147524679Y-141196948D02*
X148143726Y-141196948D01*
X147810393Y-141577901D01*
X147953250Y-141577901D01*
X148048488Y-141625520D01*
X148096107Y-141673139D01*
X148143726Y-141768377D01*
X148143726Y-142006472D01*
X148096107Y-142101710D01*
X148048488Y-142149329D01*
X147953250Y-142196948D01*
X147667536Y-142196948D01*
X147572298Y-142149329D01*
X147524679Y-142101710D01*
%TO.C,D32*%
X126719136Y-142196948D02*
X126719136Y-141196948D01*
X126957231Y-141196948D01*
X127100088Y-141244568D01*
X127195326Y-141339806D01*
X127242945Y-141435044D01*
X127290564Y-141625520D01*
X127290564Y-141768377D01*
X127242945Y-141958853D01*
X127195326Y-142054091D01*
X127100088Y-142149329D01*
X126957231Y-142196948D01*
X126719136Y-142196948D01*
X127623898Y-141196948D02*
X128242945Y-141196948D01*
X127909612Y-141577901D01*
X128052469Y-141577901D01*
X128147707Y-141625520D01*
X128195326Y-141673139D01*
X128242945Y-141768377D01*
X128242945Y-142006472D01*
X128195326Y-142101710D01*
X128147707Y-142149329D01*
X128052469Y-142196948D01*
X127766755Y-142196948D01*
X127671517Y-142149329D01*
X127623898Y-142101710D01*
X128623898Y-141292187D02*
X128671517Y-141244568D01*
X128766755Y-141196948D01*
X129004850Y-141196948D01*
X129100088Y-141244568D01*
X129147707Y-141292187D01*
X129195326Y-141387425D01*
X129195326Y-141482663D01*
X129147707Y-141625520D01*
X128576279Y-142196948D01*
X129195326Y-142196948D01*
%TO.C,D31*%
X107770736Y-142196948D02*
X107770736Y-141196948D01*
X108008831Y-141196948D01*
X108151688Y-141244568D01*
X108246926Y-141339806D01*
X108294545Y-141435044D01*
X108342164Y-141625520D01*
X108342164Y-141768377D01*
X108294545Y-141958853D01*
X108246926Y-142054091D01*
X108151688Y-142149329D01*
X108008831Y-142196948D01*
X107770736Y-142196948D01*
X108675498Y-141196948D02*
X109294545Y-141196948D01*
X108961212Y-141577901D01*
X109104069Y-141577901D01*
X109199307Y-141625520D01*
X109246926Y-141673139D01*
X109294545Y-141768377D01*
X109294545Y-142006472D01*
X109246926Y-142101710D01*
X109199307Y-142149329D01*
X109104069Y-142196948D01*
X108818355Y-142196948D01*
X108723117Y-142149329D01*
X108675498Y-142101710D01*
X110246926Y-142196948D02*
X109675498Y-142196948D01*
X109961212Y-142196948D02*
X109961212Y-141196948D01*
X109865974Y-141339806D01*
X109770736Y-141435044D01*
X109675498Y-141482663D01*
%TO.C,D30*%
X88815986Y-142196948D02*
X88815986Y-141196948D01*
X89054081Y-141196948D01*
X89196938Y-141244568D01*
X89292176Y-141339806D01*
X89339795Y-141435044D01*
X89387414Y-141625520D01*
X89387414Y-141768377D01*
X89339795Y-141958853D01*
X89292176Y-142054091D01*
X89196938Y-142149329D01*
X89054081Y-142196948D01*
X88815986Y-142196948D01*
X89720748Y-141196948D02*
X90339795Y-141196948D01*
X90006462Y-141577901D01*
X90149319Y-141577901D01*
X90244557Y-141625520D01*
X90292176Y-141673139D01*
X90339795Y-141768377D01*
X90339795Y-142006472D01*
X90292176Y-142101710D01*
X90244557Y-142149329D01*
X90149319Y-142196948D01*
X89863605Y-142196948D01*
X89768367Y-142149329D01*
X89720748Y-142101710D01*
X90958843Y-141196948D02*
X91054081Y-141196948D01*
X91149319Y-141244568D01*
X91196938Y-141292187D01*
X91244557Y-141387425D01*
X91292176Y-141577901D01*
X91292176Y-141815996D01*
X91244557Y-142006472D01*
X91196938Y-142101710D01*
X91149319Y-142149329D01*
X91054081Y-142196948D01*
X90958843Y-142196948D01*
X90863605Y-142149329D01*
X90815986Y-142101710D01*
X90768367Y-142006472D01*
X90720748Y-141815996D01*
X90720748Y-141577901D01*
X90768367Y-141387425D01*
X90815986Y-141292187D01*
X90863605Y-141244568D01*
X90958843Y-141196948D01*
%TO.C,D29*%
X183564336Y-123248532D02*
X183564336Y-122248532D01*
X183802431Y-122248532D01*
X183945288Y-122296152D01*
X184040526Y-122391390D01*
X184088145Y-122486628D01*
X184135764Y-122677104D01*
X184135764Y-122819961D01*
X184088145Y-123010437D01*
X184040526Y-123105675D01*
X183945288Y-123200913D01*
X183802431Y-123248532D01*
X183564336Y-123248532D01*
X184516717Y-122343771D02*
X184564336Y-122296152D01*
X184659574Y-122248532D01*
X184897669Y-122248532D01*
X184992907Y-122296152D01*
X185040526Y-122343771D01*
X185088145Y-122439009D01*
X185088145Y-122534247D01*
X185040526Y-122677104D01*
X184469098Y-123248532D01*
X185088145Y-123248532D01*
X185564336Y-123248532D02*
X185754812Y-123248532D01*
X185850050Y-123200913D01*
X185897669Y-123153294D01*
X185992907Y-123010437D01*
X186040526Y-122819961D01*
X186040526Y-122439009D01*
X185992907Y-122343771D01*
X185945288Y-122296152D01*
X185850050Y-122248532D01*
X185659574Y-122248532D01*
X185564336Y-122296152D01*
X185516717Y-122343771D01*
X185469098Y-122439009D01*
X185469098Y-122677104D01*
X185516717Y-122772342D01*
X185564336Y-122819961D01*
X185659574Y-122867580D01*
X185850050Y-122867580D01*
X185945288Y-122819961D01*
X185992907Y-122772342D01*
X186040526Y-122677104D01*
%TO.C,D28*%
X164615936Y-123248532D02*
X164615936Y-122248532D01*
X164854031Y-122248532D01*
X164996888Y-122296152D01*
X165092126Y-122391390D01*
X165139745Y-122486628D01*
X165187364Y-122677104D01*
X165187364Y-122819961D01*
X165139745Y-123010437D01*
X165092126Y-123105675D01*
X164996888Y-123200913D01*
X164854031Y-123248532D01*
X164615936Y-123248532D01*
X165568317Y-122343771D02*
X165615936Y-122296152D01*
X165711174Y-122248532D01*
X165949269Y-122248532D01*
X166044507Y-122296152D01*
X166092126Y-122343771D01*
X166139745Y-122439009D01*
X166139745Y-122534247D01*
X166092126Y-122677104D01*
X165520698Y-123248532D01*
X166139745Y-123248532D01*
X166711174Y-122677104D02*
X166615936Y-122629485D01*
X166568317Y-122581866D01*
X166520698Y-122486628D01*
X166520698Y-122439009D01*
X166568317Y-122343771D01*
X166615936Y-122296152D01*
X166711174Y-122248532D01*
X166901650Y-122248532D01*
X166996888Y-122296152D01*
X167044507Y-122343771D01*
X167092126Y-122439009D01*
X167092126Y-122486628D01*
X167044507Y-122581866D01*
X166996888Y-122629485D01*
X166901650Y-122677104D01*
X166711174Y-122677104D01*
X166615936Y-122724723D01*
X166568317Y-122772342D01*
X166520698Y-122867580D01*
X166520698Y-123058056D01*
X166568317Y-123153294D01*
X166615936Y-123200913D01*
X166711174Y-123248532D01*
X166901650Y-123248532D01*
X166996888Y-123200913D01*
X167044507Y-123153294D01*
X167092126Y-123058056D01*
X167092126Y-122867580D01*
X167044507Y-122772342D01*
X166996888Y-122724723D01*
X166901650Y-122677104D01*
%TO.C,D27*%
X145635938Y-123248532D02*
X145635938Y-122248532D01*
X145874033Y-122248532D01*
X146016890Y-122296152D01*
X146112128Y-122391390D01*
X146159747Y-122486628D01*
X146207366Y-122677104D01*
X146207366Y-122819961D01*
X146159747Y-123010437D01*
X146112128Y-123105675D01*
X146016890Y-123200913D01*
X145874033Y-123248532D01*
X145635938Y-123248532D01*
X146588319Y-122343771D02*
X146635938Y-122296152D01*
X146731176Y-122248532D01*
X146969271Y-122248532D01*
X147064509Y-122296152D01*
X147112128Y-122343771D01*
X147159747Y-122439009D01*
X147159747Y-122534247D01*
X147112128Y-122677104D01*
X146540700Y-123248532D01*
X147159747Y-123248532D01*
X147493081Y-122248532D02*
X148159747Y-122248532D01*
X147731176Y-123248532D01*
%TO.C,D26*%
X126719136Y-123248532D02*
X126719136Y-122248532D01*
X126957231Y-122248532D01*
X127100088Y-122296152D01*
X127195326Y-122391390D01*
X127242945Y-122486628D01*
X127290564Y-122677104D01*
X127290564Y-122819961D01*
X127242945Y-123010437D01*
X127195326Y-123105675D01*
X127100088Y-123200913D01*
X126957231Y-123248532D01*
X126719136Y-123248532D01*
X127671517Y-122343771D02*
X127719136Y-122296152D01*
X127814374Y-122248532D01*
X128052469Y-122248532D01*
X128147707Y-122296152D01*
X128195326Y-122343771D01*
X128242945Y-122439009D01*
X128242945Y-122534247D01*
X128195326Y-122677104D01*
X127623898Y-123248532D01*
X128242945Y-123248532D01*
X129100088Y-122248532D02*
X128909612Y-122248532D01*
X128814374Y-122296152D01*
X128766755Y-122343771D01*
X128671517Y-122486628D01*
X128623898Y-122677104D01*
X128623898Y-123058056D01*
X128671517Y-123153294D01*
X128719136Y-123200913D01*
X128814374Y-123248532D01*
X129004850Y-123248532D01*
X129100088Y-123200913D01*
X129147707Y-123153294D01*
X129195326Y-123058056D01*
X129195326Y-122819961D01*
X129147707Y-122724723D01*
X129100088Y-122677104D01*
X129004850Y-122629485D01*
X128814374Y-122629485D01*
X128719136Y-122677104D01*
X128671517Y-122724723D01*
X128623898Y-122819961D01*
%TO.C,D25*%
X107770736Y-123248532D02*
X107770736Y-122248532D01*
X108008831Y-122248532D01*
X108151688Y-122296152D01*
X108246926Y-122391390D01*
X108294545Y-122486628D01*
X108342164Y-122677104D01*
X108342164Y-122819961D01*
X108294545Y-123010437D01*
X108246926Y-123105675D01*
X108151688Y-123200913D01*
X108008831Y-123248532D01*
X107770736Y-123248532D01*
X108723117Y-122343771D02*
X108770736Y-122296152D01*
X108865974Y-122248532D01*
X109104069Y-122248532D01*
X109199307Y-122296152D01*
X109246926Y-122343771D01*
X109294545Y-122439009D01*
X109294545Y-122534247D01*
X109246926Y-122677104D01*
X108675498Y-123248532D01*
X109294545Y-123248532D01*
X110199307Y-122248532D02*
X109723117Y-122248532D01*
X109675498Y-122724723D01*
X109723117Y-122677104D01*
X109818355Y-122629485D01*
X110056450Y-122629485D01*
X110151688Y-122677104D01*
X110199307Y-122724723D01*
X110246926Y-122819961D01*
X110246926Y-123058056D01*
X110199307Y-123153294D01*
X110151688Y-123200913D01*
X110056450Y-123248532D01*
X109818355Y-123248532D01*
X109723117Y-123200913D01*
X109675498Y-123153294D01*
%TO.C,D24*%
X84085236Y-123248532D02*
X84085236Y-122248532D01*
X84323331Y-122248532D01*
X84466188Y-122296152D01*
X84561426Y-122391390D01*
X84609045Y-122486628D01*
X84656664Y-122677104D01*
X84656664Y-122819961D01*
X84609045Y-123010437D01*
X84561426Y-123105675D01*
X84466188Y-123200913D01*
X84323331Y-123248532D01*
X84085236Y-123248532D01*
X85037617Y-122343771D02*
X85085236Y-122296152D01*
X85180474Y-122248532D01*
X85418569Y-122248532D01*
X85513807Y-122296152D01*
X85561426Y-122343771D01*
X85609045Y-122439009D01*
X85609045Y-122534247D01*
X85561426Y-122677104D01*
X84989998Y-123248532D01*
X85609045Y-123248532D01*
X86466188Y-122581866D02*
X86466188Y-123248532D01*
X86228093Y-122200913D02*
X85989998Y-122915199D01*
X86609045Y-122915199D01*
%TO.C,D23*%
X196818610Y-111850239D02*
X195818610Y-111850239D01*
X195818610Y-111612144D01*
X195866230Y-111469287D01*
X195961468Y-111374049D01*
X196056706Y-111326430D01*
X196247182Y-111278811D01*
X196390039Y-111278811D01*
X196580515Y-111326430D01*
X196675753Y-111374049D01*
X196770991Y-111469287D01*
X196818610Y-111612144D01*
X196818610Y-111850239D01*
X195913849Y-110897858D02*
X195866230Y-110850239D01*
X195818610Y-110755001D01*
X195818610Y-110516906D01*
X195866230Y-110421668D01*
X195913849Y-110374049D01*
X196009087Y-110326430D01*
X196104325Y-110326430D01*
X196247182Y-110374049D01*
X196818610Y-110945477D01*
X196818610Y-110326430D01*
X195818610Y-109993096D02*
X195818610Y-109374049D01*
X196199563Y-109707382D01*
X196199563Y-109564525D01*
X196247182Y-109469287D01*
X196294801Y-109421668D01*
X196390039Y-109374049D01*
X196628134Y-109374049D01*
X196723372Y-109421668D01*
X196770991Y-109469287D01*
X196818610Y-109564525D01*
X196818610Y-109850239D01*
X196770991Y-109945477D01*
X196723372Y-109993096D01*
%TO.C,D22*%
X183564336Y-104300116D02*
X183564336Y-103300116D01*
X183802431Y-103300116D01*
X183945288Y-103347736D01*
X184040526Y-103442974D01*
X184088145Y-103538212D01*
X184135764Y-103728688D01*
X184135764Y-103871545D01*
X184088145Y-104062021D01*
X184040526Y-104157259D01*
X183945288Y-104252497D01*
X183802431Y-104300116D01*
X183564336Y-104300116D01*
X184516717Y-103395355D02*
X184564336Y-103347736D01*
X184659574Y-103300116D01*
X184897669Y-103300116D01*
X184992907Y-103347736D01*
X185040526Y-103395355D01*
X185088145Y-103490593D01*
X185088145Y-103585831D01*
X185040526Y-103728688D01*
X184469098Y-104300116D01*
X185088145Y-104300116D01*
X185469098Y-103395355D02*
X185516717Y-103347736D01*
X185611955Y-103300116D01*
X185850050Y-103300116D01*
X185945288Y-103347736D01*
X185992907Y-103395355D01*
X186040526Y-103490593D01*
X186040526Y-103585831D01*
X185992907Y-103728688D01*
X185421479Y-104300116D01*
X186040526Y-104300116D01*
%TO.C,D21*%
X164615936Y-104300116D02*
X164615936Y-103300116D01*
X164854031Y-103300116D01*
X164996888Y-103347736D01*
X165092126Y-103442974D01*
X165139745Y-103538212D01*
X165187364Y-103728688D01*
X165187364Y-103871545D01*
X165139745Y-104062021D01*
X165092126Y-104157259D01*
X164996888Y-104252497D01*
X164854031Y-104300116D01*
X164615936Y-104300116D01*
X165568317Y-103395355D02*
X165615936Y-103347736D01*
X165711174Y-103300116D01*
X165949269Y-103300116D01*
X166044507Y-103347736D01*
X166092126Y-103395355D01*
X166139745Y-103490593D01*
X166139745Y-103585831D01*
X166092126Y-103728688D01*
X165520698Y-104300116D01*
X166139745Y-104300116D01*
X167092126Y-104300116D02*
X166520698Y-104300116D01*
X166806412Y-104300116D02*
X166806412Y-103300116D01*
X166711174Y-103442974D01*
X166615936Y-103538212D01*
X166520698Y-103585831D01*
%TO.C,D20*%
X145635938Y-104300116D02*
X145635938Y-103300116D01*
X145874033Y-103300116D01*
X146016890Y-103347736D01*
X146112128Y-103442974D01*
X146159747Y-103538212D01*
X146207366Y-103728688D01*
X146207366Y-103871545D01*
X146159747Y-104062021D01*
X146112128Y-104157259D01*
X146016890Y-104252497D01*
X145874033Y-104300116D01*
X145635938Y-104300116D01*
X146588319Y-103395355D02*
X146635938Y-103347736D01*
X146731176Y-103300116D01*
X146969271Y-103300116D01*
X147064509Y-103347736D01*
X147112128Y-103395355D01*
X147159747Y-103490593D01*
X147159747Y-103585831D01*
X147112128Y-103728688D01*
X146540700Y-104300116D01*
X147159747Y-104300116D01*
X147778795Y-103300116D02*
X147874033Y-103300116D01*
X147969271Y-103347736D01*
X148016890Y-103395355D01*
X148064509Y-103490593D01*
X148112128Y-103681069D01*
X148112128Y-103919164D01*
X148064509Y-104109640D01*
X148016890Y-104204878D01*
X147969271Y-104252497D01*
X147874033Y-104300116D01*
X147778795Y-104300116D01*
X147683557Y-104252497D01*
X147635938Y-104204878D01*
X147588319Y-104109640D01*
X147540700Y-103919164D01*
X147540700Y-103681069D01*
X147588319Y-103490593D01*
X147635938Y-103395355D01*
X147683557Y-103347736D01*
X147778795Y-103300116D01*
%TO.C,D19*%
X126719136Y-104300116D02*
X126719136Y-103300116D01*
X126957231Y-103300116D01*
X127100088Y-103347736D01*
X127195326Y-103442974D01*
X127242945Y-103538212D01*
X127290564Y-103728688D01*
X127290564Y-103871545D01*
X127242945Y-104062021D01*
X127195326Y-104157259D01*
X127100088Y-104252497D01*
X126957231Y-104300116D01*
X126719136Y-104300116D01*
X128242945Y-104300116D02*
X127671517Y-104300116D01*
X127957231Y-104300116D02*
X127957231Y-103300116D01*
X127861993Y-103442974D01*
X127766755Y-103538212D01*
X127671517Y-103585831D01*
X128719136Y-104300116D02*
X128909612Y-104300116D01*
X129004850Y-104252497D01*
X129052469Y-104204878D01*
X129147707Y-104062021D01*
X129195326Y-103871545D01*
X129195326Y-103490593D01*
X129147707Y-103395355D01*
X129100088Y-103347736D01*
X129004850Y-103300116D01*
X128814374Y-103300116D01*
X128719136Y-103347736D01*
X128671517Y-103395355D01*
X128623898Y-103490593D01*
X128623898Y-103728688D01*
X128671517Y-103823926D01*
X128719136Y-103871545D01*
X128814374Y-103919164D01*
X129004850Y-103919164D01*
X129100088Y-103871545D01*
X129147707Y-103823926D01*
X129195326Y-103728688D01*
%TO.C,D18*%
X107760987Y-104300116D02*
X107760987Y-103300116D01*
X107999082Y-103300116D01*
X108141939Y-103347736D01*
X108237177Y-103442974D01*
X108284796Y-103538212D01*
X108332415Y-103728688D01*
X108332415Y-103871545D01*
X108284796Y-104062021D01*
X108237177Y-104157259D01*
X108141939Y-104252497D01*
X107999082Y-104300116D01*
X107760987Y-104300116D01*
X109284796Y-104300116D02*
X108713368Y-104300116D01*
X108999082Y-104300116D02*
X108999082Y-103300116D01*
X108903844Y-103442974D01*
X108808606Y-103538212D01*
X108713368Y-103585831D01*
X109856225Y-103728688D02*
X109760987Y-103681069D01*
X109713368Y-103633450D01*
X109665749Y-103538212D01*
X109665749Y-103490593D01*
X109713368Y-103395355D01*
X109760987Y-103347736D01*
X109856225Y-103300116D01*
X110046701Y-103300116D01*
X110141939Y-103347736D01*
X110189558Y-103395355D01*
X110237177Y-103490593D01*
X110237177Y-103538212D01*
X110189558Y-103633450D01*
X110141939Y-103681069D01*
X110046701Y-103728688D01*
X109856225Y-103728688D01*
X109760987Y-103776307D01*
X109713368Y-103823926D01*
X109665749Y-103919164D01*
X109665749Y-104109640D01*
X109713368Y-104204878D01*
X109760987Y-104252497D01*
X109856225Y-104300116D01*
X110046701Y-104300116D01*
X110141939Y-104252497D01*
X110189558Y-104204878D01*
X110237177Y-104109640D01*
X110237177Y-103919164D01*
X110189558Y-103823926D01*
X110141939Y-103776307D01*
X110046701Y-103728688D01*
%TO.C,D17*%
X84053586Y-104300116D02*
X84053586Y-103300116D01*
X84291681Y-103300116D01*
X84434538Y-103347736D01*
X84529776Y-103442974D01*
X84577395Y-103538212D01*
X84625014Y-103728688D01*
X84625014Y-103871545D01*
X84577395Y-104062021D01*
X84529776Y-104157259D01*
X84434538Y-104252497D01*
X84291681Y-104300116D01*
X84053586Y-104300116D01*
X85577395Y-104300116D02*
X85005967Y-104300116D01*
X85291681Y-104300116D02*
X85291681Y-103300116D01*
X85196443Y-103442974D01*
X85101205Y-103538212D01*
X85005967Y-103585831D01*
X85910729Y-103300116D02*
X86577395Y-103300116D01*
X86148824Y-104300116D01*
%TO.C,D16*%
X196818610Y-83521467D02*
X195818610Y-83521467D01*
X195818610Y-83283372D01*
X195866230Y-83140515D01*
X195961468Y-83045277D01*
X196056706Y-82997658D01*
X196247182Y-82950039D01*
X196390039Y-82950039D01*
X196580515Y-82997658D01*
X196675753Y-83045277D01*
X196770991Y-83140515D01*
X196818610Y-83283372D01*
X196818610Y-83521467D01*
X196818610Y-81997658D02*
X196818610Y-82569086D01*
X196818610Y-82283372D02*
X195818610Y-82283372D01*
X195961468Y-82378610D01*
X196056706Y-82473848D01*
X196104325Y-82569086D01*
X195818610Y-81140515D02*
X195818610Y-81330991D01*
X195866230Y-81426229D01*
X195913849Y-81473848D01*
X196056706Y-81569086D01*
X196247182Y-81616705D01*
X196628134Y-81616705D01*
X196723372Y-81569086D01*
X196770991Y-81521467D01*
X196818610Y-81426229D01*
X196818610Y-81235753D01*
X196770991Y-81140515D01*
X196723372Y-81092896D01*
X196628134Y-81045277D01*
X196390039Y-81045277D01*
X196294801Y-81092896D01*
X196247182Y-81140515D01*
X196199563Y-81235753D01*
X196199563Y-81426229D01*
X196247182Y-81521467D01*
X196294801Y-81569086D01*
X196390039Y-81616705D01*
%TO.C,D15*%
X183564336Y-85351700D02*
X183564336Y-84351700D01*
X183802431Y-84351700D01*
X183945288Y-84399320D01*
X184040526Y-84494558D01*
X184088145Y-84589796D01*
X184135764Y-84780272D01*
X184135764Y-84923129D01*
X184088145Y-85113605D01*
X184040526Y-85208843D01*
X183945288Y-85304081D01*
X183802431Y-85351700D01*
X183564336Y-85351700D01*
X185088145Y-85351700D02*
X184516717Y-85351700D01*
X184802431Y-85351700D02*
X184802431Y-84351700D01*
X184707193Y-84494558D01*
X184611955Y-84589796D01*
X184516717Y-84637415D01*
X185992907Y-84351700D02*
X185516717Y-84351700D01*
X185469098Y-84827891D01*
X185516717Y-84780272D01*
X185611955Y-84732653D01*
X185850050Y-84732653D01*
X185945288Y-84780272D01*
X185992907Y-84827891D01*
X186040526Y-84923129D01*
X186040526Y-85161224D01*
X185992907Y-85256462D01*
X185945288Y-85304081D01*
X185850050Y-85351700D01*
X185611955Y-85351700D01*
X185516717Y-85304081D01*
X185469098Y-85256462D01*
%TO.C,D14*%
X164584354Y-85351700D02*
X164584354Y-84351700D01*
X164822449Y-84351700D01*
X164965306Y-84399320D01*
X165060544Y-84494558D01*
X165108163Y-84589796D01*
X165155782Y-84780272D01*
X165155782Y-84923129D01*
X165108163Y-85113605D01*
X165060544Y-85208843D01*
X164965306Y-85304081D01*
X164822449Y-85351700D01*
X164584354Y-85351700D01*
X166108163Y-85351700D02*
X165536735Y-85351700D01*
X165822449Y-85351700D02*
X165822449Y-84351700D01*
X165727211Y-84494558D01*
X165631973Y-84589796D01*
X165536735Y-84637415D01*
X166965306Y-84685034D02*
X166965306Y-85351700D01*
X166727211Y-84304081D02*
X166489116Y-85018367D01*
X167108163Y-85018367D01*
%TO.C,D13*%
X145635938Y-85351700D02*
X145635938Y-84351700D01*
X145874033Y-84351700D01*
X146016890Y-84399320D01*
X146112128Y-84494558D01*
X146159747Y-84589796D01*
X146207366Y-84780272D01*
X146207366Y-84923129D01*
X146159747Y-85113605D01*
X146112128Y-85208843D01*
X146016890Y-85304081D01*
X145874033Y-85351700D01*
X145635938Y-85351700D01*
X147159747Y-85351700D02*
X146588319Y-85351700D01*
X146874033Y-85351700D02*
X146874033Y-84351700D01*
X146778795Y-84494558D01*
X146683557Y-84589796D01*
X146588319Y-84637415D01*
X147493081Y-84351700D02*
X148112128Y-84351700D01*
X147778795Y-84732653D01*
X147921652Y-84732653D01*
X148016890Y-84780272D01*
X148064509Y-84827891D01*
X148112128Y-84923129D01*
X148112128Y-85161224D01*
X148064509Y-85256462D01*
X148016890Y-85304081D01*
X147921652Y-85351700D01*
X147635938Y-85351700D01*
X147540700Y-85304081D01*
X147493081Y-85256462D01*
%TO.C,D12*%
X126687522Y-85351700D02*
X126687522Y-84351700D01*
X126925617Y-84351700D01*
X127068474Y-84399320D01*
X127163712Y-84494558D01*
X127211331Y-84589796D01*
X127258950Y-84780272D01*
X127258950Y-84923129D01*
X127211331Y-85113605D01*
X127163712Y-85208843D01*
X127068474Y-85304081D01*
X126925617Y-85351700D01*
X126687522Y-85351700D01*
X128211331Y-85351700D02*
X127639903Y-85351700D01*
X127925617Y-85351700D02*
X127925617Y-84351700D01*
X127830379Y-84494558D01*
X127735141Y-84589796D01*
X127639903Y-84637415D01*
X128592284Y-84446939D02*
X128639903Y-84399320D01*
X128735141Y-84351700D01*
X128973236Y-84351700D01*
X129068474Y-84399320D01*
X129116093Y-84446939D01*
X129163712Y-84542177D01*
X129163712Y-84637415D01*
X129116093Y-84780272D01*
X128544665Y-85351700D01*
X129163712Y-85351700D01*
%TO.C,D11*%
X107739106Y-85351700D02*
X107739106Y-84351700D01*
X107977201Y-84351700D01*
X108120058Y-84399320D01*
X108215296Y-84494558D01*
X108262915Y-84589796D01*
X108310534Y-84780272D01*
X108310534Y-84923129D01*
X108262915Y-85113605D01*
X108215296Y-85208843D01*
X108120058Y-85304081D01*
X107977201Y-85351700D01*
X107739106Y-85351700D01*
X109262915Y-85351700D02*
X108691487Y-85351700D01*
X108977201Y-85351700D02*
X108977201Y-84351700D01*
X108881963Y-84494558D01*
X108786725Y-84589796D01*
X108691487Y-84637415D01*
X110215296Y-85351700D02*
X109643868Y-85351700D01*
X109929582Y-85351700D02*
X109929582Y-84351700D01*
X109834344Y-84494558D01*
X109739106Y-84589796D01*
X109643868Y-84637415D01*
%TO.C,D10*%
X84053586Y-85351700D02*
X84053586Y-84351700D01*
X84291681Y-84351700D01*
X84434538Y-84399320D01*
X84529776Y-84494558D01*
X84577395Y-84589796D01*
X84625014Y-84780272D01*
X84625014Y-84923129D01*
X84577395Y-85113605D01*
X84529776Y-85208843D01*
X84434538Y-85304081D01*
X84291681Y-85351700D01*
X84053586Y-85351700D01*
X85577395Y-85351700D02*
X85005967Y-85351700D01*
X85291681Y-85351700D02*
X85291681Y-84351700D01*
X85196443Y-84494558D01*
X85101205Y-84589796D01*
X85005967Y-84637415D01*
X86196443Y-84351700D02*
X86291681Y-84351700D01*
X86386919Y-84399320D01*
X86434538Y-84446939D01*
X86482157Y-84542177D01*
X86529776Y-84732653D01*
X86529776Y-84970748D01*
X86482157Y-85161224D01*
X86434538Y-85256462D01*
X86386919Y-85304081D01*
X86291681Y-85351700D01*
X86196443Y-85351700D01*
X86101205Y-85304081D01*
X86053586Y-85256462D01*
X86005967Y-85161224D01*
X85958348Y-84970748D01*
X85958348Y-84732653D01*
X86005967Y-84542177D01*
X86053586Y-84446939D01*
X86101205Y-84399320D01*
X86196443Y-84351700D01*
%TO.C,D9*%
X202988926Y-66403284D02*
X202988926Y-65403284D01*
X203227022Y-65403284D01*
X203369879Y-65450904D01*
X203465117Y-65546142D01*
X203512736Y-65641380D01*
X203560355Y-65831856D01*
X203560355Y-65974713D01*
X203512736Y-66165189D01*
X203465117Y-66260427D01*
X203369879Y-66355665D01*
X203227022Y-66403284D01*
X202988926Y-66403284D01*
X204036545Y-66403284D02*
X204227022Y-66403284D01*
X204322260Y-66355665D01*
X204369879Y-66308046D01*
X204465117Y-66165189D01*
X204512736Y-65974713D01*
X204512736Y-65593761D01*
X204465117Y-65498523D01*
X204417498Y-65450904D01*
X204322260Y-65403284D01*
X204131783Y-65403284D01*
X204036545Y-65450904D01*
X203988926Y-65498523D01*
X203941307Y-65593761D01*
X203941307Y-65831856D01*
X203988926Y-65927094D01*
X204036545Y-65974713D01*
X204131783Y-66022332D01*
X204322260Y-66022332D01*
X204417498Y-65974713D01*
X204465117Y-65927094D01*
X204512736Y-65831856D01*
%TO.C,D8*%
X184040526Y-66403284D02*
X184040526Y-65403284D01*
X184278622Y-65403284D01*
X184421479Y-65450904D01*
X184516717Y-65546142D01*
X184564336Y-65641380D01*
X184611955Y-65831856D01*
X184611955Y-65974713D01*
X184564336Y-66165189D01*
X184516717Y-66260427D01*
X184421479Y-66355665D01*
X184278622Y-66403284D01*
X184040526Y-66403284D01*
X185183383Y-65831856D02*
X185088145Y-65784237D01*
X185040526Y-65736618D01*
X184992907Y-65641380D01*
X184992907Y-65593761D01*
X185040526Y-65498523D01*
X185088145Y-65450904D01*
X185183383Y-65403284D01*
X185373860Y-65403284D01*
X185469098Y-65450904D01*
X185516717Y-65498523D01*
X185564336Y-65593761D01*
X185564336Y-65641380D01*
X185516717Y-65736618D01*
X185469098Y-65784237D01*
X185373860Y-65831856D01*
X185183383Y-65831856D01*
X185088145Y-65879475D01*
X185040526Y-65927094D01*
X184992907Y-66022332D01*
X184992907Y-66212808D01*
X185040526Y-66308046D01*
X185088145Y-66355665D01*
X185183383Y-66403284D01*
X185373860Y-66403284D01*
X185469098Y-66355665D01*
X185516717Y-66308046D01*
X185564336Y-66212808D01*
X185564336Y-66022332D01*
X185516717Y-65927094D01*
X185469098Y-65879475D01*
X185373860Y-65831856D01*
%TO.C,D7*%
X165092126Y-66403284D02*
X165092126Y-65403284D01*
X165330222Y-65403284D01*
X165473079Y-65450904D01*
X165568317Y-65546142D01*
X165615936Y-65641380D01*
X165663555Y-65831856D01*
X165663555Y-65974713D01*
X165615936Y-66165189D01*
X165568317Y-66260427D01*
X165473079Y-66355665D01*
X165330222Y-66403284D01*
X165092126Y-66403284D01*
X165996888Y-65403284D02*
X166663555Y-65403284D01*
X166234983Y-66403284D01*
%TO.C,D6*%
X146143726Y-66403284D02*
X146143726Y-65403284D01*
X146381822Y-65403284D01*
X146524679Y-65450904D01*
X146619917Y-65546142D01*
X146667536Y-65641380D01*
X146715155Y-65831856D01*
X146715155Y-65974713D01*
X146667536Y-66165189D01*
X146619917Y-66260427D01*
X146524679Y-66355665D01*
X146381822Y-66403284D01*
X146143726Y-66403284D01*
X147572298Y-65403284D02*
X147381822Y-65403284D01*
X147286583Y-65450904D01*
X147238964Y-65498523D01*
X147143726Y-65641380D01*
X147096107Y-65831856D01*
X147096107Y-66212808D01*
X147143726Y-66308046D01*
X147191345Y-66355665D01*
X147286583Y-66403284D01*
X147477060Y-66403284D01*
X147572298Y-66355665D01*
X147619917Y-66308046D01*
X147667536Y-66212808D01*
X147667536Y-65974713D01*
X147619917Y-65879475D01*
X147572298Y-65831856D01*
X147477060Y-65784237D01*
X147286583Y-65784237D01*
X147191345Y-65831856D01*
X147143726Y-65879475D01*
X147096107Y-65974713D01*
%TO.C,D5*%
X127163712Y-66403284D02*
X127163712Y-65403284D01*
X127401808Y-65403284D01*
X127544665Y-65450904D01*
X127639903Y-65546142D01*
X127687522Y-65641380D01*
X127735141Y-65831856D01*
X127735141Y-65974713D01*
X127687522Y-66165189D01*
X127639903Y-66260427D01*
X127544665Y-66355665D01*
X127401808Y-66403284D01*
X127163712Y-66403284D01*
X128639903Y-65403284D02*
X128163712Y-65403284D01*
X128116093Y-65879475D01*
X128163712Y-65831856D01*
X128258950Y-65784237D01*
X128497046Y-65784237D01*
X128592284Y-65831856D01*
X128639903Y-65879475D01*
X128687522Y-65974713D01*
X128687522Y-66212808D01*
X128639903Y-66308046D01*
X128592284Y-66355665D01*
X128497046Y-66403284D01*
X128258950Y-66403284D01*
X128163712Y-66355665D01*
X128116093Y-66308046D01*
%TO.C,D4*%
X108246926Y-66403284D02*
X108246926Y-65403284D01*
X108485022Y-65403284D01*
X108627879Y-65450904D01*
X108723117Y-65546142D01*
X108770736Y-65641380D01*
X108818355Y-65831856D01*
X108818355Y-65974713D01*
X108770736Y-66165189D01*
X108723117Y-66260427D01*
X108627879Y-66355665D01*
X108485022Y-66403284D01*
X108246926Y-66403284D01*
X109675498Y-65736618D02*
X109675498Y-66403284D01*
X109437402Y-65355665D02*
X109199307Y-66069951D01*
X109818355Y-66069951D01*
%TO.C,D3*%
X84561426Y-66403284D02*
X84561426Y-65403284D01*
X84799522Y-65403284D01*
X84942379Y-65450904D01*
X85037617Y-65546142D01*
X85085236Y-65641380D01*
X85132855Y-65831856D01*
X85132855Y-65974713D01*
X85085236Y-66165189D01*
X85037617Y-66260427D01*
X84942379Y-66355665D01*
X84799522Y-66403284D01*
X84561426Y-66403284D01*
X85466188Y-65403284D02*
X86085236Y-65403284D01*
X85751902Y-65784237D01*
X85894760Y-65784237D01*
X85989998Y-65831856D01*
X86037617Y-65879475D01*
X86085236Y-65974713D01*
X86085236Y-66212808D01*
X86037617Y-66308046D01*
X85989998Y-66355665D01*
X85894760Y-66403284D01*
X85609045Y-66403284D01*
X85513807Y-66355665D01*
X85466188Y-66308046D01*
%TO.C,BT1*%
X189412731Y-42827512D02*
X189460350Y-42684655D01*
X189507969Y-42637036D01*
X189603207Y-42589417D01*
X189746064Y-42589417D01*
X189841302Y-42637036D01*
X189888921Y-42684655D01*
X189936540Y-42779893D01*
X189936540Y-43160845D01*
X188936540Y-43160845D01*
X188936540Y-42827512D01*
X188984160Y-42732274D01*
X189031779Y-42684655D01*
X189127017Y-42637036D01*
X189222255Y-42637036D01*
X189317493Y-42684655D01*
X189365112Y-42732274D01*
X189412731Y-42827512D01*
X189412731Y-43160845D01*
X188936540Y-42303702D02*
X188936540Y-41732274D01*
X189936540Y-42017988D02*
X188936540Y-42017988D01*
X189936540Y-40875131D02*
X189936540Y-41446559D01*
X189936540Y-41160845D02*
X188936540Y-41160845D01*
X189079398Y-41256083D01*
X189174636Y-41351321D01*
X189222255Y-41446559D01*
%TO.C,C2*%
X132472245Y-50096734D02*
X132424626Y-50144353D01*
X132281769Y-50191972D01*
X132186531Y-50191972D01*
X132043673Y-50144353D01*
X131948435Y-50049115D01*
X131900816Y-49953877D01*
X131853197Y-49763401D01*
X131853197Y-49620544D01*
X131900816Y-49430068D01*
X131948435Y-49334830D01*
X132043673Y-49239592D01*
X132186531Y-49191972D01*
X132281769Y-49191972D01*
X132424626Y-49239592D01*
X132472245Y-49287211D01*
X132853197Y-49287211D02*
X132900816Y-49239592D01*
X132996054Y-49191972D01*
X133234150Y-49191972D01*
X133329388Y-49239592D01*
X133377007Y-49287211D01*
X133424626Y-49382449D01*
X133424626Y-49477687D01*
X133377007Y-49620544D01*
X132805578Y-50191972D01*
X133424626Y-50191972D01*
%TO.C,C3*%
X137141020Y-49906258D02*
X137188639Y-49953877D01*
X137236258Y-50096734D01*
X137236258Y-50191972D01*
X137188639Y-50334830D01*
X137093401Y-50430068D01*
X136998163Y-50477687D01*
X136807687Y-50525306D01*
X136664830Y-50525306D01*
X136474354Y-50477687D01*
X136379116Y-50430068D01*
X136283878Y-50334830D01*
X136236258Y-50191972D01*
X136236258Y-50096734D01*
X136283878Y-49953877D01*
X136331497Y-49906258D01*
X136236258Y-49572925D02*
X136236258Y-48953877D01*
X136617211Y-49287211D01*
X136617211Y-49144353D01*
X136664830Y-49049115D01*
X136712449Y-49001496D01*
X136807687Y-48953877D01*
X137045782Y-48953877D01*
X137141020Y-49001496D01*
X137188639Y-49049115D01*
X137236258Y-49144353D01*
X137236258Y-49430068D01*
X137188639Y-49525306D01*
X137141020Y-49572925D01*
%TO.C,C4*%
X146023090Y-49906258D02*
X146070709Y-49953877D01*
X146118328Y-50096734D01*
X146118328Y-50191972D01*
X146070709Y-50334830D01*
X145975471Y-50430068D01*
X145880233Y-50477687D01*
X145689757Y-50525306D01*
X145546900Y-50525306D01*
X145356424Y-50477687D01*
X145261186Y-50430068D01*
X145165948Y-50334830D01*
X145118328Y-50191972D01*
X145118328Y-50096734D01*
X145165948Y-49953877D01*
X145213567Y-49906258D01*
X145451662Y-49049115D02*
X146118328Y-49049115D01*
X145070709Y-49287211D02*
X145784995Y-49525306D01*
X145784995Y-48906258D01*
%TO.C,C5*%
X149575918Y-49906258D02*
X149623537Y-49953877D01*
X149671156Y-50096734D01*
X149671156Y-50191972D01*
X149623537Y-50334830D01*
X149528299Y-50430068D01*
X149433061Y-50477687D01*
X149242585Y-50525306D01*
X149099728Y-50525306D01*
X148909252Y-50477687D01*
X148814014Y-50430068D01*
X148718776Y-50334830D01*
X148671156Y-50191972D01*
X148671156Y-50096734D01*
X148718776Y-49953877D01*
X148766395Y-49906258D01*
X148671156Y-49001496D02*
X148671156Y-49477687D01*
X149147347Y-49525306D01*
X149099728Y-49477687D01*
X149052109Y-49382449D01*
X149052109Y-49144353D01*
X149099728Y-49049115D01*
X149147347Y-49001496D01*
X149242585Y-48953877D01*
X149480680Y-48953877D01*
X149575918Y-49001496D01*
X149623537Y-49049115D01*
X149671156Y-49144353D01*
X149671156Y-49382449D01*
X149623537Y-49477687D01*
X149575918Y-49525306D01*
%TO.C,C6*%
X115300243Y-45951768D02*
X115252624Y-45999387D01*
X115109767Y-46047006D01*
X115014529Y-46047006D01*
X114871671Y-45999387D01*
X114776433Y-45904149D01*
X114728814Y-45808911D01*
X114681195Y-45618435D01*
X114681195Y-45475578D01*
X114728814Y-45285102D01*
X114776433Y-45189864D01*
X114871671Y-45094626D01*
X115014529Y-45047006D01*
X115109767Y-45047006D01*
X115252624Y-45094626D01*
X115300243Y-45142245D01*
X116157386Y-45047006D02*
X115966910Y-45047006D01*
X115871671Y-45094626D01*
X115824052Y-45142245D01*
X115728814Y-45285102D01*
X115681195Y-45475578D01*
X115681195Y-45856530D01*
X115728814Y-45951768D01*
X115776433Y-45999387D01*
X115871671Y-46047006D01*
X116062148Y-46047006D01*
X116157386Y-45999387D01*
X116205005Y-45951768D01*
X116252624Y-45856530D01*
X116252624Y-45618435D01*
X116205005Y-45523197D01*
X116157386Y-45475578D01*
X116062148Y-45427959D01*
X115871671Y-45427959D01*
X115776433Y-45475578D01*
X115728814Y-45523197D01*
X115681195Y-45618435D01*
%TO.C,C7*%
X114047638Y-43392740D02*
X114095257Y-43440359D01*
X114142876Y-43583216D01*
X114142876Y-43678454D01*
X114095257Y-43821312D01*
X114000019Y-43916550D01*
X113904781Y-43964169D01*
X113714305Y-44011788D01*
X113571448Y-44011788D01*
X113380972Y-43964169D01*
X113285734Y-43916550D01*
X113190496Y-43821312D01*
X113142876Y-43678454D01*
X113142876Y-43583216D01*
X113190496Y-43440359D01*
X113238115Y-43392740D01*
X113142876Y-43059407D02*
X113142876Y-42392740D01*
X114142876Y-42821312D01*
%TO.C,C8*%
X115300243Y-41214664D02*
X115252624Y-41262283D01*
X115109767Y-41309902D01*
X115014529Y-41309902D01*
X114871671Y-41262283D01*
X114776433Y-41167045D01*
X114728814Y-41071807D01*
X114681195Y-40881331D01*
X114681195Y-40738474D01*
X114728814Y-40547998D01*
X114776433Y-40452760D01*
X114871671Y-40357522D01*
X115014529Y-40309902D01*
X115109767Y-40309902D01*
X115252624Y-40357522D01*
X115300243Y-40405141D01*
X115871671Y-40738474D02*
X115776433Y-40690855D01*
X115728814Y-40643236D01*
X115681195Y-40547998D01*
X115681195Y-40500379D01*
X115728814Y-40405141D01*
X115776433Y-40357522D01*
X115871671Y-40309902D01*
X116062148Y-40309902D01*
X116157386Y-40357522D01*
X116205005Y-40405141D01*
X116252624Y-40500379D01*
X116252624Y-40547998D01*
X116205005Y-40643236D01*
X116157386Y-40690855D01*
X116062148Y-40738474D01*
X115871671Y-40738474D01*
X115776433Y-40786093D01*
X115728814Y-40833712D01*
X115681195Y-40928950D01*
X115681195Y-41119426D01*
X115728814Y-41214664D01*
X115776433Y-41262283D01*
X115871671Y-41309902D01*
X116062148Y-41309902D01*
X116157386Y-41262283D01*
X116205005Y-41214664D01*
X116252624Y-41119426D01*
X116252624Y-40928950D01*
X116205005Y-40833712D01*
X116157386Y-40786093D01*
X116062148Y-40738474D01*
%TO.C,C9*%
X122405899Y-44767492D02*
X122358280Y-44815111D01*
X122215423Y-44862730D01*
X122120185Y-44862730D01*
X121977327Y-44815111D01*
X121882089Y-44719873D01*
X121834470Y-44624635D01*
X121786851Y-44434159D01*
X121786851Y-44291302D01*
X121834470Y-44100826D01*
X121882089Y-44005588D01*
X121977327Y-43910350D01*
X122120185Y-43862730D01*
X122215423Y-43862730D01*
X122358280Y-43910350D01*
X122405899Y-43957969D01*
X122882089Y-44862730D02*
X123072566Y-44862730D01*
X123167804Y-44815111D01*
X123215423Y-44767492D01*
X123310661Y-44624635D01*
X123358280Y-44434159D01*
X123358280Y-44053207D01*
X123310661Y-43957969D01*
X123263042Y-43910350D01*
X123167804Y-43862730D01*
X122977327Y-43862730D01*
X122882089Y-43910350D01*
X122834470Y-43957969D01*
X122786851Y-44053207D01*
X122786851Y-44291302D01*
X122834470Y-44386540D01*
X122882089Y-44434159D01*
X122977327Y-44481778D01*
X123167804Y-44481778D01*
X123263042Y-44434159D01*
X123310661Y-44386540D01*
X123358280Y-44291302D01*
%TO.C,C10*%
X122521846Y-42398940D02*
X122474227Y-42446559D01*
X122331370Y-42494178D01*
X122236132Y-42494178D01*
X122093275Y-42446559D01*
X121998037Y-42351321D01*
X121950418Y-42256083D01*
X121902799Y-42065607D01*
X121902799Y-41922750D01*
X121950418Y-41732274D01*
X121998037Y-41637036D01*
X122093275Y-41541798D01*
X122236132Y-41494178D01*
X122331370Y-41494178D01*
X122474227Y-41541798D01*
X122521846Y-41589417D01*
X123474227Y-42494178D02*
X122902799Y-42494178D01*
X123188513Y-42494178D02*
X123188513Y-41494178D01*
X123093275Y-41637036D01*
X122998037Y-41732274D01*
X122902799Y-41779893D01*
X124093275Y-41494178D02*
X124188513Y-41494178D01*
X124283751Y-41541798D01*
X124331370Y-41589417D01*
X124378989Y-41684655D01*
X124426608Y-41875131D01*
X124426608Y-42113226D01*
X124378989Y-42303702D01*
X124331370Y-42398940D01*
X124283751Y-42446559D01*
X124188513Y-42494178D01*
X124093275Y-42494178D01*
X123998037Y-42446559D01*
X123950418Y-42398940D01*
X123902799Y-42303702D01*
X123855180Y-42113226D01*
X123855180Y-41875131D01*
X123902799Y-41684655D01*
X123950418Y-41589417D01*
X123998037Y-41541798D01*
X124093275Y-41494178D01*
%TO.C,C11*%
X98836326Y-41214664D02*
X98788707Y-41262283D01*
X98645850Y-41309902D01*
X98550612Y-41309902D01*
X98407755Y-41262283D01*
X98312517Y-41167045D01*
X98264898Y-41071807D01*
X98217279Y-40881331D01*
X98217279Y-40738474D01*
X98264898Y-40547998D01*
X98312517Y-40452760D01*
X98407755Y-40357522D01*
X98550612Y-40309902D01*
X98645850Y-40309902D01*
X98788707Y-40357522D01*
X98836326Y-40405141D01*
X99788707Y-41309902D02*
X99217279Y-41309902D01*
X99502993Y-41309902D02*
X99502993Y-40309902D01*
X99407755Y-40452760D01*
X99312517Y-40547998D01*
X99217279Y-40595617D01*
X100741088Y-41309902D02*
X100169660Y-41309902D01*
X100455374Y-41309902D02*
X100455374Y-40309902D01*
X100360136Y-40452760D01*
X100264898Y-40547998D01*
X100169660Y-40595617D01*
%TO.C,C12*%
X77927220Y-50974587D02*
X77974839Y-51022206D01*
X78022458Y-51165063D01*
X78022458Y-51260301D01*
X77974839Y-51403158D01*
X77879601Y-51498396D01*
X77784363Y-51546015D01*
X77593887Y-51593634D01*
X77451030Y-51593634D01*
X77260554Y-51546015D01*
X77165316Y-51498396D01*
X77070078Y-51403158D01*
X77022458Y-51260301D01*
X77022458Y-51165063D01*
X77070078Y-51022206D01*
X77117697Y-50974587D01*
X78022458Y-50022206D02*
X78022458Y-50593634D01*
X78022458Y-50307920D02*
X77022458Y-50307920D01*
X77165316Y-50403158D01*
X77260554Y-50498396D01*
X77308173Y-50593634D01*
X77117697Y-49641253D02*
X77070078Y-49593634D01*
X77022458Y-49498396D01*
X77022458Y-49260301D01*
X77070078Y-49165063D01*
X77117697Y-49117444D01*
X77212935Y-49069825D01*
X77308173Y-49069825D01*
X77451030Y-49117444D01*
X78022458Y-49688872D01*
X78022458Y-49069825D01*
%TO.C,C13*%
X87201272Y-50974587D02*
X87248891Y-51022206D01*
X87296510Y-51165063D01*
X87296510Y-51260301D01*
X87248891Y-51403158D01*
X87153653Y-51498396D01*
X87058415Y-51546015D01*
X86867939Y-51593634D01*
X86725082Y-51593634D01*
X86534606Y-51546015D01*
X86439368Y-51498396D01*
X86344130Y-51403158D01*
X86296510Y-51260301D01*
X86296510Y-51165063D01*
X86344130Y-51022206D01*
X86391749Y-50974587D01*
X87296510Y-50022206D02*
X87296510Y-50593634D01*
X87296510Y-50307920D02*
X86296510Y-50307920D01*
X86439368Y-50403158D01*
X86534606Y-50498396D01*
X86582225Y-50593634D01*
X86296510Y-49688872D02*
X86296510Y-49069825D01*
X86677463Y-49403158D01*
X86677463Y-49260301D01*
X86725082Y-49165063D01*
X86772701Y-49117444D01*
X86867939Y-49069825D01*
X87106034Y-49069825D01*
X87201272Y-49117444D01*
X87248891Y-49165063D01*
X87296510Y-49260301D01*
X87296510Y-49546015D01*
X87248891Y-49641253D01*
X87201272Y-49688872D01*
%TO.C,D1*%
X139598610Y-50191972D02*
X139598610Y-49191972D01*
X139836706Y-49191972D01*
X139979563Y-49239592D01*
X140074801Y-49334830D01*
X140122420Y-49430068D01*
X140170039Y-49620544D01*
X140170039Y-49763401D01*
X140122420Y-49953877D01*
X140074801Y-50049115D01*
X139979563Y-50144353D01*
X139836706Y-50191972D01*
X139598610Y-50191972D01*
X141122420Y-50191972D02*
X140550991Y-50191972D01*
X140836706Y-50191972D02*
X140836706Y-49191972D01*
X140741467Y-49334830D01*
X140646229Y-49430068D01*
X140550991Y-49477687D01*
%TO.C,D2*%
X117689504Y-38941350D02*
X117689504Y-37941350D01*
X117927600Y-37941350D01*
X118070457Y-37988970D01*
X118165695Y-38084208D01*
X118213314Y-38179446D01*
X118260933Y-38369922D01*
X118260933Y-38512779D01*
X118213314Y-38703255D01*
X118165695Y-38798493D01*
X118070457Y-38893731D01*
X117927600Y-38941350D01*
X117689504Y-38941350D01*
X118641885Y-38036589D02*
X118689504Y-37988970D01*
X118784742Y-37941350D01*
X119022838Y-37941350D01*
X119118076Y-37988970D01*
X119165695Y-38036589D01*
X119213314Y-38131827D01*
X119213314Y-38227065D01*
X119165695Y-38369922D01*
X118594266Y-38941350D01*
X119213314Y-38941350D01*
%TO.C,D36*%
X114252624Y-38941350D02*
X114252624Y-37941350D01*
X114490719Y-37941350D01*
X114633576Y-37988970D01*
X114728814Y-38084208D01*
X114776433Y-38179446D01*
X114824052Y-38369922D01*
X114824052Y-38512779D01*
X114776433Y-38703255D01*
X114728814Y-38798493D01*
X114633576Y-38893731D01*
X114490719Y-38941350D01*
X114252624Y-38941350D01*
X115157386Y-37941350D02*
X115776433Y-37941350D01*
X115443100Y-38322303D01*
X115585957Y-38322303D01*
X115681195Y-38369922D01*
X115728814Y-38417541D01*
X115776433Y-38512779D01*
X115776433Y-38750874D01*
X115728814Y-38846112D01*
X115681195Y-38893731D01*
X115585957Y-38941350D01*
X115300243Y-38941350D01*
X115205005Y-38893731D01*
X115157386Y-38846112D01*
X116633576Y-37941350D02*
X116443100Y-37941350D01*
X116347862Y-37988970D01*
X116300243Y-38036589D01*
X116205005Y-38179446D01*
X116157386Y-38369922D01*
X116157386Y-38750874D01*
X116205005Y-38846112D01*
X116252624Y-38893731D01*
X116347862Y-38941350D01*
X116538338Y-38941350D01*
X116633576Y-38893731D01*
X116681195Y-38846112D01*
X116728814Y-38750874D01*
X116728814Y-38512779D01*
X116681195Y-38417541D01*
X116633576Y-38369922D01*
X116538338Y-38322303D01*
X116347862Y-38322303D01*
X116252624Y-38369922D01*
X116205005Y-38417541D01*
X116157386Y-38512779D01*
%TO.C,J2*%
X207118508Y-43559407D02*
X207832794Y-43559407D01*
X207975651Y-43607026D01*
X208070889Y-43702264D01*
X208118508Y-43845121D01*
X208118508Y-43940359D01*
X207213747Y-43130835D02*
X207166128Y-43083216D01*
X207118508Y-42987978D01*
X207118508Y-42749883D01*
X207166128Y-42654645D01*
X207213747Y-42607026D01*
X207308985Y-42559407D01*
X207404223Y-42559407D01*
X207547080Y-42607026D01*
X208118508Y-43178454D01*
X208118508Y-42559407D01*
%TO.C,J3*%
X141779786Y-37941350D02*
X141779786Y-38655636D01*
X141732167Y-38798493D01*
X141636929Y-38893731D01*
X141494072Y-38941350D01*
X141398834Y-38941350D01*
X142160739Y-37941350D02*
X142779786Y-37941350D01*
X142446453Y-38322303D01*
X142589310Y-38322303D01*
X142684548Y-38369922D01*
X142732167Y-38417541D01*
X142779786Y-38512779D01*
X142779786Y-38750874D01*
X142732167Y-38846112D01*
X142684548Y-38893731D01*
X142589310Y-38941350D01*
X142303596Y-38941350D01*
X142208358Y-38893731D01*
X142160739Y-38846112D01*
%TO.C,JP1*%
X72591778Y-45047006D02*
X72591778Y-45761292D01*
X72544159Y-45904149D01*
X72448921Y-45999387D01*
X72306064Y-46047006D01*
X72210826Y-46047006D01*
X73067969Y-46047006D02*
X73067969Y-45047006D01*
X73448921Y-45047006D01*
X73544159Y-45094626D01*
X73591778Y-45142245D01*
X73639397Y-45237483D01*
X73639397Y-45380340D01*
X73591778Y-45475578D01*
X73544159Y-45523197D01*
X73448921Y-45570816D01*
X73067969Y-45570816D01*
X74591778Y-46047006D02*
X74020350Y-46047006D01*
X74306064Y-46047006D02*
X74306064Y-45047006D01*
X74210826Y-45189864D01*
X74115588Y-45285102D01*
X74020350Y-45332721D01*
%TO.C,Q1*%
X139649329Y-41997279D02*
X139554091Y-41949660D01*
X139458853Y-41854421D01*
X139315996Y-41711564D01*
X139220758Y-41663945D01*
X139125520Y-41663945D01*
X139173139Y-41902040D02*
X139077901Y-41854421D01*
X138982663Y-41759183D01*
X138935044Y-41568707D01*
X138935044Y-41235374D01*
X138982663Y-41044898D01*
X139077901Y-40949660D01*
X139173139Y-40902040D01*
X139363615Y-40902040D01*
X139458853Y-40949660D01*
X139554091Y-41044898D01*
X139601710Y-41235374D01*
X139601710Y-41568707D01*
X139554091Y-41759183D01*
X139458853Y-41854421D01*
X139363615Y-41902040D01*
X139173139Y-41902040D01*
X140554091Y-41902040D02*
X139982663Y-41902040D01*
X140268377Y-41902040D02*
X140268377Y-40902040D01*
X140173139Y-41044898D01*
X140077901Y-41140136D01*
X139982663Y-41187755D01*
%TO.C,R2*%
X144934052Y-49906258D02*
X144457862Y-50239592D01*
X144934052Y-50477687D02*
X143934052Y-50477687D01*
X143934052Y-50096734D01*
X143981672Y-50001496D01*
X144029291Y-49953877D01*
X144124529Y-49906258D01*
X144267386Y-49906258D01*
X144362624Y-49953877D01*
X144410243Y-50001496D01*
X144457862Y-50096734D01*
X144457862Y-50477687D01*
X144029291Y-49525306D02*
X143981672Y-49477687D01*
X143934052Y-49382449D01*
X143934052Y-49144353D01*
X143981672Y-49049115D01*
X144029291Y-49001496D01*
X144124529Y-48953877D01*
X144219767Y-48953877D01*
X144362624Y-49001496D01*
X144934052Y-49572925D01*
X144934052Y-48953877D01*
%TO.C,R3*%
X134867706Y-49906258D02*
X134391516Y-50239592D01*
X134867706Y-50477687D02*
X133867706Y-50477687D01*
X133867706Y-50096734D01*
X133915326Y-50001496D01*
X133962945Y-49953877D01*
X134058183Y-49906258D01*
X134201040Y-49906258D01*
X134296278Y-49953877D01*
X134343897Y-50001496D01*
X134391516Y-50096734D01*
X134391516Y-50477687D01*
X133867706Y-49572925D02*
X133867706Y-48953877D01*
X134248659Y-49287211D01*
X134248659Y-49144353D01*
X134296278Y-49049115D01*
X134343897Y-49001496D01*
X134439135Y-48953877D01*
X134677230Y-48953877D01*
X134772468Y-49001496D01*
X134820087Y-49049115D01*
X134867706Y-49144353D01*
X134867706Y-49430068D01*
X134820087Y-49525306D01*
X134772468Y-49572925D01*
%TO.C,R4*%
X150263294Y-37471360D02*
X149787104Y-37804694D01*
X150263294Y-38042789D02*
X149263294Y-38042789D01*
X149263294Y-37661836D01*
X149310914Y-37566598D01*
X149358533Y-37518979D01*
X149453771Y-37471360D01*
X149596628Y-37471360D01*
X149691866Y-37518979D01*
X149739485Y-37566598D01*
X149787104Y-37661836D01*
X149787104Y-38042789D01*
X149596628Y-36614217D02*
X150263294Y-36614217D01*
X149215675Y-36852313D02*
X149929961Y-37090408D01*
X149929961Y-36471360D01*
%TO.C,R5*%
X134867706Y-37471360D02*
X134391516Y-37804694D01*
X134867706Y-38042789D02*
X133867706Y-38042789D01*
X133867706Y-37661836D01*
X133915326Y-37566598D01*
X133962945Y-37518979D01*
X134058183Y-37471360D01*
X134201040Y-37471360D01*
X134296278Y-37518979D01*
X134343897Y-37566598D01*
X134391516Y-37661836D01*
X134391516Y-38042789D01*
X133867706Y-36566598D02*
X133867706Y-37042789D01*
X134343897Y-37090408D01*
X134296278Y-37042789D01*
X134248659Y-36947551D01*
X134248659Y-36709455D01*
X134296278Y-36614217D01*
X134343897Y-36566598D01*
X134439135Y-36518979D01*
X134677230Y-36518979D01*
X134772468Y-36566598D01*
X134820087Y-36614217D01*
X134867706Y-36709455D01*
X134867706Y-36947551D01*
X134820087Y-37042789D01*
X134772468Y-37090408D01*
%TO.C,R6*%
X147302604Y-49906258D02*
X146826414Y-50239592D01*
X147302604Y-50477687D02*
X146302604Y-50477687D01*
X146302604Y-50096734D01*
X146350224Y-50001496D01*
X146397843Y-49953877D01*
X146493081Y-49906258D01*
X146635938Y-49906258D01*
X146731176Y-49953877D01*
X146778795Y-50001496D01*
X146826414Y-50096734D01*
X146826414Y-50477687D01*
X146302604Y-49049115D02*
X146302604Y-49239592D01*
X146350224Y-49334830D01*
X146397843Y-49382449D01*
X146540700Y-49477687D01*
X146731176Y-49525306D01*
X147112128Y-49525306D01*
X147207366Y-49477687D01*
X147254985Y-49430068D01*
X147302604Y-49334830D01*
X147302604Y-49144353D01*
X147254985Y-49049115D01*
X147207366Y-49001496D01*
X147112128Y-48953877D01*
X146874033Y-48953877D01*
X146778795Y-49001496D01*
X146731176Y-49049115D01*
X146683557Y-49144353D01*
X146683557Y-49334830D01*
X146731176Y-49430068D01*
X146778795Y-49477687D01*
X146874033Y-49525306D01*
%TO.C,R7*%
X148486880Y-49906258D02*
X148010690Y-50239592D01*
X148486880Y-50477687D02*
X147486880Y-50477687D01*
X147486880Y-50096734D01*
X147534500Y-50001496D01*
X147582119Y-49953877D01*
X147677357Y-49906258D01*
X147820214Y-49906258D01*
X147915452Y-49953877D01*
X147963071Y-50001496D01*
X148010690Y-50096734D01*
X148010690Y-50477687D01*
X147486880Y-49572925D02*
X147486880Y-48906258D01*
X148486880Y-49334830D01*
%TO.C,R8*%
X122405899Y-43678454D02*
X122072566Y-43202264D01*
X121834470Y-43678454D02*
X121834470Y-42678454D01*
X122215423Y-42678454D01*
X122310661Y-42726074D01*
X122358280Y-42773693D01*
X122405899Y-42868931D01*
X122405899Y-43011788D01*
X122358280Y-43107026D01*
X122310661Y-43154645D01*
X122215423Y-43202264D01*
X121834470Y-43202264D01*
X122977327Y-43107026D02*
X122882089Y-43059407D01*
X122834470Y-43011788D01*
X122786851Y-42916550D01*
X122786851Y-42868931D01*
X122834470Y-42773693D01*
X122882089Y-42726074D01*
X122977327Y-42678454D01*
X123167804Y-42678454D01*
X123263042Y-42726074D01*
X123310661Y-42773693D01*
X123358280Y-42868931D01*
X123358280Y-42916550D01*
X123310661Y-43011788D01*
X123263042Y-43059407D01*
X123167804Y-43107026D01*
X122977327Y-43107026D01*
X122882089Y-43154645D01*
X122834470Y-43202264D01*
X122786851Y-43297502D01*
X122786851Y-43487978D01*
X122834470Y-43583216D01*
X122882089Y-43630835D01*
X122977327Y-43678454D01*
X123167804Y-43678454D01*
X123263042Y-43630835D01*
X123310661Y-43583216D01*
X123358280Y-43487978D01*
X123358280Y-43297502D01*
X123310661Y-43202264D01*
X123263042Y-43154645D01*
X123167804Y-43107026D01*
%TO.C,R9*%
X122405899Y-46047006D02*
X122072566Y-45570816D01*
X121834470Y-46047006D02*
X121834470Y-45047006D01*
X122215423Y-45047006D01*
X122310661Y-45094626D01*
X122358280Y-45142245D01*
X122405899Y-45237483D01*
X122405899Y-45380340D01*
X122358280Y-45475578D01*
X122310661Y-45523197D01*
X122215423Y-45570816D01*
X121834470Y-45570816D01*
X122882089Y-46047006D02*
X123072566Y-46047006D01*
X123167804Y-45999387D01*
X123215423Y-45951768D01*
X123310661Y-45808911D01*
X123358280Y-45618435D01*
X123358280Y-45237483D01*
X123310661Y-45142245D01*
X123263042Y-45094626D01*
X123167804Y-45047006D01*
X122977327Y-45047006D01*
X122882089Y-45094626D01*
X122834470Y-45142245D01*
X122786851Y-45237483D01*
X122786851Y-45475578D01*
X122834470Y-45570816D01*
X122882089Y-45618435D01*
X122977327Y-45666054D01*
X123167804Y-45666054D01*
X123263042Y-45618435D01*
X123310661Y-45570816D01*
X123358280Y-45475578D01*
%TO.C,R12*%
X76246044Y-36171137D02*
X75769854Y-36504470D01*
X76246044Y-36742565D02*
X75246044Y-36742565D01*
X75246044Y-36361613D01*
X75293664Y-36266375D01*
X75341283Y-36218756D01*
X75436521Y-36171137D01*
X75579378Y-36171137D01*
X75674616Y-36218756D01*
X75722235Y-36266375D01*
X75769854Y-36361613D01*
X75769854Y-36742565D01*
X76246044Y-35218756D02*
X76246044Y-35790184D01*
X76246044Y-35504470D02*
X75246044Y-35504470D01*
X75388902Y-35599708D01*
X75484140Y-35694946D01*
X75531759Y-35790184D01*
X75341283Y-34837803D02*
X75293664Y-34790184D01*
X75246044Y-34694946D01*
X75246044Y-34456851D01*
X75293664Y-34361613D01*
X75341283Y-34313994D01*
X75436521Y-34266375D01*
X75531759Y-34266375D01*
X75674616Y-34313994D01*
X76246044Y-34885422D01*
X76246044Y-34266375D01*
%TO.C,R13*%
X75061768Y-36171137D02*
X74585578Y-36504470D01*
X75061768Y-36742565D02*
X74061768Y-36742565D01*
X74061768Y-36361613D01*
X74109388Y-36266375D01*
X74157007Y-36218756D01*
X74252245Y-36171137D01*
X74395102Y-36171137D01*
X74490340Y-36218756D01*
X74537959Y-36266375D01*
X74585578Y-36361613D01*
X74585578Y-36742565D01*
X75061768Y-35218756D02*
X75061768Y-35790184D01*
X75061768Y-35504470D02*
X74061768Y-35504470D01*
X74204626Y-35599708D01*
X74299864Y-35694946D01*
X74347483Y-35790184D01*
X74061768Y-34885422D02*
X74061768Y-34266375D01*
X74442721Y-34599708D01*
X74442721Y-34456851D01*
X74490340Y-34361613D01*
X74537959Y-34313994D01*
X74633197Y-34266375D01*
X74871292Y-34266375D01*
X74966530Y-34313994D01*
X75014149Y-34361613D01*
X75061768Y-34456851D01*
X75061768Y-34742565D01*
X75014149Y-34837803D01*
X74966530Y-34885422D01*
%TO.C,R15*%
X113550738Y-36763275D02*
X113074548Y-37096608D01*
X113550738Y-37334703D02*
X112550738Y-37334703D01*
X112550738Y-36953751D01*
X112598358Y-36858513D01*
X112645977Y-36810894D01*
X112741215Y-36763275D01*
X112884072Y-36763275D01*
X112979310Y-36810894D01*
X113026929Y-36858513D01*
X113074548Y-36953751D01*
X113074548Y-37334703D01*
X113550738Y-35810894D02*
X113550738Y-36382322D01*
X113550738Y-36096608D02*
X112550738Y-36096608D01*
X112693596Y-36191846D01*
X112788834Y-36287084D01*
X112836453Y-36382322D01*
X112550738Y-34906132D02*
X112550738Y-35382322D01*
X113026929Y-35429941D01*
X112979310Y-35382322D01*
X112931691Y-35287084D01*
X112931691Y-35048989D01*
X112979310Y-34953751D01*
X113026929Y-34906132D01*
X113122167Y-34858513D01*
X113360262Y-34858513D01*
X113455500Y-34906132D01*
X113503119Y-34953751D01*
X113550738Y-35048989D01*
X113550738Y-35287084D01*
X113503119Y-35382322D01*
X113455500Y-35429941D01*
%TO.C,SW1*%
X128937026Y-40670145D02*
X129079883Y-40717764D01*
X129317979Y-40717764D01*
X129413217Y-40670145D01*
X129460836Y-40622526D01*
X129508455Y-40527288D01*
X129508455Y-40432050D01*
X129460836Y-40336812D01*
X129413217Y-40289193D01*
X129317979Y-40241574D01*
X129127502Y-40193955D01*
X129032264Y-40146336D01*
X128984645Y-40098717D01*
X128937026Y-40003479D01*
X128937026Y-39908241D01*
X128984645Y-39813003D01*
X129032264Y-39765384D01*
X129127502Y-39717764D01*
X129365598Y-39717764D01*
X129508455Y-39765384D01*
X129841788Y-39717764D02*
X130079883Y-40717764D01*
X130270360Y-40003479D01*
X130460836Y-40717764D01*
X130698931Y-39717764D01*
X131603693Y-40717764D02*
X131032264Y-40717764D01*
X131317979Y-40717764D02*
X131317979Y-39717764D01*
X131222740Y-39860622D01*
X131127502Y-39955860D01*
X131032264Y-40003479D01*
%TO.C,U1*%
X133653421Y-40902040D02*
X133653421Y-41711564D01*
X133701040Y-41806802D01*
X133748659Y-41854421D01*
X133843897Y-41902040D01*
X134034373Y-41902040D01*
X134129611Y-41854421D01*
X134177230Y-41806802D01*
X134224849Y-41711564D01*
X134224849Y-40902040D01*
X135224849Y-41902040D02*
X134653421Y-41902040D01*
X134939135Y-41902040D02*
X134939135Y-40902040D01*
X134843897Y-41044898D01*
X134748659Y-41140136D01*
X134653421Y-41187755D01*
%TO.C,U3*%
X149641147Y-43270592D02*
X149641147Y-44080116D01*
X149688766Y-44175354D01*
X149736385Y-44222973D01*
X149831623Y-44270592D01*
X150022099Y-44270592D01*
X150117337Y-44222973D01*
X150164956Y-44175354D01*
X150212575Y-44080116D01*
X150212575Y-43270592D01*
X150593528Y-43270592D02*
X151212575Y-43270592D01*
X150879242Y-43651545D01*
X151022099Y-43651545D01*
X151117337Y-43699164D01*
X151164956Y-43746783D01*
X151212575Y-43842021D01*
X151212575Y-44080116D01*
X151164956Y-44175354D01*
X151117337Y-44222973D01*
X151022099Y-44270592D01*
X150736385Y-44270592D01*
X150641147Y-44222973D01*
X150593528Y-44175354D01*
%TO.C,U4*%
X107923457Y-38063606D02*
X107923457Y-38873130D01*
X107971076Y-38968368D01*
X108018695Y-39015987D01*
X108113933Y-39063606D01*
X108304409Y-39063606D01*
X108399647Y-39015987D01*
X108447266Y-38968368D01*
X108494885Y-38873130D01*
X108494885Y-38063606D01*
X109399647Y-38396940D02*
X109399647Y-39063606D01*
X109161552Y-38015987D02*
X108923457Y-38730273D01*
X109542504Y-38730273D01*
%TO.C,U5*%
X84505967Y-45047006D02*
X84505967Y-45856530D01*
X84553586Y-45951768D01*
X84601205Y-45999387D01*
X84696443Y-46047006D01*
X84886919Y-46047006D01*
X84982157Y-45999387D01*
X85029776Y-45951768D01*
X85077395Y-45856530D01*
X85077395Y-45047006D01*
X86029776Y-45047006D02*
X85553586Y-45047006D01*
X85505967Y-45523197D01*
X85553586Y-45475578D01*
X85648824Y-45427959D01*
X85886919Y-45427959D01*
X85982157Y-45475578D01*
X86029776Y-45523197D01*
X86077395Y-45618435D01*
X86077395Y-45856530D01*
X86029776Y-45951768D01*
X85982157Y-45999387D01*
X85886919Y-46047006D01*
X85648824Y-46047006D01*
X85553586Y-45999387D01*
X85505967Y-45951768D01*
%TO.C,Y1*%
X84199543Y-52676472D02*
X84199543Y-53152662D01*
X83866210Y-52152662D02*
X84199543Y-52676472D01*
X84532876Y-52152662D01*
X85390019Y-53152662D02*
X84818591Y-53152662D01*
X85104305Y-53152662D02*
X85104305Y-52152662D01*
X85009067Y-52295520D01*
X84913829Y-52390758D01*
X84818591Y-52438377D01*
%TD*%
M02*
