%TF.GenerationSoftware,KiCad,Pcbnew,(5.1.6)-1*%
%TF.CreationDate,2020-07-04T18:05:08+02:00*%
%TF.ProjectId,aW_1,61575f31-2e6b-4696-9361-645f70636258,v1.0*%
%TF.SameCoordinates,Original*%
%TF.FileFunction,Soldermask,Top*%
%TF.FilePolarity,Negative*%
%FSLAX46Y46*%
G04 Gerber Fmt 4.6, Leading zero omitted, Abs format (unit mm)*
G04 Created by KiCad (PCBNEW (5.1.6)-1) date 2020-07-04 18:05:08*
%MOMM*%
%LPD*%
G01*
G04 APERTURE LIST*
%ADD10R,1.500000X1.100000*%
%ADD11C,2.386000*%
%ADD12C,1.000000*%
%ADD13R,1.100000X1.700000*%
%ADD14O,1.100000X1.100000*%
%ADD15R,1.100000X1.100000*%
%ADD16R,0.650000X1.800000*%
%ADD17R,1.100000X1.000000*%
%ADD18R,1.000000X1.300000*%
%ADD19R,1.300000X1.000000*%
%ADD20R,3.500000X1.600000*%
%ADD21R,3.600000X1.100000*%
%ADD22C,0.750000*%
%ADD23R,2.100000X2.280000*%
%ADD24R,1.250000X0.400000*%
%ADD25R,1.250000X0.700000*%
%ADD26R,2.280000X2.100000*%
%ADD27R,0.400000X1.250000*%
%ADD28R,0.700000X1.250000*%
%ADD29R,1.100000X1.600000*%
%ADD30C,0.100000*%
%ADD31R,1.450000X0.700000*%
%ADD32R,1.160000X0.750000*%
%ADD33R,2.070000X0.510000*%
%ADD34R,0.600000X1.300000*%
%ADD35R,1.300000X0.600000*%
%ADD36R,1.200000X2.000000*%
G04 APERTURE END LIST*
%TO.C,R12*%
G36*
G01*
X74847250Y-39475746D02*
X74847250Y-39870746D01*
G75*
G02*
X74674750Y-40043246I-172500J0D01*
G01*
X74329750Y-40043246D01*
G75*
G02*
X74157250Y-39870746I0J172500D01*
G01*
X74157250Y-39475746D01*
G75*
G02*
X74329750Y-39303246I172500J0D01*
G01*
X74674750Y-39303246D01*
G75*
G02*
X74847250Y-39475746I0J-172500D01*
G01*
G37*
G36*
G01*
X73877250Y-39475746D02*
X73877250Y-39870746D01*
G75*
G02*
X73704750Y-40043246I-172500J0D01*
G01*
X73359750Y-40043246D01*
G75*
G02*
X73187250Y-39870746I0J172500D01*
G01*
X73187250Y-39475746D01*
G75*
G02*
X73359750Y-39303246I172500J0D01*
G01*
X73704750Y-39303246D01*
G75*
G02*
X73877250Y-39475746I0J-172500D01*
G01*
G37*
%TD*%
D10*
%TO.C,U6*%
X140844568Y-44768212D03*
X140844568Y-42868212D03*
X138644568Y-43818212D03*
%TD*%
D11*
%TO.C,K33*%
X196792822Y-129241454D03*
X198062822Y-131781454D03*
X191712822Y-129241454D03*
X190442822Y-131781454D03*
%TD*%
%TO.C,R17*%
G36*
G01*
X151898216Y-47671040D02*
X152460716Y-47671040D01*
G75*
G02*
X152704466Y-47914790I0J-243750D01*
G01*
X152704466Y-48402290D01*
G75*
G02*
X152460716Y-48646040I-243750J0D01*
G01*
X151898216Y-48646040D01*
G75*
G02*
X151654466Y-48402290I0J243750D01*
G01*
X151654466Y-47914790D01*
G75*
G02*
X151898216Y-47671040I243750J0D01*
G01*
G37*
G36*
G01*
X151898216Y-46096040D02*
X152460716Y-46096040D01*
G75*
G02*
X152704466Y-46339790I0J-243750D01*
G01*
X152704466Y-46827290D01*
G75*
G02*
X152460716Y-47071040I-243750J0D01*
G01*
X151898216Y-47071040D01*
G75*
G02*
X151654466Y-46827290I0J243750D01*
G01*
X151654466Y-46339790D01*
G75*
G02*
X151898216Y-46096040I243750J0D01*
G01*
G37*
%TD*%
%TO.C,R16*%
G36*
G01*
X151898216Y-44118212D02*
X152460716Y-44118212D01*
G75*
G02*
X152704466Y-44361962I0J-243750D01*
G01*
X152704466Y-44849462D01*
G75*
G02*
X152460716Y-45093212I-243750J0D01*
G01*
X151898216Y-45093212D01*
G75*
G02*
X151654466Y-44849462I0J243750D01*
G01*
X151654466Y-44361962D01*
G75*
G02*
X151898216Y-44118212I243750J0D01*
G01*
G37*
G36*
G01*
X151898216Y-42543212D02*
X152460716Y-42543212D01*
G75*
G02*
X152704466Y-42786962I0J-243750D01*
G01*
X152704466Y-43274462D01*
G75*
G02*
X152460716Y-43518212I-243750J0D01*
G01*
X151898216Y-43518212D01*
G75*
G02*
X151654466Y-43274462I0J243750D01*
G01*
X151654466Y-42786962D01*
G75*
G02*
X151898216Y-42543212I243750J0D01*
G01*
G37*
%TD*%
%TO.C,K3*%
X130473422Y-53447854D03*
X131743422Y-55987854D03*
X125393422Y-53447854D03*
X124123422Y-55987854D03*
%TD*%
%TO.C,K13*%
X187318622Y-72396254D03*
X188588622Y-74936254D03*
X182238622Y-72396254D03*
X180968622Y-74936254D03*
%TD*%
%TO.C,K7*%
X206267022Y-53447854D03*
X207537022Y-55987854D03*
X201187022Y-53447854D03*
X199917022Y-55987854D03*
%TD*%
%TO.C,K12*%
X168370222Y-72396254D03*
X169640222Y-74936254D03*
X163290222Y-72396254D03*
X162020222Y-74936254D03*
%TD*%
%TO.C,K4*%
X149421822Y-53447854D03*
X150691822Y-55987854D03*
X144341822Y-53447854D03*
X143071822Y-55987854D03*
%TD*%
%TO.C,K16*%
X111525022Y-91344654D03*
X112795022Y-93884654D03*
X106445022Y-91344654D03*
X105175022Y-93884654D03*
%TD*%
%TO.C,K17*%
X130473422Y-91344654D03*
X131743422Y-93884654D03*
X125393422Y-91344654D03*
X124123422Y-93884654D03*
%TD*%
%TO.C,K20*%
X187318622Y-91344654D03*
X188588622Y-93884654D03*
X182238622Y-91344654D03*
X180968622Y-93884654D03*
%TD*%
%TO.C,K5*%
X168370222Y-53447854D03*
X169640222Y-55987854D03*
X163290222Y-53447854D03*
X162020222Y-55987854D03*
%TD*%
%TO.C,K11*%
X149421822Y-72396254D03*
X150691822Y-74936254D03*
X144341822Y-72396254D03*
X143071822Y-74936254D03*
%TD*%
%TO.C,K19*%
X168370222Y-91344654D03*
X169640222Y-93884654D03*
X163290222Y-91344654D03*
X162020222Y-93884654D03*
%TD*%
%TO.C,K18*%
X149421822Y-91344654D03*
X150691822Y-93884654D03*
X144341822Y-91344654D03*
X143071822Y-93884654D03*
%TD*%
%TO.C,K6*%
X187318622Y-53447854D03*
X188588622Y-55987854D03*
X182238622Y-53447854D03*
X180968622Y-55987854D03*
%TD*%
%TO.C,K9*%
X111525022Y-72396254D03*
X112795022Y-74936254D03*
X106445022Y-72396254D03*
X105175022Y-74936254D03*
%TD*%
%TO.C,K10*%
X130473422Y-72396254D03*
X131743422Y-74936254D03*
X125393422Y-72396254D03*
X124123422Y-74936254D03*
%TD*%
%TO.C,K2*%
X111525022Y-53447854D03*
X112795022Y-55987854D03*
X106445022Y-53447854D03*
X105175022Y-55987854D03*
%TD*%
%TO.C,K28*%
X92576622Y-129241454D03*
X93846622Y-131781454D03*
X87496622Y-129241454D03*
X86226622Y-131781454D03*
%TD*%
%TO.C,K30*%
X130473422Y-129241454D03*
X131743422Y-131781454D03*
X125393422Y-129241454D03*
X124123422Y-131781454D03*
%TD*%
%TO.C,K23*%
X111525022Y-110293054D03*
X112795022Y-112833054D03*
X106445022Y-110293054D03*
X105175022Y-112833054D03*
%TD*%
%TO.C,K32*%
X168370222Y-129241454D03*
X169640222Y-131781454D03*
X163290222Y-129241454D03*
X162020222Y-131781454D03*
%TD*%
%TO.C,K27*%
X187318622Y-110293054D03*
X188588622Y-112833054D03*
X182238622Y-110293054D03*
X180968622Y-112833054D03*
%TD*%
%TO.C,K25*%
X149421822Y-110293054D03*
X150691822Y-112833054D03*
X144341822Y-110293054D03*
X143071822Y-112833054D03*
%TD*%
%TO.C,K29*%
X111525022Y-129241454D03*
X112795022Y-131781454D03*
X106445022Y-129241454D03*
X105175022Y-131781454D03*
%TD*%
%TO.C,K26*%
X168370222Y-110293054D03*
X169640222Y-112833054D03*
X163290222Y-110293054D03*
X162020222Y-112833054D03*
%TD*%
%TO.C,K24*%
X130473422Y-110293054D03*
X131743422Y-112833054D03*
X125393422Y-110293054D03*
X124123422Y-112833054D03*
%TD*%
%TO.C,K31*%
X149421822Y-129241454D03*
X150691822Y-131781454D03*
X144341822Y-129241454D03*
X143071822Y-131781454D03*
%TD*%
%TO.C,K14*%
X208807022Y-79673354D03*
X206267022Y-78403354D03*
X208807022Y-84753354D03*
X206267022Y-86023354D03*
%TD*%
%TO.C,K8*%
X82759522Y-72396254D03*
X81489522Y-74936254D03*
X87839522Y-72396254D03*
X89109522Y-74936254D03*
%TD*%
%TO.C,K21*%
X208807022Y-108095954D03*
X206267022Y-106825954D03*
X208807022Y-113175954D03*
X206267022Y-114445954D03*
%TD*%
%TO.C,K22*%
X82759522Y-110293054D03*
X81489522Y-112833054D03*
X87839522Y-110293054D03*
X89109522Y-112833054D03*
%TD*%
%TO.C,K1*%
X82759522Y-53447854D03*
X81489522Y-55987854D03*
X87839522Y-53447854D03*
X89109522Y-55987854D03*
%TD*%
%TO.C,K15*%
X82759522Y-91344654D03*
X81489522Y-93884654D03*
X87839522Y-91344654D03*
X89109522Y-93884654D03*
%TD*%
D12*
%TO.C,S1*%
X162398640Y-33159728D03*
X169198640Y-33159728D03*
D13*
X163298640Y-31959728D03*
X165798640Y-31959728D03*
X168298640Y-31959728D03*
X163298640Y-34359728D03*
X165798640Y-34359728D03*
X168298640Y-34359728D03*
%TD*%
D14*
%TO.C,J4*%
X99229942Y-34850418D03*
X99229942Y-36120418D03*
X97959942Y-34850418D03*
X97959942Y-36120418D03*
X96689942Y-34850418D03*
X96689942Y-36120418D03*
X95419942Y-34850418D03*
X95419942Y-36120418D03*
X94149942Y-34850418D03*
D15*
X94149942Y-36120418D03*
%TD*%
D16*
%TO.C,SW2*%
X127550394Y-36712556D03*
D17*
X126925394Y-38762556D03*
X125325394Y-38762556D03*
X125325394Y-34662556D03*
X126925394Y-34662556D03*
%TD*%
%TO.C,R10*%
G36*
G01*
X99339184Y-39475746D02*
X99339184Y-39870746D01*
G75*
G02*
X99166684Y-40043246I-172500J0D01*
G01*
X98821684Y-40043246D01*
G75*
G02*
X98649184Y-39870746I0J172500D01*
G01*
X98649184Y-39475746D01*
G75*
G02*
X98821684Y-39303246I172500J0D01*
G01*
X99166684Y-39303246D01*
G75*
G02*
X99339184Y-39475746I0J-172500D01*
G01*
G37*
G36*
G01*
X100309184Y-39475746D02*
X100309184Y-39870746D01*
G75*
G02*
X100136684Y-40043246I-172500J0D01*
G01*
X99791684Y-40043246D01*
G75*
G02*
X99619184Y-39870746I0J172500D01*
G01*
X99619184Y-39475746D01*
G75*
G02*
X99791684Y-39303246I172500J0D01*
G01*
X100136684Y-39303246D01*
G75*
G02*
X100309184Y-39475746I0J-172500D01*
G01*
G37*
%TD*%
%TO.C,R11*%
G36*
G01*
X103172012Y-48160678D02*
X103172012Y-47765678D01*
G75*
G02*
X103344512Y-47593178I172500J0D01*
G01*
X103689512Y-47593178D01*
G75*
G02*
X103862012Y-47765678I0J-172500D01*
G01*
X103862012Y-48160678D01*
G75*
G02*
X103689512Y-48333178I-172500J0D01*
G01*
X103344512Y-48333178D01*
G75*
G02*
X103172012Y-48160678I0J172500D01*
G01*
G37*
G36*
G01*
X102202012Y-48160678D02*
X102202012Y-47765678D01*
G75*
G02*
X102374512Y-47593178I172500J0D01*
G01*
X102719512Y-47593178D01*
G75*
G02*
X102892012Y-47765678I0J-172500D01*
G01*
X102892012Y-48160678D01*
G75*
G02*
X102719512Y-48333178I-172500J0D01*
G01*
X102374512Y-48333178D01*
G75*
G02*
X102202012Y-48160678I0J172500D01*
G01*
G37*
%TD*%
%TO.C,R14*%
G36*
G01*
X103172012Y-49937092D02*
X103172012Y-49542092D01*
G75*
G02*
X103344512Y-49369592I172500J0D01*
G01*
X103689512Y-49369592D01*
G75*
G02*
X103862012Y-49542092I0J-172500D01*
G01*
X103862012Y-49937092D01*
G75*
G02*
X103689512Y-50109592I-172500J0D01*
G01*
X103344512Y-50109592D01*
G75*
G02*
X103172012Y-49937092I0J172500D01*
G01*
G37*
G36*
G01*
X102202012Y-49937092D02*
X102202012Y-49542092D01*
G75*
G02*
X102374512Y-49369592I172500J0D01*
G01*
X102719512Y-49369592D01*
G75*
G02*
X102892012Y-49542092I0J-172500D01*
G01*
X102892012Y-49937092D01*
G75*
G02*
X102719512Y-50109592I-172500J0D01*
G01*
X102374512Y-50109592D01*
G75*
G02*
X102202012Y-49937092I0J172500D01*
G01*
G37*
%TD*%
D18*
%TO.C,D35*%
X192602822Y-139744568D03*
X195902822Y-139744568D03*
%TD*%
%TO.C,D34*%
X164180222Y-139744568D03*
X167480222Y-139744568D03*
%TD*%
%TO.C,D33*%
X145231822Y-139744568D03*
X148531822Y-139744568D03*
%TD*%
%TO.C,D32*%
X126283422Y-139744568D03*
X129583422Y-139744568D03*
%TD*%
%TO.C,D31*%
X107335022Y-139744568D03*
X110635022Y-139744568D03*
%TD*%
%TO.C,D30*%
X88380272Y-139744568D03*
X91680272Y-139744568D03*
%TD*%
%TO.C,D29*%
X183128622Y-120796152D03*
X186428622Y-120796152D03*
%TD*%
%TO.C,D28*%
X164180222Y-120796152D03*
X167480222Y-120796152D03*
%TD*%
%TO.C,D27*%
X145200224Y-120796152D03*
X148500224Y-120796152D03*
%TD*%
%TO.C,D26*%
X126283422Y-120796152D03*
X129583422Y-120796152D03*
%TD*%
%TO.C,D25*%
X107335022Y-120796152D03*
X110635022Y-120796152D03*
%TD*%
%TO.C,D24*%
X83649522Y-120796152D03*
X86949522Y-120796152D03*
%TD*%
D19*
%TO.C,D23*%
X198366230Y-108985954D03*
X198366230Y-112285954D03*
%TD*%
D18*
%TO.C,D22*%
X183128622Y-101847736D03*
X186428622Y-101847736D03*
%TD*%
%TO.C,D21*%
X164180222Y-101847736D03*
X167480222Y-101847736D03*
%TD*%
%TO.C,D20*%
X145200224Y-101847736D03*
X148500224Y-101847736D03*
%TD*%
%TO.C,D19*%
X126283422Y-101847736D03*
X129583422Y-101847736D03*
%TD*%
%TO.C,D18*%
X107325273Y-101847736D03*
X110625273Y-101847736D03*
%TD*%
%TO.C,D17*%
X83617872Y-101847736D03*
X86917872Y-101847736D03*
%TD*%
D19*
%TO.C,D16*%
X198366230Y-80657182D03*
X198366230Y-83957182D03*
%TD*%
D18*
%TO.C,D15*%
X183128622Y-82899320D03*
X186428622Y-82899320D03*
%TD*%
%TO.C,D14*%
X164148640Y-82899320D03*
X167448640Y-82899320D03*
%TD*%
%TO.C,D13*%
X145200224Y-82899320D03*
X148500224Y-82899320D03*
%TD*%
%TO.C,D12*%
X126251808Y-82899320D03*
X129551808Y-82899320D03*
%TD*%
%TO.C,D11*%
X107303392Y-82899320D03*
X110603392Y-82899320D03*
%TD*%
%TO.C,D10*%
X83617872Y-82899320D03*
X86917872Y-82899320D03*
%TD*%
%TO.C,D9*%
X202077022Y-63950904D03*
X205377022Y-63950904D03*
%TD*%
%TO.C,D8*%
X183128622Y-63950904D03*
X186428622Y-63950904D03*
%TD*%
%TO.C,D7*%
X164180222Y-63950904D03*
X167480222Y-63950904D03*
%TD*%
%TO.C,D6*%
X145231822Y-63950904D03*
X148531822Y-63950904D03*
%TD*%
%TO.C,D5*%
X126251808Y-63950904D03*
X129551808Y-63950904D03*
%TD*%
%TO.C,D4*%
X107335022Y-63950904D03*
X110635022Y-63950904D03*
%TD*%
%TO.C,D3*%
X83649522Y-63950904D03*
X86949522Y-63950904D03*
%TD*%
D20*
%TO.C,BT1*%
X192616230Y-38691798D03*
X192616230Y-45391798D03*
D21*
X198366230Y-41041798D03*
X198366230Y-43041798D03*
%TD*%
%TO.C,C2*%
G36*
G01*
X132357662Y-47671040D02*
X132920162Y-47671040D01*
G75*
G02*
X133163912Y-47914790I0J-243750D01*
G01*
X133163912Y-48402290D01*
G75*
G02*
X132920162Y-48646040I-243750J0D01*
G01*
X132357662Y-48646040D01*
G75*
G02*
X132113912Y-48402290I0J243750D01*
G01*
X132113912Y-47914790D01*
G75*
G02*
X132357662Y-47671040I243750J0D01*
G01*
G37*
G36*
G01*
X132357662Y-46096040D02*
X132920162Y-46096040D01*
G75*
G02*
X133163912Y-46339790I0J-243750D01*
G01*
X133163912Y-46827290D01*
G75*
G02*
X132920162Y-47071040I-243750J0D01*
G01*
X132357662Y-47071040D01*
G75*
G02*
X132113912Y-46827290I0J243750D01*
G01*
X132113912Y-46339790D01*
G75*
G02*
X132357662Y-46096040I243750J0D01*
G01*
G37*
%TD*%
%TO.C,C3*%
G36*
G01*
X136502628Y-47671040D02*
X137065128Y-47671040D01*
G75*
G02*
X137308878Y-47914790I0J-243750D01*
G01*
X137308878Y-48402290D01*
G75*
G02*
X137065128Y-48646040I-243750J0D01*
G01*
X136502628Y-48646040D01*
G75*
G02*
X136258878Y-48402290I0J243750D01*
G01*
X136258878Y-47914790D01*
G75*
G02*
X136502628Y-47671040I243750J0D01*
G01*
G37*
G36*
G01*
X136502628Y-46096040D02*
X137065128Y-46096040D01*
G75*
G02*
X137308878Y-46339790I0J-243750D01*
G01*
X137308878Y-46827290D01*
G75*
G02*
X137065128Y-47071040I-243750J0D01*
G01*
X136502628Y-47071040D01*
G75*
G02*
X136258878Y-46827290I0J243750D01*
G01*
X136258878Y-46339790D01*
G75*
G02*
X136502628Y-46096040I243750J0D01*
G01*
G37*
%TD*%
%TO.C,C4*%
G36*
G01*
X145468448Y-47511040D02*
X145863448Y-47511040D01*
G75*
G02*
X146035948Y-47683540I0J-172500D01*
G01*
X146035948Y-48028540D01*
G75*
G02*
X145863448Y-48201040I-172500J0D01*
G01*
X145468448Y-48201040D01*
G75*
G02*
X145295948Y-48028540I0J172500D01*
G01*
X145295948Y-47683540D01*
G75*
G02*
X145468448Y-47511040I172500J0D01*
G01*
G37*
G36*
G01*
X145468448Y-46541040D02*
X145863448Y-46541040D01*
G75*
G02*
X146035948Y-46713540I0J-172500D01*
G01*
X146035948Y-47058540D01*
G75*
G02*
X145863448Y-47231040I-172500J0D01*
G01*
X145468448Y-47231040D01*
G75*
G02*
X145295948Y-47058540I0J172500D01*
G01*
X145295948Y-46713540D01*
G75*
G02*
X145468448Y-46541040I172500J0D01*
G01*
G37*
%TD*%
%TO.C,C5*%
G36*
G01*
X149021276Y-47511040D02*
X149416276Y-47511040D01*
G75*
G02*
X149588776Y-47683540I0J-172500D01*
G01*
X149588776Y-48028540D01*
G75*
G02*
X149416276Y-48201040I-172500J0D01*
G01*
X149021276Y-48201040D01*
G75*
G02*
X148848776Y-48028540I0J172500D01*
G01*
X148848776Y-47683540D01*
G75*
G02*
X149021276Y-47511040I172500J0D01*
G01*
G37*
G36*
G01*
X149021276Y-46541040D02*
X149416276Y-46541040D01*
G75*
G02*
X149588776Y-46713540I0J-172500D01*
G01*
X149588776Y-47058540D01*
G75*
G02*
X149416276Y-47231040I-172500J0D01*
G01*
X149021276Y-47231040D01*
G75*
G02*
X148848776Y-47058540I0J172500D01*
G01*
X148848776Y-46713540D01*
G75*
G02*
X149021276Y-46541040I172500J0D01*
G01*
G37*
%TD*%
%TO.C,C6*%
G36*
G01*
X115606910Y-44607850D02*
X115606910Y-44212850D01*
G75*
G02*
X115779410Y-44040350I172500J0D01*
G01*
X116124410Y-44040350D01*
G75*
G02*
X116296910Y-44212850I0J-172500D01*
G01*
X116296910Y-44607850D01*
G75*
G02*
X116124410Y-44780350I-172500J0D01*
G01*
X115779410Y-44780350D01*
G75*
G02*
X115606910Y-44607850I0J172500D01*
G01*
G37*
G36*
G01*
X114636910Y-44607850D02*
X114636910Y-44212850D01*
G75*
G02*
X114809410Y-44040350I172500J0D01*
G01*
X115154410Y-44040350D01*
G75*
G02*
X115326910Y-44212850I0J-172500D01*
G01*
X115326910Y-44607850D01*
G75*
G02*
X115154410Y-44780350I-172500J0D01*
G01*
X114809410Y-44780350D01*
G75*
G02*
X114636910Y-44607850I0J172500D01*
G01*
G37*
%TD*%
%TO.C,C7*%
G36*
G01*
X115606910Y-43423574D02*
X115606910Y-43028574D01*
G75*
G02*
X115779410Y-42856074I172500J0D01*
G01*
X116124410Y-42856074D01*
G75*
G02*
X116296910Y-43028574I0J-172500D01*
G01*
X116296910Y-43423574D01*
G75*
G02*
X116124410Y-43596074I-172500J0D01*
G01*
X115779410Y-43596074D01*
G75*
G02*
X115606910Y-43423574I0J172500D01*
G01*
G37*
G36*
G01*
X114636910Y-43423574D02*
X114636910Y-43028574D01*
G75*
G02*
X114809410Y-42856074I172500J0D01*
G01*
X115154410Y-42856074D01*
G75*
G02*
X115326910Y-43028574I0J-172500D01*
G01*
X115326910Y-43423574D01*
G75*
G02*
X115154410Y-43596074I-172500J0D01*
G01*
X114809410Y-43596074D01*
G75*
G02*
X114636910Y-43423574I0J172500D01*
G01*
G37*
%TD*%
%TO.C,C8*%
G36*
G01*
X115606910Y-42239298D02*
X115606910Y-41844298D01*
G75*
G02*
X115779410Y-41671798I172500J0D01*
G01*
X116124410Y-41671798D01*
G75*
G02*
X116296910Y-41844298I0J-172500D01*
G01*
X116296910Y-42239298D01*
G75*
G02*
X116124410Y-42411798I-172500J0D01*
G01*
X115779410Y-42411798D01*
G75*
G02*
X115606910Y-42239298I0J172500D01*
G01*
G37*
G36*
G01*
X114636910Y-42239298D02*
X114636910Y-41844298D01*
G75*
G02*
X114809410Y-41671798I172500J0D01*
G01*
X115154410Y-41671798D01*
G75*
G02*
X115326910Y-41844298I0J-172500D01*
G01*
X115326910Y-42239298D01*
G75*
G02*
X115154410Y-42411798I-172500J0D01*
G01*
X114809410Y-42411798D01*
G75*
G02*
X114636910Y-42239298I0J172500D01*
G01*
G37*
%TD*%
%TO.C,C9*%
G36*
G01*
X120063876Y-44212780D02*
X120063876Y-44607780D01*
G75*
G02*
X119891376Y-44780280I-172500J0D01*
G01*
X119546376Y-44780280D01*
G75*
G02*
X119373876Y-44607780I0J172500D01*
G01*
X119373876Y-44212780D01*
G75*
G02*
X119546376Y-44040280I172500J0D01*
G01*
X119891376Y-44040280D01*
G75*
G02*
X120063876Y-44212780I0J-172500D01*
G01*
G37*
G36*
G01*
X121033876Y-44212780D02*
X121033876Y-44607780D01*
G75*
G02*
X120861376Y-44780280I-172500J0D01*
G01*
X120516376Y-44780280D01*
G75*
G02*
X120343876Y-44607780I0J172500D01*
G01*
X120343876Y-44212780D01*
G75*
G02*
X120516376Y-44040280I172500J0D01*
G01*
X120861376Y-44040280D01*
G75*
G02*
X121033876Y-44212780I0J-172500D01*
G01*
G37*
%TD*%
%TO.C,C10*%
G36*
G01*
X120063876Y-41844232D02*
X120063876Y-42239232D01*
G75*
G02*
X119891376Y-42411732I-172500J0D01*
G01*
X119546376Y-42411732D01*
G75*
G02*
X119373876Y-42239232I0J172500D01*
G01*
X119373876Y-41844232D01*
G75*
G02*
X119546376Y-41671732I172500J0D01*
G01*
X119891376Y-41671732D01*
G75*
G02*
X120063876Y-41844232I0J-172500D01*
G01*
G37*
G36*
G01*
X121033876Y-41844232D02*
X121033876Y-42239232D01*
G75*
G02*
X120861376Y-42411732I-172500J0D01*
G01*
X120516376Y-42411732D01*
G75*
G02*
X120343876Y-42239232I0J172500D01*
G01*
X120343876Y-41844232D01*
G75*
G02*
X120516376Y-41671732I172500J0D01*
G01*
X120861376Y-41671732D01*
G75*
G02*
X121033876Y-41844232I0J-172500D01*
G01*
G37*
%TD*%
%TO.C,C11*%
G36*
G01*
X96218494Y-40576272D02*
X96218494Y-41138772D01*
G75*
G02*
X95974744Y-41382522I-243750J0D01*
G01*
X95487244Y-41382522D01*
G75*
G02*
X95243494Y-41138772I0J243750D01*
G01*
X95243494Y-40576272D01*
G75*
G02*
X95487244Y-40332522I243750J0D01*
G01*
X95974744Y-40332522D01*
G75*
G02*
X96218494Y-40576272I0J-243750D01*
G01*
G37*
G36*
G01*
X97793494Y-40576272D02*
X97793494Y-41138772D01*
G75*
G02*
X97549744Y-41382522I-243750J0D01*
G01*
X97062244Y-41382522D01*
G75*
G02*
X96818494Y-41138772I0J243750D01*
G01*
X96818494Y-40576272D01*
G75*
G02*
X97062244Y-40332522I243750J0D01*
G01*
X97549744Y-40332522D01*
G75*
G02*
X97793494Y-40576272I0J-243750D01*
G01*
G37*
%TD*%
%TO.C,C12*%
G36*
G01*
X79148992Y-50471730D02*
X79543992Y-50471730D01*
G75*
G02*
X79716492Y-50644230I0J-172500D01*
G01*
X79716492Y-50989230D01*
G75*
G02*
X79543992Y-51161730I-172500J0D01*
G01*
X79148992Y-51161730D01*
G75*
G02*
X78976492Y-50989230I0J172500D01*
G01*
X78976492Y-50644230D01*
G75*
G02*
X79148992Y-50471730I172500J0D01*
G01*
G37*
G36*
G01*
X79148992Y-49501730D02*
X79543992Y-49501730D01*
G75*
G02*
X79716492Y-49674230I0J-172500D01*
G01*
X79716492Y-50019230D01*
G75*
G02*
X79543992Y-50191730I-172500J0D01*
G01*
X79148992Y-50191730D01*
G75*
G02*
X78976492Y-50019230I0J172500D01*
G01*
X78976492Y-49674230D01*
G75*
G02*
X79148992Y-49501730I172500J0D01*
G01*
G37*
%TD*%
%TO.C,C13*%
G36*
G01*
X85070372Y-50471730D02*
X85465372Y-50471730D01*
G75*
G02*
X85637872Y-50644230I0J-172500D01*
G01*
X85637872Y-50989230D01*
G75*
G02*
X85465372Y-51161730I-172500J0D01*
G01*
X85070372Y-51161730D01*
G75*
G02*
X84897872Y-50989230I0J172500D01*
G01*
X84897872Y-50644230D01*
G75*
G02*
X85070372Y-50471730I172500J0D01*
G01*
G37*
G36*
G01*
X85070372Y-49501730D02*
X85465372Y-49501730D01*
G75*
G02*
X85637872Y-49674230I0J-172500D01*
G01*
X85637872Y-50019230D01*
G75*
G02*
X85465372Y-50191730I-172500J0D01*
G01*
X85070372Y-50191730D01*
G75*
G02*
X84897872Y-50019230I0J172500D01*
G01*
X84897872Y-49674230D01*
G75*
G02*
X85070372Y-49501730I172500J0D01*
G01*
G37*
%TD*%
D18*
%TO.C,D1*%
X141986706Y-47371040D03*
X138686706Y-47371040D03*
%TD*%
%TO.C,D2*%
G36*
G01*
X118908850Y-35720418D02*
X117946350Y-35720418D01*
G75*
G02*
X117677600Y-35451668I0J268750D01*
G01*
X117677600Y-34914168D01*
G75*
G02*
X117946350Y-34645418I268750J0D01*
G01*
X118908850Y-34645418D01*
G75*
G02*
X119177600Y-34914168I0J-268750D01*
G01*
X119177600Y-35451668D01*
G75*
G02*
X118908850Y-35720418I-268750J0D01*
G01*
G37*
G36*
G01*
X118908850Y-37595418D02*
X117946350Y-37595418D01*
G75*
G02*
X117677600Y-37326668I0J268750D01*
G01*
X117677600Y-36789168D01*
G75*
G02*
X117946350Y-36520418I268750J0D01*
G01*
X118908850Y-36520418D01*
G75*
G02*
X119177600Y-36789168I0J-268750D01*
G01*
X119177600Y-37326668D01*
G75*
G02*
X118908850Y-37595418I-268750J0D01*
G01*
G37*
%TD*%
%TO.C,D36*%
G36*
G01*
X115577798Y-36520418D02*
X116540298Y-36520418D01*
G75*
G02*
X116809048Y-36789168I0J-268750D01*
G01*
X116809048Y-37326668D01*
G75*
G02*
X116540298Y-37595418I-268750J0D01*
G01*
X115577798Y-37595418D01*
G75*
G02*
X115309048Y-37326668I0J268750D01*
G01*
X115309048Y-36789168D01*
G75*
G02*
X115577798Y-36520418I268750J0D01*
G01*
G37*
G36*
G01*
X115577798Y-34645418D02*
X116540298Y-34645418D01*
G75*
G02*
X116809048Y-34914168I0J-268750D01*
G01*
X116809048Y-35451668D01*
G75*
G02*
X116540298Y-35720418I-268750J0D01*
G01*
X115577798Y-35720418D01*
G75*
G02*
X115309048Y-35451668I0J268750D01*
G01*
X115309048Y-34914168D01*
G75*
G02*
X115577798Y-34645418I268750J0D01*
G01*
G37*
%TD*%
D22*
%TO.C,J1*%
X210801128Y-46014352D03*
X210801128Y-40234352D03*
%TD*%
%TO.C,J2*%
X210801128Y-40234352D03*
X210801128Y-46014352D03*
D23*
X214231128Y-38014352D03*
X214231128Y-48234352D03*
X210301128Y-38014352D03*
X210301128Y-48234352D03*
D24*
X209726128Y-42874352D03*
X209726128Y-43374352D03*
X209726128Y-42374352D03*
X209726128Y-43874352D03*
X209726128Y-41874352D03*
X209726128Y-44374352D03*
X209726128Y-41374352D03*
X209726128Y-44874352D03*
D25*
X209726128Y-39924352D03*
X209726128Y-40724352D03*
X209726128Y-45524352D03*
X209726128Y-46324352D03*
%TD*%
D22*
%TO.C,J3*%
X139223120Y-35528280D03*
X145003120Y-35528280D03*
D26*
X137003120Y-32098280D03*
X147223120Y-32098280D03*
X137003120Y-36028280D03*
X147223120Y-36028280D03*
D27*
X141863120Y-36603280D03*
X142363120Y-36603280D03*
X141363120Y-36603280D03*
X142863120Y-36603280D03*
X140863120Y-36603280D03*
X143363120Y-36603280D03*
X140363120Y-36603280D03*
X143863120Y-36603280D03*
D28*
X138913120Y-36603280D03*
X139713120Y-36603280D03*
X144513120Y-36603280D03*
X145313120Y-36603280D03*
%TD*%
D29*
%TO.C,JP1*%
X74017250Y-43226074D03*
D30*
G36*
X75323361Y-42426676D02*
G01*
X75341784Y-42426676D01*
X75346685Y-42426917D01*
X75395516Y-42431727D01*
X75400369Y-42432447D01*
X75448494Y-42442019D01*
X75453255Y-42443211D01*
X75500210Y-42457455D01*
X75504829Y-42459108D01*
X75550162Y-42477885D01*
X75554599Y-42479983D01*
X75597872Y-42503114D01*
X75602079Y-42505636D01*
X75642878Y-42532896D01*
X75646820Y-42535820D01*
X75684749Y-42566948D01*
X75688384Y-42570243D01*
X75723081Y-42604940D01*
X75726376Y-42608575D01*
X75757504Y-42646504D01*
X75760428Y-42650446D01*
X75787688Y-42691245D01*
X75790210Y-42695452D01*
X75813341Y-42738725D01*
X75815439Y-42743162D01*
X75834216Y-42788495D01*
X75835869Y-42793114D01*
X75850113Y-42840069D01*
X75851305Y-42844830D01*
X75860877Y-42892955D01*
X75861597Y-42897808D01*
X75866407Y-42946639D01*
X75866648Y-42951540D01*
X75866648Y-42969963D01*
X75867250Y-42976074D01*
X75867250Y-43476074D01*
X75866648Y-43482185D01*
X75866648Y-43500608D01*
X75866407Y-43505509D01*
X75861597Y-43554340D01*
X75860877Y-43559193D01*
X75851305Y-43607318D01*
X75850113Y-43612079D01*
X75835869Y-43659034D01*
X75834216Y-43663653D01*
X75815439Y-43708986D01*
X75813341Y-43713423D01*
X75790210Y-43756696D01*
X75787688Y-43760903D01*
X75760428Y-43801702D01*
X75757504Y-43805644D01*
X75726376Y-43843573D01*
X75723081Y-43847208D01*
X75688384Y-43881905D01*
X75684749Y-43885200D01*
X75646820Y-43916328D01*
X75642878Y-43919252D01*
X75602079Y-43946512D01*
X75597872Y-43949034D01*
X75554599Y-43972165D01*
X75550162Y-43974263D01*
X75504829Y-43993040D01*
X75500210Y-43994693D01*
X75453255Y-44008937D01*
X75448494Y-44010129D01*
X75400369Y-44019701D01*
X75395516Y-44020421D01*
X75346685Y-44025231D01*
X75341784Y-44025472D01*
X75323361Y-44025472D01*
X75317250Y-44026074D01*
X74767250Y-44026074D01*
X74757495Y-44025113D01*
X74748116Y-44022268D01*
X74739471Y-44017647D01*
X74731895Y-44011429D01*
X74725677Y-44003853D01*
X74721056Y-43995208D01*
X74718211Y-43985829D01*
X74717250Y-43976074D01*
X74717250Y-42476074D01*
X74718211Y-42466319D01*
X74721056Y-42456940D01*
X74725677Y-42448295D01*
X74731895Y-42440719D01*
X74739471Y-42434501D01*
X74748116Y-42429880D01*
X74757495Y-42427035D01*
X74767250Y-42426074D01*
X75317250Y-42426074D01*
X75323361Y-42426676D01*
G37*
G36*
X73277005Y-42427035D02*
G01*
X73286384Y-42429880D01*
X73295029Y-42434501D01*
X73302605Y-42440719D01*
X73308823Y-42448295D01*
X73313444Y-42456940D01*
X73316289Y-42466319D01*
X73317250Y-42476074D01*
X73317250Y-43976074D01*
X73316289Y-43985829D01*
X73313444Y-43995208D01*
X73308823Y-44003853D01*
X73302605Y-44011429D01*
X73295029Y-44017647D01*
X73286384Y-44022268D01*
X73277005Y-44025113D01*
X73267250Y-44026074D01*
X72717250Y-44026074D01*
X72711139Y-44025472D01*
X72692716Y-44025472D01*
X72687815Y-44025231D01*
X72638984Y-44020421D01*
X72634131Y-44019701D01*
X72586006Y-44010129D01*
X72581245Y-44008937D01*
X72534290Y-43994693D01*
X72529671Y-43993040D01*
X72484338Y-43974263D01*
X72479901Y-43972165D01*
X72436628Y-43949034D01*
X72432421Y-43946512D01*
X72391622Y-43919252D01*
X72387680Y-43916328D01*
X72349751Y-43885200D01*
X72346116Y-43881905D01*
X72311419Y-43847208D01*
X72308124Y-43843573D01*
X72276996Y-43805644D01*
X72274072Y-43801702D01*
X72246812Y-43760903D01*
X72244290Y-43756696D01*
X72221159Y-43713423D01*
X72219061Y-43708986D01*
X72200284Y-43663653D01*
X72198631Y-43659034D01*
X72184387Y-43612079D01*
X72183195Y-43607318D01*
X72173623Y-43559193D01*
X72172903Y-43554340D01*
X72168093Y-43505509D01*
X72167852Y-43500608D01*
X72167852Y-43482185D01*
X72167250Y-43476074D01*
X72167250Y-42976074D01*
X72167852Y-42969963D01*
X72167852Y-42951540D01*
X72168093Y-42946639D01*
X72172903Y-42897808D01*
X72173623Y-42892955D01*
X72183195Y-42844830D01*
X72184387Y-42840069D01*
X72198631Y-42793114D01*
X72200284Y-42788495D01*
X72219061Y-42743162D01*
X72221159Y-42738725D01*
X72244290Y-42695452D01*
X72246812Y-42691245D01*
X72274072Y-42650446D01*
X72276996Y-42646504D01*
X72308124Y-42608575D01*
X72311419Y-42604940D01*
X72346116Y-42570243D01*
X72349751Y-42566948D01*
X72387680Y-42535820D01*
X72391622Y-42532896D01*
X72432421Y-42505636D01*
X72436628Y-42503114D01*
X72479901Y-42479983D01*
X72484338Y-42477885D01*
X72529671Y-42459108D01*
X72534290Y-42457455D01*
X72581245Y-42443211D01*
X72586006Y-42442019D01*
X72634131Y-42432447D01*
X72638984Y-42431727D01*
X72687815Y-42426917D01*
X72692716Y-42426676D01*
X72711139Y-42426676D01*
X72717250Y-42426074D01*
X73267250Y-42426074D01*
X73277005Y-42427035D01*
G37*
%TD*%
%TO.C,R2*%
G36*
G01*
X144284172Y-47511040D02*
X144679172Y-47511040D01*
G75*
G02*
X144851672Y-47683540I0J-172500D01*
G01*
X144851672Y-48028540D01*
G75*
G02*
X144679172Y-48201040I-172500J0D01*
G01*
X144284172Y-48201040D01*
G75*
G02*
X144111672Y-48028540I0J172500D01*
G01*
X144111672Y-47683540D01*
G75*
G02*
X144284172Y-47511040I172500J0D01*
G01*
G37*
G36*
G01*
X144284172Y-46541040D02*
X144679172Y-46541040D01*
G75*
G02*
X144851672Y-46713540I0J-172500D01*
G01*
X144851672Y-47058540D01*
G75*
G02*
X144679172Y-47231040I-172500J0D01*
G01*
X144284172Y-47231040D01*
G75*
G02*
X144111672Y-47058540I0J172500D01*
G01*
X144111672Y-46713540D01*
G75*
G02*
X144284172Y-46541040I172500J0D01*
G01*
G37*
%TD*%
%TO.C,R3*%
G36*
G01*
X134612826Y-47231040D02*
X134217826Y-47231040D01*
G75*
G02*
X134045326Y-47058540I0J172500D01*
G01*
X134045326Y-46713540D01*
G75*
G02*
X134217826Y-46541040I172500J0D01*
G01*
X134612826Y-46541040D01*
G75*
G02*
X134785326Y-46713540I0J-172500D01*
G01*
X134785326Y-47058540D01*
G75*
G02*
X134612826Y-47231040I-172500J0D01*
G01*
G37*
G36*
G01*
X134612826Y-48201040D02*
X134217826Y-48201040D01*
G75*
G02*
X134045326Y-48028540I0J172500D01*
G01*
X134045326Y-47683540D01*
G75*
G02*
X134217826Y-47511040I172500J0D01*
G01*
X134612826Y-47511040D01*
G75*
G02*
X134785326Y-47683540I0J-172500D01*
G01*
X134785326Y-48028540D01*
G75*
G02*
X134612826Y-48201040I-172500J0D01*
G01*
G37*
%TD*%
%TO.C,R4*%
G36*
G01*
X149613414Y-35076142D02*
X150008414Y-35076142D01*
G75*
G02*
X150180914Y-35248642I0J-172500D01*
G01*
X150180914Y-35593642D01*
G75*
G02*
X150008414Y-35766142I-172500J0D01*
G01*
X149613414Y-35766142D01*
G75*
G02*
X149440914Y-35593642I0J172500D01*
G01*
X149440914Y-35248642D01*
G75*
G02*
X149613414Y-35076142I172500J0D01*
G01*
G37*
G36*
G01*
X149613414Y-34106142D02*
X150008414Y-34106142D01*
G75*
G02*
X150180914Y-34278642I0J-172500D01*
G01*
X150180914Y-34623642D01*
G75*
G02*
X150008414Y-34796142I-172500J0D01*
G01*
X149613414Y-34796142D01*
G75*
G02*
X149440914Y-34623642I0J172500D01*
G01*
X149440914Y-34278642D01*
G75*
G02*
X149613414Y-34106142I172500J0D01*
G01*
G37*
%TD*%
%TO.C,R5*%
G36*
G01*
X134612826Y-34796142D02*
X134217826Y-34796142D01*
G75*
G02*
X134045326Y-34623642I0J172500D01*
G01*
X134045326Y-34278642D01*
G75*
G02*
X134217826Y-34106142I172500J0D01*
G01*
X134612826Y-34106142D01*
G75*
G02*
X134785326Y-34278642I0J-172500D01*
G01*
X134785326Y-34623642D01*
G75*
G02*
X134612826Y-34796142I-172500J0D01*
G01*
G37*
G36*
G01*
X134612826Y-35766142D02*
X134217826Y-35766142D01*
G75*
G02*
X134045326Y-35593642I0J172500D01*
G01*
X134045326Y-35248642D01*
G75*
G02*
X134217826Y-35076142I172500J0D01*
G01*
X134612826Y-35076142D01*
G75*
G02*
X134785326Y-35248642I0J-172500D01*
G01*
X134785326Y-35593642D01*
G75*
G02*
X134612826Y-35766142I-172500J0D01*
G01*
G37*
%TD*%
%TO.C,R6*%
G36*
G01*
X147047724Y-47231040D02*
X146652724Y-47231040D01*
G75*
G02*
X146480224Y-47058540I0J172500D01*
G01*
X146480224Y-46713540D01*
G75*
G02*
X146652724Y-46541040I172500J0D01*
G01*
X147047724Y-46541040D01*
G75*
G02*
X147220224Y-46713540I0J-172500D01*
G01*
X147220224Y-47058540D01*
G75*
G02*
X147047724Y-47231040I-172500J0D01*
G01*
G37*
G36*
G01*
X147047724Y-48201040D02*
X146652724Y-48201040D01*
G75*
G02*
X146480224Y-48028540I0J172500D01*
G01*
X146480224Y-47683540D01*
G75*
G02*
X146652724Y-47511040I172500J0D01*
G01*
X147047724Y-47511040D01*
G75*
G02*
X147220224Y-47683540I0J-172500D01*
G01*
X147220224Y-48028540D01*
G75*
G02*
X147047724Y-48201040I-172500J0D01*
G01*
G37*
%TD*%
%TO.C,R7*%
G36*
G01*
X147837000Y-47511040D02*
X148232000Y-47511040D01*
G75*
G02*
X148404500Y-47683540I0J-172500D01*
G01*
X148404500Y-48028540D01*
G75*
G02*
X148232000Y-48201040I-172500J0D01*
G01*
X147837000Y-48201040D01*
G75*
G02*
X147664500Y-48028540I0J172500D01*
G01*
X147664500Y-47683540D01*
G75*
G02*
X147837000Y-47511040I172500J0D01*
G01*
G37*
G36*
G01*
X147837000Y-46541040D02*
X148232000Y-46541040D01*
G75*
G02*
X148404500Y-46713540I0J-172500D01*
G01*
X148404500Y-47058540D01*
G75*
G02*
X148232000Y-47231040I-172500J0D01*
G01*
X147837000Y-47231040D01*
G75*
G02*
X147664500Y-47058540I0J172500D01*
G01*
X147664500Y-46713540D01*
G75*
G02*
X147837000Y-46541040I172500J0D01*
G01*
G37*
%TD*%
%TO.C,R8*%
G36*
G01*
X120344014Y-43423574D02*
X120344014Y-43028574D01*
G75*
G02*
X120516514Y-42856074I172500J0D01*
G01*
X120861514Y-42856074D01*
G75*
G02*
X121034014Y-43028574I0J-172500D01*
G01*
X121034014Y-43423574D01*
G75*
G02*
X120861514Y-43596074I-172500J0D01*
G01*
X120516514Y-43596074D01*
G75*
G02*
X120344014Y-43423574I0J172500D01*
G01*
G37*
G36*
G01*
X119374014Y-43423574D02*
X119374014Y-43028574D01*
G75*
G02*
X119546514Y-42856074I172500J0D01*
G01*
X119891514Y-42856074D01*
G75*
G02*
X120064014Y-43028574I0J-172500D01*
G01*
X120064014Y-43423574D01*
G75*
G02*
X119891514Y-43596074I-172500J0D01*
G01*
X119546514Y-43596074D01*
G75*
G02*
X119374014Y-43423574I0J172500D01*
G01*
G37*
%TD*%
%TO.C,R9*%
G36*
G01*
X120344014Y-45792126D02*
X120344014Y-45397126D01*
G75*
G02*
X120516514Y-45224626I172500J0D01*
G01*
X120861514Y-45224626D01*
G75*
G02*
X121034014Y-45397126I0J-172500D01*
G01*
X121034014Y-45792126D01*
G75*
G02*
X120861514Y-45964626I-172500J0D01*
G01*
X120516514Y-45964626D01*
G75*
G02*
X120344014Y-45792126I0J172500D01*
G01*
G37*
G36*
G01*
X119374014Y-45792126D02*
X119374014Y-45397126D01*
G75*
G02*
X119546514Y-45224626I172500J0D01*
G01*
X119891514Y-45224626D01*
G75*
G02*
X120064014Y-45397126I0J-172500D01*
G01*
X120064014Y-45792126D01*
G75*
G02*
X119891514Y-45964626I-172500J0D01*
G01*
X119546514Y-45964626D01*
G75*
G02*
X119374014Y-45792126I0J172500D01*
G01*
G37*
%TD*%
%TO.C,R13*%
G36*
G01*
X73877250Y-40660022D02*
X73877250Y-41055022D01*
G75*
G02*
X73704750Y-41227522I-172500J0D01*
G01*
X73359750Y-41227522D01*
G75*
G02*
X73187250Y-41055022I0J172500D01*
G01*
X73187250Y-40660022D01*
G75*
G02*
X73359750Y-40487522I172500J0D01*
G01*
X73704750Y-40487522D01*
G75*
G02*
X73877250Y-40660022I0J-172500D01*
G01*
G37*
G36*
G01*
X74847250Y-40660022D02*
X74847250Y-41055022D01*
G75*
G02*
X74674750Y-41227522I-172500J0D01*
G01*
X74329750Y-41227522D01*
G75*
G02*
X74157250Y-41055022I0J172500D01*
G01*
X74157250Y-40660022D01*
G75*
G02*
X74329750Y-40487522I172500J0D01*
G01*
X74674750Y-40487522D01*
G75*
G02*
X74847250Y-40660022I0J-172500D01*
G01*
G37*
%TD*%
%TO.C,R15*%
G36*
G01*
X114480134Y-35980418D02*
X114085134Y-35980418D01*
G75*
G02*
X113912634Y-35807918I0J172500D01*
G01*
X113912634Y-35462918D01*
G75*
G02*
X114085134Y-35290418I172500J0D01*
G01*
X114480134Y-35290418D01*
G75*
G02*
X114652634Y-35462918I0J-172500D01*
G01*
X114652634Y-35807918D01*
G75*
G02*
X114480134Y-35980418I-172500J0D01*
G01*
G37*
G36*
G01*
X114480134Y-36950418D02*
X114085134Y-36950418D01*
G75*
G02*
X113912634Y-36777918I0J172500D01*
G01*
X113912634Y-36432918D01*
G75*
G02*
X114085134Y-36260418I172500J0D01*
G01*
X114480134Y-36260418D01*
G75*
G02*
X114652634Y-36432918I0J-172500D01*
G01*
X114652634Y-36777918D01*
G75*
G02*
X114480134Y-36950418I-172500J0D01*
G01*
G37*
%TD*%
D16*
%TO.C,SW1*%
X131695360Y-36712556D03*
D17*
X131070360Y-38762556D03*
X129470360Y-38762556D03*
X129470360Y-34662556D03*
X131070360Y-34662556D03*
%TD*%
D31*
%TO.C,U1*%
X133230326Y-44691924D03*
X133230326Y-42791924D03*
X135600326Y-42791924D03*
X135600326Y-43741924D03*
X135600326Y-44691924D03*
%TD*%
D32*
%TO.C,U3*%
X146342362Y-44768212D03*
X146342362Y-42868212D03*
X148542362Y-42868212D03*
X148542362Y-43818212D03*
X148542362Y-44768212D03*
%TD*%
D33*
%TO.C,U4*%
X111423392Y-40960712D03*
X111423392Y-41595712D03*
X111423392Y-42230712D03*
X111423392Y-42865712D03*
X111423392Y-43500712D03*
X111423392Y-44135712D03*
X111423392Y-44770712D03*
X111423392Y-45405712D03*
X111423392Y-46040712D03*
X111423392Y-46675712D03*
X106483392Y-46675712D03*
X106483392Y-46040712D03*
X106483392Y-45405712D03*
X106483392Y-44770712D03*
X106483392Y-44135712D03*
X106483392Y-43500712D03*
X106483392Y-42865712D03*
X106483392Y-42230712D03*
X106483392Y-41595712D03*
X106483392Y-40960712D03*
%TD*%
D34*
%TO.C,U5*%
X81517872Y-47757522D03*
X85267872Y-47757522D03*
X86017872Y-47757522D03*
X84517872Y-47757522D03*
X83767872Y-47757522D03*
X87517872Y-47757522D03*
X86767872Y-47757522D03*
X88267872Y-47757522D03*
X89017872Y-47757522D03*
X82267872Y-47757522D03*
X83017872Y-47757522D03*
D35*
X80367872Y-39057522D03*
X80367872Y-39807522D03*
X80367872Y-43557522D03*
X80367872Y-44307522D03*
X80367872Y-42807522D03*
X80367872Y-42057522D03*
X80367872Y-45807522D03*
X80367872Y-45057522D03*
X80367872Y-46557522D03*
X80367872Y-47307522D03*
X80367872Y-40557522D03*
X80367872Y-41307522D03*
X90167872Y-43557522D03*
X90167872Y-44307522D03*
X90167872Y-42807522D03*
X90167872Y-42057522D03*
X90167872Y-45807522D03*
X90167872Y-45057522D03*
X90167872Y-46557522D03*
X90167872Y-47307522D03*
X90167872Y-39807522D03*
X90167872Y-39057522D03*
X90167872Y-40557522D03*
X90167872Y-41307522D03*
X90167872Y-37557522D03*
X90167872Y-38307522D03*
X90167872Y-36807522D03*
X90167872Y-36057522D03*
%TD*%
D36*
%TO.C,Y1*%
X83557182Y-50331730D03*
X81057182Y-50331730D03*
%TD*%
M02*
