%TF.GenerationSoftware,KiCad,Pcbnew,(5.1.6)-1*%
%TF.CreationDate,2020-07-04T18:05:08+02:00*%
%TF.ProjectId,aW_1,61575f31-2e6b-4696-9361-645f70636258,v1.0*%
%TF.SameCoordinates,Original*%
%TF.FileFunction,Soldermask,Bot*%
%TF.FilePolarity,Negative*%
%FSLAX46Y46*%
G04 Gerber Fmt 4.6, Leading zero omitted, Abs format (unit mm)*
G04 Created by KiCad (PCBNEW (5.1.6)-1) date 2020-07-04 18:05:08*
%MOMM*%
%LPD*%
G01*
G04 APERTURE LIST*
%ADD10C,2.386000*%
%ADD11C,1.000000*%
%ADD12O,1.100000X1.100000*%
%ADD13R,1.100000X1.100000*%
%ADD14R,1.751000X0.531800*%
%ADD15R,1.000000X1.300000*%
%ADD16R,1.300000X1.000000*%
%ADD17C,0.750000*%
%ADD18R,2.100000X2.280000*%
%ADD19R,1.250000X0.400000*%
%ADD20R,1.250000X0.700000*%
G04 APERTURE END LIST*
D10*
%TO.C,K33*%
X196792822Y-129241454D03*
X198062822Y-131781454D03*
X191712822Y-129241454D03*
X190442822Y-131781454D03*
%TD*%
%TO.C,K3*%
X130473422Y-53447854D03*
X131743422Y-55987854D03*
X125393422Y-53447854D03*
X124123422Y-55987854D03*
%TD*%
%TO.C,K13*%
X187318622Y-72396254D03*
X188588622Y-74936254D03*
X182238622Y-72396254D03*
X180968622Y-74936254D03*
%TD*%
%TO.C,K7*%
X206267022Y-53447854D03*
X207537022Y-55987854D03*
X201187022Y-53447854D03*
X199917022Y-55987854D03*
%TD*%
%TO.C,K12*%
X168370222Y-72396254D03*
X169640222Y-74936254D03*
X163290222Y-72396254D03*
X162020222Y-74936254D03*
%TD*%
%TO.C,K4*%
X149421822Y-53447854D03*
X150691822Y-55987854D03*
X144341822Y-53447854D03*
X143071822Y-55987854D03*
%TD*%
%TO.C,K16*%
X111525022Y-91344654D03*
X112795022Y-93884654D03*
X106445022Y-91344654D03*
X105175022Y-93884654D03*
%TD*%
%TO.C,K17*%
X130473422Y-91344654D03*
X131743422Y-93884654D03*
X125393422Y-91344654D03*
X124123422Y-93884654D03*
%TD*%
%TO.C,K20*%
X187318622Y-91344654D03*
X188588622Y-93884654D03*
X182238622Y-91344654D03*
X180968622Y-93884654D03*
%TD*%
%TO.C,K5*%
X168370222Y-53447854D03*
X169640222Y-55987854D03*
X163290222Y-53447854D03*
X162020222Y-55987854D03*
%TD*%
%TO.C,K11*%
X149421822Y-72396254D03*
X150691822Y-74936254D03*
X144341822Y-72396254D03*
X143071822Y-74936254D03*
%TD*%
%TO.C,K19*%
X168370222Y-91344654D03*
X169640222Y-93884654D03*
X163290222Y-91344654D03*
X162020222Y-93884654D03*
%TD*%
%TO.C,K18*%
X149421822Y-91344654D03*
X150691822Y-93884654D03*
X144341822Y-91344654D03*
X143071822Y-93884654D03*
%TD*%
%TO.C,K6*%
X187318622Y-53447854D03*
X188588622Y-55987854D03*
X182238622Y-53447854D03*
X180968622Y-55987854D03*
%TD*%
%TO.C,K9*%
X111525022Y-72396254D03*
X112795022Y-74936254D03*
X106445022Y-72396254D03*
X105175022Y-74936254D03*
%TD*%
%TO.C,K10*%
X130473422Y-72396254D03*
X131743422Y-74936254D03*
X125393422Y-72396254D03*
X124123422Y-74936254D03*
%TD*%
%TO.C,K2*%
X111525022Y-53447854D03*
X112795022Y-55987854D03*
X106445022Y-53447854D03*
X105175022Y-55987854D03*
%TD*%
%TO.C,K28*%
X92576622Y-129241454D03*
X93846622Y-131781454D03*
X87496622Y-129241454D03*
X86226622Y-131781454D03*
%TD*%
%TO.C,K30*%
X130473422Y-129241454D03*
X131743422Y-131781454D03*
X125393422Y-129241454D03*
X124123422Y-131781454D03*
%TD*%
%TO.C,K23*%
X111525022Y-110293054D03*
X112795022Y-112833054D03*
X106445022Y-110293054D03*
X105175022Y-112833054D03*
%TD*%
%TO.C,K32*%
X168370222Y-129241454D03*
X169640222Y-131781454D03*
X163290222Y-129241454D03*
X162020222Y-131781454D03*
%TD*%
%TO.C,K27*%
X187318622Y-110293054D03*
X188588622Y-112833054D03*
X182238622Y-110293054D03*
X180968622Y-112833054D03*
%TD*%
%TO.C,K25*%
X149421822Y-110293054D03*
X150691822Y-112833054D03*
X144341822Y-110293054D03*
X143071822Y-112833054D03*
%TD*%
%TO.C,K29*%
X111525022Y-129241454D03*
X112795022Y-131781454D03*
X106445022Y-129241454D03*
X105175022Y-131781454D03*
%TD*%
%TO.C,K26*%
X168370222Y-110293054D03*
X169640222Y-112833054D03*
X163290222Y-110293054D03*
X162020222Y-112833054D03*
%TD*%
%TO.C,K24*%
X130473422Y-110293054D03*
X131743422Y-112833054D03*
X125393422Y-110293054D03*
X124123422Y-112833054D03*
%TD*%
%TO.C,K31*%
X149421822Y-129241454D03*
X150691822Y-131781454D03*
X144341822Y-129241454D03*
X143071822Y-131781454D03*
%TD*%
%TO.C,K14*%
X208807022Y-79673354D03*
X206267022Y-78403354D03*
X208807022Y-84753354D03*
X206267022Y-86023354D03*
%TD*%
%TO.C,K8*%
X82759522Y-72396254D03*
X81489522Y-74936254D03*
X87839522Y-72396254D03*
X89109522Y-74936254D03*
%TD*%
%TO.C,K21*%
X208807022Y-108095954D03*
X206267022Y-106825954D03*
X208807022Y-113175954D03*
X206267022Y-114445954D03*
%TD*%
%TO.C,K22*%
X82759522Y-110293054D03*
X81489522Y-112833054D03*
X87839522Y-110293054D03*
X89109522Y-112833054D03*
%TD*%
%TO.C,K1*%
X82759522Y-53447854D03*
X81489522Y-55987854D03*
X87839522Y-53447854D03*
X89109522Y-55987854D03*
%TD*%
%TO.C,K15*%
X82759522Y-91344654D03*
X81489522Y-93884654D03*
X87839522Y-91344654D03*
X89109522Y-93884654D03*
%TD*%
D11*
%TO.C,S1*%
X162398640Y-33159728D03*
X169198640Y-33159728D03*
%TD*%
D12*
%TO.C,J4*%
X99229942Y-34850418D03*
X99229942Y-36120418D03*
X97959942Y-34850418D03*
X97959942Y-36120418D03*
X96689942Y-34850418D03*
X96689942Y-36120418D03*
X95419942Y-34850418D03*
X95419942Y-36120418D03*
X94149942Y-34850418D03*
D13*
X94149942Y-36120418D03*
%TD*%
D14*
%TO.C,U2*%
X112458392Y-47451074D03*
X112458392Y-46801074D03*
X112458392Y-46151074D03*
X112458392Y-45501074D03*
X112458392Y-44851074D03*
X112458392Y-44201074D03*
X112458392Y-43551074D03*
X112458392Y-42901074D03*
X112458392Y-42251074D03*
X112458392Y-41601074D03*
X112458392Y-40951074D03*
X112458392Y-40301074D03*
X112458392Y-39651074D03*
X112458392Y-39001074D03*
X105448392Y-39001074D03*
X105448392Y-39651074D03*
X105448392Y-40301074D03*
X105448392Y-40951074D03*
X105448392Y-41601074D03*
X105448392Y-42251074D03*
X105448392Y-42901074D03*
X105448392Y-43551074D03*
X105448392Y-44201074D03*
X105448392Y-44851074D03*
X105448392Y-45501074D03*
X105448392Y-46151074D03*
X105448392Y-46801074D03*
X105448392Y-47451074D03*
%TD*%
%TO.C,C1*%
G36*
G01*
X102834512Y-43366074D02*
X103229512Y-43366074D01*
G75*
G02*
X103402012Y-43538574I0J-172500D01*
G01*
X103402012Y-43883574D01*
G75*
G02*
X103229512Y-44056074I-172500J0D01*
G01*
X102834512Y-44056074D01*
G75*
G02*
X102662012Y-43883574I0J172500D01*
G01*
X102662012Y-43538574D01*
G75*
G02*
X102834512Y-43366074I172500J0D01*
G01*
G37*
G36*
G01*
X102834512Y-42396074D02*
X103229512Y-42396074D01*
G75*
G02*
X103402012Y-42568574I0J-172500D01*
G01*
X103402012Y-42913574D01*
G75*
G02*
X103229512Y-43086074I-172500J0D01*
G01*
X102834512Y-43086074D01*
G75*
G02*
X102662012Y-42913574I0J172500D01*
G01*
X102662012Y-42568574D01*
G75*
G02*
X102834512Y-42396074I172500J0D01*
G01*
G37*
%TD*%
D15*
%TO.C,D35*%
X192602822Y-139744568D03*
X195902822Y-139744568D03*
%TD*%
%TO.C,D34*%
X164180222Y-139744568D03*
X167480222Y-139744568D03*
%TD*%
%TO.C,D33*%
X145231822Y-139744568D03*
X148531822Y-139744568D03*
%TD*%
%TO.C,D32*%
X126283422Y-139744568D03*
X129583422Y-139744568D03*
%TD*%
%TO.C,D31*%
X107335022Y-139744568D03*
X110635022Y-139744568D03*
%TD*%
%TO.C,D30*%
X88380272Y-139744568D03*
X91680272Y-139744568D03*
%TD*%
%TO.C,D29*%
X183128622Y-120796152D03*
X186428622Y-120796152D03*
%TD*%
%TO.C,D28*%
X164180222Y-120796152D03*
X167480222Y-120796152D03*
%TD*%
%TO.C,D27*%
X145200224Y-120796152D03*
X148500224Y-120796152D03*
%TD*%
%TO.C,D26*%
X126283422Y-120796152D03*
X129583422Y-120796152D03*
%TD*%
%TO.C,D25*%
X107335022Y-120796152D03*
X110635022Y-120796152D03*
%TD*%
%TO.C,D24*%
X83649522Y-120796152D03*
X86949522Y-120796152D03*
%TD*%
D16*
%TO.C,D23*%
X198366230Y-108985954D03*
X198366230Y-112285954D03*
%TD*%
D15*
%TO.C,D22*%
X183128622Y-101847736D03*
X186428622Y-101847736D03*
%TD*%
%TO.C,D21*%
X164180222Y-101847736D03*
X167480222Y-101847736D03*
%TD*%
%TO.C,D20*%
X145200224Y-101847736D03*
X148500224Y-101847736D03*
%TD*%
%TO.C,D19*%
X126283422Y-101847736D03*
X129583422Y-101847736D03*
%TD*%
%TO.C,D18*%
X107325273Y-101847736D03*
X110625273Y-101847736D03*
%TD*%
%TO.C,D17*%
X83617872Y-101847736D03*
X86917872Y-101847736D03*
%TD*%
D16*
%TO.C,D16*%
X198366230Y-80657182D03*
X198366230Y-83957182D03*
%TD*%
D15*
%TO.C,D15*%
X183128622Y-82899320D03*
X186428622Y-82899320D03*
%TD*%
%TO.C,D14*%
X164148640Y-82899320D03*
X167448640Y-82899320D03*
%TD*%
%TO.C,D13*%
X145200224Y-82899320D03*
X148500224Y-82899320D03*
%TD*%
%TO.C,D12*%
X126251808Y-82899320D03*
X129551808Y-82899320D03*
%TD*%
%TO.C,D11*%
X107303392Y-82899320D03*
X110603392Y-82899320D03*
%TD*%
%TO.C,D10*%
X83617872Y-82899320D03*
X86917872Y-82899320D03*
%TD*%
%TO.C,D9*%
X202077022Y-63950904D03*
X205377022Y-63950904D03*
%TD*%
%TO.C,D8*%
X183128622Y-63950904D03*
X186428622Y-63950904D03*
%TD*%
%TO.C,D7*%
X164180222Y-63950904D03*
X167480222Y-63950904D03*
%TD*%
%TO.C,D6*%
X145231822Y-63950904D03*
X148531822Y-63950904D03*
%TD*%
%TO.C,D5*%
X126251808Y-63950904D03*
X129551808Y-63950904D03*
%TD*%
%TO.C,D4*%
X107335022Y-63950904D03*
X110635022Y-63950904D03*
%TD*%
%TO.C,D3*%
X83649522Y-63950904D03*
X86949522Y-63950904D03*
%TD*%
D17*
%TO.C,J1*%
X210801128Y-46014352D03*
X210801128Y-40234352D03*
D18*
X214231128Y-48234352D03*
X214231128Y-38014352D03*
X210301128Y-48234352D03*
X210301128Y-38014352D03*
D19*
X209726128Y-43374352D03*
X209726128Y-42874352D03*
X209726128Y-43874352D03*
X209726128Y-42374352D03*
X209726128Y-44374352D03*
X209726128Y-41874352D03*
X209726128Y-44874352D03*
X209726128Y-41374352D03*
D20*
X209726128Y-46324352D03*
X209726128Y-45524352D03*
X209726128Y-40724352D03*
X209726128Y-39924352D03*
%TD*%
D17*
%TO.C,J2*%
X210801128Y-40234352D03*
X210801128Y-46014352D03*
%TD*%
%TO.C,J3*%
X139223120Y-35528280D03*
X145003120Y-35528280D03*
%TD*%
%TO.C,R1*%
G36*
G01*
X115072272Y-41309660D02*
X114677272Y-41309660D01*
G75*
G02*
X114504772Y-41137160I0J172500D01*
G01*
X114504772Y-40792160D01*
G75*
G02*
X114677272Y-40619660I172500J0D01*
G01*
X115072272Y-40619660D01*
G75*
G02*
X115244772Y-40792160I0J-172500D01*
G01*
X115244772Y-41137160D01*
G75*
G02*
X115072272Y-41309660I-172500J0D01*
G01*
G37*
G36*
G01*
X115072272Y-42279660D02*
X114677272Y-42279660D01*
G75*
G02*
X114504772Y-42107160I0J172500D01*
G01*
X114504772Y-41762160D01*
G75*
G02*
X114677272Y-41589660I172500J0D01*
G01*
X115072272Y-41589660D01*
G75*
G02*
X115244772Y-41762160I0J-172500D01*
G01*
X115244772Y-42107160D01*
G75*
G02*
X115072272Y-42279660I-172500J0D01*
G01*
G37*
%TD*%
M02*
