0
SECTION
2
HEADER
9
$INSUNITS
70
4
9
$ACADVER
1
AC1014
9
$HANDSEED
5
FFFF
0
ENDSEC
0
SECTION
2
TABLES
0
TABLE
2
VPORT
5
8
100
AcDbSymbolTable
0
ENDTAB
0
TABLE
2
LTYPE
5
5
100
AcDbSymbolTable
0
LTYPE
5
14
100
AcDbSymbolTableRecord
100
AcDbLinetypeTableRecord
2
BYBLOCK
70
0
0
LTYPE
5
15
100
AcDbSymbolTableRecord
100
AcDbLinetypeTableRecord
2
BYLAYER
70
0
0
ENDTAB
0
TABLE
2
LAYER
5
2
100
AcDbSymbolTable
70
2
0
LAYER
5
50
100
AcDbSymbolTableRecord
100
AcDbLayerTableRecord
2
0
70
0
6
CONTINUOUS
0
ENDTAB
0
TABLE
2
STYLE
5
3
100
AcDbSymbolTable
70
1
0
STYLE
5
11
100
AcDbSymbolTableRecord
100
AcDbTextStyleTableRecord
2
STANDARD
70
0
0
ENDTAB
0
TABLE
2
VIEW
5
6
100
AcDbSymbolTable
70
0
0
ENDTAB
0
TABLE
2
UCS
5
7
100
AcDbSymbolTable
70
0
0
ENDTAB
0
TABLE
2
APPID
5
9
100
AcDbSymbolTable
70
2
0
APPID
5
12
100
AcDbSymbolTableRecord
100
AcDbRegAppTableRecord
2
ACAD
70
0
0
ENDTAB
0
TABLE
2
DIMSTYLE
5
A
100
AcDbSymbolTable
70
1
0
ENDTAB
0
TABLE
2
BLOCK_RECORD
5
1
100
AcDbSymbolTable
70
1
0
BLOCK_RECORD
5
1F
100
AcDbSymbolTableRecord
100
AcDbBlockTableRecord
2
*MODEL_SPACE
0
BLOCK_RECORD
5
1B
100
AcDbSymbolTableRecord
100
AcDbBlockTableRecord
2
*PAPER_SPACE
0
ENDTAB
0
ENDSEC
0
SECTION
2
BLOCKS
0
BLOCK
5
20
100
AcDbEntity
100
AcDbBlockBegin
2
*MODEL_SPACE
0
ENDBLK
5
21
100
AcDbEntity
100
AcDbBlockEnd
0
BLOCK
5
1C
100
AcDbEntity
100
AcDbBlockBegin
2
*PAPER_SPACE
0
ENDBLK
5
1D
100
AcDbEntity
100
AcDbBlockEnd
0
ENDSEC
0
SECTION
2
ENTITIES
0
LWPOLYLINE
5
100
100
AcDbEntity
8
0
100
AcDbPolyline
90
32
70
1
43
0.0
10
104.33761164215386
20
-4.4696014860590783
10
104.33761164215386
20
0.79279651394100981
10
105.25975164215387
20
0.79279651394100981
10
105.25975164215387
20
2.0687245139406407
10
144.16488486096731
20
2.0687245139409556
10
147.87199164215386
20
5.7758312951275137
10
147.87199164215386
20
22.679596513941078
10
2.5085216421538732
20
22.679596513941078
10
2.5085216421538732
20
5.7758312951275137
10
6.2156284233404158
20
2.0687245139409556
10
92.415731642153844
20
2.0687245139406407
10
92.415731642153844
20
0.79279651394100981
10
93.336471642153867
20
0.79279651394100981
10
93.336471642153867
20
-4.4696014860590783
10
82.121371642153846
20
-4.4696014860590791
10
82.121371642153846
20
-0.25152348605866404
10
68.183111642153861
20
-0.25152348605866404
10
68.183111642153861
20
-4.4696014860590791
10
-1.4914783578461763
20
-4.4696014860590605
42
-0.41421356237309503
10
-6.9914783578461748
20
1.0303985139409377
10
-6.9914783578461757
20
119.82994451394094
10
-6.9916083578461752
20
119.82994451394094
42
-0.41421356237309503
10
-1.4916083578461681
20
125.32994451394096
10
-1.4916083578461681
20
125.32972851394091
10
151.87199164215386
20
125.32972851394091
42
-0.41421356237309503
10
157.37199164215386
20
119.82972851394092
10
157.37199164215386
20
20.59536451394095
10
150.11907164215384
20
20.59536451394095
10
150.11907164215384
20
6.6571045139409613
10
157.37199164215386
20
6.6571045139409613
10
157.37199164215386
20
1.0303985139409202
42
-0.41421356237309503
10
151.87199164215386
20
-4.4696014860590791
0
LWPOLYLINE
5
101
100
AcDbEntity
8
0
100
AcDbPolyline
90
4
70
1
43
0.0
10
121.69002164215371
20
106.75459651394085
10
127.69002164215372
20
106.75459651394085
10
127.69002164215372
20
112.75459651394085
10
121.69002164215371
20
112.75459651394085
0
LWPOLYLINE
5
102
100
AcDbEntity
8
0
100
AcDbPolyline
90
4
70
1
43
0.0
10
130.69002164215368
20
97.754596513940854
10
136.69002164215371
20
97.754596513940854
10
136.69002164215371
20
103.75459651394084
10
130.69002164215368
20
103.75459651394084
0
LWPOLYLINE
5
103
100
AcDbEntity
8
0
100
AcDbPolyline
90
4
70
1
43
0.0
10
85.690021642153766
20
106.75459651394085
10
91.690021642153781
20
106.75459651394085
10
91.690021642153781
20
112.75459651394085
10
85.690021642153766
20
112.75459651394085
0
LWPOLYLINE
5
104
100
AcDbEntity
8
0
100
AcDbPolyline
90
4
70
1
43
0.0
10
4.6900216421538943
20
70.754596513940839
10
10.690021642153908
20
70.754596513940839
10
10.690021642153908
20
76.754596513940839
10
4.6900216421538943
20
76.754596513940839
0
LWPOLYLINE
5
105
100
AcDbEntity
8
0
100
AcDbPolyline
90
4
70
1
43
0.0
10
13.69002164215388
20
79.754596513940839
10
19.690021642153894
20
79.754596513940839
10
19.690021642153894
20
85.754596513940839
10
13.69002164215388
20
85.754596513940839
0
LWPOLYLINE
5
106
100
AcDbEntity
8
0
100
AcDbPolyline
90
4
70
1
43
0.0
10
49.690021642153823
20
106.75459651394085
10
55.690021642153837
20
106.75459651394085
10
55.690021642153837
20
112.75459651394085
10
49.690021642153823
20
112.75459651394085
0
LWPOLYLINE
5
107
100
AcDbEntity
8
0
100
AcDbPolyline
90
4
70
1
43
0.0
10
103.69002164215374
20
25.754596513940822
10
109.69002164215375
20
25.754596513940822
10
109.69002164215375
20
31.754596513940818
10
103.69002164215374
20
31.754596513940818
0
LWPOLYLINE
5
108
100
AcDbEntity
8
0
100
AcDbPolyline
90
4
70
1
43
0.0
10
139.69002164215368
20
25.754596513940822
10
145.69002164215368
20
25.754596513940822
10
145.69002164215368
20
31.754596513940818
10
139.69002164215368
20
31.754596513940818
0
LWPOLYLINE
5
109
100
AcDbEntity
8
0
100
AcDbPolyline
90
4
70
1
43
0.0
10
139.69002164215368
20
43.754596513940825
10
145.69002164215368
20
43.754596513940825
10
145.69002164215368
20
49.754596513940825
10
139.69002164215368
20
49.754596513940825
0
LWPOLYLINE
5
110
100
AcDbEntity
8
0
100
AcDbPolyline
90
4
70
1
43
0.0
10
130.69002164215368
20
43.754596513940825
10
136.69002164215371
20
43.754596513940825
10
136.69002164215371
20
49.754596513940825
10
130.69002164215368
20
49.754596513940825
0
LWPOLYLINE
5
111
100
AcDbEntity
8
0
100
AcDbPolyline
90
4
70
1
43
0.0
10
4.6900216421538943
20
106.75459651394085
10
10.690021642153908
20
106.75459651394085
10
10.690021642153908
20
112.75459651394085
10
4.6900216421538943
20
112.75459651394085
0
LWPOLYLINE
5
112
100
AcDbEntity
8
0
100
AcDbPolyline
90
4
70
1
43
0.0
10
13.69002164215388
20
106.75459651394085
10
19.690021642153894
20
106.75459651394085
10
19.690021642153894
20
112.75459651394085
10
13.69002164215388
20
112.75459651394085
0
LWPOLYLINE
5
113
100
AcDbEntity
8
0
100
AcDbPolyline
90
4
70
1
43
0.0
10
31.690021642153852
20
106.75459651394085
10
37.690021642153866
20
106.75459651394085
10
37.690021642153866
20
112.75459651394085
10
31.690021642153852
20
112.75459651394085
0
LWPOLYLINE
5
114
100
AcDbEntity
8
0
100
AcDbPolyline
90
4
70
1
43
0.0
10
22.690021642153866
20
25.754596513940822
10
28.69002164215388
20
25.754596513940822
10
28.69002164215388
20
31.754596513940818
10
22.690021642153866
20
31.754596513940818
0
LWPOLYLINE
5
115
100
AcDbEntity
8
0
100
AcDbPolyline
90
4
70
1
43
0.0
10
13.69002164215388
20
25.754596513940822
10
19.690021642153894
20
25.754596513940822
10
19.690021642153894
20
31.754596513940818
10
13.69002164215388
20
31.754596513940818
0
LWPOLYLINE
5
116
100
AcDbEntity
8
0
100
AcDbPolyline
90
4
70
1
43
0.0
10
40.690021642153837
20
25.754596513940822
10
46.690021642153852
20
25.754596513940822
10
46.690021642153852
20
31.754596513940818
10
40.690021642153837
20
31.754596513940818
0
LWPOLYLINE
5
117
100
AcDbEntity
8
0
100
AcDbPolyline
90
4
70
1
43
0.0
10
13.69002164215388
20
43.754596513940825
10
19.690021642153894
20
43.754596513940825
10
19.690021642153894
20
49.754596513940825
10
13.69002164215388
20
49.754596513940825
0
LWPOLYLINE
5
118
100
AcDbEntity
8
0
100
AcDbPolyline
90
4
70
1
43
0.0
10
4.6900216421538943
20
43.754596513940825
10
10.690021642153908
20
43.754596513940825
10
10.690021642153908
20
49.754596513940825
10
4.6900216421538943
20
49.754596513940825
0
LWPOLYLINE
5
119
100
AcDbEntity
8
0
100
AcDbPolyline
90
4
70
1
43
0.0
10
130.69002164215368
20
25.754596513940822
10
136.69002164215371
20
25.754596513940822
10
136.69002164215371
20
31.754596513940818
10
130.69002164215368
20
31.754596513940818
0
LWPOLYLINE
5
120
100
AcDbEntity
8
0
100
AcDbPolyline
90
4
70
1
43
0.0
10
4.6900216421538943
20
34.754596513940825
10
10.690021642153908
20
34.754596513940825
10
10.690021642153908
20
40.754596513940825
10
4.6900216421538943
20
40.754596513940825
0
LWPOLYLINE
5
121
100
AcDbEntity
8
0
100
AcDbPolyline
90
4
70
1
43
0.0
10
13.69002164215388
20
97.754596513940854
10
19.690021642153894
20
97.754596513940854
10
19.690021642153894
20
103.75459651394084
10
13.69002164215388
20
103.75459651394084
0
LWPOLYLINE
5
122
100
AcDbEntity
8
0
100
AcDbPolyline
90
4
70
1
43
0.0
10
130.69002164215368
20
106.75459651394085
10
136.69002164215371
20
106.75459651394085
10
136.69002164215371
20
112.75459651394085
10
130.69002164215368
20
112.75459651394085
0
LWPOLYLINE
5
123
100
AcDbEntity
8
0
100
AcDbPolyline
90
4
70
1
43
0.0
10
130.69002164215368
20
34.754596513940825
10
136.69002164215371
20
34.754596513940825
10
136.69002164215371
20
40.754596513940825
10
130.69002164215368
20
40.754596513940825
0
LWPOLYLINE
5
124
100
AcDbEntity
8
0
100
AcDbPolyline
90
4
70
1
43
0.0
10
67.690021642153795
20
25.754596513940822
10
73.690021642153809
20
25.754596513940822
10
73.690021642153809
20
31.754596513940818
10
67.690021642153795
20
31.754596513940818
0
LWPOLYLINE
5
125
100
AcDbEntity
8
0
100
AcDbPolyline
90
4
70
1
43
0.0
10
67.690021642153795
20
106.75459651394085
10
73.690021642153809
20
106.75459651394085
10
73.690021642153809
20
112.75459651394085
10
67.690021642153795
20
112.75459651394085
0
LWPOLYLINE
5
126
100
AcDbEntity
8
0
100
AcDbPolyline
90
4
70
1
43
0.0
10
4.6900216421538943
20
79.754596513940839
10
10.690021642153908
20
79.754596513940839
10
10.690021642153908
20
85.754596513940839
10
4.6900216421538943
20
85.754596513940839
0
LWPOLYLINE
5
127
100
AcDbEntity
8
0
100
AcDbPolyline
90
4
70
1
43
0.0
10
139.69002164215368
20
88.754596513940839
10
145.69002164215368
20
88.754596513940839
10
145.69002164215368
20
94.754596513940839
10
139.69002164215368
20
94.754596513940839
0
LWPOLYLINE
5
128
100
AcDbEntity
8
0
100
AcDbPolyline
90
4
70
1
43
0.0
10
130.69002164215368
20
52.754596513940832
10
136.69002164215371
20
52.754596513940832
10
136.69002164215371
20
58.754596513940825
10
130.69002164215368
20
58.754596513940825
0
LWPOLYLINE
5
129
100
AcDbEntity
8
0
100
AcDbPolyline
90
4
70
1
43
0.0
10
130.69002164215368
20
70.754596513940839
10
136.69002164215371
20
70.754596513940839
10
136.69002164215371
20
76.754596513940839
10
130.69002164215368
20
76.754596513940839
0
LWPOLYLINE
5
130
100
AcDbEntity
8
0
100
AcDbPolyline
90
4
70
1
43
0.0
10
139.69002164215368
20
79.754596513940839
10
145.69002164215368
20
79.754596513940839
10
145.69002164215368
20
85.754596513940839
10
139.69002164215368
20
85.754596513940839
0
LWPOLYLINE
5
131
100
AcDbEntity
8
0
100
AcDbPolyline
90
4
70
1
43
0.0
10
76.690021642153781
20
106.75459651394085
10
82.690021642153795
20
106.75459651394085
10
82.690021642153795
20
112.75459651394085
10
76.690021642153781
20
112.75459651394085
0
LWPOLYLINE
5
132
100
AcDbEntity
8
0
100
AcDbPolyline
90
4
70
1
43
0.0
10
139.69002164215368
20
97.754596513940854
10
145.69002164215368
20
97.754596513940854
10
145.69002164215368
20
103.75459651394084
10
139.69002164215368
20
103.75459651394084
0
LWPOLYLINE
5
133
100
AcDbEntity
8
0
100
AcDbPolyline
90
4
70
1
43
0.0
10
13.69002164215388
20
88.754596513940839
10
19.690021642153894
20
88.754596513940839
10
19.690021642153894
20
94.754596513940839
10
13.69002164215388
20
94.754596513940839
0
LWPOLYLINE
5
134
100
AcDbEntity
8
0
100
AcDbPolyline
90
4
70
1
43
0.0
10
4.6900216421538943
20
88.754596513940839
10
10.690021642153908
20
88.754596513940839
10
10.690021642153908
20
94.754596513940839
10
4.6900216421538943
20
94.754596513940839
0
LWPOLYLINE
5
135
100
AcDbEntity
8
0
100
AcDbPolyline
90
4
70
1
43
0.0
10
40.690021642153837
20
106.75459651394085
10
46.690021642153852
20
106.75459651394085
10
46.690021642153852
20
112.75459651394085
10
40.690021642153837
20
112.75459651394085
0
LWPOLYLINE
5
136
100
AcDbEntity
8
0
100
AcDbPolyline
90
4
70
1
43
0.0
10
13.69002164215388
20
70.754596513940839
10
19.690021642153894
20
70.754596513940839
10
19.690021642153894
20
76.754596513940839
10
13.69002164215388
20
76.754596513940839
0
LWPOLYLINE
5
137
100
AcDbEntity
8
0
100
AcDbPolyline
90
4
70
1
43
0.0
10
139.69002164215368
20
70.754596513940839
10
145.69002164215368
20
70.754596513940839
10
145.69002164215368
20
76.754596513940839
10
139.69002164215368
20
76.754596513940839
0
LWPOLYLINE
5
138
100
AcDbEntity
8
0
100
AcDbPolyline
90
4
70
1
43
0.0
10
76.690021642153781
20
25.754596513940822
10
82.690021642153795
20
25.754596513940822
10
82.690021642153795
20
31.754596513940818
10
76.690021642153781
20
31.754596513940818
0
LWPOLYLINE
5
139
100
AcDbEntity
8
0
100
AcDbPolyline
90
4
70
1
43
0.0
10
58.690021642153809
20
25.754596513940822
10
64.690021642153823
20
25.754596513940822
10
64.690021642153823
20
31.754596513940818
10
58.690021642153809
20
31.754596513940818
0
LWPOLYLINE
5
140
100
AcDbEntity
8
0
100
AcDbPolyline
90
4
70
1
43
0.0
10
94.690021642153752
20
25.754596513940822
10
100.69002164215377
20
25.754596513940822
10
100.69002164215377
20
31.754596513940818
10
94.690021642153752
20
31.754596513940818
0
LWPOLYLINE
5
141
100
AcDbEntity
8
0
100
AcDbPolyline
90
4
70
1
43
0.0
10
22.690021642153866
20
106.75459651394085
10
28.69002164215388
20
106.75459651394085
10
28.69002164215388
20
112.75459651394085
10
22.690021642153866
20
112.75459651394085
0
LWPOLYLINE
5
142
100
AcDbEntity
8
0
100
AcDbPolyline
90
4
70
1
43
0.0
10
4.6900216421538943
20
61.754596513940839
10
10.690021642153908
20
61.754596513940839
10
10.690021642153908
20
67.754596513940839
10
4.6900216421538943
20
67.754596513940839
0
LWPOLYLINE
5
143
100
AcDbEntity
8
0
100
AcDbPolyline
90
4
70
1
43
0.0
10
13.69002164215388
20
34.754596513940825
10
19.690021642153894
20
34.754596513940825
10
19.690021642153894
20
40.754596513940825
10
13.69002164215388
20
40.754596513940825
0
LWPOLYLINE
5
144
100
AcDbEntity
8
0
100
AcDbPolyline
90
4
70
1
43
0.0
10
112.69002164215372
20
25.754596513940822
10
118.69002164215374
20
25.754596513940822
10
118.69002164215374
20
31.754596513940818
10
112.69002164215372
20
31.754596513940818
0
LWPOLYLINE
5
145
100
AcDbEntity
8
0
100
AcDbPolyline
90
4
70
1
43
0.0
10
13.69002164215388
20
61.754596513940839
10
19.690021642153894
20
61.754596513940839
10
19.690021642153894
20
67.754596513940839
10
13.69002164215388
20
67.754596513940839
0
LWPOLYLINE
5
146
100
AcDbEntity
8
0
100
AcDbPolyline
90
4
70
1
43
0.0
10
4.6900216421538943
20
52.754596513940832
10
10.690021642153908
20
52.754596513940832
10
10.690021642153908
20
58.754596513940825
10
4.6900216421538943
20
58.754596513940825
0
LWPOLYLINE
5
147
100
AcDbEntity
8
0
100
AcDbPolyline
90
4
70
1
43
0.0
10
13.69002164215388
20
52.754596513940832
10
19.690021642153894
20
52.754596513940832
10
19.690021642153894
20
58.754596513940825
10
13.69002164215388
20
58.754596513940825
0
LWPOLYLINE
5
148
100
AcDbEntity
8
0
100
AcDbPolyline
90
4
70
1
43
0.0
10
31.690021642153852
20
25.754596513940822
10
37.690021642153866
20
25.754596513940822
10
37.690021642153866
20
31.754596513940818
10
31.690021642153852
20
31.754596513940818
0
LWPOLYLINE
5
149
100
AcDbEntity
8
0
100
AcDbPolyline
90
4
70
1
43
0.0
10
10.690021642153908
20
25.754596513940822
10
10.690021642153908
20
31.754596513940818
10
4.6900216421538943
20
31.754596513940818
10
4.6900216421538943
20
25.754596513940822
0
LWPOLYLINE
5
150
100
AcDbEntity
8
0
100
AcDbPolyline
90
4
70
1
43
0.0
10
121.69002164215371
20
25.754596513940822
10
127.69002164215372
20
25.754596513940822
10
127.69002164215372
20
31.754596513940818
10
121.69002164215371
20
31.754596513940818
0
LWPOLYLINE
5
151
100
AcDbEntity
8
0
100
AcDbPolyline
90
4
70
1
43
0.0
10
4.6900216421538943
20
97.754596513940854
10
10.690021642153908
20
97.754596513940854
10
10.690021642153908
20
103.75459651394084
10
4.6900216421538943
20
103.75459651394084
0
LWPOLYLINE
5
152
100
AcDbEntity
8
0
100
AcDbPolyline
90
4
70
1
43
0.0
10
139.69002164215368
20
106.75459651394085
10
145.69002164215368
20
106.75459651394085
10
145.69002164215368
20
112.75459651394085
10
139.69002164215368
20
112.75459651394085
0
LWPOLYLINE
5
153
100
AcDbEntity
8
0
100
AcDbPolyline
90
4
70
1
43
0.0
10
139.69002164215368
20
34.754596513940825
10
145.69002164215368
20
34.754596513940825
10
145.69002164215368
20
40.754596513940825
10
139.69002164215368
20
40.754596513940825
0
LWPOLYLINE
5
154
100
AcDbEntity
8
0
100
AcDbPolyline
90
4
70
1
43
0.0
10
49.690021642153823
20
25.754596513940822
10
55.690021642153837
20
25.754596513940822
10
55.690021642153837
20
31.754596513940818
10
49.690021642153823
20
31.754596513940818
0
LWPOLYLINE
5
155
100
AcDbEntity
8
0
100
AcDbPolyline
90
4
70
1
43
0.0
10
85.690021642153766
20
25.754596513940822
10
91.690021642153781
20
25.754596513940822
10
91.690021642153781
20
31.754596513940818
10
85.690021642153766
20
31.754596513940818
0
LWPOLYLINE
5
156
100
AcDbEntity
8
0
100
AcDbPolyline
90
4
70
1
43
0.0
10
58.690021642153809
20
106.75459651394085
10
64.690021642153823
20
106.75459651394085
10
64.690021642153823
20
112.75459651394085
10
58.690021642153809
20
112.75459651394085
0
LWPOLYLINE
5
157
100
AcDbEntity
8
0
100
AcDbPolyline
90
4
70
1
43
0.0
10
130.69002164215368
20
88.754596513940839
10
136.69002164215371
20
88.754596513940839
10
136.69002164215371
20
94.754596513940839
10
130.69002164215368
20
94.754596513940839
0
LWPOLYLINE
5
158
100
AcDbEntity
8
0
100
AcDbPolyline
90
4
70
1
43
0.0
10
139.69002164215368
20
52.754596513940832
10
145.69002164215368
20
52.754596513940832
10
145.69002164215368
20
58.754596513940825
10
139.69002164215368
20
58.754596513940825
0
LWPOLYLINE
5
159
100
AcDbEntity
8
0
100
AcDbPolyline
90
4
70
1
43
0.0
10
139.69002164215368
20
61.754596513940839
10
145.69002164215368
20
61.754596513940839
10
145.69002164215368
20
67.754596513940839
10
139.69002164215368
20
67.754596513940839
0
LWPOLYLINE
5
160
100
AcDbEntity
8
0
100
AcDbPolyline
90
4
70
1
43
0.0
10
130.69002164215368
20
61.754596513940839
10
136.69002164215371
20
61.754596513940839
10
136.69002164215371
20
67.754596513940839
10
130.69002164215368
20
67.754596513940839
0
LWPOLYLINE
5
161
100
AcDbEntity
8
0
100
AcDbPolyline
90
4
70
1
43
0.0
10
130.69002164215368
20
79.754596513940839
10
136.69002164215371
20
79.754596513940839
10
136.69002164215371
20
85.754596513940839
10
130.69002164215368
20
85.754596513940839
0
LWPOLYLINE
5
162
100
AcDbEntity
8
0
100
AcDbPolyline
90
4
70
1
43
0.0
10
94.690021642153752
20
106.75459651394085
10
100.69002164215377
20
106.75459651394085
10
100.69002164215377
20
112.75459651394085
10
94.690021642153752
20
112.75459651394085
0
LWPOLYLINE
5
163
100
AcDbEntity
8
0
100
AcDbPolyline
90
4
70
1
43
0.0
10
103.69002164215374
20
106.75459651394085
10
109.69002164215375
20
106.75459651394085
10
109.69002164215375
20
112.75459651394085
10
103.69002164215374
20
112.75459651394085
0
LWPOLYLINE
5
164
100
AcDbEntity
8
0
100
AcDbPolyline
90
4
70
1
43
0.0
10
112.69002164215372
20
106.75459651394085
10
118.69002164215374
20
106.75459651394085
10
118.69002164215374
20
112.75459651394085
10
112.69002164215372
20
112.75459651394085
0
LWPOLYLINE
5
165
100
AcDbEntity
8
0
100
AcDbPolyline
90
6
70
1
43
0.0
10
149.65561973805472
20
5.3696615284518678
10
147.53272862764263
20
3.2467704180398016
10
148.30976070352162
20
0.34684723174873255
10
151.20968388981268
20
-0.43018484413023472
10
153.33257500022478
20
1.6927062662818493
10
152.55554292434579
20
4.5926294525729006
0
LWPOLYLINE
5
166
100
AcDbEntity
8
0
100
AcDbPolyline
90
6
70
1
43
0.0
10
-2.175029640038133
20
4.5926294525729716
10
-2.9520617159171536
20
1.6927062662819381
10
-0.82917060550503408
20
-0.43018484413021696
10
2.070752580786035
20
0.34684723174876808
10
2.84778465666502
20
3.2467704180398549
10
0.72489354625293601
20
5.3696615284519567
0
LWPOLYLINE
5
167
100
AcDbEntity
8
0
100
AcDbPolyline
90
6
70
1
43
0.0
10
148.30885017775816
20
120.51236887966972
10
147.53306224155867
20
117.61211261316831
10
149.6568638777342
20
115.49013241921934
10
152.55645345010916
20
116.26840849177182
10
153.33224138630865
20
119.16866475827325
10
151.20843975013312
20
121.29064495222221
0
LWPOLYLINE
5
168
100
AcDbEntity
8
0
100
AcDbPolyline
90
6
70
1
43
0.0
10
-2.9518146021307601
20
119.16875125840303
10
-2.1760266659313388
20
116.2684949919016
10
0.7235629064436111
20
115.49021891934913
10
2.8473645426191396
20
117.61219911329806
10
2.0715766064197183
20
120.51245537979949
10
-0.82801296595523155
20
121.29073145235196
0
LWPOLYLINE
5
169
100
AcDbEntity
8
0
100
AcDbPolyline
90
4
70
1
43
0.0
10
24.190021627252705
20
61.754596513940697
10
24.190021627252705
20
67.754596513940712
10
22.690021642153866
20
67.754596513940839
10
22.690021642153866
20
61.754596513940839
0
LWPOLYLINE
5
170
100
AcDbEntity
8
0
100
AcDbPolyline
90
6
70
1
43
0.0
10
24.190021627252705
20
100.25544452884205
10
28.69002164215388
20
100.25544452884205
10
28.69002164215388
20
103.75459651394084
10
22.690021642153866
20
103.75459651394084
10
22.690021642153866
20
97.754596513940854
10
24.190021627252705
20
97.754596513940811
0
LWPOLYLINE
5
171
100
AcDbEntity
8
0
100
AcDbPolyline
90
4
70
1
43
0.0
10
58.690021642153809
20
100.25544452884205
10
64.690021642153823
20
100.25544452884205
10
64.690021642153823
20
103.75459651394084
10
58.690021642153809
20
103.75459651394084
0
LWPOLYLINE
5
172
100
AcDbEntity
8
0
100
AcDbPolyline
90
4
70
1
43
0.0
10
94.690021642153752
20
100.25544452884205
10
100.69002164215377
20
100.25544452884205
10
100.69002164215377
20
103.75459651394084
10
94.690021642153752
20
103.75459651394084
0
LWPOLYLINE
5
173
100
AcDbEntity
8
0
100
AcDbPolyline
90
4
70
1
43
0.0
10
126.19049165705502
20
94.754596513940783
10
126.19049165705502
20
88.754596513940783
10
127.69002164215372
20
88.754596513940839
10
127.69002164215372
20
94.754596513940839
0
LWPOLYLINE
5
174
100
AcDbEntity
8
0
100
AcDbPolyline
90
4
70
1
43
0.0
10
126.19049165705502
20
58.754596513940676
10
126.19049165705502
20
52.754596513940662
10
127.69002164215372
20
52.754596513940832
10
127.69002164215372
20
58.754596513940825
0
LWPOLYLINE
5
175
100
AcDbEntity
8
0
100
AcDbPolyline
90
4
70
1
43
0.0
10
109.69002164215375
20
38.254596499039465
10
103.69002164215374
20
38.254596499039465
10
103.69002164215374
20
34.754596513940825
10
109.69002164215375
20
34.754596513940825
0
LWPOLYLINE
5
176
100
AcDbEntity
8
0
100
AcDbPolyline
90
4
70
1
43
0.0
10
73.690021642153809
20
38.254596499039465
10
67.690021642153795
20
38.254596499039465
10
67.690021642153795
20
34.754596513940825
10
73.690021642153809
20
34.754596513940825
0
LWPOLYLINE
5
177
100
AcDbEntity
8
0
100
AcDbPolyline
90
4
70
1
43
0.0
10
37.690021642153866
20
38.254596499039465
10
31.690021642153852
20
38.254596499039465
10
31.690021642153852
20
34.754596513940825
10
37.690021642153866
20
34.754596513940825
0
LWPOLYLINE
5
178
100
AcDbEntity
8
0
100
AcDbPolyline
90
4
70
1
43
0.0
10
46.690021642153852
20
38.254596499039465
10
40.690021642153837
20
38.254596499039465
10
40.690021642153837
20
34.754596513940825
10
46.690021642153852
20
34.754596513940825
0
LWPOLYLINE
5
179
100
AcDbEntity
8
0
100
AcDbPolyline
90
4
70
1
43
0.0
10
82.690021642153795
20
38.254596499039465
10
76.690021642153781
20
38.254596499039465
10
76.690021642153781
20
34.754596513940825
10
82.690021642153795
20
34.754596513940825
0
LWPOLYLINE
5
180
100
AcDbEntity
8
0
100
AcDbPolyline
90
4
70
1
43
0.0
10
118.69002164215374
20
38.254596499039465
10
112.69002164215372
20
38.254596499039465
10
112.69002164215372
20
34.754596513940825
10
118.69002164215374
20
34.754596513940825
0
LWPOLYLINE
5
181
100
AcDbEntity
8
0
100
AcDbPolyline
90
4
70
1
43
0.0
10
126.19049165705502
20
67.754596513940712
10
126.19049165705502
20
61.754596513940697
10
127.69002164215372
20
61.754596513940839
10
127.69002164215372
20
67.754596513940839
0
LWPOLYLINE
5
182
100
AcDbEntity
8
0
100
AcDbPolyline
90
6
70
1
43
0.0
10
126.19049165705502
20
100.25544452884206
10
126.19049165705502
20
97.754596513940811
10
127.69002164215372
20
97.754596513940854
10
127.69002164215372
20
103.75459651394084
10
121.69002164215371
20
103.75459651394084
10
121.69002164215371
20
100.25544452884206
0
LWPOLYLINE
5
183
100
AcDbEntity
8
0
100
AcDbPolyline
90
4
70
1
43
0.0
10
85.690021642153766
20
100.25544452884205
10
91.690021642153781
20
100.25544452884205
10
91.690021642153781
20
103.75459651394084
10
85.690021642153766
20
103.75459651394084
0
LWPOLYLINE
5
184
100
AcDbEntity
8
0
100
AcDbPolyline
90
4
70
1
43
0.0
10
49.690021642153823
20
100.25544452884205
10
55.690021642153837
20
100.25544452884205
10
55.690021642153837
20
103.75459651394084
10
49.690021642153823
20
103.75459651394084
0
LWPOLYLINE
5
185
100
AcDbEntity
8
0
100
AcDbPolyline
90
4
70
1
43
0.0
10
24.190021627252705
20
88.754596513940783
10
24.190021627252705
20
94.754596513940783
10
22.690021642153866
20
94.754596513940839
10
22.690021642153866
20
88.754596513940839
0
LWPOLYLINE
5
186
100
AcDbEntity
8
0
100
AcDbPolyline
90
4
70
1
43
0.0
10
24.190021627252705
20
52.754596513940662
10
24.190021627252705
20
58.754596513940676
10
22.690021642153866
20
58.754596513940825
10
22.690021642153866
20
52.754596513940832
0
LWPOLYLINE
5
187
100
AcDbEntity
8
0
100
AcDbPolyline
90
4
70
1
43
0.0
10
24.190021627252705
20
70.754596513940726
10
24.190021627252705
20
76.75459651394074
10
22.690021642153866
20
76.754596513940839
10
22.690021642153866
20
70.754596513940839
0
LWPOLYLINE
5
188
100
AcDbEntity
8
0
100
AcDbPolyline
90
4
70
1
43
0.0
10
31.690021642153852
20
100.25544452884205
10
37.690021642153866
20
100.25544452884205
10
37.690021642153866
20
103.75459651394084
10
31.690021642153852
20
103.75459651394084
0
LWPOLYLINE
5
189
100
AcDbEntity
8
0
100
AcDbPolyline
90
4
70
1
43
0.0
10
67.690021642153795
20
100.25544452884205
10
73.690021642153809
20
100.25544452884205
10
73.690021642153809
20
103.75459651394084
10
67.690021642153795
20
103.75459651394084
0
LWPOLYLINE
5
190
100
AcDbEntity
8
0
100
AcDbPolyline
90
4
70
1
43
0.0
10
103.69002164215374
20
100.25544452884205
10
109.69002164215375
20
100.25544452884205
10
109.69002164215375
20
103.75459651394084
10
103.69002164215374
20
103.75459651394084
0
LWPOLYLINE
5
191
100
AcDbEntity
8
0
100
AcDbPolyline
90
4
70
1
43
0.0
10
126.19049165705502
20
85.754596513940768
10
126.19049165705502
20
79.754596513940754
10
127.69002164215372
20
79.754596513940839
10
127.69002164215372
20
85.754596513940839
0
LWPOLYLINE
5
192
100
AcDbEntity
8
0
100
AcDbPolyline
90
4
70
1
43
0.0
10
126.19049165705502
20
49.754596513940648
10
126.19049165705502
20
43.754596513940633
10
127.69002164215372
20
43.754596513940825
10
127.69002164215372
20
49.754596513940825
0
LWPOLYLINE
5
193
100
AcDbEntity
8
0
100
AcDbPolyline
90
4
70
1
43
0.0
10
100.69002164215377
20
38.254596499039465
10
94.690021642153752
20
38.254596499039465
10
94.690021642153752
20
34.754596513940825
10
100.69002164215377
20
34.754596513940825
0
LWPOLYLINE
5
194
100
AcDbEntity
8
0
100
AcDbPolyline
90
4
70
1
43
0.0
10
64.690021642153823
20
38.254596499039465
10
58.690021642153809
20
38.254596499039465
10
58.690021642153809
20
34.754596513940825
10
64.690021642153823
20
34.754596513940825
0
LWPOLYLINE
5
195
100
AcDbEntity
8
0
100
AcDbPolyline
90
6
70
1
43
0.0
10
24.190021627252705
20
38.254596499039465
10
24.190021627252705
20
40.75459651394074
10
22.690021642153866
20
40.754596513940825
10
22.690021642153866
20
34.754596513940825
10
28.69002164215388
20
34.754596513940825
10
28.69002164215388
20
38.254596499039465
0
LWPOLYLINE
5
196
100
AcDbEntity
8
0
100
AcDbPolyline
90
4
70
1
43
0.0
10
55.690021642153837
20
38.254596499039465
10
49.690021642153823
20
38.254596499039465
10
49.690021642153823
20
34.754596513940825
10
55.690021642153837
20
34.754596513940825
0
LWPOLYLINE
5
197
100
AcDbEntity
8
0
100
AcDbPolyline
90
4
70
1
43
0.0
10
91.690021642153781
20
38.254596499039465
10
85.690021642153766
20
38.254596499039465
10
85.690021642153766
20
34.754596513940825
10
91.690021642153781
20
34.754596513940825
0
LWPOLYLINE
5
198
100
AcDbEntity
8
0
100
AcDbPolyline
90
6
70
1
43
0.0
10
126.19049165705502
20
38.254596499039465
10
121.69002164215371
20
38.254596499039465
10
121.69002164215371
20
34.754596513940825
10
127.69002164215372
20
34.754596513940825
10
127.69002164215372
20
40.754596513940825
10
126.19049165705502
20
40.754596513940754
0
LWPOLYLINE
5
199
100
AcDbEntity
8
0
100
AcDbPolyline
90
4
70
1
43
0.0
10
126.19049165705502
20
76.75459651394074
10
126.19049165705502
20
70.754596513940726
10
127.69002164215372
20
70.754596513940839
10
127.69002164215372
20
76.754596513940839
0
LWPOLYLINE
5
200
100
AcDbEntity
8
0
100
AcDbPolyline
90
4
70
1
43
0.0
10
112.69002164215372
20
100.25544452884205
10
118.69002164215374
20
100.25544452884206
10
118.69002164215374
20
103.75459651394084
10
112.69002164215372
20
103.75459651394084
0
LWPOLYLINE
5
201
100
AcDbEntity
8
0
100
AcDbPolyline
90
4
70
1
43
0.0
10
76.690021642153781
20
100.25544452884205
10
82.690021642153795
20
100.25544452884205
10
82.690021642153795
20
103.75459651394084
10
76.690021642153781
20
103.75459651394084
0
LWPOLYLINE
5
202
100
AcDbEntity
8
0
100
AcDbPolyline
90
4
70
1
43
0.0
10
40.690021642153837
20
100.25544452884205
10
46.690021642153852
20
100.25544452884205
10
46.690021642153852
20
103.75459651394084
10
40.690021642153837
20
103.75459651394084
0
LWPOLYLINE
5
203
100
AcDbEntity
8
0
100
AcDbPolyline
90
4
70
1
43
0.0
10
24.190021627252705
20
79.754596513940754
10
24.190021627252705
20
85.754596513940768
10
22.690021642153866
20
85.754596513940839
10
22.690021642153866
20
79.754596513940839
0
LWPOLYLINE
5
204
100
AcDbEntity
8
0
100
AcDbPolyline
90
4
70
1
43
0.0
10
24.190021627252705
20
43.754596513940633
10
24.190021627252705
20
49.754596513940648
10
22.690021642153866
20
49.754596513940825
10
22.690021642153866
20
43.754596513940825
0
LWPOLYLINE
5
205
100
AcDbEntity
8
0
100
AcDbPolyline
90
4
70
1
43
0.0
10
25.190021642153866
20
99.255444513940887
10
25.190021642153866
20
39.254596513940626
10
125.19049164215386
20
39.254596513940626
10
125.19049164215386
20
99.255444513940901
0
ENDSEC
0
SECTION
2
OBJECTS
0
DICTIONARY
5
C
100
AcDbDictionary
3
ACAD_GROUP
350
D
3
ACAD_MLINESTYLE
350
17
0
DICTIONARY
5
D
100
AcDbDictionary
0
DICTIONARY
5
1A
330
C
100
AcDbDictionary
0
DICTIONARY
5
17
100
AcDbDictionary
0
ENDSEC
0
EOF
