0
SECTION
2
HEADER
9
$INSUNITS
70
4
9
$ACADVER
1
AC1014
9
$HANDSEED
5
FFFF
0
ENDSEC
0
SECTION
2
TABLES
0
TABLE
2
VPORT
5
8
100
AcDbSymbolTable
0
ENDTAB
0
TABLE
2
LTYPE
5
5
100
AcDbSymbolTable
0
LTYPE
5
14
100
AcDbSymbolTableRecord
100
AcDbLinetypeTableRecord
2
BYBLOCK
70
0
0
LTYPE
5
15
100
AcDbSymbolTableRecord
100
AcDbLinetypeTableRecord
2
BYLAYER
70
0
0
ENDTAB
0
TABLE
2
LAYER
5
2
100
AcDbSymbolTable
70
2
0
LAYER
5
50
100
AcDbSymbolTableRecord
100
AcDbLayerTableRecord
2
0
70
0
6
CONTINUOUS
0
ENDTAB
0
TABLE
2
STYLE
5
3
100
AcDbSymbolTable
70
1
0
STYLE
5
11
100
AcDbSymbolTableRecord
100
AcDbTextStyleTableRecord
2
STANDARD
70
0
0
ENDTAB
0
TABLE
2
VIEW
5
6
100
AcDbSymbolTable
70
0
0
ENDTAB
0
TABLE
2
UCS
5
7
100
AcDbSymbolTable
70
0
0
ENDTAB
0
TABLE
2
APPID
5
9
100
AcDbSymbolTable
70
2
0
APPID
5
12
100
AcDbSymbolTableRecord
100
AcDbRegAppTableRecord
2
ACAD
70
0
0
ENDTAB
0
TABLE
2
DIMSTYLE
5
A
100
AcDbSymbolTable
70
1
0
ENDTAB
0
TABLE
2
BLOCK_RECORD
5
1
100
AcDbSymbolTable
70
1
0
BLOCK_RECORD
5
1F
100
AcDbSymbolTableRecord
100
AcDbBlockTableRecord
2
*MODEL_SPACE
0
BLOCK_RECORD
5
1B
100
AcDbSymbolTableRecord
100
AcDbBlockTableRecord
2
*PAPER_SPACE
0
ENDTAB
0
ENDSEC
0
SECTION
2
BLOCKS
0
BLOCK
5
20
100
AcDbEntity
100
AcDbBlockBegin
2
*MODEL_SPACE
0
ENDBLK
5
21
100
AcDbEntity
100
AcDbBlockEnd
0
BLOCK
5
1C
100
AcDbEntity
100
AcDbBlockBegin
2
*PAPER_SPACE
0
ENDBLK
5
1D
100
AcDbEntity
100
AcDbBlockEnd
0
ENDSEC
0
SECTION
2
ENTITIES
0
LWPOLYLINE
5
100
100
AcDbEntity
8
0
100
AcDbPolyline
90
6
70
1
43
0.0
10
-2.9518146021307601
20
119.16875125840303
10
-2.1760266659313388
20
116.2684949919016
10
0.7235629064436111
20
115.49021891934913
10
2.8473645426191396
20
117.61219911329806
10
2.0715766064197183
20
120.51245537979949
10
-0.82801296595523155
20
121.29073145235196
0
LWPOLYLINE
5
101
100
AcDbEntity
8
0
100
AcDbPolyline
90
6
70
1
43
0.0
10
148.30885017775816
20
120.51236887966972
10
147.53306224155867
20
117.61211261316831
10
149.6568638777342
20
115.49013241921934
10
152.55645345010916
20
116.26840849177182
10
153.33224138630865
20
119.16866475827325
10
151.20843975013312
20
121.29064495222221
0
LWPOLYLINE
5
102
100
AcDbEntity
8
0
100
AcDbPolyline
90
6
70
1
43
0.0
10
-2.175029640038133
20
4.5926294525729716
10
-2.9520617159171536
20
1.6927062662819381
10
-0.82917060550503408
20
-0.43018484413021696
10
2.070752580786035
20
0.34684723174876808
10
2.84778465666502
20
3.2467704180398549
10
0.72489354625293601
20
5.3696615284519567
0
LWPOLYLINE
5
103
100
AcDbEntity
8
0
100
AcDbPolyline
90
6
70
1
43
0.0
10
149.65561973805472
20
5.3696615284518678
10
147.53272862764263
20
3.2467704180398016
10
148.30976070352162
20
0.34684723174873255
10
151.20968388981268
20
-0.43018484413023472
10
153.33257500022478
20
1.6927062662818493
10
152.55554292434579
20
4.5926294525729006
0
LWPOLYLINE
5
104
100
AcDbEntity
8
0
100
AcDbPolyline
90
19
70
1
43
0.0
10
66.954771642153858
20
2.0687245139409605
10
66.954771642153858
20
0.7927965139413361
10
83.349711642153864
20
0.79279651394133621
10
83.349711642153864
20
2.0687245139409605
10
92.415731642153844
20
2.0687245139409605
10
92.415731642153844
20
0.79279651394133621
10
105.25975164215387
20
0.79279651394133621
10
105.25975164215387
20
2.0687245139409605
10
144.16488486096731
20
2.0687245139409556
10
147.62652486096761
20
5.5303645139412794
10
149.07729164215388
20
5.5303645139412749
10
149.07729164215388
20
21.925304513941274
10
147.87199164215386
20
21.925304513941271
10
147.87199164215386
20
114.64383773275438
10
144.16488486096728
20
118.35094451394093
10
6.2156284233404051
20
118.35094451394093
10
2.5085216421538736
20
114.64383773275438
10
2.5085216421538732
20
5.7758312951275137
10
6.2156284233404158
20
2.0687245139409556
0
LWPOLYLINE
5
105
100
AcDbEntity
8
0
100
AcDbPolyline
90
18
70
1
43
0.0
10
-6.9914783578461401
20
119.82994451394094
10
-6.9916083578461397
20
119.82994451394094
42
-0.41421356237309503
10
-1.4916083578461325
20
125.32994451394096
10
-1.4916083578461325
20
125.32972851394091
10
151.87199164215386
20
125.32972851394091
42
-0.41421356237309503
10
157.37199164215386
20
119.82972851394092
10
157.37199164215386
20
20.59536451394095
10
150.11907164215384
20
20.59536451394095
10
150.11907164215384
20
6.6571045139409613
10
157.37199164215386
20
6.6571045139409613
10
157.37199164215386
20
1.0303985139409202
42
-0.41421356237309503
10
151.87199164215386
20
-4.4696014860590836
10
82.121371642153846
20
-4.4696014860590791
10
82.121371642153846
20
-0.25152348605866404
10
68.183111642153861
20
-0.25152348605866404
10
68.183111642153861
20
-4.4696014860590791
10
-1.4914783578461408
20
-4.4696014860590605
42
-0.41421356237309503
10
-6.9914783578461392
20
1.0303985139409377
0
ENDSEC
0
SECTION
2
OBJECTS
0
DICTIONARY
5
C
100
AcDbDictionary
3
ACAD_GROUP
350
D
3
ACAD_MLINESTYLE
350
17
0
DICTIONARY
5
D
100
AcDbDictionary
0
DICTIONARY
5
1A
330
C
100
AcDbDictionary
0
DICTIONARY
5
17
100
AcDbDictionary
0
ENDSEC
0
EOF
